<svg xmlns="http://www.w3.org/2000/svg" xmlns:xlink="http://www.w3.org/1999/xlink" width="96" height="90.424" viewBox="0 0 96 90.424">
  <defs>
    <linearGradient id="linear-gradient" x1="0.5" y1="1" x2="0.5" gradientUnits="objectBoundingBox">
      <stop offset="0" stop-color="gray" stop-opacity="0.251"/>
      <stop offset="0.54" stop-color="gray" stop-opacity="0.122"/>
      <stop offset="1" stop-color="gray" stop-opacity="0.102"/>
    </linearGradient>
    <linearGradient id="linear-gradient-2" x1="0.5" y1="1.001" x2="0.5" y2="0" xlink:href="#linear-gradient"/>
    <radialGradient id="radial-gradient" cx="0.5" cy="0.499" r="0.526" gradientTransform="translate(0.047) scale(0.907 1)" gradientUnits="objectBoundingBox">
      <stop offset="0" stop-color="#fff"/>
      <stop offset="1"/>
    </radialGradient>
    <radialGradient id="radial-gradient-2" cx="0.5" cy="0.499" r="0.526" gradientTransform="matrix(-0.907, 0, 0, 1, 120.921, 0)" xlink:href="#radial-gradient"/>
  </defs>
  <g id="undraw_making_art_759c" transform="translate(0.005 -0.007)">
    <path id="Path_618" data-name="Path 618" d="M199.175,47.814c3.257-2.9,8.37-3.493,13.023-3.262,14.616.726,27.81,7.783,39.229,15.765,4.132,2.889,8.2,6,10.881,9.983,5.463,8.1,3.84,19.321-3.751,25.994a38.83,38.83,0,0,1-8.929,5.554,55.065,55.065,0,0,1-18.368,5.575,60.509,60.509,0,0,1-13.907-.541c-12.855-1.744-25.467-5.6-36.037-12.19C176.679,91.8,172.31,88.2,170.4,83.527s-.688-10.6,4.046-13.373a22.048,22.048,0,0,1,6.591-2.147,43.888,43.888,0,0,0,9.847-2.873c3.144-1.5,6.867-4.4,6.244-7.725C196.458,53.844,195.923,50.713,199.175,47.814Z" transform="translate(-169.54 -44.5)" fill="#fe7700" opacity="0.1"/>
    <path id="Path_619" data-name="Path 619" d="M666.481,130.7s-1.18-.478-4.933,1.242-4.221,1.5-5.193,1.244a3.531,3.531,0,0,1-2.554-1.763s-.735-3.982-1.45-4.6-3.732.352-3.732.352-3.623.831-4.313-4.014c0,0,.49-3.648-.177-4.768a4.84,4.84,0,0,0,3.568-.357,3.771,3.771,0,0,1,4,1.009,7.366,7.366,0,0,1,.5,2.315c-.056.865.3,1.19,1.356.772a1.826,1.826,0,0,0-.216-1.965c-.737-1.224-1.263-2.135-1.058-3.085a3.832,3.832,0,0,1,2.7-2.928c1.9-.659,4.482-.781,5.721-1.3a4.96,4.96,0,0,0,1.544-.853s-.763.764,1.034,4,.651,4.644.651,4.644-.956,2.278-5.175,2.093c0,0-4.065.148-1.849,1.872,0,0,1.419-.289,3.541-.963s3.654,2.11,4.034,4.046A5.1,5.1,0,0,0,666.481,130.7Z" transform="translate(-591.218 -104.468)" fill="#fe7700"/>
    <path id="Path_620" data-name="Path 620" d="M770.062,133.947l.022-.007c.163.618-1.654,3.1-3.207,5.077L766.86,139C769.05,136.221,770.188,134.425,770.062,133.947Z" transform="translate(-700.263 -123.962)" fill="#444053"/>
    <path id="Path_621" data-name="Path 621" d="M731.866,179l.01.025c-1.241,1.577-2.8,3.456-4.05,4.854-.119.133-.238.272-.351.415l-.036-.029c.112-.143.233-.283.352-.416C729.04,182.456,730.624,180.578,731.866,179Z" transform="translate(-665.239 -163.997)" fill="#444053"/>
    <path id="Path_622" data-name="Path 622" d="M704.733,225.89l.025.042c-2.272,2.838-2.423,7.247-2.428,7.282l-.479-.557A16.093,16.093,0,0,1,704.733,225.89Z" transform="translate(-642.502 -205.659)" fill="#444053"/>
    <path id="Path_623" data-name="Path 623" d="M680.022,191.764s-2.676-1.394-4.768-.892-6.8-1.773-6.8-1.773-2-.811-2.4-1.735c0,0-1.37-1.449-1.449-2.2s-1.412-2.634-2.281-2.706" transform="translate(-607.389 -167.072)" fill="none" stroke="#444053" stroke-miterlimit="10" stroke-width="1"/>
    <path id="Path_624" data-name="Path 624" d="M807.87,262.239s-1.349-.91-1.192-1.969" transform="translate(-735.631 -236.206)" fill="none" stroke="#444053" stroke-miterlimit="10" stroke-width="1"/>
    <path id="Path_625" data-name="Path 625" d="M782.028,260.988a3.751,3.751,0,0,1-2.118-3.448" transform="translate(-711.858 -233.78)" fill="none" stroke="#444053" stroke-miterlimit="10" stroke-width="1"/>
    <path id="Path_626" data-name="Path 626" d="M760.19,261.344a4.319,4.319,0,0,1-1.232-4.2" transform="translate(-693.132 -233.425)" fill="none" stroke="#444053" stroke-miterlimit="10" stroke-width="1"/>
    <path id="Path_627" data-name="Path 627" d="M732.729,254.262s-1.227-2.576-.135-4.251" transform="translate(-669.416 -227.09)" fill="none" stroke="#444053" stroke-miterlimit="10" stroke-width="1"/>
    <path id="Path_628" data-name="Path 628" d="M812.162,250.67s-1.395.446-1.1,1.177" transform="translate(-739.503 -227.676)" fill="none" stroke="#444053" stroke-miterlimit="10" stroke-width="1"/>
    <path id="Path_629" data-name="Path 629" d="M790.9,228a3.205,3.205,0,0,0-1.911,3.234" transform="translate(-719.926 -207.534)" fill="none" stroke="#444053" stroke-miterlimit="10" stroke-width="1"/>
    <path id="Path_630" data-name="Path 630" d="M770.163,222.48s-1.7,2.1-1.576,4.005" transform="translate(-701.793 -202.629)" fill="none" stroke="#444053" stroke-miterlimit="10" stroke-width="1"/>
    <path id="Path_631" data-name="Path 631" d="M744.182,229.86s-1.688,1.615-1.473,2.512" transform="translate(-678.788 -209.187)" fill="none" stroke="#444053" stroke-miterlimit="10" stroke-width="1"/>
    <path id="Path_632" data-name="Path 632" d="M732.555,222.866s-1.583.283-1.805-.236" transform="translate(-668.18 -202.763)" fill="none" stroke="#444053" stroke-miterlimit="10" stroke-width="1"/>
    <path id="Path_633" data-name="Path 633" d="M728.49,207.61s.8,1.059,1,.822" transform="translate(-666.172 -189.418)" fill="none" stroke="#444053" stroke-miterlimit="10" stroke-width="1"/>
    <path id="Path_634" data-name="Path 634" d="M760.6,194.314s-3.992.29-4.895-.914" transform="translate(-690.357 -176.792)" fill="none" stroke="#444053" stroke-miterlimit="10" stroke-width="1"/>
    <path id="Path_635" data-name="Path 635" d="M721,159.73s1.872,4.02,3.233,4.531" transform="translate(-659.517 -146.876)" fill="none" stroke="#444053" stroke-miterlimit="10" stroke-width="1"/>
    <path id="Path_636" data-name="Path 636" d="M738.58,142.56s1.15,3.7,2.574,4.851" transform="translate(-675.137 -131.621)" fill="none" stroke="#444053" stroke-miterlimit="10" stroke-width="1"/>
    <path id="Path_637" data-name="Path 637" d="M775.967,174.106s-3.035,1.3-4.857-.016" transform="translate(-704.04 -159.635)" fill="none" stroke="#444053" stroke-miterlimit="10" stroke-width="0.75"/>
    <path id="Path_638" data-name="Path 638" d="M762.82,135.49s.693,2.717,1.628,3.374" transform="translate(-696.674 -125.339)" fill="none" stroke="#444053" stroke-miterlimit="10" stroke-width="0.75"/>
    <path id="Path_639" data-name="Path 639" d="M791.9,146.92s-1.706.647-2.341.152" transform="translate(-720.432 -135.494)" fill="none" stroke="#444053" stroke-miterlimit="10" stroke-width="0.75"/>
    <path id="Path_640" data-name="Path 640" d="M710.244,215.57s0,2.369-.644,2.538" transform="translate(-649.388 -196.49)" fill="none" stroke="#444053" stroke-miterlimit="10" stroke-width="1"/>
    <path id="Path_641" data-name="Path 641" d="M668.09,234.313s2.565.223,3.743-1.1" transform="translate(-612.506 -212.163)" fill="none" stroke="#444053" stroke-miterlimit="10" stroke-width="1"/>
    <path id="Path_642" data-name="Path 642" d="M690.89,190.47s-.62,2.4-2.33,3.051" transform="translate(-630.694 -174.189)" fill="none" stroke="#444053" stroke-miterlimit="10" stroke-width="1"/>
    <path id="Path_643" data-name="Path 643" d="M654.31,212.634a3.355,3.355,0,0,0,3.373-.975" transform="translate(-600.263 -193.016)" fill="none" stroke="#444053" stroke-miterlimit="10" stroke-width="1"/>
    <path id="Path_644" data-name="Path 644" d="M681.17,171.94a5.129,5.129,0,0,1-1.28,3" transform="translate(-622.991 -157.725)" fill="none" stroke="#444053" stroke-miterlimit="10" stroke-width="1"/>
    <path id="Path_645" data-name="Path 645" d="M654.93,188.681s1.5.01,1.857-.481" transform="translate(-600.814 -172.172)" fill="none" stroke="#444053" stroke-miterlimit="10" stroke-width="1"/>
    <ellipse id="Ellipse_141" data-name="Ellipse 141" cx="41.924" cy="8.139" rx="41.924" ry="8.139" transform="translate(5.401 74.152)" fill="#fe7700" opacity="0.1"/>
    <path id="Path_646" data-name="Path 646" d="M430.863,434.5l-.012.434-.754,26.595H428.83l.62-26.595.012-.5Z" transform="translate(-381.02 -385.985)" fill="#504f60"/>
    <path id="Path_647" data-name="Path 647" d="M430.863,434.5l-.012.434-.754,26.595H428.83l.62-26.595.012-.5Z" transform="translate(-381.02 -385.985)" opacity="0.1"/>
    <path id="Path_648" data-name="Path 648" d="M386.937,627l-.948,0-14.1-.03h-.752l.4-1.233h15.3Z" transform="translate(-329.762 -555.956)" fill="#504f60"/>
    <path id="Path_649" data-name="Path 649" d="M435.8,434.5l-.012.434h-1.4l.012-.5Z" transform="translate(-385.96 -385.985)" opacity="0.1"/>
    <rect id="Rectangle_102" data-name="Rectangle 102" width="2.349" height="0.884" transform="translate(48.026 47.861)" fill="#504f60"/>
    <path id="Path_650" data-name="Path 650" d="M372.016,625.73l-.125,1.234h-.752l.4-1.233Z" transform="translate(-329.762 -555.956)" opacity="0.1"/>
    <path id="Path_651" data-name="Path 651" d="M360.5,429.05l-.038.384-3.128,30.845-1.433-.068,3.295-30.777.037-.35Z" transform="translate(-316.222 -381.205)" fill="#504f60"/>
    <path id="Path_652" data-name="Path 652" d="M504.237,627l-.948,0-.129-1.264h.978Z" transform="translate(-447.062 -555.956)" opacity="0.1"/>
    <path id="Path_653" data-name="Path 653" d="M489.619,460.211l-1.434.068-3.126-30.845-.039-.384,1.267.033.037.35Z" transform="translate(-430.945 -381.205)" fill="#504f60"/>
    <rect id="Rectangle_103" data-name="Rectangle 103" width="31.595" height="30.294" transform="translate(33.179 17.433)" fill="#fff"/>
    <rect id="Rectangle_104" data-name="Rectangle 104" width="31.595" height="30.294" transform="translate(33.179 17.433)" fill="#fff"/>
    <path id="Path_654" data-name="Path 654" d="M604.528,104.818v7.314H603.3v-7.314a.617.617,0,1,1,1.232,0Z" transform="translate(-554.936 -97.515)" fill="#504f60"/>
    <rect id="Rectangle_105" data-name="Rectangle 105" width="1.233" height="0.666" transform="translate(48.36 13.951)" opacity="0.1"/>
    <path id="Path_655" data-name="Path 655" d="M601.2,171.66v2.416H599V171.66a.3.3,0,0,1,.3-.3h1.6A.3.3,0,0,1,601.2,171.66Z" transform="translate(-551.12 -157.209)" fill="#504f60"/>
    <circle id="Ellipse_142" data-name="Ellipse 142" cx="0.466" cy="0.466" r="0.466" transform="translate(48.51 15.218)" opacity="0.1"/>
    <circle id="Ellipse_143" data-name="Ellipse 143" cx="0.466" cy="0.466" r="0.466" transform="translate(48.51 15.117)" fill="#3f3d56"/>
    <rect id="Rectangle_106" data-name="Rectangle 106" width="2.2" height="0.3" transform="translate(47.877 16.567)" opacity="0.1"/>
    <rect id="Rectangle_107" data-name="Rectangle 107" width="3.999" height="0.667" transform="translate(46.976 16.967)" opacity="0.1"/>
    <rect id="Rectangle_108" data-name="Rectangle 108" width="3.999" height="0.667" transform="translate(46.976 16.766)" fill="#504f60"/>
    <path id="Path_656" data-name="Path 656" d="M360.955,421h16.8a.725.725,0,0,1,.725.725v.158H360.23v-.158A.725.725,0,0,1,360.955,421Z" transform="translate(-320.069 -374.053)" opacity="0.1"/>
    <path id="Path_657" data-name="Path 657" d="M385.487,429.083l1.267-.033-.038.384H385.45Z" transform="translate(-342.477 -381.205)" opacity="0.1"/>
    <rect id="Rectangle_109" data-name="Rectangle 109" width="2.349" height="0.367" transform="translate(48.026 47.861)" opacity="0.1"/>
    <path id="Path_658" data-name="Path 658" d="M486.323,429.434h-1.264l-.039-.384,1.267.033Z" transform="translate(-430.945 -381.205)" opacity="0.1"/>
    <path id="Path_659" data-name="Path 659" d="M360.955,422.77h16.8a.725.725,0,0,1,.725.725v.158H360.23v-.158A.725.725,0,0,1,360.955,422.77Z" transform="translate(-320.069 -375.625)" fill="#504f60"/>
    <path id="Path_660" data-name="Path 660" d="M486.587,217.906a4.372,4.372,0,0,1,3.913-1.389c4.391.309,8.355,3.314,11.783,6.712a15.323,15.323,0,0,1,3.269,4.25,11.154,11.154,0,0,1-1.127,11.067,12.077,12.077,0,0,1-2.683,2.365,13.239,13.239,0,0,1-5.518,2.373,12.89,12.89,0,0,1-4.178-.23,22.659,22.659,0,0,1-10.823-5.19,10.226,10.226,0,0,1-3.28-4.752c-.574-1.991-.206-4.516,1.215-5.694a5.4,5.4,0,0,1,1.98-.915,10.34,10.34,0,0,0,2.958-1.227,3.753,3.753,0,0,0,1.875-3.29C485.771,220.473,485.611,219.141,486.587,217.906Z" transform="translate(-443.33 -197.314)" fill="#fe7700" opacity="0.05"/>
    <path id="Path_661" data-name="Path 661" d="M337.631,169.566l-9.12,2.42-.327,1.1a4.167,4.167,0,0,1-1.141-.285c-.176-.074-.781-.446-1.284-.651a1.628,1.628,0,0,1,.2-.756,5.367,5.367,0,0,0,1.122-2.575,6.809,6.809,0,0,0-.161-1,9.811,9.811,0,0,1-.091-1.82c0-.319.008-.637.011-.954.051.019.1.038.159.055.081.026.154.05.223.076v.018a.65.65,0,0,0-.022.161c.845.326.781.642.781.642l.08.017a2.048,2.048,0,0,0-.1-1.338l-.045-.009a1.583,1.583,0,0,0-.806-.8c-.09-.043-.175-.088-.254-.133q.012-1.034.022-2.066a2.315,2.315,0,0,0-.061-.7,3.057,3.057,0,0,0-.359-.676c-.134-.223-.255-.446-.4-.669a2.972,2.972,0,0,1,.407-.352c.083-.06.167-.118.252-.176l.128-.088c.128-.088.255-.177.375-.273a2.435,2.435,0,0,0,.328-.314,1.745,1.745,0,0,0,.139-.192l.022-.033a1.865,1.865,0,0,0,.112-.2c.007-.012.011-.025.017-.037a2.218,2.218,0,0,0,.084-.216h0a2.343,2.343,0,0,0,.061-.231.21.21,0,0,1,.006-.026c.016-.078.028-.157.038-.236v-.027a3.965,3.965,0,0,0,0-.78h0c-.012-.132-.028-.263-.049-.391a10.6,10.6,0,0,1-.335-2.453.84.84,0,0,1,.012-.1h0a8.207,8.207,0,0,1,.4-1.572c.013-.045.028-.088.041-.133.007-.02.012-.04.019-.06.02-.066.039-.132.058-.2v-.009a3.516,3.516,0,0,0,.163-1.5h0a2.169,2.169,0,0,0-.071-.318,3.842,3.842,0,0,0-1.338-1.659,11.966,11.966,0,0,0-3.241-2.072,5.669,5.669,0,0,0-3.318-.275,17.456,17.456,0,0,0-3.334.653,1.552,1.552,0,0,0-.9.747,2.528,2.528,0,0,0-.1.735,2.548,2.548,0,0,1-.724,1.57c-.3.3-.669.527-.966.836a2.1,2.1,0,0,0-.527,1h0a1.843,1.843,0,0,0-.032.563v.006a.678.678,0,0,0,.019.125v.016c.008.04.018.079.028.118a.122.122,0,0,1,0,.02c.011.038.025.076.039.111l.007.022a1.363,1.363,0,0,0,.059.13c.111.215.264.4.38.615.028.051.054.1.076.155a2.716,2.716,0,0,1,.186.663c.018.111.031.23.042.345.006.058.01.111.015.173a12.2,12.2,0,0,1-.066,2.412c-.025.2-.054.4-.074.6h0a.947.947,0,0,1-.009.1,1.25,1.25,0,0,0-.71.652,2.363,2.363,0,0,0-.1.807,2.112,2.112,0,0,1-.324,1.158.923.923,0,0,0-.474.756,4.529,4.529,0,0,0-.059.767c0,.322.009.651.035.978h0c-.021.039-.041.08-.06.123a.022.022,0,0,1-.009.021c-.016.037-.03.074-.045.111,0,.007-.006.013-.008.021-.017.043-.031.088-.046.133h0c-.013.042-.026.086-.037.129l-.007.028c-.01.039-.019.077-.028.111v.016c-.009.042-.017.084-.025.124a.194.194,0,0,1,0,.025.6.6,0,0,1-.014.091v.029c-.006.036-.009.07-.012.1a.551.551,0,0,1-.007.079,1.747,1.747,0,0,1-.093.549,1.9,1.9,0,0,1-.123.23c-.014.026-.029.051-.041.077a1.311,1.311,0,0,0-.111.348,1.642,1.642,0,0,0-.026.182c-.011.123-.013.249-.012.374v.565a3.812,3.812,0,0,1-.053.419q-.019.1-.04.207c-.014.069-.03.138-.046.207q-.094.428-.188.857c-.064.285-.127.571-.193.855-.132.571-.268,1.14-.415,1.706a4.354,4.354,0,0,0-.1.437,1.471,1.471,0,0,0-.01.436.87.87,0,0,0,.085.274c.022.045.05.088.076.132a1.017,1.017,0,0,1,.07.134,2.039,2.039,0,0,1,.059.619.82.82,0,0,0,.039.2.651.651,0,0,0,.557.416.534.534,0,0,0,.095,0l.087.206a1.374,1.374,0,0,0,.365.571.969.969,0,0,0,.8.143,2.816,2.816,0,0,0,.764-.335c.576-.321,1.154-.643,1.723-.979a1.243,1.243,0,0,1,.261.389.356.356,0,0,1,.019.129.7.7,0,0,1-.079.25c-.139.3-.276.593-.414.892-.96,2.065-.736,4.47-.534,6.73.087.956.234,1.9.314,2.859.2,2.37,0,4.764.272,7.127.148,1.273.437,2.527.633,3.791a26.712,26.712,0,0,1,.308,3.49c.111-.033.217-.062.327-.089l.119-.029c.082-.019.165-.035.247-.05s.151-.026.223-.037h0a7.6,7.6,0,0,1,1.529-.062l.2.017c.019.158.038.312.052.455a1.074,1.074,0,0,0,.011.112,20.376,20.376,0,0,0,.268,2.032,1.647,1.647,0,0,1,.04.557,1.612,1.612,0,0,1-.491.78,12.256,12.256,0,0,0-1.706,1.946,9.631,9.631,0,0,0-1.045,2.88,43.842,43.842,0,0,0-.938,4.46.794.794,0,0,0,0,.277.18.18,0,0,0-.011.02,6.731,6.731,0,0,0-.76,1.263,3.243,3.243,0,0,0-.112.957q-.015.836-.031,1.673a11.265,11.265,0,0,0,.321,3.6,2.916,2.916,0,0,0,.584,1.1,1.539,1.539,0,0,0,1.115.53,1.967,1.967,0,0,0,.521-.089l.085-.027a1.5,1.5,0,0,0,.038.748.525.525,0,0,0,.133.232.591.591,0,0,0,.194.111c1.092.424,2.341.055,3.493.258,1.344.235,2.478,1.226,3.837,1.338a1.171,1.171,0,0,0,.831-.18.855.855,0,0,0,.269-.82.941.941,0,0,0-.055-.18,1.162,1.162,0,0,0-.919-.691,4.328,4.328,0,0,1-3.042-1.964,5.408,5.408,0,0,1-.7-3.031,16.3,16.3,0,0,1,.5-3.108q.707-3.084,1.416-6.167a22.27,22.27,0,0,0,.446-2.35c.047-.4.071-.811.084-1.219.035-.06.068-.12.1-.182a8.119,8.119,0,0,0,.937-2.321,9.089,9.089,0,0,0,.112-1.325v-.111c.006-.152.011-.3.018-.456a.631.631,0,0,0,.112-.007c1.289-.133,2.382-1.233,3.673-1.122.111.093.2-.085.261-.21.66-1.243.36-2.741.1-4.119a52.54,52.54,0,0,1-.886-11.3,22.478,22.478,0,0,0-.156-4.928l8.426-2.787Zm-4.328,2.118c0,.13-.168.241-.4.283a1.65,1.65,0,0,1,.018-.3.388.388,0,0,0-.111-.282c.283.025.5.147.5.294Zm-.912-.264a.4.4,0,0,0-.085.248.376.376,0,0,1,0,.182.371.371,0,0,0,.007.07c-.144-.056-.239-.14-.239-.238S332.2,171.473,332.39,171.42Zm-17.673-2.763.014.055h-.1Zm3.158,50.085A12.672,12.672,0,0,1,317.7,216q.009-1.132.019-2.265a5.411,5.411,0,0,1,.06-.921c.029-.162.072-.322.1-.483a5.854,5.854,0,0,1,.453-.892v.011a17.437,17.437,0,0,0-.078,4.008,5.7,5.7,0,0,1-.384,3.278Zm9.285-43.608c-.029-.049-.059-.1-.089-.144.169.05.335.1.51.147l-.152.514C327.346,175.477,327.262,175.3,327.16,175.134Z" transform="translate(-295.326 -134.301)" fill="url(#linear-gradient)"/>
    <path id="Path_662" data-name="Path 662" d="M339.438,148.916a1.52,1.52,0,0,0-.879.745,2.534,2.534,0,0,0-.093.73,2.558,2.558,0,0,1-.706,1.561c-.292.3-.656.526-.94.833a1.941,1.941,0,0,0-.391,2.11c.1.214.258.4.37.613a3.246,3.246,0,0,1,.31,1.33,12.443,12.443,0,0,1-.062,2.4,4.316,4.316,0,0,0-.038,1.531,3.345,3.345,0,0,0,.475,1,7.472,7.472,0,0,0,2.025,2.257,6.155,6.155,0,0,0,2.968.951,15.867,15.867,0,0,0,3.143-.146c.781-.094,1.693-.289,2.026-1,.185-.4.137-.876.311-1.281.313-.73,1.216-1,1.722-1.61a2.956,2.956,0,0,0,.419-2.36,10.76,10.76,0,0,1-.326-2.445c.1-1.321,1-2.61.6-3.876a3.812,3.812,0,0,0-1.3-1.652,11.576,11.576,0,0,0-3.158-2.063,5.4,5.4,0,0,0-3.233-.275A17.162,17.162,0,0,0,339.438,148.916Z" transform="translate(-317.681 -136.571)" fill="#2f2e41"/>
    <g id="Group_297" data-name="Group 297" transform="translate(18.58 15.998)" opacity="0.08">
      <path id="Path_663" data-name="Path 663" d="M337.084,202.429a12.2,12.2,0,0,0-.023-1.261,3.254,3.254,0,0,0-.31-1.33c-.111-.211-.265-.4-.37-.612a1.546,1.546,0,0,1-.123-.356,1.715,1.715,0,0,0,.123,1.108c.1.214.258.4.37.613a3.245,3.245,0,0,1,.31,1.33C337.077,202.09,337.084,202.26,337.084,202.429Z" transform="translate(-336.216 -197.65)"/>
      <path id="Path_664" data-name="Path 664" d="M457.333,190.739a3.925,3.925,0,0,0,.011.648c.123-1.174.834-2.324.663-3.456C457.886,188.853,457.4,189.788,457.333,190.739Z" transform="translate(-443.821 -187.93)"/>
      <path id="Path_665" data-name="Path 665" d="M355.133,246.509c-.505.612-1.408.88-1.722,1.609-.174.406-.126.882-.311,1.282-.335.715-1.242.91-2.026,1a15.782,15.782,0,0,1-3.143.146,6.164,6.164,0,0,1-2.968-.951,7.462,7.462,0,0,1-2.025-2.258,3.344,3.344,0,0,1-.475-1,1.747,1.747,0,0,1-.035-.185,2.813,2.813,0,0,0,.035.938,3.344,3.344,0,0,0,.475,1,7.471,7.471,0,0,0,2.025,2.257,6.155,6.155,0,0,0,2.968.951,15.869,15.869,0,0,0,3.143-.146c.781-.094,1.693-.289,2.026-1,.185-.4.137-.876.311-1.281.313-.73,1.216-1,1.722-1.61a2.669,2.669,0,0,0,.467-1.971,2.22,2.22,0,0,1-.467,1.219Z" transform="translate(-341.715 -238.894)"/>
    </g>
    <path id="Path_666" data-name="Path 666" d="M377.4,227.806a2.309,2.309,0,0,1-1.606.709,4,4,0,0,1-1.748-.363,6.459,6.459,0,0,1-3.8-5.024,1.058,1.058,0,0,1,.021-.5c.162-.455.763-.529,1.166-.8a1.776,1.776,0,0,0,.677-1.1c.027-.117.049-.234.067-.353.047-.318.071-.64.127-.957a1.016,1.016,0,0,1,.154-.429.949.949,0,0,1,.4-.292,4.365,4.365,0,0,1,3.106.132c.313.119.253.155.134.463a6.174,6.174,0,0,0-.2.6c-.017.057-.032.112-.047.172a6.692,6.692,0,0,0-.205,1.6,2.6,2.6,0,0,0,.328,1.429c.432.659,1.309.937,1.7,1.62a2.3,2.3,0,0,1,.255.876A2.806,2.806,0,0,1,377.4,227.806Z" transform="translate(-347.857 -199.061)" fill="#fbbebe"/>
    <path id="Path_667" data-name="Path 667" d="M342.84,733.6a3.286,3.286,0,0,0-.112.952l-.031,1.672a11.424,11.424,0,0,0,.314,3.589,2.909,2.909,0,0,0,.569,1.1,1.483,1.483,0,0,0,1.088.527,1.885,1.885,0,0,0,.507-.09,1.284,1.284,0,0,0,.773-.488,1.676,1.676,0,0,0,.01-1.211,12.8,12.8,0,0,1-.176-2.757l.019-2.256a5.463,5.463,0,0,1,.058-.917c.043-.242.119-.479.138-.724a.78.78,0,0,0-.126-.541.75.75,0,0,0-.414-.242c-.287-.074-.588-.055-.881-.1A1.261,1.261,0,0,1,344.2,732c-.071-.035-.223-.194-.3-.193-.145,0-.24.4-.32.535A6.413,6.413,0,0,0,342.84,733.6Z" transform="translate(-323.386 -655.169)" fill="#fbbebe"/>
    <path id="Path_668" data-name="Path 668" d="M372.308,600.2c-.794,2.37-.254,4.986-.542,7.479a22.3,22.3,0,0,1-.438,2.341l-1.379,6.141a16.508,16.508,0,0,0-.491,3.1,5.533,5.533,0,0,0,.687,3.018,4.21,4.21,0,0,0,2.963,1.956,1.136,1.136,0,0,1,.892.689.981.981,0,0,1,.052.178.861.861,0,0,1-.262.816,1.128,1.128,0,0,1-.808.18c-1.325-.112-2.43-1.1-3.739-1.338-1.126-.2-2.342.166-3.4-.256a.577.577,0,0,1-.188-.112.522.522,0,0,1-.129-.23c-.25-.78.263-1.57.6-2.315a5.789,5.789,0,0,0,.428-3.4,17.734,17.734,0,0,1,.077-3.992,24.15,24.15,0,0,1,.5-3.644,12.178,12.178,0,0,1,.634-2.374c.2-.446.453-.871.658-1.316a12.153,12.153,0,0,0,.76-2.6,26.278,26.278,0,0,0,.743-5.4,5.587,5.587,0,0,1,2.05.385A.574.574,0,0,1,372.308,600.2Z" transform="translate(-343.616 -537.274)" fill="#fbbebe"/>
    <path id="Path_669" data-name="Path 669" d="M372.308,600.2c-.794,2.37-.254,4.986-.542,7.479a22.3,22.3,0,0,1-.438,2.341l-1.379,6.141a16.508,16.508,0,0,0-.491,3.1,5.533,5.533,0,0,0,.687,3.018,4.21,4.21,0,0,0,2.963,1.956,1.136,1.136,0,0,1,.892.689.981.981,0,0,1,.052.178.861.861,0,0,1-.262.816,1.128,1.128,0,0,1-.808.18c-1.325-.112-2.43-1.1-3.739-1.338-1.126-.2-2.342.166-3.4-.256a.577.577,0,0,1-.188-.112.522.522,0,0,1-.129-.23c-.25-.78.263-1.57.6-2.315a5.789,5.789,0,0,0,.428-3.4,17.734,17.734,0,0,1,.077-3.992,24.15,24.15,0,0,1,.5-3.644,12.178,12.178,0,0,1,.634-2.374c.2-.446.453-.871.658-1.316a12.153,12.153,0,0,0,.76-2.6,26.278,26.278,0,0,0,.743-5.4,5.587,5.587,0,0,1,2.05.385A.574.574,0,0,1,372.308,600.2Z" transform="translate(-343.616 -537.274)" opacity="0.08"/>
    <path id="Path_670" data-name="Path 670" d="M359.968,595.838q-.067,1.728-.128,3.456v.112a9.155,9.155,0,0,1-.112,1.319,8.141,8.141,0,0,1-.912,2.314,5.183,5.183,0,0,1-.4.669c-.132.178-.284.341-.407.524a6.679,6.679,0,0,0-.6,1.6c-.851,2.462-3.506,3.947-4.4,6.393a14.1,14.1,0,0,1-1.971-.712.463.463,0,0,1-.345-.605,44.646,44.646,0,0,1,.912-4.443,9.741,9.741,0,0,1,1.018-2.869,12.14,12.14,0,0,1,1.662-1.938,1.562,1.562,0,0,0,.477-.771,1.63,1.63,0,0,0-.039-.557q-.181-1-.261-2.024a.407.407,0,0,0-.01-.112,5.735,5.735,0,0,1-.06-1.656c.2-.87,1.9-1.048,2.637-1.066A12.829,12.829,0,0,1,359.968,595.838Z" transform="translate(-330.478 -534.028)" fill="#fbbebe"/>
    <path id="Path_671" data-name="Path 671" d="M436.338,385.1a5.941,5.941,0,0,0,3.608.072,17.257,17.257,0,0,1,3.6-.669c.342,0,.773.1.832.439a.787.787,0,0,1-.151.505,2,2,0,0,1-.622.764,2.861,2.861,0,0,1-.727.25c-.463.132-.892.361-1.338.537a12.02,12.02,0,0,1-2.367.586,4.517,4.517,0,0,1-1.14.1,4.138,4.138,0,0,1-.754-.151q-1.087-.294-2.15-.669a.528.528,0,0,1-.352-.254.589.589,0,0,1-.017-.265,3.245,3.245,0,0,0-.094-1.067c-.046-.174-.4-.795-.283-.921C434.661,384.066,436.057,384.978,436.338,385.1Z" transform="translate(-404.836 -346.408)" fill="#fbbebe"/>
    <path id="Path_672" data-name="Path 672" d="M436.338,385.1a5.941,5.941,0,0,0,3.608.072,17.257,17.257,0,0,1,3.6-.669c.342,0,.773.1.832.439a.787.787,0,0,1-.151.505,2,2,0,0,1-.622.764,2.861,2.861,0,0,1-.727.25c-.463.132-.892.361-1.338.537a12.02,12.02,0,0,1-2.367.586,4.517,4.517,0,0,1-1.14.1,4.138,4.138,0,0,1-.754-.151q-1.087-.294-2.15-.669a.528.528,0,0,1-.352-.254.589.589,0,0,1-.017-.265,3.245,3.245,0,0,0-.094-1.067c-.046-.174-.4-.795-.283-.921C434.661,384.066,436.057,384.978,436.338,385.1Z" transform="translate(-404.836 -346.408)" opacity="0.08"/>
    <path id="Path_673" data-name="Path 673" d="M391.656,219.291a6.182,6.182,0,0,0-.2.6,3.693,3.693,0,0,1-3.726.485c.047-.318.071-.64.127-.957a1.016,1.016,0,0,1,.154-.429.949.949,0,0,1,.4-.292,4.364,4.364,0,0,1,3.106.132C391.835,218.948,391.774,218.983,391.656,219.291Z" transform="translate(-363.406 -199.061)" opacity="0.1"/>
    <circle id="Ellipse_144" data-name="Ellipse 144" cx="3.69" cy="3.69" r="3.69" transform="translate(22.089 14.082)" fill="#fbbebe"/>
    <path id="Path_674" data-name="Path 674" d="M389.236,595.823q-.067,1.728-.128,3.456a5.2,5.2,0,0,1-1.749-.309,18.567,18.567,0,0,0-3.642-.8,5.735,5.735,0,0,1-.06-1.656c.2-.87,1.9-1.048,2.637-1.066A12.968,12.968,0,0,1,389.236,595.823Z" transform="translate(-359.746 -534.013)" opacity="0.08"/>
    <path id="Path_675" data-name="Path 675" d="M343.618,276.611c-.065.125-.149.3-.254.21-1.258-.111-2.323.985-3.578,1.115a4.9,4.9,0,0,1-1.874-.3c-2.047-.607-4.244-1.194-6.276-.55a27.269,27.269,0,0,0-.3-3.475c-.192-1.261-.473-2.51-.618-3.778-.27-2.354-.069-4.738-.265-7.1-.078-.952-.223-1.9-.306-2.848-.2-2.251-.416-4.647.52-6.7q.2-.446.4-.886a.694.694,0,0,0,.077-.249.378.378,0,0,0-.018-.129c-.055-.187-.235-.335-.343-.511a1.615,1.615,0,0,1-.137-1c.012-.144.05-.262.06-.406a5.394,5.394,0,0,1-.792-1.812c-.2-.736-.322-1.507-.541-2.237-.351-1.171-.952-2.26-1.247-3.446a8.358,8.358,0,0,1-.171-1.9,4.761,4.761,0,0,1,.057-.765.924.924,0,0,1,.463-.753,2.15,2.15,0,0,0,.316-1.154,2.487,2.487,0,0,1,.1-.8,1.59,1.59,0,0,1,1.313-.822,5.777,5.777,0,0,0,1.593-.287,3.381,3.381,0,0,0,.529-.322,18.8,18.8,0,0,0,1.823-1.38.071.071,0,0,1,.118,0c.464.413.925.825,1.389,1.237.253.223.506.446.739.695a6.032,6.032,0,0,1,.86,1.154,5.423,5.423,0,0,1,.3.588,6.192,6.192,0,0,1,.34.964,4.832,4.832,0,0,1,.112.529c.021.128.039.258.051.389q.009.065.013.13a.558.558,0,0,0,.215-.095.437.437,0,0,0,.153-.194.984.984,0,0,0,.059-.223,2.3,2.3,0,0,0,.022-.292c0-.111.008-.233.008-.349a3.149,3.149,0,0,0-.057-.605c-.075-.366-.236-.708-.334-1.068a1.463,1.463,0,0,1,.053-1.092c.069-.124.2-.244.335-.215a.36.36,0,0,1,.223.223,1.14,1.14,0,0,1,.094.467c0,.078,0,.142.071.181a1.179,1.179,0,0,0,.6.866,7.052,7.052,0,0,1,.927.585,4.636,4.636,0,0,1,.78,1.144,3.092,3.092,0,0,1,.349.669,2.366,2.366,0,0,1,.06.692q-.021,2.16-.047,4.317a9.931,9.931,0,0,0,.089,1.813,6.785,6.785,0,0,1,.156,1,5.406,5.406,0,0,1-1.093,2.565,2.2,2.2,0,0,0,.083,1.977c.293.621.739,1.152,1.082,1.745,1.212,2.1,1.014,4.683.942,7.113a53.559,53.559,0,0,0,.866,11.265C343.969,273.881,344.262,275.373,343.618,276.611Z" transform="translate(-310.3 -213.132)" fill="#3f3d56"/>
    <path id="Path_676" data-name="Path 676" d="M353.592,261.728a3.323,3.323,0,0,0-.365.026v.335a3.436,3.436,0,0,1,.413.029c.076.009.153.019.229.036a1.673,1.673,0,0,1,.669.273.992.992,0,0,1,.382,1.2l-.139.058a.741.741,0,0,1,.017.471c-.066.146-.283.231-.39.112-.12-.137-.012-.413-.174-.5a.223.223,0,0,0-.282.111.577.577,0,0,0-.03.335,24.771,24.771,0,0,1,.549,2.6,1.136,1.136,0,0,1-.19.828q-.576.589-1.157,1.179c-.72.734-1.442,1.468-2.2,2.16a27.338,27.338,0,0,1-3.791,2.891c-.142.09-.284.177-.427.265-.055-.187-.235-.335-.343-.511a1.615,1.615,0,0,1-.137-1c.012-.144.05-.262.06-.406a5.393,5.393,0,0,1-.792-1.812h.151a4.6,4.6,0,0,0,1.553-.394,11.242,11.242,0,0,0,1.317-.563,9.644,9.644,0,0,0,1.784-1.289,2.14,2.14,0,0,1,1.2-.607c.27-.278.687-.434.826-.795a1.241,1.241,0,0,0,.019-.623,11.973,11.973,0,0,0-.313-1.449,10.2,10.2,0,0,1-.152-1.124,4.015,4.015,0,0,1,.724-3.522c.079-.135.156-.272.232-.409l.192-.335a.342.342,0,0,1,.275.324,1,1,0,0,1-.1.446c-.021.051-.04.1-.061.154-.181.454-.363.908-.544,1.363a5.755,5.755,0,0,1,.884-.4,2.455,2.455,0,0,1,.394-.09,1.588,1.588,0,0,1,.242-.014,1.26,1.26,0,0,1,1,.434c.089.112.149.284.055.391a5.191,5.191,0,0,0-1.087-.184A3.444,3.444,0,0,0,353.592,261.728Z" transform="translate(-325.876 -235.353)" opacity="0.08"/>
    <path id="Path_677" data-name="Path 677" d="M451.727,364.93l-1.657,5.722,9.337-3.162,1.2-4.97Zm4.065,0c-.335,0-.6-.135-.6-.3s.27-.3.6-.3.6.135.6.3S456.126,364.93,455.792,364.93Z" transform="translate(-418.795 -327.055)" fill="#464353"/>
    <ellipse id="Ellipse_145" data-name="Ellipse 145" cx="3.991" cy="1.958" rx="3.991" ry="1.958" transform="translate(22.165 13.554)" fill="#2f2e41"/>
    <ellipse id="Ellipse_146" data-name="Ellipse 146" cx="0.527" cy="0.151" rx="0.527" ry="0.151" transform="translate(33.759 38.853)" fill="#fe7700" opacity="0.9"/>
    <ellipse id="Ellipse_147" data-name="Ellipse 147" cx="0.527" cy="0.151" rx="0.527" ry="0.151" transform="translate(33.157 39.606)" fill="#fbbebe" opacity="0.9"/>
    <ellipse id="Ellipse_148" data-name="Ellipse 148" cx="0.527" cy="0.151" rx="0.527" ry="0.151" transform="translate(37.073 38.551)" fill="#fbbebe" opacity="0.9"/>
    <ellipse id="Ellipse_149" data-name="Ellipse 149" cx="0.527" cy="0.151" rx="0.527" ry="0.151" transform="translate(33.608 39.606)" fill="#fbbebe" opacity="0.9"/>
    <ellipse id="Ellipse_150" data-name="Ellipse 150" cx="0.527" cy="0.151" rx="0.527" ry="0.151" transform="translate(32.705 39.455)" fill="#fbbebe" opacity="0.9"/>
    <ellipse id="Ellipse_151" data-name="Ellipse 151" cx="0.527" cy="0.151" rx="0.527" ry="0.151" transform="translate(32.705 39.907)" fill="#fbbebe" opacity="0.9"/>
    <ellipse id="Ellipse_152" data-name="Ellipse 152" cx="0.527" cy="0.151" rx="0.527" ry="0.151" transform="translate(33.909 39.305)" fill="#fbbebe" opacity="0.9"/>
    <ellipse id="Ellipse_153" data-name="Ellipse 153" cx="0.527" cy="0.151" rx="0.527" ry="0.151" transform="translate(33.006 39.004)" fill="#fbbebe" opacity="0.9"/>
    <ellipse id="Ellipse_154" data-name="Ellipse 154" cx="0.527" cy="0.151" rx="0.527" ry="0.151" transform="translate(34.061 39.455)" fill="#fe7700" opacity="0.9"/>
    <ellipse id="Ellipse_155" data-name="Ellipse 155" cx="0.527" cy="0.151" rx="0.527" ry="0.151" transform="translate(34.362 38.702)" fill="#fe7700" opacity="0.9"/>
    <ellipse id="Ellipse_156" data-name="Ellipse 156" cx="0.527" cy="0.151" rx="0.527" ry="0.151" transform="translate(34.362 39.004)" fill="#fe7700" opacity="0.9"/>
    <ellipse id="Ellipse_157" data-name="Ellipse 157" cx="0.527" cy="0.151" rx="0.527" ry="0.151" transform="translate(34.512 39.455)" fill="#fe7700" opacity="0.9"/>
    <ellipse id="Ellipse_158" data-name="Ellipse 158" cx="0.527" cy="0.151" rx="0.527" ry="0.151" transform="translate(36.018 38.853)" fill="#fe7700" opacity="0.9"/>
    <ellipse id="Ellipse_159" data-name="Ellipse 159" cx="0.527" cy="0.151" rx="0.527" ry="0.151" transform="translate(36.62 38.702)" fill="#fe7700" opacity="0.9"/>
    <ellipse id="Ellipse_160" data-name="Ellipse 160" cx="0.527" cy="0.151" rx="0.527" ry="0.151" transform="translate(36.62 39.004)" fill="#fe7700" opacity="0.9"/>
    <ellipse id="Ellipse_161" data-name="Ellipse 161" cx="0.527" cy="0.151" rx="0.527" ry="0.151" transform="translate(35.867 39.455)" fill="#fe7700" opacity="0.9"/>
    <ellipse id="Ellipse_162" data-name="Ellipse 162" cx="0.527" cy="0.151" rx="0.527" ry="0.151" transform="translate(36.018 39.455)" fill="#fe7700" opacity="0.9"/>
    <ellipse id="Ellipse_163" data-name="Ellipse 163" cx="0.527" cy="0.151" rx="0.527" ry="0.151" transform="translate(35.867 39.455)" fill="#fe7700" opacity="0.9"/>
    <ellipse id="Ellipse_164" data-name="Ellipse 164" cx="0.527" cy="0.151" rx="0.527" ry="0.151" transform="translate(35.416 39.455)" fill="#fe7700" opacity="0.9"/>
    <ellipse id="Ellipse_165" data-name="Ellipse 165" cx="0.527" cy="0.151" rx="0.527" ry="0.151" transform="translate(34.814 38.853)" fill="#fe7700" opacity="0.9"/>
    <ellipse id="Ellipse_166" data-name="Ellipse 166" cx="0.527" cy="0.151" rx="0.527" ry="0.151" transform="translate(34.964 39.154)" fill="#fe7700" opacity="0.9"/>
    <ellipse id="Ellipse_167" data-name="Ellipse 167" cx="0.527" cy="0.151" rx="0.527" ry="0.151" transform="translate(35.416 38.702)" fill="#3f3d56" opacity="0.9"/>
    <ellipse id="Ellipse_168" data-name="Ellipse 168" cx="0.527" cy="0.151" rx="0.527" ry="0.151" transform="translate(35.416 39.004)" fill="#fe7700" opacity="0.9"/>
    <ellipse id="Ellipse_169" data-name="Ellipse 169" cx="0.527" cy="0.151" rx="0.527" ry="0.151" transform="translate(35.265 39.154)" fill="#f86d70"/>
    <ellipse id="Ellipse_170" data-name="Ellipse 170" cx="0.527" cy="0.151" rx="0.527" ry="0.151" transform="translate(35.867 39.154)" fill="#fe7700" opacity="0.9"/>
    <ellipse id="Ellipse_171" data-name="Ellipse 171" cx="0.527" cy="0.151" rx="0.527" ry="0.151" transform="translate(36.168 39.757)" fill="#fe7700" opacity="0.9"/>
    <ellipse id="Ellipse_172" data-name="Ellipse 172" cx="0.527" cy="0.151" rx="0.527" ry="0.151" transform="translate(36.469 39.004)" fill="#fe7700" opacity="0.9"/>
    <ellipse id="Ellipse_173" data-name="Ellipse 173" cx="0.527" cy="0.151" rx="0.527" ry="0.151" transform="translate(36.469 39.305)" fill="#fe7700" opacity="0.9"/>
    <ellipse id="Ellipse_174" data-name="Ellipse 174" cx="0.527" cy="0.151" rx="0.527" ry="0.151" transform="translate(36.62 39.757)" fill="#fe7700" opacity="0.9"/>
    <ellipse id="Ellipse_175" data-name="Ellipse 175" cx="0.527" cy="0.151" rx="0.527" ry="0.151" transform="translate(38.126 39.154)" fill="#fe7700" opacity="0.9"/>
    <ellipse id="Ellipse_176" data-name="Ellipse 176" cx="0.527" cy="0.151" rx="0.527" ry="0.151" transform="translate(38.728 39.004)" fill="#fe7700" opacity="0.9"/>
    <ellipse id="Ellipse_177" data-name="Ellipse 177" cx="0.527" cy="0.151" rx="0.527" ry="0.151" transform="translate(38.728 39.305)" fill="#a1616a" opacity="0.9"/>
    <ellipse id="Ellipse_178" data-name="Ellipse 178" cx="0.527" cy="0.151" rx="0.527" ry="0.151" transform="translate(37.976 39.757)" fill="#fe7700" opacity="0.9"/>
    <ellipse id="Ellipse_179" data-name="Ellipse 179" cx="0.527" cy="0.151" rx="0.527" ry="0.151" transform="translate(38.126 39.757)" fill="#fe7700" opacity="0.9"/>
    <ellipse id="Ellipse_180" data-name="Ellipse 180" cx="0.527" cy="0.151" rx="0.527" ry="0.151" transform="translate(37.976 39.757)" fill="#fe7700" opacity="0.9"/>
    <ellipse id="Ellipse_181" data-name="Ellipse 181" cx="0.527" cy="0.151" rx="0.527" ry="0.151" transform="translate(37.524 39.757)" fill="#f86d70"/>
    <ellipse id="Ellipse_182" data-name="Ellipse 182" cx="0.527" cy="0.151" rx="0.527" ry="0.151" transform="translate(36.922 39.154)" fill="#fe7700" opacity="0.9"/>
    <ellipse id="Ellipse_183" data-name="Ellipse 183" cx="0.527" cy="0.151" rx="0.527" ry="0.151" transform="translate(37.073 39.455)" fill="#fe7700" opacity="0.9"/>
    <ellipse id="Ellipse_184" data-name="Ellipse 184" cx="0.527" cy="0.151" rx="0.527" ry="0.151" transform="translate(37.524 39.004)" fill="#a1616a" opacity="0.9"/>
    <ellipse id="Ellipse_185" data-name="Ellipse 185" cx="0.527" cy="0.151" rx="0.527" ry="0.151" transform="translate(37.524 39.305)" fill="#f86d70"/>
    <ellipse id="Ellipse_186" data-name="Ellipse 186" cx="0.527" cy="0.151" rx="0.527" ry="0.151" transform="translate(37.374 39.455)" fill="#f86d70"/>
    <ellipse id="Ellipse_187" data-name="Ellipse 187" cx="0.527" cy="0.151" rx="0.527" ry="0.151" transform="translate(32.207 40.624) rotate(-10.63)" fill="#fe7700" opacity="0.9"/>
    <ellipse id="Ellipse_188" data-name="Ellipse 188" cx="0.527" cy="0.151" rx="0.527" ry="0.151" transform="translate(32.613 41.161) rotate(-10.63)" fill="#fe7700" opacity="0.9"/>
    <ellipse id="Ellipse_189" data-name="Ellipse 189" cx="0.527" cy="0.151" rx="0.527" ry="0.151" transform="translate(32.771 40.366) rotate(-10.63)" fill="#fe7700" opacity="0.9"/>
    <ellipse id="Ellipse_190" data-name="Ellipse 190" cx="0.525" cy="0.15" rx="0.525" ry="0.15" transform="matrix(0.984, -0.181, 0.181, 0.984, 32.476, 40.763)" fill="#fe7700" opacity="0.9"/>
    <ellipse id="Ellipse_191" data-name="Ellipse 191" cx="0.527" cy="0.151" rx="0.527" ry="0.151" transform="translate(33.058 41.078) rotate(-10.63)" fill="#fe7700" opacity="0.9"/>
    <ellipse id="Ellipse_192" data-name="Ellipse 192" cx="0.527" cy="0.151" rx="0.527" ry="0.151" transform="translate(34.427 40.207) rotate(-10.63)" fill="#fe7700" opacity="0.9"/>
    <ellipse id="Ellipse_193" data-name="Ellipse 193" cx="0.527" cy="0.151" rx="0.527" ry="0.151" transform="translate(34.991 39.949) rotate(-10.63)" fill="#fe7700" opacity="0.9"/>
    <ellipse id="Ellipse_194" data-name="Ellipse 194" cx="0.527" cy="0.151" rx="0.527" ry="0.151" transform="translate(35.046 40.245) rotate(-10.63)" fill="#fe7700" opacity="0.9"/>
    <ellipse id="Ellipse_195" data-name="Ellipse 195" cx="0.527" cy="0.151" rx="0.527" ry="0.151" transform="translate(34.39 40.828) rotate(-10.63)" fill="#fe7700" opacity="0.9"/>
    <ellipse id="Ellipse_196" data-name="Ellipse 196" cx="0.527" cy="0.151" rx="0.527" ry="0.151" transform="translate(34.537 40.8) rotate(-10.63)" fill="#fe7700" opacity="0.9"/>
    <ellipse id="Ellipse_197" data-name="Ellipse 197" cx="0.527" cy="0.151" rx="0.527" ry="0.151" transform="translate(34.39 40.828) rotate(-10.63)" fill="#fe7700" opacity="0.9"/>
    <ellipse id="Ellipse_198" data-name="Ellipse 198" cx="0.527" cy="0.151" rx="0.527" ry="0.151" transform="translate(33.946 40.91) rotate(-10.63)" fill="#fe7700" opacity="0.9"/>
    <ellipse id="Ellipse_199" data-name="Ellipse 199" cx="0.527" cy="0.151" rx="0.527" ry="0.151" transform="translate(33.243 40.431) rotate(-10.63)" fill="#3f3d56" opacity="0.9"/>
    <ellipse id="Ellipse_200" data-name="Ellipse 200" cx="0.527" cy="0.151" rx="0.527" ry="0.151" transform="translate(33.447 40.697) rotate(-10.63)" fill="#fe7700" opacity="0.9"/>
    <ellipse id="Ellipse_201" data-name="Ellipse 201" cx="0.527" cy="0.151" rx="0.527" ry="0.151" transform="translate(33.807 40.171) rotate(-10.63)" fill="#3f3d56" opacity="0.9"/>
    <ellipse id="Ellipse_202" data-name="Ellipse 202" cx="0.527" cy="0.151" rx="0.527" ry="0.151" transform="translate(33.862 40.467) rotate(-10.63)" fill="#fe7700" opacity="0.9"/>
    <ellipse id="Ellipse_203" data-name="Ellipse 203" cx="0.527" cy="0.151" rx="0.527" ry="0.151" transform="translate(33.743 40.644) rotate(-10.63)" fill="#3f3d56" opacity="0.9"/>
    <ellipse id="Ellipse_204" data-name="Ellipse 204" cx="0.527" cy="0.151" rx="0.527" ry="0.151" transform="translate(34.334 40.532) rotate(-10.63)" fill="#fe7700" opacity="0.9"/>
    <ellipse id="Ellipse_205" data-name="Ellipse 205" cx="0.527" cy="0.151" rx="0.527" ry="0.151" transform="translate(34.742 41.068) rotate(-10.63)" fill="#fe7700" opacity="0.9"/>
    <ellipse id="Ellipse_206" data-name="Ellipse 206" cx="0.527" cy="0.151" rx="0.527" ry="0.151" transform="translate(34.899 40.272) rotate(-10.63)" fill="#fe7700" opacity="0.9"/>
    <ellipse id="Ellipse_207" data-name="Ellipse 207" cx="0.527" cy="0.151" rx="0.527" ry="0.151" transform="translate(34.954 40.569) rotate(-10.63)" fill="#fe7700" opacity="0.9"/>
    <ellipse id="Ellipse_208" data-name="Ellipse 208" cx="0.527" cy="0.151" rx="0.527" ry="0.151" transform="translate(35.185 40.985) rotate(-10.63)" fill="#fe7700" opacity="0.9"/>
    <ellipse id="Ellipse_209" data-name="Ellipse 209" cx="0.527" cy="0.151" rx="0.527" ry="0.151" transform="translate(36.554 40.115) rotate(-10.63)" fill="#fe7700" opacity="0.9"/>
    <ellipse id="Ellipse_210" data-name="Ellipse 210" cx="0.527" cy="0.151" rx="0.527" ry="0.151" transform="translate(37.119 39.856) rotate(-10.63)" fill="#fe7700" opacity="0.9"/>
    <ellipse id="Ellipse_211" data-name="Ellipse 211" cx="0.527" cy="0.151" rx="0.527" ry="0.151" transform="translate(37.175 40.152) rotate(-10.63)" fill="#a1616a" opacity="0.9"/>
    <ellipse id="Ellipse_212" data-name="Ellipse 212" cx="0.527" cy="0.151" rx="0.527" ry="0.151" transform="translate(36.517 40.735) rotate(-10.63)" fill="#fe7700" opacity="0.9"/>
    <ellipse id="Ellipse_213" data-name="Ellipse 213" cx="0.527" cy="0.151" rx="0.527" ry="0.151" transform="translate(36.666 40.707) rotate(-10.63)" fill="#fe7700" opacity="0.9"/>
    <ellipse id="Ellipse_214" data-name="Ellipse 214" cx="0.527" cy="0.151" rx="0.527" ry="0.151" transform="translate(36.517 40.735) rotate(-10.63)" fill="#fe7700" opacity="0.9"/>
    <ellipse id="Ellipse_215" data-name="Ellipse 215" cx="0.527" cy="0.151" rx="0.527" ry="0.151" transform="translate(36.073 40.818) rotate(-10.63)" fill="#fe7700" opacity="0.9"/>
    <ellipse id="Ellipse_216" data-name="Ellipse 216" cx="0.525" cy="0.15" rx="0.525" ry="0.15" transform="matrix(0.984, -0.181, 0.181, 0.984, 35.014, 40.451)" fill="#a1616a" opacity="0.9"/>
    <ellipse id="Ellipse_217" data-name="Ellipse 217" cx="0.527" cy="0.151" rx="0.527" ry="0.151" transform="translate(35.574 40.605) rotate(-10.63)" fill="#fe7700" opacity="0.9"/>
    <path id="Path_678" data-name="Path 678" d="M384.182,226.25l-.112.111s5.061,7.916,6.182,8.758l.345-.279S389.3,232.466,384.182,226.25Z" transform="translate(-360.154 -205.979)" fill="#2f2e41"/>
    <path id="Path_679" data-name="Path 679" d="M439.187,302.735s-.266-.482-.369-.386-.433.319-.389.389.335.456.335.456a.565.565,0,0,0,.5-.343Z" transform="translate(-408.449 -273.582)" fill="#464353"/>
    <path id="Path_680" data-name="Path 680" d="M443.45,309.263l-.057-.013s.045-.258-.565-.523a3.462,3.462,0,0,0-.341-.126c-.937-.3-1.3-.944-1.115-1.408a.389.389,0,0,1,.018-.046l.39-.307.046.039a3.928,3.928,0,0,0,.769.489,1.561,1.561,0,0,1,.787.8A1.884,1.884,0,0,1,443.45,309.263Z" transform="translate(-411.025 -277.583)" fill="#fdd8d8" opacity="0.9"/>
    <path id="Path_681" data-name="Path 681" d="M444.731,307.58s.133.29.831.632a1.943,1.943,0,0,1,.846,1.338s-.363-.922-.922-1.092a1.469,1.469,0,0,1-.806-.826Z" transform="translate(-414.007 -278.241)" fill="none" stroke="#2f2e41" stroke-miterlimit="10" stroke-width="0.25" opacity="0.2"/>
    <path id="Path_682" data-name="Path 682" d="M443.6,308.61a.915.915,0,0,0,.426.738c.457.347,1.326.906,1.345,1.17a2.909,2.909,0,0,0-.78-.581c-.362-.145-.856-.438-.912-.71,0,0-.2-.426-.142-.592Z" transform="translate(-412.978 -279.156)" fill="none" stroke="#2f2e41" stroke-miterlimit="10" stroke-width="0.25" opacity="0.2"/>
    <path id="Path_683" data-name="Path 683" d="M442.627,309.39s-.187.376.27.9a1.956,1.956,0,0,0,.775.439,1.884,1.884,0,0,1,.825.571" transform="translate(-412.149 -279.849)" fill="none" stroke="#2f2e41" stroke-miterlimit="10" stroke-width="0.25" opacity="0.2"/>
    <ellipse id="Ellipse_218" data-name="Ellipse 218" cx="0.527" cy="0.151" rx="0.527" ry="0.151" transform="translate(35.935 40.079) rotate(-10.63)" fill="#3f3d56" opacity="0.9"/>
    <ellipse id="Ellipse_219" data-name="Ellipse 219" cx="0.527" cy="0.151" rx="0.527" ry="0.151" transform="translate(35.99 40.373) rotate(-10.63)" fill="#fe7700" opacity="0.9"/>
    <ellipse id="Ellipse_220" data-name="Ellipse 220" cx="0.527" cy="0.151" rx="0.527" ry="0.151" transform="translate(35.87 40.55) rotate(-10.63)" fill="#fe7700" opacity="0.9"/>
    <path id="Path_684" data-name="Path 684" d="M314.154,297.49a2.213,2.213,0,0,1-.1.626c-.043.106-.112.2-.161.306a3.8,3.8,0,0,0-.152,1.463,5.707,5.707,0,0,1-.136.831c-.244,1.137-.488,2.276-.781,3.4a1.681,1.681,0,0,0-.021,1.143c.045.09.1.172.142.265.1.256.008.557.1.817a.629.629,0,0,0,.648.411,5.891,5.891,0,0,1,1.173-2.942,3.819,3.819,0,0,1,1.044-1.095,2.824,2.824,0,0,0,.615-.418,1.436,1.436,0,0,0,.308-.735,7.423,7.423,0,0,0-1.226-4.769c-.169-.3-.529-.981-.886-.726A2.281,2.281,0,0,0,314.154,297.49Z" transform="translate(-296.755 -267.965)" fill="#3f3d56"/>
    <path id="Path_685" data-name="Path 685" d="M372.361,182.536c-2,0-3.648-.718-3.944-1.656a.988.988,0,0,0-.047.3c0,1.08,1.784,1.957,3.991,1.957s3.989-.876,3.989-1.957a.986.986,0,0,0-.047-.3C376.008,181.818,374.355,182.536,372.361,182.536Z" transform="translate(-346.205 -165.668)" opacity="0.1"/>
    <g id="Group_298" data-name="Group 298" transform="translate(15.964 21.175)" opacity="0.1">
      <path id="Path_686" data-name="Path 686" d="M313.9,250.744c-.038-.094-.1-.175-.143-.265a1.674,1.674,0,0,1,.022-1.143c.287-1.128.531-2.267.781-3.4a5.561,5.561,0,0,0,.135-.831,3.822,3.822,0,0,1,.152-1.463c.051-.1.117-.2.161-.306a2.173,2.173,0,0,0,.1-.626,3.164,3.164,0,0,1,.293-1.064c-.025-.326-.029-.653-.033-.975a4.635,4.635,0,0,1,.058-.765.92.92,0,0,1,.462-.753A2.2,2.2,0,0,0,316.2,238a2.457,2.457,0,0,1,.1-.8,1.588,1.588,0,0,1,1.312-.822,5.785,5.785,0,0,0,1.593-.287,3.381,3.381,0,0,0,.529-.322c.481-.335.962-.669,1.417-1.038l-.379-.334c-.02-.017-.042-.037-.068-.033a.111.111,0,0,0-.05.029,18.808,18.808,0,0,1-1.83,1.38,3.382,3.382,0,0,1-.529.322,5.923,5.923,0,0,1-1.593.287,1.586,1.586,0,0,0-1.313.822,2.429,2.429,0,0,0-.1.8,2.147,2.147,0,0,1-.316,1.154.924.924,0,0,0-.463.753,4.76,4.76,0,0,0-.052.765c0,.321.009.649.033.975a3.138,3.138,0,0,0-.293,1.064,2.214,2.214,0,0,1-.1.626c-.044.106-.112.2-.161.306a3.8,3.8,0,0,0-.152,1.463,5.707,5.707,0,0,1-.136.831c-.244,1.137-.488,2.276-.781,3.4a1.681,1.681,0,0,0-.021,1.143c.045.09.1.172.142.265.1.256.008.557.1.817a.629.629,0,0,0,.648.411,4.329,4.329,0,0,1,.2-1.053A.687.687,0,0,0,313.9,250.744Z" transform="translate(-312.754 -234.357)"/>
      <path id="Path_687" data-name="Path 687" d="M418.846,250.349c.057.111.112.223.161.334a6.077,6.077,0,0,1,.34.964,4.847,4.847,0,0,1,.112.529c.021.128.039.258.051.389q.008.065.013.13a.557.557,0,0,0,.215-.095.438.438,0,0,0,.153-.2,1.045,1.045,0,0,0,.058-.223,2.311,2.311,0,0,0,.023-.292c0-.112.007-.233.007-.349a3.149,3.149,0,0,0-.057-.605c-.074-.366-.236-.708-.335-1.068-.008-.026-.013-.054-.02-.08a.833.833,0,0,1-.1-.35c-.069-.039-.074-.1-.071-.181a1.14,1.14,0,0,0-.094-.467.36.36,0,0,0-.223-.223c-.139-.029-.268.091-.335.215a1.458,1.458,0,0,0-.054,1.092C418.731,250.03,418.789,250.19,418.846,250.349Z" transform="translate(-406.807 -246.977)"/>
      <path id="Path_688" data-name="Path 688" d="M347.9,380.321c-.191-1.261-.473-2.51-.618-3.778-.269-2.354-.069-4.738-.264-7.1-.079-.952-.223-1.9-.306-2.848-.2-2.251-.416-4.647.518-6.7.135-.3.269-.592.4-.886a.694.694,0,0,0,.077-.249.354.354,0,0,0-.018-.129c-.055-.187-.235-.335-.343-.511a1.623,1.623,0,0,1-.137-1c.012-.144.05-.262.06-.406a5.393,5.393,0,0,1-.792-1.812c-.045-.167-.086-.334-.125-.505-.111.067-.223.126-.335.194a2.594,2.594,0,0,0-.436.351,5.311,5.311,0,0,0,.781,1.772c-.01.144-.048.262-.06.406a1.615,1.615,0,0,0,.137,1,2.345,2.345,0,0,1,.343.511.378.378,0,0,1,.018.129.694.694,0,0,1-.077.249l-.4.886c-.935,2.057-.717,4.453-.52,6.7.085.951.223,1.9.305,2.848.2,2.36,0,4.744.265,7.1.145,1.268.426,2.517.618,3.778a27.275,27.275,0,0,1,.3,3.475,5.835,5.835,0,0,1,.892-.2A27.03,27.03,0,0,0,347.9,380.321Z" transform="translate(-341.929 -341.015)"/>
      <path id="Path_689" data-name="Path 689" d="M387.115,616.4a14.335,14.335,0,0,0-4.794-.815,17.772,17.772,0,0,1,3.891.815,4.9,4.9,0,0,0,1.874.3,1.091,1.091,0,0,0,.157-.023A8.2,8.2,0,0,1,387.115,616.4Z" transform="translate(-374.563 -573.07)"/>
    </g>
    <path id="Path_690" data-name="Path 690" d="M317.82,269.529l.491,1.186a1.37,1.37,0,0,0,.356.569.922.922,0,0,0,.78.143,2.739,2.739,0,0,0,.744-.335c.744-.423,1.487-.846,2.211-1.3a27.577,27.577,0,0,0,3.791-2.891c.76-.691,1.482-1.426,2.2-2.16l1.153-1.179a1.142,1.142,0,0,0,.19-.828c-.016-.892-.446-1.722-.55-2.6a.586.586,0,0,1,.03-.335.223.223,0,0,1,.283-.111c.162.084.053.36.174.5.112.119.324.037.389-.112a.726.726,0,0,0-.016-.471l.139-.058a.993.993,0,0,0-.382-1.2,2.314,2.314,0,0,0-1.313-.335v-.334a5.149,5.149,0,0,1,1.948.165c.1-.111.035-.279-.055-.391a1.349,1.349,0,0,0-1.244-.419,4.01,4.01,0,0,0-1.278.488l.605-1.518a1,1,0,0,0,.1-.446.341.341,0,0,0-.274-.324l-.424.748a5.359,5.359,0,0,0-.853,2.239,5.294,5.294,0,0,0,.129,1.282c.07.382.046.749.152,1.124a11.709,11.709,0,0,1,.313,1.449,1.226,1.226,0,0,1-.02.623c-.138.361-.558.518-.825.8a2.157,2.157,0,0,0-1.2.607,9.643,9.643,0,0,1-1.784,1.289,11.629,11.629,0,0,1-1.317.563,4.643,4.643,0,0,1-1.553.394,3.958,3.958,0,0,0-1.194.03,2.231,2.231,0,0,0-1.148,1.32l-.425.892A6.574,6.574,0,0,0,317.82,269.529Z" transform="translate(-301.291 -231.719)" fill="#fbbebe"/>
    <path id="Path_691" data-name="Path 691" d="M318.642,355.082a3.824,3.824,0,0,1,1.074-1.115c.082-.051.167-.1.251-.146a2.922,2.922,0,0,0-1.011.036,2.291,2.291,0,0,0-1.182,1.352l-.439.911a6.718,6.718,0,0,0-.335.97l.418,1h.01A6.055,6.055,0,0,1,318.642,355.082Z" transform="translate(-300.563 -319.303)" fill="#3f3d56"/>
    <ellipse id="Ellipse_221" data-name="Ellipse 221" cx="0.301" cy="0.361" rx="0.301" ry="0.361" transform="translate(36.621 37.197)" fill="#fbbebe"/>
    <ellipse id="Ellipse_222" data-name="Ellipse 222" cx="0.301" cy="0.361" rx="0.301" ry="0.361" transform="translate(36.621 37.377)" fill="#fbbebe"/>
    <path id="Path_692" data-name="Path 692" d="M454.31,320.02l-.077-.016s.06-.316-.763-.639a.688.688,0,0,1,.022-.161.582.582,0,0,1,.039-.125.569.569,0,0,1,.059-.111.615.615,0,0,1,.186-.2.532.532,0,0,1,.167-.078.479.479,0,0,1,.134-.018.636.636,0,0,1,.138.018A2.113,2.113,0,0,1,454.31,320.02Z" transform="translate(-421.816 -288.094)" fill="#fe7700" opacity="0.9"/>
    <path id="Path_693" data-name="Path 693" d="M275.8,705s.694.906-.32,2.276-1.849,2.524-1.511,3.378c0,0,1.529-2.542,2.773-2.578S277.169,706.53,275.8,705Z" transform="translate(-262.265 -631.349)" fill="#fe7700"/>
    <path id="Path_694" data-name="Path 694" d="M276.118,705a1.115,1.115,0,0,1,.142.284c1.214,1.427,1.861,2.758.695,2.787-1.087.03-2.392,1.975-2.7,2.465a1.027,1.027,0,0,0,.037.112s1.529-2.542,2.773-2.578S277.483,706.53,276.118,705Z" transform="translate(-262.579 -631.349)" opacity="0.1"/>
    <path id="Path_695" data-name="Path 695" d="M301.259,713.748c0,.319-.036.578-.08.578s-.079-.259-.079-.578.045-.169.088-.169S301.259,713.428,301.259,713.748Z" transform="translate(-286.436 -638.939)" fill="#ffd037"/>
    <path id="Path_696" data-name="Path 696" d="M302.145,717.049c-.28.153-.525.245-.545.206s.188-.194.468-.347.169-.041.191,0S302.423,716.9,302.145,717.049Z" transform="translate(-286.878 -641.86)" fill="#ffd037"/>
    <path id="Path_697" data-name="Path 697" d="M245.732,705s-.694.906.32,2.276,1.849,2.524,1.511,3.378c0,0-1.529-2.542-2.773-2.578S244.362,706.53,245.732,705Z" transform="translate(-235.858 -631.349)" fill="#fe7700"/>
    <path id="Path_698" data-name="Path 698" d="M245.732,705a1.113,1.113,0,0,0-.142.284c-1.214,1.427-1.861,2.758-.695,2.787,1.087.03,2.392,1.975,2.7,2.465a1.021,1.021,0,0,1-.037.112s-1.529-2.542-2.773-2.578S244.362,706.53,245.732,705Z" transform="translate(-235.858 -631.349)" opacity="0.1"/>
    <path id="Path_699" data-name="Path 699" d="M246.57,713.748c0,.319.036.578.08.578s.079-.259.079-.578-.045-.169-.088-.169S246.57,713.428,246.57,713.748Z" transform="translate(-237.986 -638.939)" fill="#ffd037"/>
    <path id="Path_700" data-name="Path 700" d="M241.245,717.049c.28.153.524.245.545.206s-.188-.194-.468-.347-.169-.041-.191,0S240.965,716.9,241.245,717.049Z" transform="translate(-233.103 -641.86)" fill="#ffd037"/>
    <path id="Path_701" data-name="Path 701" d="M248.55,746.3a7.082,7.082,0,0,0,2.522-.476c.584-.417,2.983-.912,3.128-.245s2.912,3.318.724,3.336a18.543,18.543,0,0,1-5.668-.7C248.673,747.865,248.55,746.3,248.55,746.3Z" transform="translate(-239.745 -667.114)" fill="#a8a8a8"/>
    <path id="Path_702" data-name="Path 702" d="M254.962,756.995a18.551,18.551,0,0,1-5.668-.7c-.446-.271-.621-1.242-.68-1.689h-.065s.123,1.561.706,1.919a18.447,18.447,0,0,0,5.668.7c.632,0,.851-.23.838-.563C255.674,756.868,255.433,756.995,254.962,756.995Z" transform="translate(-239.745 -675.427)" opacity="0.2"/>
    <path id="Path_703" data-name="Path 703" d="M731.653,627.179s-1.239-4.207.232-7.3a6.644,6.644,0,0,0,.537-4.169,11.178,11.178,0,0,0-.59-1.957" transform="translate(-668.549 -550.273)" fill="none" stroke="#535461" stroke-miterlimit="10" stroke-width="2"/>
    <path id="Path_704" data-name="Path 704" d="M730.478,589.011a7.356,7.356,0,0,1-.933,2.007,7.419,7.419,0,0,1-.934-2.007.934.934,0,0,1,1.868,0Z" transform="translate(-666.278 -527.491)" fill="#fe7700"/>
    <path id="Path_705" data-name="Path 705" d="M744.247,610.336a7.39,7.39,0,0,1-1.877,1.18,7.4,7.4,0,0,1,.309-2.194.934.934,0,0,1,1.568,1.015Z" transform="translate(-678.504 -545.959)" fill="#fe7700"/>
    <path id="Path_706" data-name="Path 706" d="M740.935,651.5a7.4,7.4,0,0,1-2.215.071,7.439,7.439,0,0,1,1.375-1.739.936.936,0,1,1,.841,1.672Z" transform="translate(-675.261 -582.245)" fill="#fe7700"/>
    <path id="Path_707" data-name="Path 707" d="M733.372,685.18a7.41,7.41,0,0,1-2.172.446,7.391,7.391,0,0,1,1.062-1.946.935.935,0,0,1,1.115,1.5Z" transform="translate(-668.58 -612.242)" fill="#fe7700"/>
    <path id="Path_708" data-name="Path 708" d="M722.538,620.523a7.41,7.41,0,0,0,2.093.731,7.421,7.421,0,0,0-.792-2.071.933.933,0,1,0-1.3,1.338Z" transform="translate(-660.632 -554.867)" fill="#fe7700"/>
    <path id="Path_709" data-name="Path 709" d="M712.1,658.006a7.4,7.4,0,0,0,2.215.071,7.412,7.412,0,0,0-1.375-1.739.934.934,0,0,0-.841,1.668Z" transform="translate(-651.174 -588.034)" fill="#fe7700"/>
    <path id="Path_710" data-name="Path 710" d="M709.615,697.411a7.4,7.4,0,0,0,2.171.446,7.394,7.394,0,0,0-1.062-1.947.935.935,0,1,0-1.115,1.5Z" transform="translate(-649.06 -623.109)" fill="#fe7700"/>
    <path id="Path_711" data-name="Path 711" d="M730.478,589.011a7.356,7.356,0,0,1-.933,2.007,7.419,7.419,0,0,1-.934-2.007.934.934,0,0,1,1.868,0Z" transform="translate(-666.278 -527.491)" fill="#fe7700"/>
    <path id="Path_712" data-name="Path 712" d="M744.247,610.336a7.39,7.39,0,0,1-1.877,1.18,7.4,7.4,0,0,1,.309-2.194.934.934,0,0,1,1.568,1.015Z" transform="translate(-678.504 -545.959)" fill="#fe7700"/>
    <path id="Path_713" data-name="Path 713" d="M740.935,651.5a7.4,7.4,0,0,1-2.215.071,7.439,7.439,0,0,1,1.375-1.739.936.936,0,1,1,.841,1.672Z" transform="translate(-675.261 -582.245)" fill="#fe7700"/>
    <path id="Path_714" data-name="Path 714" d="M733.372,685.18a7.41,7.41,0,0,1-2.172.446,7.391,7.391,0,0,1,1.062-1.946.935.935,0,0,1,1.115,1.5Z" transform="translate(-668.58 -612.242)" fill="#fe7700"/>
    <path id="Path_715" data-name="Path 715" d="M722.538,620.523a7.41,7.41,0,0,0,2.093.731,7.421,7.421,0,0,0-.792-2.071.933.933,0,1,0-1.3,1.338Z" transform="translate(-660.632 -554.867)" fill="#fe7700"/>
    <path id="Path_716" data-name="Path 716" d="M712.1,658.006a7.4,7.4,0,0,0,2.215.071,7.412,7.412,0,0,0-1.375-1.739.934.934,0,0,0-.841,1.668Z" transform="translate(-651.174 -588.034)" fill="#fe7700"/>
    <path id="Path_717" data-name="Path 717" d="M709.615,697.411a7.4,7.4,0,0,0,2.171.446,7.394,7.394,0,0,0-1.062-1.947.935.935,0,1,0-1.115,1.5Z" transform="translate(-649.06 -623.109)" fill="#fe7700"/>
    <path id="Path_718" data-name="Path 718" d="M709.27,720.086a5.664,5.664,0,0,0,1.911-.7c.4-.4,2.213-1.1,2.415-.6s2.715,2.2,1,2.5a14.808,14.808,0,0,1-4.527.2C709.57,721.285,709.27,720.086,709.27,720.086Z" transform="translate(-649.095 -643.446)" fill="#a8a8a8"/>
    <path id="Path_719" data-name="Path 719" d="M714.6,732.716a14.818,14.818,0,0,1-4.527.2c-.382-.153-.649-.883-.755-1.227l-.05.01s.3,1.2.8,1.4a14.806,14.806,0,0,0,4.527-.2c.493-.087.634-.29.581-.546C715.141,732.523,714.969,732.652,714.6,732.716Z" transform="translate(-649.095 -655.063)" opacity="0.2"/>
    <g id="Group_299" data-name="Group 299" transform="translate(41.75 20.793)" opacity="0.75">
      <path id="Path_720" data-name="Path 720" d="M559.194,253a1.205,1.205,0,0,1-.066-.169,1.574,1.574,0,0,1,.01-.415,1.464,1.464,0,0,0-.032-.287c-.066-.36-.13-.721-.2-1.083-.03-.166-.06-.335-.075-.5s-.012-.346-.016-.518c-.008-.558-.111-1.115-.128-1.678-.012-.291-.035-.582-.058-.873-.041-.5-.085-1-.173-1.492a7.3,7.3,0,0,1-.27-1.154c0-.206,0-.413-.006-.619a1.187,1.187,0,0,0-.083-.52,1.141,1.141,0,0,0-.305-.349q-.526-.455-1.09-.864a.669.669,0,0,0,.341-.026.223.223,0,0,0,.13-.281.281.281,0,0,0-.173-.125,1.58,1.58,0,0,0-.415-.067,1.515,1.515,0,0,0,.03-.162,14.027,14.027,0,0,0-.214-1.719,6.047,6.047,0,0,1,.478-1.716,4.146,4.146,0,0,0-.123-2.757,7.634,7.634,0,0,1-.557-1.392c-.072-.386-.027-.78-.093-1.172a2.7,2.7,0,0,0-2.007-2.007,5.037,5.037,0,0,0-2.249,0c-.643.119-1.227-.144-1.873-.059a1.017,1.017,0,0,0-.677.31,3.685,3.685,0,0,0-.223.378c-.286.446-.855.6-1.328.843a2.571,2.571,0,0,0-1.4,1.868,11.833,11.833,0,0,0,.237,2.23,7.739,7.739,0,0,1-.583,2.787,2.178,2.178,0,0,0-.146.781,2.1,2.1,0,0,0,.12.533c.093.281.2.557.317.831a2.766,2.766,0,0,1-.693.182,1.776,1.776,0,0,0-.714.142.834.834,0,0,0-.248.236,1.3,1.3,0,0,0-.223.98.3.3,0,0,0-.142.261c-.006.1.018.206.022.31a1.957,1.957,0,0,1-.112.573,4.861,4.861,0,0,0-.127,1.947c.143,1.041.171,2.075.216,3.122a16.962,16.962,0,0,0,.087,2.064.984.984,0,0,0,.288.611,1.246,1.246,0,0,1,.129.1.836.836,0,0,1,.137.408.879.879,0,0,0,.905.646h0c-.075.223-.148.429-.223.643h11.458c-.007-.027-.013-.054-.019-.08a1.2,1.2,0,0,1-.008-.341c.1.111.079.275.1.421H559.3A1.856,1.856,0,0,0,559.194,253Z" transform="translate(-544.023 -230.93)" fill="url(#linear-gradient-2)"/>
      <path id="Path_721" data-name="Path 721" d="M565.436,232.235a1,1,0,0,0-.669.309,3.494,3.494,0,0,0-.223.376c-.284.446-.85.594-1.318.837a2.55,2.55,0,0,0-1.387,1.855,11.6,11.6,0,0,0,.235,2.212,7.737,7.737,0,0,1-.579,2.772,2.173,2.173,0,0,0-.146.781,2.073,2.073,0,0,0,.12.53,7.021,7.021,0,0,0,1.17,2.261,3.942,3.942,0,0,0,2.1,1.385,6.008,6.008,0,0,0,1.157.123q.892.033,1.784.033a5.11,5.11,0,0,0,.977-.066,5.5,5.5,0,0,0,1.863-.892c.669-.435,1.4-.969,1.506-1.762a13.885,13.885,0,0,0-.213-1.708,6.155,6.155,0,0,1,.475-1.7,4.126,4.126,0,0,0-.123-2.745,7.828,7.828,0,0,1-.557-1.384c-.072-.382-.028-.78-.093-1.164a2.672,2.672,0,0,0-1.991-1.989,4.986,4.986,0,0,0-2.23,0C566.663,232.412,566.075,232.149,565.436,232.235Z" transform="translate(-559.418 -232.03)" fill="#3f3d56"/>
      <path id="Path_722" data-name="Path 722" d="M582.139,292.567a2.408,2.408,0,0,1-.3,1.814,2.917,2.917,0,0,1-.646.675,4.132,4.132,0,0,1-1.273.7,2.564,2.564,0,0,0,.979.476,4.66,4.66,0,0,0,.835.1,23.748,23.748,0,0,0,4.222-.153,2.792,2.792,0,0,0,1.338-.423.189.189,0,0,0,.075-.088c.027-.093-.084-.163-.175-.194a5.177,5.177,0,0,1-1.328-.517,2.519,2.519,0,0,1-.9-1.919c-.054-.728.051-1.463-.02-2.191q-1.449-.021-2.9.085c-.111.008-.593-.019-.651.074s.205.361.272.463A3.216,3.216,0,0,1,582.139,292.567Z" transform="translate(-575.917 -284.167)" fill="#fbbebe"/>
      <circle id="Ellipse_223" data-name="Ellipse 223" cx="3.297" cy="3.297" r="3.297" transform="translate(4.261 1.826)" opacity="0.1"/>
      <circle id="Ellipse_224" data-name="Ellipse 224" cx="3.297" cy="3.297" r="3.297" transform="translate(4.261 1.709)" fill="#fbbebe"/>
      <path id="Path_723" data-name="Path 723" d="M576.013,327.666a10.057,10.057,0,0,0-.326,3.378c.076.749.334,1.561.352,2.328h-8.175v-2.716a15.062,15.062,0,0,0-.057-1.6,11.713,11.713,0,0,0-.653-2.773l-.07-.2h0a.022.022,0,0,0-.009-.021c-.023-.067-.049-.133-.074-.2a6.086,6.086,0,0,1-.634-3.254,2.818,2.818,0,0,1,1.358-1.885,1.531,1.531,0,0,1,.7-.216,2.141,2.141,0,0,1,1.162.479c.168.112.334.223.512.335a5.643,5.643,0,0,0,1.311.627,2.622,2.622,0,0,0,2.007-.125,2.353,2.353,0,0,0,.334-.23,3.822,3.822,0,0,0,.551-.58c.161.312.508.446.8.641a2.493,2.493,0,0,1,.873,1.165,6.422,6.422,0,0,1,.334,1.436,7.48,7.48,0,0,1,.1,1.449A11.408,11.408,0,0,1,576.013,327.666Z" transform="translate(-563.825 -310.521)" fill="#3f3d56"/>
      <path id="Path_724" data-name="Path 724" d="M552.072,330.642h-5.594l.223-.64h-.01a.871.871,0,0,1-.9-.642.827.827,0,0,0-.137-.4,1.12,1.12,0,0,0-.127-.1.935.935,0,0,1-.285-.608,16.98,16.98,0,0,1-.087-2.051c-.046-1.044-.074-2.072-.215-3.106a4.835,4.835,0,0,1,.126-1.933,1.937,1.937,0,0,0,.111-.57c0-.1-.028-.205-.022-.308a.3.3,0,0,1,.14-.259,1.294,1.294,0,0,1,.223-.975.853.853,0,0,1,.246-.235,1.791,1.791,0,0,1,.708-.141c1.126-.127,2.018-1.115,3.145-1.226a4.251,4.251,0,0,1,.763.018c.415.035.566.558.662.966.013.053.025.111.036.161a14.955,14.955,0,0,1,.173,3.083,2.605,2.605,0,0,0,.1.7,9.046,9.046,0,0,1,.223,1.918,43.459,43.459,0,0,0,.453,4.5,8.252,8.252,0,0,1,.1.843A5.1,5.1,0,0,1,552.072,330.642Z" transform="translate(-544.798 -307.79)" fill="#f86d70"/>
      <path id="Path_725" data-name="Path 725" d="M583.755,355.726a3.2,3.2,0,0,1,.326.44c.045.074.081.181.016.236a.2.2,0,0,1-.12.033l-.781.033a.908.908,0,0,1-.352-.032.892.892,0,0,1-.366-.327l-.348-.455a1.029,1.029,0,0,1-.223-.392.352.352,0,0,1,.156-.39.518.518,0,0,1,.384.027,3.185,3.185,0,0,1,.726.271,3,3,0,0,1,.583.555Z" transform="translate(-577.672 -341.031)" fill="#f86d70"/>
      <path id="Path_726" data-name="Path 726" d="M583.755,355.726a3.2,3.2,0,0,1,.326.44c.045.074.081.181.016.236a.2.2,0,0,1-.12.033l-.781.033a.908.908,0,0,1-.352-.032.892.892,0,0,1-.366-.327l-.348-.455a1.029,1.029,0,0,1-.223-.392.352.352,0,0,1,.156-.39.518.518,0,0,1,.384.027,3.185,3.185,0,0,1,.726.271,3,3,0,0,1,.583.555Z" transform="translate(-577.672 -341.031)" opacity="0.1"/>
      <path id="Path_727" data-name="Path 727" d="M577.025,306.719a11.162,11.162,0,0,1,.394-1.51,3.536,3.536,0,0,0,.2-.734c.021-.2,0-.4.02-.594.016-.171.057-.335.082-.506a2.542,2.542,0,0,0-.061-1.029c-.071-.266,0-.591-.174-.807-.069-.088-.162-.155-.234-.241a.334.334,0,0,1-.088-.309,1.948,1.948,0,0,0,.74.023.486.486,0,0,0,.207-.072.2.2,0,0,0,.087-.188.272.272,0,0,0-.142-.162,1.736,1.736,0,0,0-1.475-.165.086.086,0,0,1,.037-.1.316.316,0,0,1,.111-.037.769.769,0,0,0,.55-.477.163.163,0,0,0,.011-.1c-.029-.081-.145-.077-.229-.056l-.455.112a1.068,1.068,0,0,0-.254.086,1.046,1.046,0,0,0-.26.223,2.909,2.909,0,0,0-.613.848c-.059.147-.094.3-.155.446a.687.687,0,0,1-.3.358.387.387,0,0,0-.2.41,1.148,1.148,0,0,0,.207.446,5.449,5.449,0,0,0,.572.744,2.074,2.074,0,0,1,.39.478c.065.132.093.279.149.413a.9.9,0,0,1,.072.2.5.5,0,0,1,0,.147,14.969,14.969,0,0,1-.85,2.064.2.2,0,0,0,.112.264,4.451,4.451,0,0,0,1.365.609A5.158,5.158,0,0,0,577.025,306.719Z" transform="translate(-571.387 -291.972)" opacity="0.1"/>
      <path id="Path_728" data-name="Path 728" d="M576.482,306.419a11.178,11.178,0,0,1,.394-1.51,3.47,3.47,0,0,0,.2-.734c.021-.2,0-.4.02-.594.016-.171.057-.335.083-.506a2.544,2.544,0,0,0-.061-1.029c-.071-.266,0-.591-.174-.807-.069-.088-.162-.155-.234-.241a.335.335,0,0,1-.088-.309,1.948,1.948,0,0,0,.74.023.486.486,0,0,0,.207-.072.2.2,0,0,0,.088-.188.278.278,0,0,0-.143-.162,1.736,1.736,0,0,0-1.475-.165.086.086,0,0,1,.037-.1.315.315,0,0,1,.112-.037.769.769,0,0,0,.549-.477.161.161,0,0,0,.011-.1c-.029-.083-.145-.078-.223-.057l-.454.112a1.059,1.059,0,0,0-.255.086,1.045,1.045,0,0,0-.26.223,2.909,2.909,0,0,0-.613.849c-.059.147-.094.3-.155.446a.687.687,0,0,1-.3.358.389.389,0,0,0-.2.41,1.148,1.148,0,0,0,.207.446,5.533,5.533,0,0,0,.572.744,2.073,2.073,0,0,1,.39.478c.065.132.093.279.149.414a.873.873,0,0,1,.072.2.5.5,0,0,1,0,.147,14.97,14.97,0,0,1-.85,2.064.2.2,0,0,0,.112.264,4.451,4.451,0,0,0,1.365.609A5.152,5.152,0,0,0,576.482,306.419Z" transform="translate(-570.91 -291.706)" fill="#fbbebe"/>
      <path id="Path_729" data-name="Path 729" d="M582.941,358.578a.082.082,0,0,1,.038.035.084.084,0,0,1,0,.059,4.911,4.911,0,0,1-.43.948q-.532-.292-1.038-.626a.557.557,0,0,1-.209-.2C580.8,357.835,582.609,358.385,582.941,358.578Z" transform="translate(-577.068 -344.05)" fill="#3f3d56"/>
      <path id="Path_730" data-name="Path 730" d="M555.5,357.759c-.117.156-.252.3-.368.454a7.081,7.081,0,0,0-.507.915,6.288,6.288,0,0,1-.77,1.138,2.228,2.228,0,0,0-.692,1.175.368.368,0,0,1-.041.191.692.692,0,0,1-.136.112.112.112,0,0,0-.026.157c-.172.018-.243.223-.276.394l-.076.39a1.538,1.538,0,0,0-.037.311,1.29,1.29,0,0,0,.1.41,6.638,6.638,0,0,0,.7,1.36,1.3,1.3,0,0,0,.521.5,1.435,1.435,0,0,0,.669.062c.318-.02.687-.07.845-.347.1-.175.085-.4.194-.571a1.957,1.957,0,0,1,.21-.231,1.491,1.491,0,0,0,.258-.508,19.009,19.009,0,0,0,.7-2.537,4.1,4.1,0,0,1,.229-.851,4.76,4.76,0,0,1,.424-.7,6.435,6.435,0,0,0,.52-1.27c-.43-.1-.629-.386-1-.628a13.894,13.894,0,0,0-1.226-.892C555.6,357.1,555.7,357.491,555.5,357.759Z" transform="translate(-551.617 -342.766)" opacity="0.1"/>
      <path id="Path_731" data-name="Path 731" d="M553.149,355.659c-.112.156-.252.3-.367.455a6.945,6.945,0,0,0-.507.914,6.258,6.258,0,0,1-.77,1.14,2.216,2.216,0,0,0-.692,1.175.374.374,0,0,1-.041.19.8.8,0,0,1-.137.111.113.113,0,0,0-.026.156c-.172.019-.243.223-.275.395l-.076.39a1.4,1.4,0,0,0-.037.31,1.267,1.267,0,0,0,.1.411,6.667,6.667,0,0,0,.7,1.36,1.3,1.3,0,0,0,.522.5,1.435,1.435,0,0,0,.669.062c.317-.02.687-.071.844-.347.1-.176.085-.4.194-.572a2.271,2.271,0,0,1,.21-.23,1.492,1.492,0,0,0,.259-.508,19.059,19.059,0,0,0,.695-2.537,4.125,4.125,0,0,1,.223-.852,4.853,4.853,0,0,1,.424-.7,5.211,5.211,0,0,0,.462-1.154c-.43-.1-.571-.5-.938-.744a13.72,13.72,0,0,0-1.227-.892C553.246,355.005,553.348,355.393,553.149,355.659Z" transform="translate(-549.529 -340.9)" opacity="0.1"/>
      <path id="Path_732" data-name="Path 732" d="M554.459,356.7c-.111.156-.252.3-.367.454a6.9,6.9,0,0,0-.507.915,6.2,6.2,0,0,1-.771,1.138,2.225,2.225,0,0,0-.692,1.175.377.377,0,0,1-.041.191.857.857,0,0,1-.137.112.112.112,0,0,0-.026.156c-.172.018-.243.223-.275.395l-.076.39a1.384,1.384,0,0,0-.037.31,1.292,1.292,0,0,0,.1.411,6.691,6.691,0,0,0,.7,1.359,1.3,1.3,0,0,0,.522.505,1.449,1.449,0,0,0,.669.062c.317-.02.687-.071.844-.347.1-.176.085-.4.194-.572a2.278,2.278,0,0,1,.21-.231,1.5,1.5,0,0,0,.259-.507,19.023,19.023,0,0,0,.695-2.538,4.11,4.11,0,0,1,.223-.851,4.85,4.85,0,0,1,.424-.7,7.97,7.97,0,0,0,.719-1.356,3.706,3.706,0,0,1-1.2-.543,14.931,14.931,0,0,0-1.227-.892C554.556,356.046,554.657,356.438,554.459,356.7Z" transform="translate(-550.693 -341.824)" fill="#f86d70"/>
      <circle id="Ellipse_225" data-name="Ellipse 225" cx="0.233" cy="0.233" r="0.233" transform="translate(4.64 14.987)" fill="#3f3d56"/>
      <circle id="Ellipse_226" data-name="Ellipse 226" cx="0.233" cy="0.233" r="0.233" transform="translate(3.911 16.125)" fill="#3f3d56"/>
      <circle id="Ellipse_227" data-name="Ellipse 227" cx="0.233" cy="0.233" r="0.233" transform="translate(3.153 17.293)" fill="#3f3d56"/>
      <path id="Path_733" data-name="Path 733" d="M636.36,336.872h-2.134c-.026-.145-.009-.309-.1-.42a1.245,1.245,0,0,0,.008.34c.006.027.012.054.019.08h-2.714a4.329,4.329,0,0,1,.1-1.018,9.435,9.435,0,0,0,.155-1.481c.013-.614-.032-1.227-.036-1.841a13.375,13.375,0,0,1,.117-1.817,5.746,5.746,0,0,0,.093-1.672c-.1-.617-.188-1.241-.266-1.861a2.082,2.082,0,0,0-.078-.4,2.642,2.642,0,0,0-.112-.271,4.172,4.172,0,0,1-.361-1.419c-.016-.185-.278-.352-.274-.54a3.088,3.088,0,0,1,1.338-.038c.345.124.6.428.944.543s.711.031,1.047.144a.279.279,0,0,1,.173.123.223.223,0,0,1-.13.28.653.653,0,0,1-.334.026q.557.407,1.082.859a1.14,1.14,0,0,1,.3.347,1.187,1.187,0,0,1,.082.516c0,.205,0,.409.006.614a6.719,6.719,0,0,0,.268,1.146c.087.491.13.987.171,1.483.023.289.046.578.058.867.022.557.119,1.115.128,1.667,0,.172,0,.345.016.515a5.008,5.008,0,0,0,.074.5c.065.358.129.717.2,1.075a1.45,1.45,0,0,1,.031.284,1.6,1.6,0,0,0-.01.413,1.2,1.2,0,0,0,.066.168A1.866,1.866,0,0,1,636.36,336.872Z" transform="translate(-621.097 -314.02)" fill="#f86d70"/>
      <ellipse id="Ellipse_228" data-name="Ellipse 228" cx="3.152" cy="1.225" rx="3.152" ry="1.225" transform="translate(4.538 1.199)" fill="#3f3d56"/>
      <path id="Path_734" data-name="Path 734" d="M616.346,262.956a1.023,1.023,0,0,0-1.378.459,1.48,1.48,0,0,0,.765,1.868,1.06,1.06,0,0,0,.541.148,1.037,1.037,0,0,0,.4-.079,1.734,1.734,0,0,0,1.085-1.338C617.937,262.639,616.346,262.956,616.346,262.956Zm1.032,1.082a1.45,1.45,0,0,1-.882,1.115.843.843,0,0,1-.766-.058,1.241,1.241,0,0,1-.622-1.555.821.821,0,0,1,1.115-.382C616.229,263.155,617.522,262.889,617.378,264.038Z" transform="translate(-606.961 -259.295)" fill="#f86d70"/>
      <path id="Path_735" data-name="Path 735" d="M617.509,264.873s1.293-.265,1.15.883a1.45,1.45,0,0,1-.882,1.115.842.842,0,0,1-.327.066h0a.838.838,0,0,1-.439-.124,1.241,1.241,0,0,1-.622-1.555A.825.825,0,0,1,617.509,264.873Z" transform="translate(-608.241 -261.013)" fill="#3f3d56"/>
      <path id="Path_736" data-name="Path 736" d="M617.509,264.873s1.293-.265,1.15.883a1.45,1.45,0,0,1-.882,1.115.842.842,0,0,1-.327.066h0a.838.838,0,0,1-.439-.124,1.241,1.241,0,0,1-.622-1.555A.825.825,0,0,1,617.509,264.873Z" transform="translate(-608.241 -261.013)" opacity="0.1" fill="url(#radial-gradient)"/>
      <path id="Path_737" data-name="Path 737" d="M582.011,264.034a1.734,1.734,0,0,0,1.085,1.338,1.037,1.037,0,0,0,.4.079,1.06,1.06,0,0,0,.541-.148,1.478,1.478,0,0,0,.765-1.868,1.023,1.023,0,0,0-1.378-.459S581.835,262.656,582.011,264.034Zm1.532-.862a.818.818,0,0,1,1.115.382,1.244,1.244,0,0,1-.622,1.555.843.843,0,0,1-.766.058,1.449,1.449,0,0,1-.882-1.115C582.25,262.907,583.543,263.173,583.543,263.173Z" transform="translate(-577.764 -259.312)" fill="#f86d70"/>
      <path id="Path_738" data-name="Path 738" d="M586.611,264.873s-1.293-.265-1.15.883a1.45,1.45,0,0,0,.882,1.115.842.842,0,0,0,.327.066h0a.839.839,0,0,0,.439-.124,1.241,1.241,0,0,0,.622-1.555A.825.825,0,0,0,586.611,264.873Z" transform="translate(-580.831 -261.013)" fill="#3f3d56"/>
      <path id="Path_739" data-name="Path 739" d="M586.611,264.873s-1.293-.265-1.15.883a1.45,1.45,0,0,0,.882,1.115.842.842,0,0,0,.327.066h0a.839.839,0,0,0,.439-.124,1.241,1.241,0,0,0,.622-1.555A.825.825,0,0,0,586.611,264.873Z" transform="translate(-580.831 -261.013)" opacity="0.1" fill="url(#radial-gradient-2)"/>
    </g>
  </g>
</svg>
