<svg xmlns="http://www.w3.org/2000/svg" width="128.206" height="68.197" viewBox="0 0 128.206 68.197">
  <g id="undraw_conference_speaker_6nt7" transform="translate(-0.011 -0.035)">
    <path id="Path_1125" data-name="Path 1125" d="M433.666,506.638a4.352,4.352,0,0,1,.533-.708,1.026,1.026,0,0,1-.082.062,1.362,1.362,0,0,0-.369.233.769.769,0,0,0-.133.314l-.314,1.219c.062-.078.123-.154.186-.23A2.154,2.154,0,0,1,433.666,506.638Z" transform="translate(-389.587 -464.913)" fill="#f2f2f2"/>
    <path id="Path_1126" data-name="Path 1126" d="M671.278,507.234a1.4,1.4,0,0,1-.123.4,5.558,5.558,0,0,1-.2,1.527,4.629,4.629,0,0,0-.129.639,15.361,15.361,0,0,0-.075,5.989.722.722,0,0,1,.188-.308,3.171,3.171,0,0,0,.554-1.438,35.126,35.126,0,0,0,.246-8.167.91.91,0,0,0-.268-.2,2.507,2.507,0,0,1-.009.359A11.92,11.92,0,0,1,671.278,507.234Z" transform="translate(-597.56 -464.685)" fill="#f2f2f2"/>
    <path id="Path_1127" data-name="Path 1127" d="M531.152,503.948a1.258,1.258,0,0,0-.1-.456,1.457,1.457,0,0,0-.239-.33l-.266-.3c-.135,3.216-.424,6.44.175,9.589a3.172,3.172,0,0,0,.554,1.438.722.722,0,0,1,.188.308,15.432,15.432,0,0,0-.075-5.989,4.62,4.62,0,0,0-.129-.639,6.107,6.107,0,0,1-.146-2.481A5.791,5.791,0,0,0,531.152,503.948Z" transform="translate(-474.699 -462.221)" fill="#f2f2f2"/>
    <path id="Path_1128" data-name="Path 1128" d="M549.16,451.669a8.42,8.42,0,0,1,.777,1.943l.085.288c-.041-.974-.06-1.947-.068-2.92-.192.171-.385.339-.58.506Z" transform="translate(-491.183 -416.728)" fill="#f2f2f2"/>
    <path id="Path_1129" data-name="Path 1129" d="M548.5,623.807a6.591,6.591,0,0,0-.156-2.034,5.994,5.994,0,0,1-.291-1.269,3.9,3.9,0,0,1,.106-.862,16.134,16.134,0,0,0-.042-7.789c-.206-.672-.478-1.322-.687-1.993a4.863,4.863,0,0,1-.347.728.754.754,0,0,0-.42-.492,2.5,2.5,0,0,1-.009.36,11.916,11.916,0,0,1-.171,1.2,1.223,1.223,0,0,1-.151.44,1.022,1.022,0,0,1-.4.328c.071.161.143.324.213.485l-.513.158a3.736,3.736,0,0,1-.123,2.366c-.644,2.732-.064,5.65-.369,8.412Z" transform="translate(-487.658 -556.047)" fill="#f2f2f2"/>
    <path id="Path_1130" data-name="Path 1130" d="M554.666,400.638a4.351,4.351,0,0,1,.533-.708,1.023,1.023,0,0,1-.083.062,1.363,1.363,0,0,0-.369.233.768.768,0,0,0-.133.314l-.314,1.219c.062-.078.123-.154.186-.23A2.154,2.154,0,0,1,554.666,400.638Z" transform="translate(-495.69 -371.963)" fill="#f2f2f2"/>
    <path id="Path_1131" data-name="Path 1131" d="M652.159,397.948a1.256,1.256,0,0,0-.1-.456,1.457,1.457,0,0,0-.239-.33l-.266-.3a42.764,42.764,0,0,0,.15,9.446c.1-.335.2-.67.3-1.006a10.262,10.262,0,0,1,.592-1.61c-.058-.492-.129-.994-.2-1.477a4.63,4.63,0,0,0-.129-.639,6.1,6.1,0,0,1-.147-2.481A5.792,5.792,0,0,0,652.159,397.948Z" transform="translate(-580.808 -369.271)" fill="#f2f2f2"/>
    <path id="Path_1132" data-name="Path 1132" d="M611.171,602.28l-.421,14.83,1.108-.012a46.333,46.333,0,0,1-.266-5.436,7.594,7.594,0,0,0-.091-1.578c-.078-.361-.213-.707-.287-1.067a6.4,6.4,0,0,1-.083-1.311Z" transform="translate(-545.19 -549.4)" fill="#f2f2f2"/>
    <path id="Path_1133" data-name="Path 1133" d="M536.015,598.227c.017-.041.034-.081.05-.123.058-.15.11-.3.158-.454a.126.126,0,0,0-.01.017c-.1.16-.2.314-.313.464C535.939,598.163,535.978,598.194,536.015,598.227Z" transform="translate(-479.555 -545.34)" fill="#f2f2f2"/>
    <path id="Path_1135" data-name="Path 1135" d="M264.014,554.227c.017-.041.034-.081.05-.123.058-.15.11-.3.158-.454a.124.124,0,0,0-.01.017c-.1.16-.2.314-.313.464C263.939,554.163,263.978,554.194,264.014,554.227Z" transform="translate(-241.044 -506.757)" fill="#f2f2f2"/>
    <path id="Path_1136" data-name="Path 1136" d="M219.609,664.28q-.108,3.86-.219,7.718l.528-.006c-.079-.327-.2-.645-.263-.976a6.393,6.393,0,0,1-.082-1.311Z" transform="translate(-202.014 -603.767)" fill="#f2f2f2"/>
    <path id="Path_1138" data-name="Path 1138" d="M298.48,691.66c.048.153.1.3.158.454.016.041.033.081.05.123.037-.033.075-.064.115-.095-.11-.15-.215-.3-.313-.464A.119.119,0,0,0,298.48,691.66Z" transform="translate(-271.366 -627.776)" fill="#f2f2f2"/>
    <path id="Path_1140" data-name="Path 1140" d="M397.073,601.527l.186.23-.314-1.219a.769.769,0,0,0-.133-.314,1.364,1.364,0,0,0-.369-.233q-.043-.029-.082-.062a4.351,4.351,0,0,1,.533.708A2.155,2.155,0,0,1,397.073,601.527Z" transform="translate(-357.195 -547.339)" fill="#f2f2f2"/>
    <path id="Path_1141" data-name="Path 1141" d="M430.114,558.486c.078.856.123,1.714.166,2.572s.087,1.694.13,2.541a12.562,12.562,0,0,1,.456-1.933,2.57,2.57,0,0,1-.228-1.095c-.062-1.187-.089-2.374-.1-3.562-.188.169-.379.334-.571.492A6.928,6.928,0,0,1,430.114,558.486Z" transform="translate(-386.667 -509.704)" fill="#f2f2f2"/>
    <path id="Path_1143" data-name="Path 1143" d="M657.1,647.155l.965-.01c-.515-2.965.228-6.147-.472-9.111a9.25,9.25,0,0,1-.281-1.415,7.779,7.779,0,0,0-.592,1.992c-.112,1.2.452,2.345.661,3.531a17.887,17.887,0,0,1-.276,4.949C657.1,647.115,657.1,647.132,657.1,647.155Z" transform="translate(-585.484 -579.512)" fill="#f2f2f2"/>
    <path id="Path_1145" data-name="Path 1145" d="M912.776,439.387l.01-.034.044-.144a1.541,1.541,0,0,0-.347-.217c-.028-.019-.056-.04-.082-.062C912.522,439.085,912.659,439.229,912.776,439.387Z" transform="translate(-809.701 -406.162)" fill="#f2f2f2"/>
    <path id="Path_1146" data-name="Path 1146" d="M814.48,530.66c.048.153.1.3.158.454.016.041.033.081.05.123.037-.033.075-.064.115-.095-.11-.15-.215-.3-.313-.464A.122.122,0,0,0,814.48,530.66Z" transform="translate(-723.836 -486.598)" fill="#f2f2f2"/>
    <path id="Path_1148" data-name="Path 1148" d="M492.772,710.207q0-.968.012-1.937-.028.968-.054,1.937Z" transform="translate(-441.7 -642.341)" fill="#f2f2f2"/>
    <path id="Path_1150" data-name="Path 1150" d="M161.654,462.538l-.314,1.219c.062-.078.123-.154.186-.23a2.155,2.155,0,0,1,.175-.889,4.353,4.353,0,0,1,.533-.708,1.029,1.029,0,0,1-.082.062,1.363,1.363,0,0,0-.369.233A.768.768,0,0,0,161.654,462.538Z" transform="translate(-151.111 -426.33)" fill="#f2f2f2"/>
    <path id="Path_1151" data-name="Path 1151" d="M772.073,500.527l.186.23-.314-1.219a.768.768,0,0,0-.133-.314,1.363,1.363,0,0,0-.369-.233q-.043-.029-.082-.062a4.35,4.35,0,0,1,.533.708A2.155,2.155,0,0,1,772.073,500.527Z" transform="translate(-686.025 -458.775)" fill="#f2f2f2"/>
    <path id="Path_1152" data-name="Path 1152" d="M932.688,568.236c.037-.033.075-.064.115-.095-.11-.15-.216-.3-.313-.464a.124.124,0,0,0-.01-.017c.048.153.1.3.158.454C932.654,568.155,932.667,568.194,932.688,568.236Z" transform="translate(-827.308 -519.042)" fill="#f2f2f2"/>
    <path id="Path_1153" data-name="Path 1153" d="M673.48,590.66c.048.153.1.3.158.454.016.041.033.081.05.123.037-.033.075-.064.115-.095-.11-.15-.216-.3-.313-.464A.122.122,0,0,0,673.48,590.66Z" transform="translate(-600.196 -539.211)" fill="#f2f2f2"/>
    <path id="Path_1157" data-name="Path 1157" d="M718.83,701.28q.007,1.248.016,2.5h.054Z" transform="translate(-639.963 -636.211)" fill="#f2f2f2"/>
    <path id="Path_1158" data-name="Path 1158" d="M977.83,678.28q.012,1.884.025,3.767l.081-.047Q977.882,680.142,977.83,678.28Z" transform="translate(-867.075 -616.043)" fill="#f2f2f2"/>
    <path id="Path_1159" data-name="Path 1159" d="M952.108,362.13l-.208.042a2.7,2.7,0,0,0,.387.369,2.06,2.06,0,0,1-.179-.411Z" transform="translate(-844.337 -338.817)" fill="#f2f2f2"/>
    <path id="Path_1160" data-name="Path 1160" d="M856.79,641.28l.037,5.425a6.391,6.391,0,0,1-.082,1.311c-.074.361-.209.707-.287,1.067a7.266,7.266,0,0,0-.091,1.578v.319l.7-.007Q856.928,646.127,856.79,641.28Z" transform="translate(-760.563 -583.598)" fill="#f2f2f2"/>
    <path id="Path_1161" data-name="Path 1161" d="M1031.073,477.527l.186.23-.314-1.219a.767.767,0,0,0-.133-.314,1.361,1.361,0,0,0-.369-.233,1.027,1.027,0,0,1-.083-.062,4.35,4.35,0,0,1,.533.708A2.155,2.155,0,0,1,1031.073,477.527Z" transform="translate(-913.137 -438.606)" fill="#f2f2f2"/>
    <g id="Group_366" data-name="Group 366">
      <path id="Path_1134" data-name="Path 1134" d="M259.152,459.948a1.257,1.257,0,0,0-.1-.456,1.455,1.455,0,0,0-.239-.33l-.266-.3c-.135,3.216-.424,6.44.175,9.589a3.172,3.172,0,0,0,.554,1.438.722.722,0,0,1,.188.308,15.431,15.431,0,0,0-.075-5.989,4.631,4.631,0,0,0-.123-.639,6.1,6.1,0,0,1-.147-2.481A5.8,5.8,0,0,0,259.152,459.948Z" transform="translate(-236.188 -423.638)" fill="#f2f2f2" opacity="0.5"/>
      <path id="Path_1137" data-name="Path 1137" d="M266.357,696.9a1.023,1.023,0,0,1-.4-.33,1.223,1.223,0,0,1-.151-.449,11.911,11.911,0,0,1-.171-1.2,2.5,2.5,0,0,1-.009-.359.754.754,0,0,0-.42.492,5.758,5.758,0,0,1-.692-2.055c-.037.123-.075.259-.123.387a10.418,10.418,0,0,0-.7,2.3,4.566,4.566,0,0,0,.123,1.437l2.445-.027A1.163,1.163,0,0,0,266.357,696.9Z" transform="translate(-240.852 -628.951)" fill="#f2f2f2" opacity="0.5"/>
      <path id="Path_1139" data-name="Path 1139" d="M404.939,656.989a15.284,15.284,0,0,1-.353-2.23L404,649.342c-.006-.047-.011-.095-.016-.142-.007.023-.014.047-.021.07a3.891,3.891,0,0,1-.739,1.165c-.294.359-.662.731-1.095.625a1.176,1.176,0,0,1-.469-.289l-.985-.851c-.195-.167-.388-.335-.58-.506-.009,1.188-.036,2.375-.1,3.562a2.57,2.57,0,0,1-.228,1.095,12.547,12.547,0,0,1,.6,3.489c.009.321,0,.643-.01.964l2.886-.032h.017l2.171-.023A15.013,15.013,0,0,1,404.939,656.989Z" transform="translate(-360.185 -590.543)" fill="#f2f2f2" opacity="0.5"/>
      <path id="Path_1142" data-name="Path 1142" d="M295.821,602.156a15.359,15.359,0,0,0-.075,5.989.722.722,0,0,1,.188-.308,3.172,3.172,0,0,0,.554-1.438c.6-3.148.31-6.373.175-9.589l-.262.3a1.457,1.457,0,0,0-.246.336,1.257,1.257,0,0,0-.1.462,5.793,5.793,0,0,0,.038,1.131,6.106,6.106,0,0,1-.143,2.47A4.626,4.626,0,0,0,295.821,602.156Z" transform="translate(-268.73 -544.604)" fill="#f2f2f2" opacity="0.5"/>
      <path id="Path_1144" data-name="Path 1144" d="M904.233,612.8c-1.118-3.332,0-7.045-.809-10.465a3.655,3.655,0,0,1-.123-2.366l-.513-.158c.07-.161.142-.324.213-.485a1.271,1.271,0,0,1-.276-.19l-.377,3.473a15.292,15.292,0,0,1-.353,2.23c-.213.819-.559,1.6-.807,2.407a14.96,14.96,0,0,0-.233,6.716l3.694-.039C904.514,613.551,904.36,613.181,904.233,612.8Z" transform="translate(-799.43 -546.647)" fill="#f2f2f2" opacity="0.5"/>
      <path id="Path_1147" data-name="Path 1147" d="M930.488,507.8a27.209,27.209,0,0,0,.335-6.022.789.789,0,0,1-.673.193l-.021-.006a5.267,5.267,0,0,1-.178.953,4.611,4.611,0,0,0-.129.639,15.357,15.357,0,0,0-.075,5.989.722.722,0,0,1,.188-.308A3.174,3.174,0,0,0,930.488,507.8Z" transform="translate(-824.672 -461.274)" fill="#f2f2f2" opacity="0.5"/>
      <path id="Path_1149" data-name="Path 1149" d="M206.136,187.485q-.123-.7-.292-1.368a14.793,14.793,0,0,0-9.111-10.768q-.659-.268-1.369-.492a23.278,23.278,0,0,0-3.295-.788,75.03,75.03,0,0,0-27.915.678c-.459.09-.915.185-1.369.281-11.413,2.412-21.132,6.149-31.5,5.822-.454-.014-.911-.036-1.368-.065a38.75,38.75,0,0,1-14.18-3.761c-5.9-2.781-11.907-1.847-17.323,1.465a34.111,34.111,0,0,0-8.487,7.633l-.009.01q-.542.665-1.064,1.354c-8.329,11.066-12.953,27.613-9.16,40.436q.2.693.443,1.369a24.8,24.8,0,0,0,4.962,8.479,10.636,10.636,0,0,0,4.813,3.047c.318.1.641.179.969.246a13.034,13.034,0,0,0-.469-4.6c-.246-.81-.593-1.588-.806-2.407a15.283,15.283,0,0,1-.353-2.23l-.586-5.417a24.038,24.038,0,0,1-.213-3.355,12.548,12.548,0,0,1,.6-3.489,2.57,2.57,0,0,1-.228-1.095c-.062-1.187-.089-2.374-.1-3.562-.192.171-.385.339-.58.506l-.991.856a1.176,1.176,0,0,1-.469.289c-.432.106-.815-.278-1.095-.625a4.114,4.114,0,0,1-.739-1.165,3.651,3.651,0,0,1-.134-1.251c.01-.54.037-1.08.065-1.619l.233-4.511c.044-.862.089-1.716.166-2.572a4.079,4.079,0,0,1,.451-1.767,3.2,3.2,0,0,1,3.029-1.245.435.435,0,0,1-.011-.369.659.659,0,0,1,.3-.246l1.713-.925a.948.948,0,0,1,.4-.142.473.473,0,0,1,.219.046l.331-.231a.836.836,0,0,1,.246-.134.581.581,0,0,1,.336.016,1.354,1.354,0,0,0,.142-.534,1.9,1.9,0,0,0-.145-.672,3.245,3.245,0,0,1-1.287-2.551c-.369-.207-.845-.323-.995-.758-.1-.3.02-.624-.022-.933a.76.76,0,0,1-.182-.288c-.106-.307.032-.649-.025-.969a1.421,1.421,0,0,1-.087-.523.769.769,0,0,1,.195-.329L91,190.829a3.163,3.163,0,0,1,.91-.827c.879-.452,1.932,0,2.919,0a3.022,3.022,0,0,1,.985.055,2.033,2.033,0,0,1,.608.387l1.354,1.108a2.2,2.2,0,0,1,.991,1.395,1.31,1.31,0,0,1-.076.523,1.354,1.354,0,0,1,.279.7,1.859,1.859,0,0,1-.393,1.134,5.989,5.989,0,0,1-1.231,1.335,3.252,3.252,0,0,1-.779,1.569,10.205,10.205,0,0,0,.35,1.267.164.164,0,0,1,.009.022.616.616,0,0,1,.32.112,1.732,1.732,0,0,1,.266.246.387.387,0,0,1,.18-.15.744.744,0,0,1,.565.091,5.8,5.8,0,0,1,1.538.9,1.97,1.97,0,0,1,.4.508,2.534,2.534,0,0,1,1.767.409A5.047,5.047,0,0,1,103.6,204.5q.362,1.214.725,2.425a11.148,11.148,0,0,1,.5,6.252c-.191,1.383.259,2.9.265,4.293,0,.358,0,.721-.009,1.083a2.541,2.541,0,0,1,1.681-.356,1.97,1.97,0,0,1,.4-.508,5.87,5.87,0,0,1,1.538-.9.744.744,0,0,1,.565-.091.387.387,0,0,1,.18.15,1.733,1.733,0,0,1,.266-.246.616.616,0,0,1,.32-.112.166.166,0,0,1,.009-.022,10.206,10.206,0,0,0,.35-1.267,3.252,3.252,0,0,1-.779-1.569,5.99,5.99,0,0,1-1.231-1.335,1.859,1.859,0,0,1-.393-1.134,1.354,1.354,0,0,1,.279-.7,1.31,1.31,0,0,1-.076-.523,2.207,2.207,0,0,1,.991-1.395l1.354-1.108a2.033,2.033,0,0,1,.608-.387,3.027,3.027,0,0,1,.985-.055c.985,0,2.04-.449,2.919,0a3.131,3.131,0,0,1,.91.827l1.226,1.434a.769.769,0,0,1,.195.329,1.447,1.447,0,0,1-.087.523c-.057.32.081.662-.025.969a.76.76,0,0,1-.182.288c-.042.309.08.637-.022.933-.15.436-.623.552-.995.758a3.245,3.245,0,0,1-1.287,2.551,1.9,1.9,0,0,0-.145.672,1.355,1.355,0,0,0,.142.534.581.581,0,0,1,.336-.016.836.836,0,0,1,.246.134l.331.231a.473.473,0,0,1,.219-.046.948.948,0,0,1,.4.142l1.709.915a1.086,1.086,0,0,1,.209.139c.014-.331.028-.664.046-.995l.233-4.511c.044-.862.089-1.716.166-2.572a4.079,4.079,0,0,1,.451-1.767,3.2,3.2,0,0,1,3.029-1.245.435.435,0,0,1-.011-.369.659.659,0,0,1,.3-.246l1.708-.923a.948.948,0,0,1,.4-.142.473.473,0,0,1,.219.046l.331-.231a.836.836,0,0,1,.246-.134.581.581,0,0,1,.336.016,1.355,1.355,0,0,0,.142-.534,1.9,1.9,0,0,0-.145-.672,3.245,3.245,0,0,1-1.287-2.551c-.369-.207-.845-.323-.995-.758-.1-.3.02-.624-.022-.933a.76.76,0,0,1-.182-.288c-.106-.307.032-.649-.025-.969a3.111,3.111,0,0,1-.094-.424,3.571,3.571,0,0,0-.308.8c-.174.7-.143,1.429-.246,2.14a.867.867,0,0,1-.315.64,3.645,3.645,0,0,1-.543.165.924.924,0,0,0-.492.755,7.312,7.312,0,0,0,.009.943,2.378,2.378,0,0,1-1.114,2.077,3.915,3.915,0,0,1-3.146-.181,2.776,2.776,0,0,0,1.175-.815l-1.127-.224a7.222,7.222,0,0,0,1.8-1.186,1.528,1.528,0,0,0,.458-.6c.123-.345.009-.739.123-1.085.191-.591.916-.816,1.285-1.315a2.567,2.567,0,0,0,.334-1.564l-.006-2.066a1.98,1.98,0,0,1,.512-1.64c.528-.4,1.277-.174,1.942-.179a18.76,18.76,0,0,0,2.065-.369c.657-.076,1.754.385,1.736.906a7.558,7.558,0,0,0,1.108.116,3.022,3.022,0,0,1,.985.055,2.033,2.033,0,0,1,.608.387l1.354,1.108a2.172,2.172,0,0,1,.985,1.395,1.31,1.31,0,0,1-.076.523,1.354,1.354,0,0,1,.279.7,1.859,1.859,0,0,1-.393,1.134,5.99,5.99,0,0,1-1.231,1.335,3.252,3.252,0,0,1-.779,1.569,10.206,10.206,0,0,0,.35,1.267.164.164,0,0,1,.009.022.616.616,0,0,1,.32.112,1.734,1.734,0,0,1,.266.246.387.387,0,0,1,.18-.15.744.744,0,0,1,.565.091,6.772,6.772,0,0,1,1.354.752v-.075c.01-.54.037-1.08.065-1.619l.233-4.511c.044-.862.089-1.716.166-2.572a4.08,4.08,0,0,1,.451-1.767,3.2,3.2,0,0,1,3.029-1.245.435.435,0,0,1-.011-.369.659.659,0,0,1,.3-.246l1.719-.931a.948.948,0,0,1,.4-.142.473.473,0,0,1,.219.046l.331-.231a.836.836,0,0,1,.246-.134.581.581,0,0,1,.336.016,1.354,1.354,0,0,0,.142-.534,1.9,1.9,0,0,0-.145-.672,3.245,3.245,0,0,1-1.287-2.551c-.369-.207-.845-.323-.995-.758-.1-.3.02-.624-.022-.933a.76.76,0,0,1-.182-.288c-.106-.307.032-.649-.025-.969a1.421,1.421,0,0,1-.087-.523.769.769,0,0,1,.195-.329l1.21-1.433a3.163,3.163,0,0,1,.91-.827c.879-.452,1.932,0,2.919,0a3.022,3.022,0,0,1,.985.055,2.033,2.033,0,0,1,.608.387l1.354,1.108a2.172,2.172,0,0,1,.985,1.395,1.31,1.31,0,0,1-.076.523,1.354,1.354,0,0,1,.279.7,1.859,1.859,0,0,1-.393,1.134A5.99,5.99,0,0,1,145.725,189a3.252,3.252,0,0,1-.779,1.569,10.2,10.2,0,0,0,.35,1.267.164.164,0,0,1,.009.022.616.616,0,0,1,.32.112,1.733,1.733,0,0,1,.266.246.387.387,0,0,1,.18-.15.744.744,0,0,1,.565.091,5.8,5.8,0,0,1,1.538.9,1.969,1.969,0,0,1,.4.508,2.534,2.534,0,0,1,1.767.409,5.047,5.047,0,0,1,1.638,2.883q.362,1.214.725,2.425a14.865,14.865,0,0,1,.712,3.241,13.942,13.942,0,0,1-.182,2.816c.031-.032.062-.063.1-.094a5.87,5.87,0,0,1,1.538-.9.744.744,0,0,1,.565-.091.387.387,0,0,1,.18.15,1.734,1.734,0,0,1,.266-.246.616.616,0,0,1,.32-.112.165.165,0,0,1,.009-.022,10.207,10.207,0,0,0,.35-1.267,3.252,3.252,0,0,1-.779-1.569,5.99,5.99,0,0,1-1.231-1.335,1.859,1.859,0,0,1-.393-1.134,1.354,1.354,0,0,1,.279-.7,1.31,1.31,0,0,1-.076-.523,2.22,2.22,0,0,1,.985-1.395L156.7,195a2.033,2.033,0,0,1,.608-.387,3.026,3.026,0,0,1,.985-.055,7.556,7.556,0,0,0,1.108-.116c-.018-.521,1.079-.985,1.736-.906a18.427,18.427,0,0,0,2.065.369c.665,0,1.413-.225,1.942.179a1.976,1.976,0,0,1,.512,1.64l-.006,2.066a2.576,2.576,0,0,0,.334,1.564c.352.475,1.026.7,1.253,1.231a3.727,3.727,0,0,1,1.278-1.806,2.534,2.534,0,0,1,1.767-.409,1.97,1.97,0,0,1,.4-.508,5.87,5.87,0,0,1,1.538-.9.744.744,0,0,1,.565-.091.387.387,0,0,1,.18.15,1.734,1.734,0,0,1,.266-.246.616.616,0,0,1,.32-.112.165.165,0,0,1,.009-.022,10.2,10.2,0,0,0,.35-1.267,3.252,3.252,0,0,1-.779-1.569,5.99,5.99,0,0,1-1.231-1.335,1.859,1.859,0,0,1-.393-1.134,1.354,1.354,0,0,1,.279-.7,1.31,1.31,0,0,1-.076-.523,2.22,2.22,0,0,1,.985-1.395l1.354-1.108a2.032,2.032,0,0,1,.608-.387,3.026,3.026,0,0,1,.985-.055,7.56,7.56,0,0,0,1.108-.116c-.018-.521,1.079-.985,1.736-.906a18.427,18.427,0,0,0,2.065.369c.665,0,1.413-.225,1.942.179a1.976,1.976,0,0,1,.512,1.64l-.006,2.066a2.576,2.576,0,0,0,.334,1.564c.369.5,1.095.724,1.285,1.315.111.348,0,.739.123,1.085a1.528,1.528,0,0,0,.49.611,7.133,7.133,0,0,0,.88.68,1.467,1.467,0,0,1,.233-.453,1.31,1.31,0,0,1-.076-.523,2.219,2.219,0,0,1,.985-1.395l1.354-1.108a2.033,2.033,0,0,1,.608-.387,3.026,3.026,0,0,1,.985-.055c.985,0,2.04-.449,2.919,0a3.131,3.131,0,0,1,.91.827l1.21,1.433a.769.769,0,0,1,.195.329,1.446,1.446,0,0,1-.087.523c-.057.32.081.662-.025.969a.76.76,0,0,1-.182.288c-.042.309.08.637-.022.933-.15.436-.623.552-.995.758a3.245,3.245,0,0,1-1.287,2.551,1.9,1.9,0,0,0-.145.672,1.355,1.355,0,0,0,.142.534.581.581,0,0,1,.336-.016.836.836,0,0,1,.246.134l.331.231a.473.473,0,0,1,.219-.046.948.948,0,0,1,.4.142l1.709.915a.659.659,0,0,1,.3.246.435.435,0,0,1-.011.369,3.2,3.2,0,0,1,3.029,1.245,4.1,4.1,0,0,1,.451,1.767c.078.856.123,1.714.166,2.572l.233,4.511c.028.539.055,1.079.065,1.619a3.65,3.65,0,0,1-.134,1.251,3.892,3.892,0,0,1-.739,1.165c-.294.36-.662.731-1.095.625a1.176,1.176,0,0,1-.469-.289l-.991-.851c-.195-.167-.388-.335-.58-.506-.009,1.188-.036,2.375-.1,3.562a2.57,2.57,0,0,1-.228,1.095,12.548,12.548,0,0,1,.6,3.489,22.081,22.081,0,0,1-.163,2.893c.1-.22.207-.441.312-.666C202.067,215.575,208.237,199.1,206.136,187.485Z" transform="translate(-78.34 -173.03)" fill="#f2f2f2" opacity="0.5"/>
      <path id="Path_1154" data-name="Path 1154" d="M749.5,372.81a3.245,3.245,0,0,1-1.287,2.551,1.9,1.9,0,0,0-.145.672,1.355,1.355,0,0,0,.142.534.581.581,0,0,1,.336-.016.836.836,0,0,1,.246.134l.331.232a.473.473,0,0,1,.219-.046.948.948,0,0,1,.4.142l1.709.915a.658.658,0,0,1,.3.246.434.434,0,0,1-.011.369,4.492,4.492,0,0,1,1.1.053,18.306,18.306,0,0,1,.511-2.035,2.538,2.538,0,0,1-.628-1.689,7.1,7.1,0,0,0,.009-.943.925.925,0,0,0-.492-.755,3.558,3.558,0,0,1-.543-.165.872.872,0,0,1-.315-.64c-.107-.71-.076-1.442-.246-2.14a3.571,3.571,0,0,0-.308-.8,3.12,3.12,0,0,1-.094.424c-.057.32.081.662-.025.969a.76.76,0,0,1-.182.288c-.042.309.08.637-.022.933C750.347,372.487,749.874,372.6,749.5,372.81Z" transform="translate(-665.603 -345.219)" fill="#f2f2f2" opacity="0.5"/>
      <path id="Path_1155" data-name="Path 1155" d="M811.821,441.156a15.359,15.359,0,0,0-.075,5.989.723.723,0,0,1,.188-.308,3.172,3.172,0,0,0,.554-1.438c.6-3.148.31-6.373.175-9.589l-.262.3a1.456,1.456,0,0,0-.246.336,1.257,1.257,0,0,0-.1.462,5.8,5.8,0,0,0,.038,1.132,6.1,6.1,0,0,1-.143,2.47A4.643,4.643,0,0,0,811.821,441.156Z" transform="translate(-721.2 -403.426)" fill="#f2f2f2" opacity="0.5"/>
      <path id="Path_1156" data-name="Path 1156" d="M769.239,551.425a.755.755,0,0,1-.629.161,1.176,1.176,0,0,1-.469-.289l-.985-.851c-.195-.167-.388-.335-.58-.506-.009,1.188-.036,2.375-.1,3.562a2.571,2.571,0,0,1-.228,1.095,12.551,12.551,0,0,1,.6,3.489,24.9,24.9,0,0,1-.213,3.355q-.292,2.709-.586,5.417a15.285,15.285,0,0,1-.353,2.23c-.17.654-.425,1.282-.646,1.919l1.257-.014,1.6-.017h.2l2.709-.03a.017.017,0,0,0,0-.007c.209-1.186.773-2.339.661-3.531a10.421,10.421,0,0,0-.7-2.3c-1.118-3.332,0-7.045-.809-10.465a3.655,3.655,0,0,1-.123-2.366l-.513-.158c.07-.161.142-.324.213-.485A1.269,1.269,0,0,1,769.239,551.425Z" transform="translate(-680.492 -503.504)" fill="#f2f2f2" opacity="0.5"/>
      <path id="Path_1162" data-name="Path 1162" d="M890.5,312.81a3.245,3.245,0,0,1-1.287,2.551,1.905,1.905,0,0,0-.145.672,1.356,1.356,0,0,0,.142.534.581.581,0,0,1,.336-.016.836.836,0,0,1,.246.134l.331.231a.473.473,0,0,1,.219-.046.948.948,0,0,1,.4.142l1.709.915a.658.658,0,0,1,.3.246.434.434,0,0,1-.011.369,3.2,3.2,0,0,1,3.029,1.245,4.1,4.1,0,0,1,.451,1.767c.01.113.018.225.027.337a6.467,6.467,0,0,1,1.424-.808.744.744,0,0,1,.565-.091.387.387,0,0,1,.18.15,1.734,1.734,0,0,1,.266-.246.616.616,0,0,1,.32-.112.161.161,0,0,1,.009-.022,10.206,10.206,0,0,0,.35-1.267,3.251,3.251,0,0,1-.779-1.569,6.015,6.015,0,0,1-1-1.023,3.458,3.458,0,0,1-2.744.044,2.373,2.373,0,0,1-1.108-2.077,7.1,7.1,0,0,0,.009-.943.925.925,0,0,0-.492-.755,3.553,3.553,0,0,1-.543-.165.871.871,0,0,1-.315-.64c-.107-.71-.076-1.442-.246-2.14a3.572,3.572,0,0,0-.308-.8,3.137,3.137,0,0,1-.094.424c-.057.32.081.662-.025.969a.759.759,0,0,1-.182.288c-.042.309.08.637-.022.933C891.346,312.487,890.874,312.6,890.5,312.81Z" transform="translate(-789.243 -292.606)" fill="#f2f2f2" opacity="0.5"/>
    </g>
    <path id="Path_1163" data-name="Path 1163" d="M236.824,346h67.888a2.325,2.325,0,0,1,2.325,2.324v8.167H234.5v-8.164A2.325,2.325,0,0,1,236.824,346Z" transform="translate(-205.618 -303.37)" fill="#3f3d56"/>
    <path id="Path_1164" data-name="Path 1164" d="M236.824,346h67.888a2.325,2.325,0,0,1,2.325,2.324v8.167H234.5v-8.164A2.325,2.325,0,0,1,236.824,346Z" transform="translate(-205.618 -303.37)" opacity="0.1"/>
    <path id="Path_1165" data-name="Path 1165" d="M397.413,423.32v15.227l-2.924.032-.207,0-2.6.028h-.08l-1.823.02-3.317.037-10.894.118-1.528.016-3,.033H370.9l-2.561.028-7.087.076-1.666.018-5.187.057v-15.7Z" transform="translate(-310.756 -371.17)" fill="#3f3d56"/>
    <path id="Path_1166" data-name="Path 1166" d="M397.413,423.32v15.227l-2.924.032-.207,0-2.6.028h-.08l-1.823.02-3.317.037-10.894.118-1.528.016-3,.033H370.9l-2.561.028-7.087.076-1.666.018-5.187.057v-15.7Z" transform="translate(-310.756 -371.17)" opacity="0.1"/>
    <path id="Path_1167" data-name="Path 1167" d="M234.5,422.71h72.537V424.5a2.4,2.4,0,0,1-2.4,2.4H237.052a2.552,2.552,0,0,1-2.552-2.552Z" transform="translate(-205.618 -370.635)" fill="#3f3d56"/>
    <ellipse id="Ellipse_298" data-name="Ellipse 298" cx="5.171" cy="1.124" rx="5.171" ry="1.124" transform="translate(45.667 51.925)" fill="#fe7700"/>
    <path id="Path_1168" data-name="Path 1168" d="M486.974,472.244l-.1-5.352c-.022-1.2.021-2.554.911-3.355.563-.506,1.407-.724,1.761-1.392a2.563,2.563,0,0,0,.195-1.208q0-3.644-.014-7.286" transform="translate(-436.56 -419.069)" fill="none" stroke="#fe7700" stroke-miterlimit="10" stroke-width="6"/>
    <rect id="Rectangle_137" data-name="Rectangle 137" width="2.398" height="4.647" rx="1.199" transform="translate(51.812 32.292)" fill="#fe7700"/>
    <path id="Path_1169" data-name="Path 1169" d="M520.538,419.066c-.788-.92-1.629-1.791-2.47-2.663l-1.705-1.769-1.549-1.607-7.452-7.729a8.894,8.894,0,0,0-3.078-2.371,3.043,3.043,0,0,0-3.542.822,1.555,1.555,0,0,0-.284,1.183,1.987,1.987,0,0,0,.676,1c1.453,1.327,3.413,1.915,5.148,2.844a6.1,6.1,0,0,1,1.578,1.13,7.855,7.855,0,0,1,.985,1.4l4.357,7.27a10.115,10.115,0,0,0,.921,1.354c.278.328.6.616.891.932.7.739,1.242,1.614,1.911,2.382a19.616,19.616,0,0,0,3.217,2.771,1.136,1.136,0,0,0,1.783-.132c.467-.412,1.415-1,1.671-1.578.225-.508-.172-1.022-.412-1.47a21.51,21.51,0,0,0-2.645-3.774Z" transform="translate(-448.457 -374.388)" fill="#fbbebe"/>
    <path id="Path_1170" data-name="Path 1170" d="M564.081,698.315l-10.894.123-1.528.016-3,.033h-.138l-2.561.028a13.168,13.168,0,0,1,.867-2.155,8.341,8.341,0,0,1,.787-1.231c.549.049,1.1.094,1.646.138q1.908.149,3.817.272c3.221.212,6.435.394,9.667.682a1.069,1.069,0,0,1,.616.187,1,1,0,0,1,.225.342A6.976,6.976,0,0,1,564.081,698.315Z" transform="translate(-488.377 -630.818)" fill="#3f3d56"/>
    <path id="Path_1171" data-name="Path 1171" d="M626.748,426.117a23.835,23.835,0,0,0,6.648-2.97c-.545.091.246-.569-.3-.644a1.859,1.859,0,0,1-1.373-.822,2.745,2.745,0,0,1-.282-1.032l-.266-1.949c.032.231-5.084.261-5.121,1.7a12.935,12.935,0,0,0,.655,2.36A9.771,9.771,0,0,1,626.748,426.117Z" transform="translate(-558.611 -388.422)" fill="#fbbebe"/>
    <path id="Path_1172" data-name="Path 1172" d="M626.748,426.117a23.835,23.835,0,0,0,6.648-2.97c-.545.091.246-.569-.3-.644a1.859,1.859,0,0,1-1.373-.822,2.745,2.745,0,0,1-.282-1.032l-.266-1.949c.032.231-5.084.261-5.121,1.7a12.935,12.935,0,0,0,.655,2.36A9.771,9.771,0,0,1,626.748,426.117Z" transform="translate(-558.611 -388.422)" opacity="0.1"/>
    <path id="Path_1173" data-name="Path 1173" d="M568.757,466.793c0,.325,0,.649-.016.973-.062,1.391-.283,2.778-.42,4.165a59.965,59.965,0,0,0-.179,7.024l-3.317.036-10.894.123-1.528.016-3,.033c-.028-.066-.059-.132-.092-.195a.025.025,0,0,0,0-.009,8.331,8.331,0,0,0-1.735-1.918,4.433,4.433,0,0,1-.767-.949,42.907,42.907,0,0,0,3.49-7.307c.123-.339.229-.681.369-1.016a5.222,5.222,0,0,1,.314-.667,8.69,8.69,0,0,0,.653-1.131,3.772,3.772,0,0,0,.19-1.119q.007-.115.011-.229.022-.493.018-.974v-.075q0-.585-.042-1.167a13.693,13.693,0,0,1-.069-2.618c.2-1.635,1.167-3.05,1.857-4.555.066-.143.13-.284.19-.428.092-.222.177-.448.258-.676a12.584,12.584,0,0,1,1.657-3.766c.071-.091.15-.181.23-.268a4.689,4.689,0,0,0,1-1.193c.211-.478.272-1.085-.235-1.207q.356-.254.677-.475a11.908,11.908,0,0,1,4.925-2.156c.048-.011.1-.02.144-.028a.985.985,0,0,1,.425,0,1.24,1.24,0,0,1,.4.214c1.333.936,2.586,1.657,3.14,3.189a14.991,14.991,0,0,1,.9,1.949,27.689,27.689,0,0,0,1.176,3.747,7.14,7.14,0,0,1,.38,2.268c-.03,2.161-.449,4.309-.388,6.467.007.234.02.468.036.7v.075c.022.325.053.65.083.974C568.672,465.342,568.749,466.064,568.757,466.793Z" transform="translate(-489.122 -411.495)" fill="#565171"/>
    <path id="Path_1174" data-name="Path 1174" d="M576.194,564.052v.047c-.028.454-.055.91-.1,1.365,0,.079-.014.159-.021.24-.017.172-.035.346-.055.518a.226.226,0,0,1-.009.075c-.039.326-.087.651-.149.974s-.138.662-.23.985c-.211.73-.5,1.436-.739,2.158-.079.246-.153.492-.214.739-.1.419-.172.843-.294,1.256a10,10,0,0,1-.638,1.513l-2.4,4.938-1.307,2.683c-.036.075-.073.15-.11.227l-3,.033h-.138c.016-.066.031-.13.046-.2q.348-1.511.7-3.02t.682-2.976q.246-1.088.5-2.176.273-1.2.55-2.4c.048-.208.1-.415.143-.623.227-.971.46-1.942.739-2.9.023-.083.049-.166.073-.246.1-.328.206-.653.319-.974.007-.026.016-.052.025-.075a20.23,20.23,0,0,1,.963-2.317c.007-.018.016-.033.025-.052h0c.1-.207.21-.411.321-.616.246-.444.456-1.059,1.006-1.147a4.482,4.482,0,0,1,1.8.4h0c.159.055.3.1.433.139a1.505,1.505,0,0,1,.965.565A1.468,1.468,0,0,1,576.194,564.052Z" transform="translate(-506.642 -514.148)" fill="#fbbebe"/>
    <path id="Path_1175" data-name="Path 1175" d="M605.739,488.89a5.7,5.7,0,0,0-1.24,2.307,16.654,16.654,0,0,0-.606,7.531,1.027,1.027,0,0,0,.335.729.727.727,0,0,0,.862-.129,2.024,2.024,0,0,0,.463-.8,3.771,3.771,0,0,0,.788,1.324c.779.739,2.029.7,2.929,1.287a73.191,73.191,0,0,0,3.277-7.839,4.358,4.358,0,0,0,.3-1.272,2.969,2.969,0,0,0-.22-1.147,4.529,4.529,0,0,0-2.955-2.647A4.115,4.115,0,0,0,605.739,488.89Z" transform="translate(-539.016 -449.207)" opacity="0.1"/>
    <path id="Path_1176" data-name="Path 1176" d="M604.541,486.47a5.724,5.724,0,0,0-1.241,2.307,16.638,16.638,0,0,0-.6,7.535,1.021,1.021,0,0,0,.334.728.722.722,0,0,0,.856-.123,2.032,2.032,0,0,0,.463-.8,3.805,3.805,0,0,0,.788,1.325c.779.739,2.029.7,2.93,1.285a73.233,73.233,0,0,0,3.276-7.839,4.273,4.273,0,0,0,.3-1.271,2.955,2.955,0,0,0-.22-1.149,4.531,4.531,0,0,0-2.955-2.647A4.08,4.08,0,0,0,604.541,486.47Z" transform="translate(-537.965 -447.087)" fill="#565171"/>
    <circle id="Ellipse_299" data-name="Ellipse 299" cx="5.245" cy="5.245" r="5.245" transform="translate(63.802 23)" fill="#fbbebe"/>
    <path id="Path_1177" data-name="Path 1177" d="M595.262,338.261a2.208,2.208,0,0,1,1.289-.719,1.354,1.354,0,0,0,.894,1.212c.486.227,1.033.3,1.512.533.854.421,1.5,1.348,2.455,1.383.33.011.739-.062.926.207a.789.789,0,0,1,.108.4l.091.995c.263.154.585-.026.882-.095a1.2,1.2,0,0,1,1.354,1.667,2.424,2.424,0,0,0,2.716-2.895,2.159,2.159,0,0,1-.095-.616c.038-.475.492-.789.753-1.188a2.121,2.121,0,0,0,.092-1.906,6.3,6.3,0,0,0-1.087-1.646l-1.491-1.812a3.984,3.984,0,0,0-2.586-1.794,16.179,16.179,0,0,0-2.246.441c-1.108.1-2.272-.492-3.3-.075a3.582,3.582,0,0,0-1.569,1.724,6.425,6.425,0,0,0-.8,1.807c-.223,1.051.092,2.148-.028,3.216Z" transform="translate(-531.452 -312.379)" fill="#3f3d56"/>
    <path id="Path_1178" data-name="Path 1178" d="M105.22,594.417c.246-.161.492-.313.728-.461.111-.069.22-.14.329-.215a10.137,10.137,0,0,0,1.469-1.208c.032-.03.064-.063.1-.095l.022-.022a2.808,2.808,0,0,0,.589-.788,3.2,3.2,0,0,0,.177-1.4q-.041-1.508-.123-3.016c-.021-.388-.046-.776-.071-1.163-.012-.187-.026-.369-.039-.559" transform="translate(-101.9 -534.677)" fill="none" stroke="#3f3d56" stroke-miterlimit="10" stroke-width="4"/>
    <path id="Path_1179" data-name="Path 1179" d="M120.934,573a1.724,1.724,0,0,0-.862-1.416l-.387.766.012-.927A1.724,1.724,0,1,0,120.929,573Z" transform="translate(-112.654 -522.278)" fill="#fe7700"/>
    <path id="Path_1180" data-name="Path 1180" d="M107.884,660.409l-.81.659q-.566-.862-1.054-1.767a1.4,1.4,0,0,1,.163-.016A1.724,1.724,0,0,1,107.884,660.409Z" transform="translate(-102.602 -599.385)" fill="#fe7700"/>
    <path id="Path_1181" data-name="Path 1181" d="M116.09,673.33a1.724,1.724,0,0,1-.192.788,1.558,1.558,0,0,1-.1.175l-.111-.155c-.144-.2-.286-.408-.424-.616Z" transform="translate(-110.704 -611.702)" fill="#fe7700"/>
    <path id="Path_1182" data-name="Path 1182" d="M100.583,627.923a1.724,1.724,0,0,1-.548-3.385l-.01.712.392-.774h0a1.724,1.724,0,0,1,1.806,1.646,1.7,1.7,0,0,1-.074.59A1.73,1.73,0,0,1,100.583,627.923Z" transform="translate(-96.238 -568.861)" fill="#fe7700"/>
    <path id="Path_1183" data-name="Path 1183" d="M134.877,605.266a1.724,1.724,0,1,1,.765-3.233l-.305.836.628-.6a1.724,1.724,0,0,1,.558,1.193,1.689,1.689,0,0,1-.043.475A1.724,1.724,0,0,1,134.877,605.266Z" transform="translate(-126.337 -548.997)" fill="#fe7700"/>
    <path id="Path_1184" data-name="Path 1184" d="M120.8,580.211c-.4.044-.787.169-1.187.193a1.291,1.291,0,0,1-1.093-.383,5.461,5.461,0,0,1-.319-.561,1.232,1.232,0,0,0-.436-.41,1.724,1.724,0,1,0,3.231,1.146C120.929,580.2,120.864,580.2,120.8,580.211Z" transform="translate(-112.751 -529.03)" opacity="0.1"/>
    <path id="Path_1185" data-name="Path 1185" d="M134.722,612.272a1.724,1.724,0,0,1-1.644-2.462,1.264,1.264,0,0,1,.347.348,5.794,5.794,0,0,0,.342.571,1.411,1.411,0,0,0,1.146.4c.417-.02.82-.137,1.231-.175.058,0,.116-.01.175-.011A1.724,1.724,0,0,1,134.722,612.272Z" transform="translate(-126.182 -556.003)" opacity="0.1"/>
    <path id="Path_1186" data-name="Path 1186" d="M100.653,635.163A1.724,1.724,0,0,1,99,632.73a1.392,1.392,0,0,1,.369.351c.134.19.218.407.369.582a1.6,1.6,0,0,0,1.223.428c.441-.011.841-.115,1.266-.147A1.73,1.73,0,0,1,100.653,635.163Z" transform="translate(-96.308 -576.101)" opacity="0.1"/>
    <path id="Path_1187" data-name="Path 1187" d="M118.954,679.73a1.553,1.553,0,0,1-.1.175l-.111-.155Z" transform="translate(-113.756 -617.314)" fill="#fe7700"/>
  </g>
</svg>
