<svg xmlns="http://www.w3.org/2000/svg" width="124.083" height="89.941" viewBox="0 0 124.083 89.941">
  <g id="undraw_education_f8ru" transform="translate(0 0)">
    <path id="Path_852" data-name="Path 852" d="M374.657,584.643v21.681H320.338a10.847,10.847,0,1,1,0-21.681Z" transform="translate(-295.586 -517.217)" fill="#f2f2f2"/>
    <path id="Path_853" data-name="Path 853" d="M370.159,603.658a.834.834,0,0,1-.834.834H313.538a11.424,11.424,0,1,1,0-22.849h55.787a.834.834,0,1,1,0,1.668H313.538a9.757,9.757,0,0,0,0,19.513h55.787A.834.834,0,0,1,370.159,603.658Z" transform="translate(-289.753 -514.717)" fill="#fe7700"/>
    <path id="Path_854" data-name="Path 854" d="M409.653,612.977H351.281a.167.167,0,0,1,0-.333h58.372a.167.167,0,1,1,0,.333Z" transform="translate(-330.581 -540.547)" fill="#ccc"/>
    <path id="Path_855" data-name="Path 855" d="M409.653,636.977H351.281a.167.167,0,0,1,0-.333h58.372a.167.167,0,1,1,0,.333Z" transform="translate(-330.581 -560.544)" fill="#ccc"/>
    <path id="Path_856" data-name="Path 856" d="M409.653,660.977H351.281a.167.167,0,0,1,0-.334h58.372a.167.167,0,1,1,0,.334Z" transform="translate(-330.581 -580.542)" fill="#ccc"/>
    <path id="Path_857" data-name="Path 857" d="M409.653,684.977H351.281a.167.167,0,0,1,0-.333h58.372a.167.167,0,1,1,0,.333Z" transform="translate(-330.581 -600.539)" fill="#ccc"/>
    <path id="Path_858" data-name="Path 858" d="M653.226,426.119,639.622,443l-42.3-34.081a10.847,10.847,0,1,1,13.6-16.883Z" transform="translate(-532.173 -354.612)" fill="#f2f2f2"/>
    <path id="Path_859" data-name="Path 859" d="M634.971,438.822a.834.834,0,0,1-1.173.126l-43.44-35a11.424,11.424,0,1,1,14.336-17.792l43.44,35a.834.834,0,1,1-1.046,1.3l-43.44-35A9.756,9.756,0,1,0,591.4,402.647l43.44,35A.834.834,0,0,1,634.971,438.822Z" transform="translate(-526.378 -349.724)" fill="#ccc"/>
    <path id="Path_860" data-name="Path 860" d="M707.614,448.019l-45.453-36.624a.167.167,0,1,1,.209-.26l45.453,36.624a.167.167,0,0,1-.209.26Z" transform="translate(-589.701 -372.616)" fill="#ccc"/>
    <path id="Path_861" data-name="Path 861" d="M692.556,466.707,647.1,430.083a.167.167,0,1,1,.209-.26l45.453,36.624a.167.167,0,1,1-.209.26Z" transform="translate(-577.154 -388.187)" fill="#ccc"/>
    <path id="Path_862" data-name="Path 862" d="M677.5,485.4l-45.453-36.624a.167.167,0,0,1,.209-.26l45.453,36.624a.167.167,0,0,1-.209.26Z" transform="translate(-564.607 -403.759)" fill="#ccc"/>
    <path id="Path_863" data-name="Path 863" d="M662.44,504.084,616.987,467.46a.167.167,0,1,1,.209-.26l45.453,36.624a.167.167,0,0,1-.209.26Z" transform="translate(-552.06 -419.33)" fill="#ccc"/>
    <path id="Path_864" data-name="Path 864" d="M351.916,717.977H228.167a.167.167,0,0,1,0-.334H351.916a.167.167,0,0,1,0,.334Z" transform="translate(-228 -628.035)" fill="#ccc"/>
    <path id="Path_865" data-name="Path 865" d="M324.025,353.879h-1.907l-.907-7.354h2.814Z" transform="translate(-267.641 -288.732)" fill="#ffb8b8"/>
    <path id="Path_866" data-name="Path 866" d="M306.915,387.355h3.677v2.315H304.6A2.315,2.315,0,0,1,306.915,387.355Z" transform="translate(-253.8 -322.753)" fill="#2f2e41"/>
    <path id="Path_867" data-name="Path 867" d="M207.23,353.879h-1.907l-.907-7.354h2.814Z" transform="translate(-170.325 -288.732)" fill="#ffb8b8"/>
    <path id="Path_868" data-name="Path 868" d="M190.121,387.355H193.8v2.315h-5.992A2.315,2.315,0,0,1,190.121,387.355Z" transform="translate(-156.484 -322.753)" fill="#2f2e41"/>
    <path id="Path_869" data-name="Path 869" d="M487.471,212.852v-.834a5.379,5.379,0,0,1,5.379-5.379h0a5.379,5.379,0,0,1,5.379,5.379v.834a3.878,3.878,0,0,1-3.878,3.878h-3a3.878,3.878,0,0,1-3.878-3.878Z" transform="translate(-444.197 -202.256)" fill="#2f2e41"/>
    <circle id="Ellipse_274" data-name="Ellipse 274" cx="4.096" cy="4.096" r="4.096" transform="translate(44.556 6.568)" fill="#ffb8b8"/>
    <path id="Path_870" data-name="Path 870" d="M634.488,376.475" transform="translate(-566.695 -343.767)" fill="#ffb8b8"/>
    <path id="Path_871" data-name="Path 871" d="M383.625,326.581a1.564,1.564,0,0,1,2.382.28l3.511-.664.924,2.035-4.972.868a1.572,1.572,0,0,1-1.845-2.519Z" transform="translate(-357.254 -301.838)" fill="#ffb8b8"/>
    <path id="Path_872" data-name="Path 872" d="M421.463,283.3l.046.07-5.758,3.793-9.716,3.1a.585.585,0,0,0-.4.623l.212,1.826a.584.584,0,0,0,.7.5l9.144-1.96a3.3,3.3,0,0,0,1.229-.541l6.469-4.6a1.664,1.664,0,0,0-1.88-2.744Z" transform="translate(-376.004 -265.963)" fill="#ccc"/>
    <path id="Path_873" data-name="Path 873" d="M450.079,381.813a.754.754,0,0,1-.69-.451l-8.741-21.6a.25.25,0,0,0-.468.026l-7.131,21.026a.751.751,0,0,1-.981.482l-2.391-.9a.749.749,0,0,1-.483-.618c-1.076-9.372,8.306-33.027,8.4-33.265l.026-.066,8.552,1.892.018.019c3.412,3.722,6.216,27.2,6.744,31.867a.747.747,0,0,1-.5.792l-2.111.747A.744.744,0,0,1,450.079,381.813Z" transform="translate(-395.567 -318.752)" fill="#2f2e41"/>
    <path id="Path_874" data-name="Path 874" d="M484.106,288.6c-2.072,0-4.382-.413-5.093-2.118l-.016-.039.022-.036c.561-.921,1.3-2.492.9-2.787a3.2,3.2,0,0,1-1.133-2.839,6.841,6.841,0,0,1,4.8-6.251h0a21.289,21.289,0,0,1,2.379-.612,4.049,4.049,0,0,1,3.358.829,4.09,4.09,0,0,1,1.517,3.147c.029,3.024-.436,7.235-2.821,10.127a.742.742,0,0,1-.439.255A20.38,20.38,0,0,1,484.106,288.6Z" transform="translate(-436.962 -258.25)" fill="#ccc"/>
    <path id="Path_875" data-name="Path 875" d="M505.752,344.456a1.594,1.594,0,0,1,1.948-1.111,1.568,1.568,0,0,1,.241.089l2.666-2.426,1.854,1.249-3.813,3.374a1.591,1.591,0,0,1-1.8.765,1.567,1.567,0,0,1-1.093-1.94Z" transform="translate(-459.38 -314.214)" fill="#ffb8b8"/>
    <path id="Path_876" data-name="Path 876" d="M523.631,296.432a.749.749,0,0,1-.475-.169l-1.051-.859a.751.751,0,0,1,.018-1.177l4.41-3.382a.251.251,0,0,0,.047-.349l-2.722-3.6a2.216,2.216,0,0,1,.148-2.854h0a2.21,2.21,0,0,1,2.983-.239l.017.018,2.842,4.07a2.534,2.534,0,0,1-.06,4.034l-5.711,4.359A.752.752,0,0,1,523.631,296.432Z" transform="translate(-472.826 -266.16)" fill="#ccc"/>
    <path id="Path_877" data-name="Path 877" d="M497.965,219.321v-2.032l3.628-1.584,3.46,1.584v2.032a.334.334,0,0,1-.334.334H498.3A.334.334,0,0,1,497.965,219.321Z" transform="translate(-452.941 -209.809)" fill="#2f2e41"/>
    <path id="Path_878" data-name="Path 878" d="M518.052,185.01a3.742,3.742,0,0,1,2.243-4.34,5.163,5.163,0,0,1,5.036.913,8.5,8.5,0,0,1,2.724,4.518,25.312,25.312,0,0,1,.631,5.319,3.574,3.574,0,1,1-3.425,1.269,4.4,4.4,0,0,0-5.118-6.823C519.14,186.285,517.881,185.2,518.052,185.01Z" transform="translate(-469.566 -180.357)" fill="#2f2e41"/>
    <path id="Path_879" data-name="Path 879" d="M344.119,236.2a17.42,17.42,0,0,1-7.063-1.547.746.746,0,0,1-.442-.684v-6.074a.751.751,0,0,1,.75-.751h13.509a.751.751,0,0,1,.75.751v6.074a.746.746,0,0,1-.442.684h0A17.42,17.42,0,0,1,344.119,236.2Z" transform="translate(-318.5 -219.34)" fill="#fe7700"/>
    <path id="Path_880" data-name="Path 880" d="M324.335,201.555a.751.751,0,0,1-.292-.059l-10.712-4.52a.75.75,0,0,1,.026-1.393l10.713-4.064a.748.748,0,0,1,.536,0l10.569,4.064a.751.751,0,0,1,.026,1.391L324.63,201.5A.752.752,0,0,1,324.335,201.555Z" transform="translate(-298.717 -189.617)" fill="#fe7700"/>
    <circle id="Ellipse_275" data-name="Ellipse 275" cx="1.001" cy="1.001" r="1.001" transform="translate(18.365 13.724)" fill="#3f3d56"/>
    <path id="Path_881" data-name="Path 881" d="M336,219.237l-10.569,4.52a.667.667,0,0,1-.522,0l-10.712-4.519a.655.655,0,0,1-.319-.28.667.667,0,0,0,.319.947l10.712,4.519a.667.667,0,0,0,.522,0L336,219.9a.667.667,0,0,0,.316-.946.655.655,0,0,1-.316.279Z" transform="translate(-299.478 -212.52)" opacity="0.2"/>
    <path id="Path_882" data-name="Path 882" d="M343.785,228.228a.167.167,0,0,0,.167-.167V222.48l5.5-2a.167.167,0,0,0,.005-.334l-5.5,2a.327.327,0,0,0-.239.1.331.331,0,0,0-.1.238v5.581A.167.167,0,0,0,343.785,228.228Z" transform="translate(-324.336 -213.507)" fill="#3f3d56"/>
  </g>
</svg>
