<svg xmlns="http://www.w3.org/2000/svg" width="98.988" height="85.972" viewBox="0 0 98.988 85.972">
  <g id="undraw_Social_ideas_re_j5v4" transform="translate(0.058 0)">
    <path id="Path_530" data-name="Path 530" d="M327.871,167.064c0,19.127-16.829,35.25-39.792,40.2a69.862,69.862,0,0,1-11.328,1.48c-.185.009-.371.019-.557.025q-1.487.062-3,.062-2.625,0-5.188-.187-1.422-.1-2.82-.258a64.439,64.439,0,0,1-24.451-7.71q-1.321-.745-2.579-1.549a51.36,51.36,0,0,1-4.443-3.172c-9.411-7.5-1.565-23.511,3.34-33.591C250.294,135.16,243,125.3,273.2,125.3S327.871,144,327.871,167.064Z" transform="translate(-228.941 -125.297)" fill="#fff" opacity="0.1"/>
    <path id="Path_531" data-name="Path 531" d="M764.249,161.761c-9.385-.168-9.384-14.115,0-14.282C773.634,147.647,773.632,161.594,764.249,161.761Z" transform="translate(-686.958 -144.543)" fill="#fff"/>
    <path id="Path_532" data-name="Path 532" d="M630.181,318.761c-9.385-.168-9.384-14.115,0-14.282C639.566,304.647,639.565,318.595,630.181,318.761Z" transform="translate(-570.64 -280.758)" fill="#fff"/>
    <path id="Path_533" data-name="Path 533" d="M770.03,478.185c-9.385-.168-9.384-14.116,0-14.282C779.414,464.071,779.413,478.019,770.03,478.185Z" transform="translate(-691.974 -419.077)" fill="#fff"/>
    <path id="Path_534" data-name="Path 534" d="M764.249,161.761c-9.385-.168-9.384-14.115,0-14.282C773.634,147.647,773.632,161.594,764.249,161.761Zm0-13.85c-8.816.158-8.815,13.26,0,13.417,8.816-.158,8.815-13.26,0-13.417Z" transform="translate(-686.958 -144.543)" fill="#e6e6e6"/>
    <path id="Path_535" data-name="Path 535" d="M340.066,640.924a1.112,1.112,0,0,1-.044-.206L337.3,625.175a1.141,1.141,0,0,0-.018-.119,1.4,1.4,0,0,0-1.174-1.109l-15.543.068a1.394,1.394,0,0,0-1.462.772q-.379.79-.743,1.6-1.471,3.275-2.709,6.924a64.439,64.439,0,0,0,24.451,7.71Z" transform="translate(-303.851 -557.934)" fill="#2f2e41"/>
    <path id="Path_536" data-name="Path 536" d="M482.514,421.493a3.278,3.278,0,0,0-.075.511l-13.378,7.718-3.252-1.872-3.467,4.538,5.435,3.873a2.491,2.491,0,0,0,2.989-.073l13.8-10.883a3.269,3.269,0,1,0-2.048-3.812Z" transform="translate(-431.126 -380.093)" fill="#ffb8b8"/>
    <path id="Path_537" data-name="Path 537" d="M425.808,460.324a1.4,1.4,0,0,0-.69-.943l-6.139-3.433a3.892,3.892,0,1,0-4.772,6.149l4.894,5.082a1.4,1.4,0,0,0,2.12-.115l.953-1.236.326-.421,3.045-3.946a1.372,1.372,0,0,0,.24-.485A1.393,1.393,0,0,0,425.808,460.324Z" transform="translate(-388.057 -411.467)" fill="#fe7700"/>
    <circle id="Ellipse_133" data-name="Ellipse 133" cx="7.649" cy="7.649" r="7.649" transform="translate(12.637 32.982) rotate(-45)" fill="#ffb8b8"/>
    <path id="Path_538" data-name="Path 538" d="M328.27,469.942a10.168,10.168,0,0,0,1.521-7.194,8.041,8.041,0,0,0-.2-.8,8.917,8.917,0,0,0-1.638-2.993c.009-.244.007-.483-.008-.721h0a6.882,6.882,0,0,0-6.354-6.415l-8.555-.65a6.818,6.818,0,0,0-5.836,2.484,7.312,7.312,0,0,0-.451.609h0a6.807,6.807,0,0,0-.882,5.591l.073.32.912,4,1.525,6.692,1.276,5.6.135.59a1.4,1.4,0,0,0,1.366,1.09,1.33,1.33,0,0,0,.228-.019l16.553-2.714a1.384,1.384,0,0,0,.639-.281,1.444,1.444,0,0,0,.29-.311,1.386,1.386,0,0,0,.214-1.082Z" transform="translate(-295.144 -408.009)" fill="#fe7700"/>
    <path id="Path_539" data-name="Path 539" d="M226.711,541.366a3.345,3.345,0,0,1,1.33-4.955l9.425-28.977,5.462,2.592-10.312,28.215a3.364,3.364,0,0,1-5.9,3.125Z" transform="translate(-226.163 -456.845)" fill="#ffb8b8"/>
    <path id="Path_540" data-name="Path 540" d="M296.669,454.562a4.171,4.171,0,0,0-5.1,2.509h0c-.034.089-.066.181-.094.274l-.8,1.693-2.412,5.117a1.5,1.5,0,0,0,.923,2.076l.47.142,2.015.609,3.576,1.08,1.191.36a1.5,1.5,0,0,0,1.918-1.218l1.1-7.472A4.165,4.165,0,0,0,296.669,454.562Z" transform="translate(-279.968 -410.819)" fill="#fe7700"/>
    <path id="Path_541" data-name="Path 541" d="M334.146,295.419a9.481,9.481,0,0,1-10.161,1.344c1.461,1.733,4.235,10.287,4.235,10.287s-7.833-.823-8.94-1.06c-6.537-1.4-4.161-18.326,2.8-18.241a3.713,3.713,0,0,1,3,1.038,3.685,3.685,0,0,1,3.725-2.21,5.875,5.875,0,0,1,3.941,2.23,8.535,8.535,0,0,1,1.805,7Z" transform="translate(-303.668 -265.219)" fill="#2f2e41"/>
    <path id="Path_542" data-name="Path 542" d="M630.181,318.761c-9.385-.168-9.384-14.115,0-14.282C639.566,304.647,639.565,318.595,630.181,318.761Zm0-13.849c-8.816.158-8.815,13.26,0,13.417,8.816-.158,8.814-13.26,0-13.417Z" transform="translate(-570.64 -280.758)" fill="#e6e6e6"/>
    <path id="Path_543" data-name="Path 543" d="M770.03,478.185c-9.385-.168-9.384-14.116,0-14.282C779.414,464.071,779.413,478.019,770.03,478.185Zm0-13.85c-8.816.158-8.815,13.26,0,13.417C778.846,477.595,778.844,464.493,770.03,464.336Z" transform="translate(-691.974 -419.077)" fill="#e6e6e6"/>
    <path id="Path_544" data-name="Path 544" d="M787.716,173.577c-1.761.051-5.184-.579-5.186,2.136.051,1.76-.579,5.184,2.136,5.186,1.76-.051,5.184.579,5.186-2.136C789.8,177,790.431,173.579,787.716,173.577Z" transform="translate(-708.901 -167.16)" fill="#3f3d56"/>
    <path id="Path_545" data-name="Path 545" d="M822.448,183.915a.457.457,0,0,1,0-.913A.457.457,0,0,1,822.448,183.915Z" transform="translate(-743.175 -175.363)" fill="#fff"/>
    <path id="Path_546" data-name="Path 546" d="M798.7,188.2a1.221,1.221,0,0,1,0,2.441A1.221,1.221,0,0,1,798.7,188.2Zm0-.61c-2.375-.035-2.375,3.7,0,3.661C801.078,191.29,801.078,187.559,798.7,187.594Z" transform="translate(-721.413 -179.347)" fill="#fff"/>
    <path id="Path_547" data-name="Path 547" d="M716.926,511.159a.216.216,0,0,1-.163-.365l.72-.761a.124.124,0,0,0,0-.175l-.765-.724a.222.222,0,0,1-.009-.314h0a.222.222,0,0,1,.313-.01l1.03.962a.21.21,0,0,1,.008.3l-.979,1.022A.216.216,0,0,1,716.926,511.159Z" transform="translate(-651.762 -457.988)" fill="#ccc"/>
    <path id="Path_548" data-name="Path 548" d="M695.643,517.067a.132.132,0,0,1-.086.035l-2.4.066a.132.132,0,0,1-.007-.265l2.4-.066a.132.132,0,0,1,.093.23Z" transform="translate(-631.266 -465.004)" fill="#ccc"/>
    <path id="Path_549" data-name="Path 549" d="M576.926,351.734a.216.216,0,0,1-.163-.364l.72-.761a.124.124,0,0,0,0-.175l-.765-.724a.222.222,0,0,1-.009-.314h0a.222.222,0,0,1,.313-.01l1.03.962a.21.21,0,0,1,.008.3l-.979,1.022A.215.215,0,0,1,576.926,351.734Z" transform="translate(-530.296 -319.668)" fill="#ccc"/>
    <path id="Path_550" data-name="Path 550" d="M555.643,357.642a.132.132,0,0,1-.086.035l-2.4.066a.132.132,0,0,1-.007-.265l2.4-.066a.132.132,0,0,1,.093.23Z" transform="translate(-509.8 -326.684)" fill="#ccc"/>
    <path id="Path_551" data-name="Path 551" d="M710.926,194.734a.216.216,0,0,1-.163-.364l.72-.761a.124.124,0,0,0,0-.175l-.765-.724a.222.222,0,0,1-.009-.314h0a.222.222,0,0,1,.313-.01l1.03.962a.21.21,0,0,1,.008.3l-.979,1.022A.215.215,0,0,1,710.926,194.734Z" transform="translate(-646.556 -183.452)" fill="#ccc"/>
    <path id="Path_552" data-name="Path 552" d="M689.643,200.642a.132.132,0,0,1-.086.035l-2.4.066a.132.132,0,0,1-.007-.265l2.4-.066a.132.132,0,0,1,.093.23Z" transform="translate(-626.06 -190.468)" fill="#ccc"/>
    <path id="Path_553" data-name="Path 553" d="M544.121,653.019a9.223,9.223,0,0,1-2.773,3.214,69.868,69.868,0,0,1-11.328,1.48c-.185.009-.371.018-.557.025q-1.487.062-3,.062-2.625,0-5.188-.187a4.211,4.211,0,0,1-.026-1.189,3.882,3.882,0,0,1,2.887-3.3,3.269,3.269,0,0,1,3.723,2.069c.256-2.87.548-5.859,2.074-8.3a8.791,8.791,0,0,1,6.366-4.079,8.015,8.015,0,0,1,4.431.811q.189.1.373.2a7.393,7.393,0,0,1,2.135,1.823A7.157,7.157,0,0,1,544.121,653.019Z" transform="translate(-482.209 -574.266)" fill="#fff"/>
    <path id="Path_554" data-name="Path 554" d="M595.12,649.282a.2.2,0,0,1-.082.181,41.948,41.948,0,0,0-11,13.707c-.185.009-.371.019-.557.025q.353-.717.733-1.419a42.647,42.647,0,0,1,4.621-6.84,42.116,42.116,0,0,1,5.859-5.818.259.259,0,0,1,.056-.034.271.271,0,0,1,.373.2Z" transform="translate(-536.225 -579.724)" fill="#f2f2f2"/>
    <path id="Path_555" data-name="Path 555" d="M798.093,498.554a6.727,6.727,0,0,1-.723.723c-.32,3.486-2.5,4.277-4.244,4.277a3.862,3.862,0,0,1-2.257-.522c1.864.044,2.023-.722,2.023-.722a1.483,1.483,0,0,1-1.3-.867.446.446,0,0,0,.577-.144,1.314,1.314,0,0,1-1.01-1.446,1.505,1.505,0,0,0,.707.275c-.13-.159-1.223-1.469-.565-2.149a3.638,3.638,0,0,0,3.079,1.541,1.529,1.529,0,0,1,1.488-1.835c1.011,0,1.229.579,1.229.579l.723-.434c-.015,0-.087.723-.449.867Z" transform="translate(-716.16 -448.389)" fill="#3f3d56"/>
    <path id="Path_556" data-name="Path 556" d="M654.456,332.6a3.968,3.968,0,0,1-3.347,3.92v-2.772h.924l.176-1.148h-1.1c-.037-.956-.074-1.492,1.146-1.364v-.976c-1.828-.4-2.591.524-2.386,2.339h-1.007v1.148h1.007v2.771c-4.742-.729-4.185-7.9.618-7.885a3.967,3.967,0,0,1,3.968,3.967Z" transform="translate(-590.979 -301.718)" fill="#3f3d56" fill-rule="evenodd"/>
  </g>
</svg>
