<svg xmlns="http://www.w3.org/2000/svg" width="118.282" height="91.562" viewBox="0 0 118.282 91.562">
  <g id="undraw_special_event_4aj8" transform="translate(0)">
    <path id="Path_740" data-name="Path 740" d="M153.4,97.38a43.6,43.6,0,0,1-14.3-2.4,40.294,40.294,0,0,1-15.017-8.742C116.9,79.3,111.007,78.252,107.333,78.6a11.776,11.776,0,0,0-6.316,2.43l-.158-.176a12.013,12.013,0,0,1,6.437-2.488,15.9,15.9,0,0,1,7.382,1.167,30.1,30.1,0,0,1,9.566,6.538,40.059,40.059,0,0,0,14.93,8.688A44.849,44.849,0,0,0,174,92.168a39.26,39.26,0,0,1,10.571-3.72A25.093,25.093,0,0,1,196.709,89c8.241,2.564,13.869,2.428,17.14,1.863A12.488,12.488,0,0,0,219,89.02l.146.187a12.486,12.486,0,0,1-5.251,1.889c-3.3.57-8.965.708-17.25-1.87-8.389-2.61-16.885.274-22.535,3.153a45.484,45.484,0,0,1-17.256,4.868Q155.118,97.38,153.4,97.38Z" transform="translate(-100.859 -76.56)" fill="#3f3d56"/>
    <circle id="Ellipse_229" data-name="Ellipse 229" cx="2.401" cy="2.401" r="2.401" transform="translate(49.661 18.958)" fill="#fe7700"/>
    <circle id="Ellipse_230" data-name="Ellipse 230" cx="2.401" cy="2.401" r="2.401" transform="translate(86.865 9.36)" fill="#fe7700"/>
    <circle id="Ellipse_231" data-name="Ellipse 231" cx="2.401" cy="2.401" r="2.401" transform="translate(9.495 0)" fill="#fe7700"/>
    <path id="Path_741" data-name="Path 741" d="M685.6,375.472v23.2h3.648v-21.16h14.593v21.16h3.648V352.269h-3.648c-1.209,0-3.065,6.3-3.065,12.623,0,4.769.557,8.856,1.349,10.58Zm18.241,0h-.036c.012-.026.024-.053.036-.08Z" transform="translate(-616.319 -318.068)" fill="#3f3d56"/>
    <path id="Path_742" data-name="Path 742" d="M759.364,255.342h0c-2.995,0-5.422,2.694-5.422,6.017v4.222h1.3l.752-1.564-.188,1.564h8.347l.683-1.422-.171,1.422h.94v-3.315C765.6,258.442,762.81,255.342,759.364,255.342Z" transform="translate(-676.561 -232.625)" fill="#2f2e41"/>
    <path id="Path_743" data-name="Path 743" d="M611.515,488.168l-3.329,1.415-11.569,9.4a3.4,3.4,0,0,0-.749,1.831c-.083,1.082-3.579,6.742-2.33,7.491s5.743,3,5.992,1.5,1.581-7.907,1.581-7.907l11.153-9.988Z" transform="translate(-534.925 -437.865)" fill="#2f2e41"/>
    <path id="Path_744" data-name="Path 744" d="M574.23,657.789l-1.415,4.161s1.5,1.581.749,2.913v4.578H572.4l-.333-2.414s-1.327,2.383-2,2.414c-1.405.064-4.188.564-4.271-.185s2.107-1.479,2.107-1.479l2.33-6.409,1-3.912Z" transform="translate(-510.707 -587.095)" fill="#2f2e41"/>
    <path id="Path_745" data-name="Path 745" d="M668.205,449.314s.749,7.324-1.415,8.656-11.735,5.576-11.735,5.576,4.078,3.829,3.246,4.744-4.578,3.412-5.077,2.913-6.076-6.492-5.41-8.406,9.9-8.156,9.9-8.156l1.082-3.912.333-3.163,3.5-2.247Z" transform="translate(-582.959 -400.092)" fill="#2f2e41"/>
    <circle id="Ellipse_232" data-name="Ellipse 232" cx="3.47" cy="3.47" r="3.47" transform="translate(77.963 25.23)" fill="#ffb9b9"/>
    <path id="Path_746" data-name="Path 746" d="M781.118,317.825s-.166,3.163,2.414,4.161-6.409,7.491-6.409,7.491v-7.241a2.592,2.592,0,0,0,0-3.163Z" transform="translate(-696.995 -287.705)" fill="#ffb9b9"/>
    <path id="Path_747" data-name="Path 747" d="M822.8,443.211l-.666,3.246-2,11.153s1.665,4.744-.583,4.661-1.165-5.16-1.165-5.16l1.165-9.238v-3.579Z" transform="translate(-733.139 -398.234)" fill="#ffb9b9"/>
    <path id="Path_748" data-name="Path 748" d="M697.059,429.865l-.749,2.913-3.412,8.24s-2.33,3.912-.416,3.829,1.914-3.829,1.914-3.829l3.912-6.658v-3.745Z" transform="translate(-621.717 -386.47)" fill="#ffb9b9"/>
    <path id="Path_749" data-name="Path 749" d="M712,634.978l2.747,2.58a2.347,2.347,0,0,1,2.663,1.831c.749,2.247,1.248,3.662,1.248,3.662l-1,.583-1.248-1.748s-.749,3.163-1.5,3.412-4.494,1.914-4.161,0l1.831-2.663s.25-3-.5-3.246-2.747-2.747-2.747-2.747Z" transform="translate(-637.241 -567.28)" fill="#2f2e41"/>
    <path id="Path_750" data-name="Path 750" d="M750.793,471.5s-7.824-2.83-8.323-2.58a3.754,3.754,0,0,1-1.172.3l.007-1.137s2.58-.915,3.995-.333,5.743,3.163,5.743,3.163Z" transform="translate(-665.415 -419.703)" fill="#3f3d56"/>
    <path id="Path_751" data-name="Path 751" d="M745.994,355.354a22.416,22.416,0,0,0,2.913-4.161,4.086,4.086,0,0,1,2.16-2.124s5,1.125,4.914,3.123-3.163,5.077-3.163,5.077.416,11.069-1.831,10.9a4.819,4.819,0,0,1-1-2c-.25-1.165-7.99-2.414-7.99-2.414s-.666,1.165-.749.666.666-12.734.666-12.734l3.969-2.623Z" transform="translate(-665.367 -315.247)" fill="#d0cde1"/>
    <path id="Path_752" data-name="Path 752" d="M829.951,367.546l.056.031a1.148,1.148,0,0,1,.586,1v6.177a1.157,1.157,0,0,0,.412.881c.321.273.618.666,0,.87-1,.333-4.911,2-4.994,1.415s-.25-1.248,0-1.248c.2,0,1.36-5.968,2.3-8.52a1.149,1.149,0,0,1,1.641-.607Z" transform="translate(-739.978 -331.405)" fill="#d0cde1"/>
    <path id="Path_753" data-name="Path 753" d="M729.048,368.752l-1.165.333-1.332,5.743s-1.581.333-1.082.916a25.429,25.429,0,0,0,2.58,2.081Z" transform="translate(-651.376 -332.598)" fill="#d0cde1"/>
    <path id="Path_754" data-name="Path 754" d="M767.58,260.813a2.844,2.844,0,0,0-2.244-1.145h-.107a3.95,3.95,0,0,0-3.716,4.148h.688l.111-.845.163.845h4.079l.342-.715-.085.715h.8A6.717,6.717,0,0,1,766,269.4h1.367l.683-1.43-.171,1.43h2.606l.513-3.29A5.561,5.561,0,0,0,767.58,260.813Z" transform="translate(-683.235 -236.439)" fill="#2f2e41"/>
    <path id="Path_755" data-name="Path 755" d="M180.271,402.477c.876-1.906,1.491-6.425,1.491-11.7,0-7-2.052-13.957-3.388-13.957H174.34v51.309h4.034v-23.4h16.135v23.4h4.034V402.477Zm-1.9-.089c.013.03.026.06.039.089h-.039Z" transform="translate(-165.633 -339.712)" fill="#3f3d56"/>
    <path id="Path_756" data-name="Path 756" d="M353.069,514.342s4.858,2.014,3.318,3.2-4.739-1.422-4.621-1.777-.474-1.185-.474-1.185Z" transform="translate(-321.619 -460.937)" fill="#9f616a"/>
    <path id="Path_757" data-name="Path 757" d="M325.884,380.342l1.54,1.422.355,4.147,1.185,4.384s2.014,4.147,1.659,4.976a.719.719,0,0,0,.355,1.066l-2.725,1.066s-2.962-3.318-2.962-4.028S325.884,380.342,325.884,380.342Z" transform="translate(-298.7 -342.814)" fill="#575a88"/>
    <path id="Path_758" data-name="Path 758" d="M325.884,380.342l1.54,1.422.355,4.147,1.185,4.384s2.014,4.147,1.659,4.976a.719.719,0,0,0,.355,1.066l-2.725,1.066s-2.962-3.318-2.962-4.028S325.884,380.342,325.884,380.342Z" transform="translate(-298.7 -342.814)" opacity="0.1"/>
    <path id="Path_759" data-name="Path 759" d="M447.971,732.408s-.592,2.725-.711,2.962,2.251,1.066,2.251,1.066l2.844-2.014a21.159,21.159,0,0,1-1.185-3.081Z" transform="translate(-406.213 -652.226)" fill="#575a88"/>
    <path id="Path_760" data-name="Path 760" d="M260.48,516.342l.829.948s17.18,2.133,17.536,5.45,2.844,18.958,1.422,19.432-5.095,2.251-5.095,1.3-2.37-13.981-1.9-16.351c0,0-20.5-2.607-20.972-5.569s.474-4.265.474-4.265Z" transform="translate(-234.244 -462.7)" fill="#2f2e41"/>
    <path id="Path_761" data-name="Path 761" d="M260.48,516.342l.829.948s17.18,2.133,17.536,5.45,2.844,18.958,1.422,19.432-5.095,2.251-5.095,1.3-2.37-13.981-1.9-16.351c0,0-20.5-2.607-20.972-5.569s.474-4.265.474-4.265Z" transform="translate(-234.244 -462.7)" opacity="0.1"/>
    <path id="Path_762" data-name="Path 762" d="M441.558,751.324s-.474-1.066-.711-.711-1.066,4.5-.237,4.5,8.412,1.9,9.479,1.659,3.081.118,2.844-1.066a1.663,1.663,0,0,0-1.422-1.3s-4.384-2.607-4.621-3.91-1.54-.592-1.54-.592v.829S442.862,752.627,441.558,751.324Z" transform="translate(-400.037 -668.417)" fill="#2f2e41"/>
    <path id="Path_763" data-name="Path 763" d="M250.871,298.526s.829,4.029-.948,4.384,2.251,2.725,2.251,2.725l2.607,1.422,1.9-1.9s-1.718-3.5-.415-6.1S250.871,298.526,250.871,298.526Z" transform="translate(-231.862 -270.003)" fill="#9f616a"/>
    <path id="Path_764" data-name="Path 764" d="M256.677,305.161l-1.9,1.9-2.607-1.422s-4.028-2.37-2.251-2.725c1.143-.229,1.207-1.977,1.109-3.2a11.014,11.014,0,0,0-.161-1.188s6.694-2.074,5.391.533a4.546,4.546,0,0,0-.408,1.275A9.144,9.144,0,0,0,256.677,305.161Z" transform="translate(-231.862 -270.003)" fill="#9f616a"/>
    <path id="Path_765" data-name="Path 765" d="M265.433,696.913v2.725h4.5l.355-1.066-.474-2.844Z" transform="translate(-233.983 -613.295)" fill="#575a88"/>
    <path id="Path_766" data-name="Path 766" d="M209.292,525.764s0,6.991,2.844,7.228,13.033,1.54,13.033,1.54.592,11.612,1.659,15.4.118,4.029,1.066,4.266,4.976-.592,4.858-1.422-.592-21.8-.592-21.8,1.066-4.5-13.152-6.635Z" transform="translate(-196.444 -469.752)" fill="#2f2e41"/>
    <path id="Path_767" data-name="Path 767" d="M357.57,771.062s-.711-1.54-.829-1.066-1.54,4.621-.118,4.976,5.924,2.251,8.886,2.133a22.019,22.019,0,0,0,3.318-.237s.829-1.185-.237-1.9a51.163,51.163,0,0,1-5.687-5.332c-.237-.474-2.014-.829-2.014,0S358.4,772.129,357.57,771.062Z" transform="translate(-325.765 -685.548)" fill="#2f2e41"/>
    <path id="Path_768" data-name="Path 768" d="M266.683,299.059a4.545,4.545,0,0,0-.408,1.275,2.771,2.771,0,0,1-1.725.265c-1.1,0-1.542-1.4-2.251-2.133-.056-.677-1.007.059-1.007.059S267.986,296.452,266.683,299.059Z" transform="translate(-242.283 -270.003)" opacity="0.1"/>
    <circle id="Ellipse_233" data-name="Ellipse 233" cx="3.91" cy="3.91" r="3.91" transform="translate(18.061 22.717)" fill="#9f616a"/>
    <path id="Path_769" data-name="Path 769" d="M214.256,345.433s-.592,4.265-.948,5.806-.829,8.649-1.066,9.6-1.659,1.185-4.5.829a5.348,5.348,0,0,0-.538-.04,20.311,20.311,0,0,0-5.609,1.114,14.1,14.1,0,0,1-2.976.585c-1.351.062-1.746-1.436-1.7-3.057a8.452,8.452,0,0,1,.871-3.7c.719-1.028.012-10.262.277-13.307h0a2.207,2.207,0,0,1,.2-.91c.711-.948,5.332-3.318,5.85-3.222S209.042,342,209.042,342c1.066,0,1.032-1.156,1.032-1.156a3.8,3.8,0,0,0,2.167,1.749C213.663,342.945,214.256,345.433,214.256,345.433Z" transform="translate(-185.531 -306.484)" fill="#575a88"/>
    <path id="Path_770" data-name="Path 770" d="M268.316,521.984s7.632.243,6.3,1.15-7.261,1.736-7.38.551A1.791,1.791,0,0,1,268.316,521.984Z" transform="translate(-247.511 -467.674)" fill="#9f616a"/>
    <path id="Path_771" data-name="Path 771" d="M207.228,391.785c.025.455-1.2,1.48-1.595,2.173-.219.384-1.916-.122-4.014-1.059a41.156,41.156,0,0,1-4.677-2.472,8.452,8.452,0,0,1,.871-3.7c.719-1.029.012-10.262.277-13.307h0a1.314,1.314,0,0,1,.2-.081h1.422c4.858,2.251-.711,11.967-.711,11.967s7.346,6.043,8.057,6.28A.213.213,0,0,1,207.228,391.785Z" transform="translate(-185.558 -336.644)" opacity="0.1"/>
    <path id="Path_772" data-name="Path 772" d="M170.322,367.342H168.9s-1.3.355-2.37,2.725-4.976,9.716-1.54,12.559,10.782,6.161,11.256,5.332,2.133-2.133,1.422-2.37-8.057-6.28-8.057-6.28S175.18,369.593,170.322,367.342Z" transform="translate(-156.171 -331.355)" fill="#575a88"/>
    <path id="Path_773" data-name="Path 773" d="M243.784,243.009s.172-2.375,2.288-1.407,1.979-1.7,1.339-2.173-.619-.588-2.959-.273-6.882.85-5.413,5.555,2.8,3.494,2.8,3.494-1.167-4.233.015-3.427l1.183.807.624-.132Z" transform="translate(-222.414 -218.202)" fill="#2f2e41"/>
    <path id="Path_774" data-name="Path 774" d="M490.209,532.85c0-2.139-15.892-3.872-35.5-3.872s-35.5,1.734-35.5,3.872c0,.829,2.389,1.6,6.454,2.227V561.57h1.936V535.35a267.931,267.931,0,0,0,54.374-.021V561.57h1.936V535.051C487.884,534.426,490.209,533.668,490.209,532.85Z" transform="translate(-381.495 -473.839)" fill="#3f3d56"/>
    <ellipse id="Ellipse_234" data-name="Ellipse 234" cx="7.228" cy="1.777" rx="7.228" ry="1.777" transform="translate(70.437 55.537)" fill="#f2f2f2"/>
    <ellipse id="Ellipse_235" data-name="Ellipse 235" cx="5.924" cy="1.457" rx="5.924" ry="1.457" transform="translate(71.741 55.858)" fill="#d0cde1"/>
    <ellipse id="Ellipse_236" data-name="Ellipse 236" cx="7.228" cy="1.777" rx="7.228" ry="1.777" transform="translate(43.541 56.959)" fill="#f2f2f2"/>
    <ellipse id="Ellipse_237" data-name="Ellipse 237" cx="5.924" cy="1.457" rx="5.924" ry="1.457" transform="translate(44.844 57.28)" fill="#d0cde1"/>
    <ellipse id="Ellipse_238" data-name="Ellipse 238" cx="3.446" cy="0.544" rx="3.446" ry="0.544" transform="translate(74.051 56.101)" fill="#9f616a"/>
    <ellipse id="Ellipse_239" data-name="Ellipse 239" cx="1.088" cy="0.589" rx="1.088" ry="0.589" transform="translate(74.573 55.262)" fill="#fe7700"/>
    <ellipse id="Ellipse_240" data-name="Ellipse 240" cx="1.088" cy="0.589" rx="1.088" ry="0.589" transform="translate(74.164 55.262)" fill="#fe7700"/>
    <ellipse id="Ellipse_241" data-name="Ellipse 241" cx="1.088" cy="0.589" rx="1.088" ry="0.589" transform="translate(78.925 55.398)" fill="#fe7700"/>
    <ellipse id="Ellipse_242" data-name="Ellipse 242" cx="1.088" cy="0.589" rx="1.088" ry="0.589" transform="translate(76.431 55.262)" fill="#fe7700"/>
    <ellipse id="Ellipse_243" data-name="Ellipse 243" cx="1.088" cy="0.589" rx="1.088" ry="0.589" transform="translate(78.29 55.262)" fill="#fe7700"/>
    <path id="Path_775" data-name="Path 775" d="M733.415,510.988a11.162,11.162,0,0,1-6.619,0V510.9a2.7,2.7,0,0,1,2.568-2.7,16.977,16.977,0,0,1,1.751,0,2.443,2.443,0,0,1,2.3,2.445Z" transform="translate(-652.632 -455.499)" fill="#3f3d56"/>
    <path id="Path_776" data-name="Path 776" d="M732.619,542.7a21.757,21.757,0,0,1-4.371,0,1.4,1.4,0,0,1-1.26-1.388h6.891A1.4,1.4,0,0,1,732.619,542.7Z" transform="translate(-652.801 -484.709)" fill="#3f3d56"/>
    <path id="Path_777" data-name="Path 777" d="M739.655,514.738a1.3,1.3,0,0,1-1,0A1.3,1.3,0,0,1,739.655,514.738Z" transform="translate(-663.088 -461.198)" fill="#d0cde1"/>
    <path id="Path_778" data-name="Path 778" d="M748.073,518.182a1.3,1.3,0,0,1-1,0A1.3,1.3,0,0,1,748.073,518.182Z" transform="translate(-670.509 -464.234)" fill="#d0cde1"/>
    <path id="Path_779" data-name="Path 779" d="M748.839,512.06a1.3,1.3,0,0,1-1,0A1.3,1.3,0,0,1,748.839,512.06Z" transform="translate(-671.184 -458.838)" fill="#d0cde1"/>
    <path id="Path_780" data-name="Path 780" d="M764.527,512.06a1.3,1.3,0,0,1-1,0A1.3,1.3,0,0,1,764.527,512.06Z" transform="translate(-685.013 -458.838)" fill="#d0cde1"/>
    <path id="Path_781" data-name="Path 781" d="M760.318,515.5a1.3,1.3,0,0,1-1,0A1.3,1.3,0,0,1,760.318,515.5Z" transform="translate(-681.303 -461.874)" fill="#d0cde1"/>
    <ellipse id="Ellipse_244" data-name="Ellipse 244" cx="3.446" cy="0.544" rx="3.446" ry="0.544" transform="translate(47.273 57.523)" fill="#9f616a"/>
    <ellipse id="Ellipse_245" data-name="Ellipse 245" cx="1.088" cy="0.589" rx="1.088" ry="0.589" transform="translate(47.795 56.684)" fill="#fe7700"/>
    <ellipse id="Ellipse_246" data-name="Ellipse 246" cx="1.088" cy="0.589" rx="1.088" ry="0.589" transform="translate(47.387 56.684)" fill="#fe7700"/>
    <ellipse id="Ellipse_247" data-name="Ellipse 247" cx="1.088" cy="0.589" rx="1.088" ry="0.589" transform="translate(52.147 56.82)" fill="#fe7700"/>
    <ellipse id="Ellipse_248" data-name="Ellipse 248" cx="1.088" cy="0.589" rx="1.088" ry="0.589" transform="translate(49.654 56.684)" fill="#fe7700"/>
    <ellipse id="Ellipse_249" data-name="Ellipse 249" cx="1.088" cy="0.589" rx="1.088" ry="0.589" transform="translate(51.512 56.684)" fill="#fe7700"/>
    <path id="Path_782" data-name="Path 782" d="M507.415,522.988a11.162,11.162,0,0,1-6.619,0V522.9a2.7,2.7,0,0,1,2.568-2.7,16.967,16.967,0,0,1,1.751,0,2.443,2.443,0,0,1,2.3,2.445Z" transform="translate(-453.409 -466.077)" fill="#3f3d56"/>
    <path id="Path_783" data-name="Path 783" d="M506.619,554.7a21.757,21.757,0,0,1-4.371,0,1.4,1.4,0,0,1-1.26-1.388h6.891A1.4,1.4,0,0,1,506.619,554.7Z" transform="translate(-453.578 -495.287)" fill="#3f3d56"/>
    <path id="Path_784" data-name="Path 784" d="M513.655,526.738a1.3,1.3,0,0,1-1,0A1.3,1.3,0,0,1,513.655,526.738Z" transform="translate(-463.866 -471.777)" fill="#d0cde1"/>
    <path id="Path_785" data-name="Path 785" d="M522.073,530.182a1.3,1.3,0,0,1-1,0A1.3,1.3,0,0,1,522.073,530.182Z" transform="translate(-471.286 -474.813)" fill="#d0cde1"/>
    <path id="Path_786" data-name="Path 786" d="M522.839,524.06a1.3,1.3,0,0,1-1,0A1.3,1.3,0,0,1,522.839,524.06Z" transform="translate(-471.962 -469.416)" fill="#d0cde1"/>
    <path id="Path_787" data-name="Path 787" d="M538.527,524.06a1.3,1.3,0,0,1-1,0A1.3,1.3,0,0,1,538.527,524.06Z" transform="translate(-485.791 -469.416)" fill="#d0cde1"/>
    <path id="Path_788" data-name="Path 788" d="M534.318,527.5a1.3,1.3,0,0,1-1,0A1.3,1.3,0,0,1,534.318,527.5Z" transform="translate(-482.081 -472.452)" fill="#d0cde1"/>
    <path id="Path_789" data-name="Path 789" d="M782.817,543.277l.017.367.021.476s-2.186.124-2.627.589a.263.263,0,0,0-.028.032l-.876-.192,0-.431.036-.019.019-.01A7.971,7.971,0,0,1,782.817,543.277Z" transform="translate(-698.934 -486.444)" fill="#fe7700"/>
    <path id="Path_790" data-name="Path 790" d="M783.081,543.277l.017.367a14.653,14.653,0,0,0-2.8.608l-.672-.153A7.948,7.948,0,0,1,783.081,543.277Z" transform="translate(-699.198 -486.444)" opacity="0.1"/>
    <path id="Path_791" data-name="Path 791" d="M779.376,550.13l.653.163.2.457a.278.278,0,0,0-.028.032l-.876-.192,0-.431.036-.019Z" transform="translate(-698.934 -492.485)" fill="#fff" opacity="0.1"/>
    <path id="Path_792" data-name="Path 792" d="M559.816,556.277l.017.367.021.476s-2.186.124-2.627.589a.278.278,0,0,0-.028.032l-.876-.192,0-.431.036-.019.019-.01A7.969,7.969,0,0,1,559.816,556.277Z" transform="translate(-502.356 -497.904)" fill="#fe7700"/>
    <path id="Path_793" data-name="Path 793" d="M560.081,556.277l.017.367a14.652,14.652,0,0,0-2.8.608l-.672-.153A7.948,7.948,0,0,1,560.081,556.277Z" transform="translate(-502.621 -497.904)" opacity="0.1"/>
    <path id="Path_794" data-name="Path 794" d="M556.376,563.13l.653.163.2.457a.283.283,0,0,0-.028.032l-.876-.192,0-.431.036-.019Z" transform="translate(-502.356 -503.945)" fill="#fff" opacity="0.1"/>
    <path id="Path_795" data-name="Path 795" d="M893.1,411.412a2.187,2.187,0,0,0-.645-.446v-4.6a.2.2,0,0,0-.2-.2h-1.14a.2.2,0,0,0-.2.2v4.516a2.066,2.066,0,0,0-1.416,1.961v9.876a.9.9,0,0,0,.905.9h2.441a.9.9,0,0,0,.9-.9v-9.764A2.175,2.175,0,0,0,893.1,411.412Z" transform="translate(-796.052 -365.573)" fill="#3f3d56"/>
    <rect id="Rectangle_110" data-name="Rectangle 110" width="4.247" height="5.61" transform="translate(93.442 48.714)" fill="#fe7700"/>
    <path id="Path_796" data-name="Path 796" d="M902.4,406.474h-.092v-.111a.2.2,0,0,0-.2-.2h-1.14a.2.2,0,0,0-.2.2v.111h-.092v.472h.092v2.412h1.547v-2.412h.092Z" transform="translate(-805.903 -365.573)" fill="#fe7700"/>
    <path id="Path_797" data-name="Path 797" d="M598.15,480.741c-.112-.24-.2-.41-.232-.468a6.178,6.178,0,0,1-3.379,0,11.213,11.213,0,0,0-.958,2.5c-.224,1.024-.094,1.71.386,2.04l.014.01,0,0c.529.349,1.034.658,1.5.918l.178.1.006,0,0,.005a2.832,2.832,0,0,1,.179.252.991.991,0,0,1,.181.49v5.086H596c-1.216.025-1.969.231-1.969.408,0,.194.9.41,2.2.41s2.2-.216,2.2-.41c0-.174-.74-.379-1.935-.407h-.032l.03-4.7a2.076,2.076,0,0,1,.216-.918c.024-.048.05-.095.077-.138s.045-.07.068-.1l0-.006.007,0,.191-.106.008,0c.441-.249.917-.542,1.414-.869.444-.292.6-.883.459-1.756A9.382,9.382,0,0,0,598.15,480.741Z" transform="translate(-535.107 -430.905)" fill="#d0cde1"/>
    <path id="Path_798" data-name="Path 798" d="M600.117,503.757c-.521.343-.951.6-1.28.786h0a7.489,7.489,0,0,0-1.439.04c-.337-.188-.792-.458-1.351-.827l-.016-.011h0c-.513-.353-.526-1.1-.359-1.865a4.523,4.523,0,0,1,2.012.3,4.7,4.7,0,0,0,2.859-.031A1.533,1.533,0,0,1,600.117,503.757Z" transform="translate(-536.96 -449.935)" fill="#fe7700"/>
    <circle id="Ellipse_250" data-name="Ellipse 250" cx="0.147" cy="0.147" r="0.147" transform="translate(59.913 51.373)" fill="#fe7700"/>
    <circle id="Ellipse_251" data-name="Ellipse 251" cx="0.147" cy="0.147" r="0.147" transform="translate(59.5 52.73)" fill="#fff"/>
    <circle id="Ellipse_252" data-name="Ellipse 252" cx="0.088" cy="0.088" r="0.088" transform="translate(60.326 51.786)" fill="#fe7700"/>
    <circle id="Ellipse_253" data-name="Ellipse 253" cx="0.088" cy="0.088" r="0.088" transform="translate(60.68 53.467)" fill="#fff"/>
    <circle id="Ellipse_254" data-name="Ellipse 254" cx="0.088" cy="0.088" r="0.088" transform="translate(60.06 53.556)" fill="#fff"/>
    <circle id="Ellipse_255" data-name="Ellipse 255" cx="0.088" cy="0.088" r="0.088" transform="translate(61.859 50.606)" fill="#fe7700"/>
    <path id="Path_799" data-name="Path 799" d="M656.529,440.276c-.112-.24-.2-.41-.232-.468a6.177,6.177,0,0,1-3.379,0,11.213,11.213,0,0,0-.958,2.5c-.224,1.024-.094,1.71.386,2.04l.014.01,0,0c.529.349,1.034.658,1.5.918l.178.1.006,0,0,.005a2.849,2.849,0,0,1,.179.252.991.991,0,0,1,.181.49v5.086h-.032c-1.216.025-1.969.231-1.969.408,0,.194.9.41,2.2.41s2.2-.216,2.2-.41c0-.174-.74-.379-1.935-.407h-.032l.03-4.7a2.075,2.075,0,0,1,.216-.918c.024-.048.05-.095.077-.138s.045-.07.068-.1l0-.006.007,0,.191-.106.008,0c.441-.249.917-.542,1.414-.869.443-.292.6-.883.459-1.756A9.384,9.384,0,0,0,656.529,440.276Z" transform="translate(-586.569 -395.235)" fill="#d0cde1"/>
    <path id="Path_800" data-name="Path 800" d="M658.5,463.291c-.521.343-.951.6-1.28.786h0a7.488,7.488,0,0,0-1.439.04c-.337-.188-.792-.458-1.351-.827l-.016-.011h0c-.513-.353-.526-1.1-.359-1.865a4.522,4.522,0,0,1,2.012.3,4.7,4.7,0,0,0,2.859-.031A1.533,1.533,0,0,1,658.5,463.291Z" transform="translate(-588.422 -414.264)" fill="#fe7700"/>
    <circle id="Ellipse_256" data-name="Ellipse 256" cx="0.147" cy="0.147" r="0.147" transform="translate(66.83 46.579)" fill="#fe7700"/>
    <circle id="Ellipse_257" data-name="Ellipse 257" cx="0.147" cy="0.147" r="0.147" transform="translate(66.417 47.935)" fill="#fff"/>
    <circle id="Ellipse_258" data-name="Ellipse 258" cx="0.088" cy="0.088" r="0.088" transform="translate(67.243 46.992)" fill="#fe7700"/>
    <circle id="Ellipse_259" data-name="Ellipse 259" cx="0.088" cy="0.088" r="0.088" transform="translate(67.597 48.673)" fill="#fff"/>
    <circle id="Ellipse_260" data-name="Ellipse 260" cx="0.088" cy="0.088" r="0.088" transform="translate(66.977 48.761)" fill="#fff"/>
    <circle id="Ellipse_261" data-name="Ellipse 261" cx="0.088" cy="0.088" r="0.088" transform="translate(68.776 45.812)" fill="#fe7700"/>
  </g>
</svg>
