<svg id="Group_167" data-name="Group 167" xmlns="http://www.w3.org/2000/svg" width="192" height="59.543" viewBox="0 0 192 59.543">
  <g id="Icon">
    <g id="Group_165" data-name="Group 165">
      <path id="Path_57" data-name="Path 57" d="M-1542.868,4599.446l13.012,10.8v-12.683c0-6.621,1.883-11.082-3.9-12.545s-8.146-.061-9.117.5Z" transform="translate(1568.417 -4565.367)" fill="#d04a00"/>
      <path id="Subtraction_49" data-name="Subtraction 49" d="M7.98,16.947v0c-.917-1.588-1.995-3.391-3.2-5.361a2.5,2.5,0,0,0-2.19-3.518C1.128,5.753.045,4.09,0,4.02a1.037,1.037,0,0,1,.131-.07c1.72-.86,5.927-2.936,7.85-3.637A4.772,4.772,0,0,1,9.606,0a3.451,3.451,0,0,1,2.227.823c.047.036.089.068.126.095.122.088,11.892,9.7,11.817,9.928-5.336.067-11.38,3.554-15.793,6.1Z" transform="translate(12.455 9.273)" fill="#fe7700"/>
      <path id="Subtraction_48" data-name="Subtraction 48" d="M11.019,19.093A4.68,4.68,0,0,1,7.87,18.031a6.659,6.659,0,0,1-1.95-4.485c-.583-5.306-3.189-6.1-4.691-6.1A4.085,4.085,0,0,0,0,7.626L15.375,0,18.9,2.965a2.486,2.486,0,1,0,3.792,3.194l5.848,4.925c-.012.007-.115.062-.3.157-4.081,2.14-13.638,7.135-14.228,7.3l-.147.046A9.4,9.4,0,0,1,11.019,19.093Z" transform="translate(7.174 37.088)" fill="#d04a00"/>
      <path id="Path_59" data-name="Path 59" d="M-1726.536,4448.284l13.142,23.041v26c0,1.185-.156,4.633,3,6.636-3-.477-13.272-8.636-14.364-9.818s-1.779-2.465-1.779-5.871Z" transform="translate(1726.536 -4448.284)" fill="#fe7700"/>
    </g>
  </g>
  <path id="ticket" d="M0,12.319C14.539,13.705,16.028,1.715,16.028,0h-2.7a1.26,1.26,0,0,1-1.311,1.049A1.32,1.32,0,0,1,10.666,0H7.839S10.287,7.685,0,12.319Z" transform="matrix(0.819, 0.574, -0.574, 0.819, 178.87, 40.168)" fill="#d04a00"/>
  <path id="et" d="M212.721-26.933q-.315.2-.986.552a10.068,10.068,0,0,1-1.676.671,19.065,19.065,0,0,1-2.327.552,16.482,16.482,0,0,1-2.9.237,12.376,12.376,0,0,1-4.122-.671,9.589,9.589,0,0,1-3.353-1.992,9.389,9.389,0,0,1-2.268-3.234,10.979,10.979,0,0,1-.828-4.4,11.183,11.183,0,0,1,.809-4.319,9.9,9.9,0,0,1,2.248-3.353,10.133,10.133,0,0,1,3.392-2.169,11.577,11.577,0,0,1,4.28-.769,11.336,11.336,0,0,1,3.629.533,8.4,8.4,0,0,1,2.662,1.42,5.869,5.869,0,0,1,1.637,2.071,5.9,5.9,0,0,1,.552,2.524,5.966,5.966,0,0,1-.513,2.5,4.526,4.526,0,0,1-1.814,1.933,10.831,10.831,0,0,1-3.51,1.262,28.6,28.6,0,0,1-5.6.454q-.789,0-1.479-.02t-1.479-.059a4.9,4.9,0,0,0,1.952,3.254,7.609,7.609,0,0,0,4.674,1.242,10.6,10.6,0,0,0,1.893-.158,10.754,10.754,0,0,0,1.558-.394,11.04,11.04,0,0,0,1.183-.473q.493-.237.73-.355Zm-13.845-9.348q.907.039,1.736.039h1.657a18.029,18.029,0,0,0,3.51-.276,7.124,7.124,0,0,0,2.091-.71,2.214,2.214,0,0,0,.986-.986,2.876,2.876,0,0,0,.237-1.144,2.475,2.475,0,0,0-1.2-2.248,5.532,5.532,0,0,0-2.978-.749,6.03,6.03,0,0,0-2.564.513,5.563,5.563,0,0,0-1.854,1.361,6.212,6.212,0,0,0-1.164,1.952A7.06,7.06,0,0,0,198.876-36.282Zm18.065-12.5a1.9,1.9,0,0,1,.631-1.6,2.752,2.752,0,0,1,1.736-.493,4.721,4.721,0,0,1,1.321.178q.611.177.809.256v5.167h5.719a2.548,2.548,0,0,1,1.834.532,2.111,2.111,0,0,1,.533,1.558,3.786,3.786,0,0,1-.2,1.242,7.48,7.48,0,0,1-.316.809h-7.573v8.8a4.332,4.332,0,0,0,.276,1.676,2.617,2.617,0,0,0,.769,1.045,2.9,2.9,0,0,0,1.144.552,5.757,5.757,0,0,0,1.361.158,6.243,6.243,0,0,0,2.13-.355,6.021,6.021,0,0,0,1.42-.671l1.814,3q-.316.237-.888.592a8.217,8.217,0,0,1-1.4.671,12.461,12.461,0,0,1-1.854.532,10.874,10.874,0,0,1-2.248.217,7.068,7.068,0,0,1-5.246-1.795,6.412,6.412,0,0,1-1.775-4.714Z" transform="translate(-49.208 73.519)" fill="#fe7700"/>
  <path id="Book" d="M3.634-56.132a1.913,1.913,0,0,1,.631-1.578,2.745,2.745,0,0,1,1.775-.513,4.515,4.515,0,0,1,1.3.178q.592.177.789.256v11.32a8,8,0,0,1,2.722-2.15,8.629,8.629,0,0,1,3.984-.887,10.249,10.249,0,0,1,4,.769,9.562,9.562,0,0,1,3.195,2.169,10.1,10.1,0,0,1,2.13,3.313,11.161,11.161,0,0,1,.769,4.2,10.957,10.957,0,0,1-.789,4.181,9.638,9.638,0,0,1-2.209,3.313,10.329,10.329,0,0,1-3.372,2.169,11.321,11.321,0,0,1-4.28.789,12.438,12.438,0,0,1-4.28-.71,9.1,9.1,0,0,1-3.372-2.13,9.7,9.7,0,0,1-2.209-3.55A14.412,14.412,0,0,1,3.634-40ZM14.2-32.663a6.07,6.07,0,0,0,2.465-.493A5.926,5.926,0,0,0,18.6-34.5a5.827,5.827,0,0,0,1.242-2.012,7.228,7.228,0,0,0,.434-2.544,7.392,7.392,0,0,0-.434-2.564A5.792,5.792,0,0,0,18.6-43.648,5.926,5.926,0,0,0,16.67-44.99a6.07,6.07,0,0,0-2.465-.493,6.171,6.171,0,0,0-2.5.493,5.577,5.577,0,0,0-1.913,1.361,6.44,6.44,0,0,0-1.242,2.051,6.992,6.992,0,0,0-.454,2.524,7.217,7.217,0,0,0,.454,2.6,5.82,5.82,0,0,0,1.262,2.012,5.825,5.825,0,0,0,1.933,1.3A6.289,6.289,0,0,0,14.2-32.663ZM38.818-49.506a11.517,11.517,0,0,1,4.28.789,10.518,10.518,0,0,1,3.451,2.189,10.1,10.1,0,0,1,2.288,3.313,10.36,10.36,0,0,1,.828,4.161,10.261,10.261,0,0,1-.828,4.122,10.1,10.1,0,0,1-2.288,3.313A10.785,10.785,0,0,1,43.1-29.409a11.269,11.269,0,0,1-4.28.809,11.269,11.269,0,0,1-4.28-.809,10.785,10.785,0,0,1-3.451-2.209A10.1,10.1,0,0,1,28.8-34.931a10.261,10.261,0,0,1-.828-4.122,10.36,10.36,0,0,1,.828-4.161,10.1,10.1,0,0,1,2.288-3.313,10.518,10.518,0,0,1,3.451-2.189A11.517,11.517,0,0,1,38.818-49.506Zm0,16.921a6.211,6.211,0,0,0,2.485-.493,5.609,5.609,0,0,0,1.952-1.381,6.543,6.543,0,0,0,1.262-2.051,6.946,6.946,0,0,0,.454-2.544,7.263,7.263,0,0,0-.454-2.584,6.214,6.214,0,0,0-1.262-2.071A5.735,5.735,0,0,0,41.3-45.068a6.211,6.211,0,0,0-2.485-.493,6.171,6.171,0,0,0-2.5.493,5.785,5.785,0,0,0-1.933,1.361,6.214,6.214,0,0,0-1.262,2.071,7.263,7.263,0,0,0-.454,2.584,6.946,6.946,0,0,0,.454,2.544,6.542,6.542,0,0,0,1.262,2.051,5.655,5.655,0,0,0,1.933,1.381A6.171,6.171,0,0,0,38.818-32.584ZM63.51-49.506a11.517,11.517,0,0,1,4.28.789,10.518,10.518,0,0,1,3.451,2.189,10.1,10.1,0,0,1,2.288,3.313,10.36,10.36,0,0,1,.828,4.161,10.261,10.261,0,0,1-.828,4.122,10.1,10.1,0,0,1-2.288,3.313,10.785,10.785,0,0,1-3.451,2.209,11.269,11.269,0,0,1-4.28.809,11.269,11.269,0,0,1-4.28-.809,10.785,10.785,0,0,1-3.451-2.209,10.1,10.1,0,0,1-2.288-3.313,10.261,10.261,0,0,1-.828-4.122,10.36,10.36,0,0,1,.828-4.161,10.1,10.1,0,0,1,2.288-3.313,10.518,10.518,0,0,1,3.451-2.189A11.517,11.517,0,0,1,63.51-49.506Zm0,16.921a6.211,6.211,0,0,0,2.485-.493,5.609,5.609,0,0,0,1.952-1.381,6.542,6.542,0,0,0,1.262-2.051,6.946,6.946,0,0,0,.454-2.544,7.263,7.263,0,0,0-.454-2.584,6.214,6.214,0,0,0-1.262-2.071,5.735,5.735,0,0,0-1.952-1.361,6.211,6.211,0,0,0-2.485-.493,6.171,6.171,0,0,0-2.5.493,5.785,5.785,0,0,0-1.933,1.361,6.214,6.214,0,0,0-1.262,2.071,7.263,7.263,0,0,0-.454,2.584,6.946,6.946,0,0,0,.454,2.544,6.542,6.542,0,0,0,1.262,2.051,5.655,5.655,0,0,0,1.933,1.381A6.171,6.171,0,0,0,63.51-32.584ZM78.144-56.132a1.913,1.913,0,0,1,.631-1.578,2.745,2.745,0,0,1,1.775-.513,4.515,4.515,0,0,1,1.3.178q.592.177.789.256v16.113q.513-.354,1.44-1.042t2.071-1.514q1.144-.826,2.367-1.73t2.327-1.691a10.036,10.036,0,0,1,1.578-.966,4.369,4.369,0,0,1,1.854-.335,2.9,2.9,0,0,1,1.814.572,3.3,3.3,0,0,1,.947.966q-.828.748-2.268,1.829t-2.939,2.164q-1.5,1.082-2.84,2.006t-1.933,1.357a47.38,47.38,0,0,1,6.114,5.394,55.037,55.037,0,0,1,4.654,5.513h-5.6q-.907-1.107-2.031-2.313t-2.406-2.372q-1.282-1.166-2.6-2.253t-2.544-2v8.934h-4.5Z" transform="translate(46.241 77.197)" fill="#fff"/>
</svg>
