<svg id="google" xmlns="http://www.w3.org/2000/svg" width="16" height="16" viewBox="0 0 16 16">
  <path id="Path_572" data-name="Path 572" d="M250.438,197.874a7.98,7.98,0,0,0-.141-1.494.469.469,0,0,0-.46-.381h-7.368a.468.468,0,0,0-.469.469v2.813a.468.468,0,0,0,.469.469h3.78a4.2,4.2,0,0,1-.941,1.239l2.649,2.649A7.94,7.94,0,0,0,250.438,197.874Z" transform="translate(-234.438 -189.874)" fill="#fff"/>
  <path id="Path_573" data-name="Path 573" d="M51.267,3.75A4.177,4.177,0,0,1,53.8,4.6a.468.468,0,0,0,.613-.043l2-2a.469.469,0,0,0-.03-.691A7.96,7.96,0,0,0,44.663,3.514l2.752,2.751A4.22,4.22,0,0,1,51.267,3.75Z" transform="translate(-43.267 0)" fill="#fff"/>
  <path id="Path_574" data-name="Path 574" d="M51.267,317.766a7.916,7.916,0,0,0,4.769-1.6l-2.7-2.7a4.2,4.2,0,0,1-5.923-1.967l-2.752,2.751A7.967,7.967,0,0,0,51.267,317.766Z" transform="translate(-43.267 -301.766)" fill="#fff"/>
  <path id="Path_575" data-name="Path 575" d="M3.818,144.563a3.374,3.374,0,0,1,0-1.35L.877,140.271a7.9,7.9,0,0,0,0,7.233Z" transform="translate(0 -135.888)" fill="#fff"/>
</svg>
