<svg xmlns="http://www.w3.org/2000/svg" width="111" height="83.15" viewBox="0 0 111 83.15">
  <g id="undraw_group_video_el8e" transform="translate(0 0)">
    <path id="Path_1188" data-name="Path 1188" d="M162.472,121.5a1,1,0,0,0-1,1v81.15a1,1,0,0,0,1,1h109a1,1,0,0,0,1-1V122.5a1,1,0,0,0-1-1Z" transform="translate(-161.472 -121.499)" fill="#e6e6e6" opacity="0.12"/>
    <path id="Path_1189" data-name="Path 1189" d="M186.756,146.784v76.75h104.6v-76.75Z" transform="translate(-183.556 -143.584)" fill="#fff" opacity="0.12"/>
    <path id="Path_1190" data-name="Path 1190" d="M791.233,179.575a.219.219,0,0,0-.219.219v17.738a.219.219,0,0,0,.219.219h23.826a.219.219,0,0,0,.219-.219V179.794a.219.219,0,0,0-.219-.219Z" transform="translate(-711.34 -172.225)" fill="#e6e6e6"/>
    <path id="Path_1191" data-name="Path 1191" d="M796.542,185.1v16.776h22.864V185.1Z" transform="translate(-716.168 -177.053)" fill="#fff"/>
    <path id="Path_1192" data-name="Path 1192" d="M791.233,377.034a.219.219,0,0,0-.219.219V394.99a.219.219,0,0,0,.219.219h23.826a.219.219,0,0,0,.219-.219V377.252a.219.219,0,0,0-.219-.219Z" transform="translate(-711.34 -344.694)" fill="#e6e6e6"/>
    <path id="Path_1193" data-name="Path 1193" d="M796.542,382.56v16.776h22.864V382.56Z" transform="translate(-716.168 -349.521)" fill="#fff"/>
    <path id="Path_1194" data-name="Path 1194" d="M791.233,574.492a.219.219,0,0,0-.219.219v17.738a.219.219,0,0,0,.219.219h23.826a.219.219,0,0,0,.219-.219V574.711a.219.219,0,0,0-.219-.219Z" transform="translate(-711.34 -517.162)" fill="#e6e6e6"/>
    <path id="Path_1195" data-name="Path 1195" d="M796.542,580.019V596.8h22.864V580.019Z" transform="translate(-716.168 -521.989)" fill="#fff"/>
    <path id="Path_1196" data-name="Path 1196" d="M840.176,212.842l-4.556-3.187h0a7.825,7.825,0,0,1-.319-1.5,2.947,2.947,0,0,0,.873-1.457.53.53,0,0,1,.053.036c.4.319,1.157-3.073-.12-3.711,0,0-.958-2.075-2.794-1.6s-2.873,1.2-2.953,1.916a10.249,10.249,0,0,0,.04,1.8,1.574,1.574,0,0,1,.691-1.1,2.946,2.946,0,0,0,.741,4.493c-.139.476-.324,1.092-.479,1.545h0l-1.392.692-3.033,1.915a9.45,9.45,0,0,0-1.6,3.272q-.046.207-.1.415h16.178C840.872,214.74,840.176,212.842,840.176,212.842Z" transform="translate(-741.229 -191.251)" fill="#e6e6e6"/>
    <path id="Path_1197" data-name="Path 1197" d="M836.923,609.872a5.75,5.75,0,0,1,.985-.5l-3.39-4.025-2.24-.573a2.068,2.068,0,0,1-.883-.978l1.2-.012.457-2.589a1.63,1.63,0,0,0-.457-1.957c.112-.7-.2-1.21-1.042-1.5a1.758,1.758,0,0,0-2.8.262,1.16,1.16,0,0,0-1.223,1.039c-.679.789.075,3.687.3,4.791l1.192-.012a1.9,1.9,0,0,1-.57,1.067l-.016-.016-2.383,1.166-3.39,3.919a5.7,5.7,0,0,1,.96.485l-.35,1.33h2.425l.645-.938h.032c0-.016,0-.032,0-.049l.453-.659q.015.8-.041,1.645h7.544c-.012-.469-.015-.935-.015-1.4l.844,1.225c.063-.093.131-.179.2-.268l.166.441h1.932l-.463-1.761A.411.411,0,0,0,836.923,609.872Z" transform="translate(-738.976 -536.963)" fill="#e6e6e6"/>
    <path id="Path_1198" data-name="Path 1198" d="M841.324,410.97l-3.2-1.31c-.076-.3-.141-.588-.182-.839a2.831,2.831,0,0,0,1.341-1.748l.338-.363a1.823,1.823,0,0,0,.5-1.42,1.907,1.907,0,0,0-.7-1.264c.131-.828-.244-1.436-1.238-1.78a2.085,2.085,0,0,0-3.327.31,1.378,1.378,0,0,0-1.452,1.233c-.72.838.022,2.509.376,3.79a.5.5,0,0,0,.422.359,2.846,2.846,0,0,0,.907.854,3.892,3.892,0,0,1-.129,1.1l0-.112-2.389,1.075v-.029l-.231.134-.366.165.009.043-.034.019a2.549,2.549,0,0,0-1.114,1.324l-1.227,3.593h10.99a8.505,8.505,0,0,1,.412-1.1l0-.04L842,416.1h2.981Z" transform="translate(-745.063 -366.119)" fill="#e6e6e6"/>
    <circle id="Ellipse_300" data-name="Ellipse 300" cx="6.435" cy="6.435" r="6.435" transform="translate(35.446 61.774)" fill="#e6e6e6"/>
    <circle id="Ellipse_301" data-name="Ellipse 301" cx="4.933" cy="4.933" r="4.933" transform="translate(36.948 63.275)" fill="#fff"/>
    <path id="Path_1199" data-name="Path 1199" d="M476.281,644.543a.224.224,0,0,1-.159-.066l-4.943-4.943a.225.225,0,0,1,.318-.318l4.944,4.944a.225.225,0,0,1-.159.383Z" transform="translate(-431.929 -573.64)" fill="#fe7700"/>
    <path id="Path_1200" data-name="Path 1200" d="M486.152,661.994l-.727-.727a.028.028,0,0,0-.048.024.9.9,0,0,0,.751.751.028.028,0,0,0,.024-.048Z" transform="translate(-444.384 -592.947)" fill="#fe7700"/>
    <path id="Path_1201" data-name="Path 1201" d="M493.221,653.456l.728.728a.028.028,0,0,0,.048-.024.9.9,0,0,0-.752-.752.028.028,0,0,0-.024.048Z" transform="translate(-451.228 -586.09)" fill="#fe7700"/>
    <path id="Path_1202" data-name="Path 1202" d="M488.434,645.164a.452.452,0,0,0,0-.488,4.761,4.761,0,0,0-1.394-1.412,3.533,3.533,0,0,0-1.909-.591,3.182,3.182,0,0,0-1.009.166.056.056,0,0,0-.022.093l.663.663a.056.056,0,0,0,.054.015,1.348,1.348,0,0,1,1.629,1.629.056.056,0,0,0,.015.054l.954.955a.056.056,0,0,0,.076,0A4.829,4.829,0,0,0,488.434,645.164Z" transform="translate(-443.253 -576.714)" fill="#fe7700"/>
    <path id="Path_1203" data-name="Path 1203" d="M469.128,652.619a1.348,1.348,0,0,1-1.31-1.666.056.056,0,0,0-.015-.054l-.939-.939a.056.056,0,0,0-.076,0,5.617,5.617,0,0,0-.95,1.063.448.448,0,0,0-.009.5,4.69,4.69,0,0,0,1.38,1.414,3.481,3.481,0,0,0,1.914.585,3.347,3.347,0,0,0,1.02-.162.056.056,0,0,0,.023-.093l-.667-.667a.056.056,0,0,0-.053-.015A1.349,1.349,0,0,1,469.128,652.619Z" transform="translate(-427.248 -583.064)" fill="#fe7700"/>
    <circle id="Ellipse_302" data-name="Ellipse 302" cx="6.435" cy="6.435" r="6.435" transform="translate(11.032 61.774)" fill="#e6e6e6"/>
    <circle id="Ellipse_303" data-name="Ellipse 303" cx="4.933" cy="4.933" r="4.933" transform="translate(12.533 63.275)" fill="#fff"/>
    <path id="Path_1204" data-name="Path 1204" d="M279.673,641.89a2.646,2.646,0,0,1-1.236-.421,8.037,8.037,0,0,1-1.941-1.452,7.366,7.366,0,0,1-1.458-1.94c-.517-.941-.429-1.434-.331-1.645a1.313,1.313,0,0,1,.515-.552,2.482,2.482,0,0,1,.4-.213l.039-.017a.376.376,0,0,1,.308-.028.9.9,0,0,1,.293.225,4.868,4.868,0,0,1,.733,1.087,1.083,1.083,0,0,1,.144.445.7.7,0,0,1-.179.419l-.054.073c-.107.14-.13.181-.115.253a2.665,2.665,0,0,0,.649.962,2.553,2.553,0,0,0,.951.633c.076.016.117-.008.262-.119l.064-.049a.708.708,0,0,1,.425-.19h0a1.017,1.017,0,0,1,.447.157,5.362,5.362,0,0,1,1.083.727.9.9,0,0,1,.225.292.379.379,0,0,1-.028.309l-.017.039a2.477,2.477,0,0,1-.215.4,1.313,1.313,0,0,1-.553.514A.948.948,0,0,1,279.673,641.89Z" transform="translate(-260.312 -570.535)" fill="#fe7700"/>
    <circle id="Ellipse_304" data-name="Ellipse 304" cx="6.435" cy="6.435" r="6.435" transform="translate(60.05 61.774)" fill="#e6e6e6"/>
    <circle id="Ellipse_305" data-name="Ellipse 305" cx="4.933" cy="4.933" r="4.933" transform="translate(61.551 63.275)" fill="#fff"/>
    <path id="Path_1205" data-name="Path 1205" d="M679.941,680.424h-1.8a.225.225,0,0,1,0-.449h1.8a.225.225,0,0,1,0,.449Z" transform="translate(-612.557 -609.295)" fill="#fe7700"/>
    <path id="Path_1206" data-name="Path 1206" d="M672.839,656.039a2.025,2.025,0,0,1-2.022-2.022v-.449a.225.225,0,0,1,.449,0v.449a1.573,1.573,0,1,0,3.146,0v-.449a.225.225,0,0,1,.449,0v.449A2.025,2.025,0,0,1,672.839,656.039Z" transform="translate(-606.354 -586.033)" fill="#fe7700"/>
    <path id="Path_1207" data-name="Path 1207" d="M685.245,672.67a.225.225,0,0,1-.225-.225v-1.124a.225.225,0,1,1,.449,0v1.123A.225.225,0,0,1,685.245,672.67Z" transform="translate(-618.761 -601.541)" fill="#fe7700"/>
    <path id="Path_1208" data-name="Path 1208" d="M679.042,641.182a1.107,1.107,0,0,1-.794-.339,1.136,1.136,0,0,1-.329-.8v-1.559a1.119,1.119,0,0,1,1.115-1.123h.009a1.112,1.112,0,0,1,1.124,1.123v1.559A1.132,1.132,0,0,1,679.042,641.182Z" transform="translate(-612.558 -572.075)" fill="#fe7700"/>
    <path id="Path_1209" data-name="Path 1209" d="M228.819,179.853a.588.588,0,0,0-.587.587v47.665a.588.588,0,0,0,.587.587h64.024a.588.588,0,0,0,.587-.587V180.44a.588.588,0,0,0-.587-.587Z" transform="translate(-219.783 -172.468)" fill="#e6e6e6"/>
    <path id="Path_1210" data-name="Path 1210" d="M243.084,194.7v45.081h61.439V194.7Z" transform="translate(-232.756 -185.44)" fill="#fff"/>
    <path id="Path_1211" data-name="Path 1211" d="M409.818,380.941l.111-.433-.96-3.979-.094-.391-.071-.292.113-.038,5.674-1.891.073,1.05.411,5.973Z" transform="translate(-357.066 -326.595)" fill="#ffb9b9"/>
    <path id="Path_1212" data-name="Path 1212" d="M196.436,376.529l-.96,3.979.111.433H190.33l.411-5.973.073-1.05,5.787,1.928Z" transform="translate(-166.242 -326.595)" fill="#ffb9b9"/>
    <path id="Path_1213" data-name="Path 1213" d="M460.048,338.967l-9.162.964c.962-2.478.784-5.321,0-8.359h6.59A23.241,23.241,0,0,0,460.048,338.967Z" transform="translate(-414.258 -304.987)" fill="#ffb9b9"/>
    <circle id="Ellipse_306" data-name="Ellipse 306" cx="4.983" cy="4.983" r="4.983" transform="translate(35.02 20.478)" fill="#ffb9b9"/>
    <path id="Path_1214" data-name="Path 1214" d="M411.991,378.036c-1.052,4.649-1.918,9.069-2.459,13.3-.015.111-.029.22-.042.33-.018.143-.036.287-.052.43q-.266,2.219-.4,4.372H388.982c.021-1.354-.024-2.738-.125-4.142a71.693,71.693,0,0,0-2.746-14.615l.01,0,8.767-3.028.064-.022a7.047,7.047,0,0,0,7.54-.55l.023-.016,8.172,3.4h0Z" transform="translate(-357.681 -342.127)" fill="#fe7700"/>
    <path id="Path_1215" data-name="Path 1215" d="M568.809,412.534l-9.966,2.733,2.411-15.11,1.538.513a3.566,3.566,0,0,1,2.324,2.488Z" transform="translate(-508.552 -364.891)" fill="#fe7700"/>
    <path id="Path_1216" data-name="Path 1216" d="M334.037,412.534,344,415.267l-2.411-15.11-1.538.513a3.565,3.565,0,0,0-2.324,2.488Z" transform="translate(-312.198 -364.891)" fill="#fe7700"/>
    <path id="Path_1217" data-name="Path 1217" d="M440.233,256.038h0a5.268,5.268,0,0,0-2.407.709c-.169.1-.091.452-.247.568-.2.145-.623.057-.8.227a5.28,5.28,0,0,0-1.57,4.254l.277,2.752.653-.714a6.807,6.807,0,0,1,4.54-2.229q.111-.008.223-.012l-.5-.879.873.873a8.508,8.508,0,0,1,1.19.1l-.668-1.169,1.282,1.282h0a3.427,3.427,0,0,1,2.395,1.953l.142.316.159-2.626a5.293,5.293,0,0,0-5.543-5.4Z" transform="translate(-400.55 -239.006)" fill="#2f2e41"/>
    <ellipse id="Ellipse_307" data-name="Ellipse 307" cx="0.398" cy="0.946" rx="0.398" ry="0.946" transform="translate(34.673 24.397)" fill="#ffb9b9"/>
    <ellipse id="Ellipse_308" data-name="Ellipse 308" cx="0.398" cy="0.946" rx="0.398" ry="0.946" transform="translate(44.634 24.098)" fill="#ffb9b9"/>
  </g>
</svg>
