<svg xmlns="http://www.w3.org/2000/svg" width="20.326" height="17.785" viewBox="0 0 20.326 17.785">
  <g id="noun_like_3696691" transform="translate(-8.29 -10.21)">
    <g id="Path_561" data-name="Path 561" fill="#fff">
      <path d="M 18.45280838012695 26.92722702026367 C 16.92698287963867 26.15376853942871 9.289994239807129 21.97789764404297 9.289994239807129 15.89866256713867 C 9.289994239807129 13.31332302093506 11.49785423278809 11.21000289916992 14.21167469024658 11.21000289916992 C 15.55774402618408 11.21000289916992 16.81484413146973 11.71758270263672 17.75140380859375 12.63924312591553 L 18.45281410217285 13.32949256896973 L 19.15423393249512 12.63923263549805 C 20.09078407287598 11.71758270263672 21.34787368774414 11.21000289916992 22.69395446777344 11.21000289916992 C 24.0530948638916 11.21000289916992 25.31995391845703 11.72913265228271 26.26118469238281 12.67176246643066 C 27.13640403747559 13.5482931137085 27.61742401123047 14.69376277923584 27.61562347412109 15.89717292785645 C 27.61562347412109 21.97777938842773 19.97863388061523 26.15375900268555 18.45280838012695 26.92722702026367 Z" stroke="none"/>
      <path d="M 14.21167373657227 12.21000289916992 C 12.04925537109375 12.21000289916992 10.28999519348145 13.86473274230957 10.28999519348145 15.89866256713867 C 10.28999519348145 17.18160247802734 10.69435501098633 18.48316192626953 11.49184417724609 19.76717185974121 C 12.18529510498047 20.8836727142334 13.17246437072754 21.99065208435059 14.42593383789062 23.05738258361816 C 15.99174690246582 24.38990783691406 17.57354927062988 25.32480239868164 18.45281028747559 25.79940032958984 C 19.33206939697266 25.32480239868164 20.91387176513672 24.38990783691406 22.47968482971191 23.05738258361816 C 23.733154296875 21.99065208435059 24.7203254699707 20.8836727142334 25.41377449035645 19.76717185974121 C 26.21126556396484 18.48316192626953 26.61562347412109 17.18160247802734 26.61562347412109 15.89568328857422 C 26.61702346801758 14.95966339111328 26.23983383178711 14.06565284729004 25.55354309082031 13.37834358215332 C 24.80125427246094 12.62492370605469 23.78570556640625 12.21000289916992 22.69395446777344 12.21000289916992 C 21.61196517944336 12.21000289916992 20.60396385192871 12.61556243896484 19.85564422607422 13.35198211669922 L 18.45282363891602 14.73250198364258 L 17.04998397827148 13.35199356079102 C 16.30165481567383 12.61557197570801 15.29365348815918 12.21000289916992 14.21167373657227 12.21000289916992 M 14.21167373657227 10.21000289916992 C 15.81731414794922 10.21000289916992 17.33869361877441 10.83009338378906 18.45281410217285 11.92648315429688 C 19.56692504882812 10.83009338378906 21.08830451965332 10.21000289916992 22.69395446777344 10.21000289916992 C 25.95672416687012 10.21000289916992 28.62030410766602 12.76226234436035 28.61562347412109 15.89866256713867 C 28.61562347412109 23.16900253295898 19.03795433044434 27.76126289367676 18.63069534301758 27.95448303222656 C 18.57452392578125 27.98144149780273 18.51366424560547 27.99492263793945 18.45281410217285 27.99492263793945 C 18.39195442199707 27.99492263793945 18.33110427856445 27.97695159912109 18.27492523193359 27.95448303222656 C 17.8676643371582 27.76126289367676 8.289995193481445 23.16900253295898 8.289995193481445 15.89866256713867 C 8.289995193481445 12.76226234436035 10.94890403747559 10.21000289916992 14.21167373657227 10.21000289916992 Z" stroke="none" fill="#707070"/>
    </g>
  </g>
</svg>
