<svg xmlns="http://www.w3.org/2000/svg" width="31.616" height="30" viewBox="0 0 31.616 32">
  <g id="noun_presentation_2357508" transform="translate(-3.2 -2.8)">
    <g id="Group_293" data-name="Group 293" transform="translate(3.2 2.8)">
      <g id="Group_292" data-name="Group 292" transform="translate(2.738 4.329)">
        <path id="Path_613" data-name="Path 613" d="M20.079,13.495a2.718,2.718,0,0,1-2.575,2.74H17.34a2.272,2.272,0,0,1-.877-.164.191.191,0,0,1-.11-.055A2.746,2.746,0,0,1,14.6,13.44a3.1,3.1,0,0,1,.164-.986,2.685,2.685,0,0,1,1.26-1.425A2.6,2.6,0,0,1,17.34,10.7a2.56,2.56,0,0,1,.932.164,2.754,2.754,0,0,1,1.7,1.863A1.741,1.741,0,0,1,20.079,13.495Z" transform="translate(-11.091 -10.7)" fill="#fff"/>
        <g id="Group_291" data-name="Group 291" transform="translate(0 6.356)">
          <path id="Path_614" data-name="Path 614" d="M18.529,23.177h.877a.354.354,0,0,0,.329-.329v-.219a.354.354,0,0,0-.329-.329h-.877a.354.354,0,0,0-.329.329v.219A.316.316,0,0,0,18.529,23.177Z" transform="translate(-12.718 -22.3)" fill="#fff"/>
          <path id="Path_615" data-name="Path 615" d="M18.445,23.2h-.438l-.712-.219s-.164-.055-.438-.164a.3.3,0,0,0-.438.164l-.055.11-.932,2.3-.493,1.26-.164-2.685a.145.145,0,0,0-.164-.164H14.28a.145.145,0,0,0-.164.164l-.164,2.685-.493-1.26-.986-2.356-.055-.11a.3.3,0,0,0-.438-.164,2.421,2.421,0,0,1-.438.164l-.712.219H10.39A2.368,2.368,0,0,0,8.2,25.613l.438,6.74a2.7,2.7,0,0,0,2.027,2.466c.055,1.1.164,2.192.219,3.233.164,2.521.274,4.548.274,4.548A1.216,1.216,0,0,0,12.363,43.8h4.055A1.216,1.216,0,0,0,17.623,42.6s.11-1.973.274-4.548c.055-1.041.11-2.137.219-3.233a2.7,2.7,0,0,0,2.027-2.466l.438-6.74A2.172,2.172,0,0,0,18.445,23.2Z" transform="translate(-8.196 -22.49)" fill="#fff"/>
        </g>
      </g>
      <path id="Path_616" data-name="Path 616" d="M30.981,2.8h-24A3.788,3.788,0,0,0,3.2,6.581V21.266a3.8,3.8,0,0,0,.164,1.1,3.936,3.936,0,0,0,2.411,2.521,3.907,3.907,0,0,1-.384-1.425l-.329-5.151H4.405V6.581A2.572,2.572,0,0,1,6.981,4.005h24a2.572,2.572,0,0,1,2.575,2.575V18.307H19.364l-.329,5.151a4.111,4.111,0,0,1-.493,1.644H30.981a3.881,3.881,0,0,0,3.671-2.74,3.533,3.533,0,0,0,.164-1.1V6.581A3.872,3.872,0,0,0,30.981,2.8Z" transform="translate(-3.2 -2.8)" fill="#fff"/>
    </g>
  </g>
</svg>
