<svg xmlns="http://www.w3.org/2000/svg" xmlns:xlink="http://www.w3.org/1999/xlink" width="59" height="59" viewBox="0 0 59 59">
  <defs>
    <clipPath id="clip-path">
      <path id="_Color" data-name="↳🎨 Color" d="M5.293,11.707l-5-5A1,1,0,0,1,.073,5.625l0,0L.081,5.6l0-.01,0-.01L.1,5.569l0,0,.01-.02h0a1,1,0,0,1,.183-.252l5-5A1,1,0,1,1,6.707,1.707L3.414,5H13a1,1,0,1,1,0,2H3.414l3.293,3.293a1,1,0,1,1-1.414,1.414Z" fill="#fff" stroke="#fff" stroke-width="1"/>
    </clipPath>
  </defs>
  <g id="Button_Large_Fill_Only_Icon" data-name="Button/Large/Fill/Only Icon" transform="translate(0.5 0.5)">
    <g id="Base_Layout" data-name="Base / Layout">
      <rect id="Base" width="58" height="58" rx="29" fill="none" stroke="#fff" stroke-miterlimit="10" stroke-width="1"/>
    </g>
    <g id="Icon" transform="translate(22 23)">
      <path id="_Color-2" data-name="↳🎨 Color" d="M5.293,11.707l-5-5A1,1,0,0,1,.073,5.625l0,0L.081,5.6l0-.01,0-.01L.1,5.569l0,0,.01-.02h0a1,1,0,0,1,.183-.252l5-5A1,1,0,1,1,6.707,1.707L3.414,5H13a1,1,0,1,1,0,2H3.414l3.293,3.293a1,1,0,1,1-1.414,1.414Z" fill="#fff" stroke="#fff" stroke-width="1"/>
    </g>
  </g>
</svg>
