<svg id="BookET_Logo" xmlns="http://www.w3.org/2000/svg" width="32" height="50.763" viewBox="0 0 32 50.763">
  <g id="Group_167" data-name="Group 167">
    <g id="Icon">
      <g id="Group_165" data-name="Group 165">
        <path id="Path_57" data-name="Path 57" d="M-1542.868,4597.992l10.717,9.758v-11.46c0-5.982,1.551-10.014-3.208-11.335s-6.709-.055-7.509.452Z" transform="translate(1563.91 -4567.199)" fill="#d04a00"/>
        <path id="Subtraction_49" data-name="Subtraction 49" d="M6.573,15.313v0c-.755-1.435-1.643-3.064-2.639-4.844a2.42,2.42,0,0,0,.18-.924A2.163,2.163,0,0,0,2.129,7.288C.929,5.2.037,3.7,0,3.632A.834.834,0,0,1,.108,3.57C1.524,2.793,4.99.917,6.573.284A3.626,3.626,0,0,1,7.911,0,2.71,2.71,0,0,1,9.746.744c.039.033.073.062.1.086.1.079,9.794,8.761,9.732,8.971-4.4.061-9.373,3.211-13.007,5.512Z" transform="translate(10.258 8.379)" fill="#fe7700"/>
        <path id="Subtraction_48" data-name="Subtraction 48" d="M9.075,17.251a3.645,3.645,0,0,1-2.594-.959,6.293,6.293,0,0,1-1.606-4.053c-.481-4.794-2.627-5.51-3.864-5.51A3.113,3.113,0,0,0,0,6.89L12.662,0l2.726,2.519a1.578,1.578,0,0,0,2.318,2.142L23.5,10.015c-.01.007-.1.06-.261.151-4.17,2.4-11.235,6.443-11.7,6.591l-.124.042A7.156,7.156,0,0,1,9.075,17.251Z" transform="translate(5.91 33.512)" fill="#d04a00"/>
        <path id="Path_59" data-name="Path 59" d="M-1726.536,4448.284l10.824,20.819V4492.6c0,1.071-.128,4.186,2.471,6-2.469-.431-10.931-7.8-11.83-8.872s-1.465-2.227-1.465-5.3Z" transform="translate(1726.536 -4448.284)" fill="#fe7700"/>
      </g>
    </g>
  </g>
</svg>
