<svg xmlns="http://www.w3.org/2000/svg" xmlns:xlink="http://www.w3.org/1999/xlink" width="120" height="79.224" viewBox="0 0 120 79.224">
  <defs>
    <linearGradient id="linear-gradient" x1="-0.232" y1="0.5" x2="0.769" y2="0.5" gradientUnits="objectBoundingBox">
      <stop offset="0" stop-color="gray" stop-opacity="0.251"/>
      <stop offset="0.54" stop-color="gray" stop-opacity="0.122"/>
      <stop offset="1" stop-color="gray" stop-opacity="0.102"/>
    </linearGradient>
    <linearGradient id="linear-gradient-2" x1="-3.46" y1="0.929" x2="-3.46" y2="-0.082" xlink:href="#linear-gradient"/>
  </defs>
  <g id="undraw_compose_music_ovo2" transform="translate(0 -0.005)">
    <circle id="Ellipse_91" data-name="Ellipse 91" cx="2.361" cy="2.361" r="2.361" transform="translate(105.235 38.155)" fill="#fe7700" opacity="0.1"/>
    <circle id="Ellipse_92" data-name="Ellipse 92" cx="3.957" cy="3.957" r="3.957" transform="translate(112.085 26.031)" fill="#fe7700" opacity="0.1"/>
    <circle id="Ellipse_93" data-name="Ellipse 93" cx="2.361" cy="2.361" r="2.361" transform="translate(47.346 0.676)" fill="#fe7700" opacity="0.1"/>
    <circle id="Ellipse_94" data-name="Ellipse 94" cx="2.361" cy="2.361" r="2.361" transform="translate(74.432 3.39)" fill="#fe7700" opacity="0.1"/>
    <circle id="Ellipse_95" data-name="Ellipse 95" cx="3.957" cy="3.957" r="3.957" transform="translate(0 31.661)" fill="#fe7700" opacity="0.1"/>
    <path id="Path_64" data-name="Path 64" d="M135.992,100.178c-7.065-.263-13.795-2.713-20.221-5.394s-12.791-5.65-19.682-7.07c-4.436-.914-9.508-1.044-13.082,1.511-3.444,2.463-4.556,6.7-5.15,10.639-.45,2.963-.714,6.081.517,8.854.855,1.926,2.373,3.544,3.424,5.388,3.654,6.417,1.071,14.331-2.889,20.6-1.856,2.939-4.011,5.742-5.444,8.871s-2.1,6.714-.848,9.906c1.242,3.166,4.2,5.539,7.413,7.205,6.516,3.394,14.192,4.367,21.682,4.913,16.574,1.218,33.238.691,49.857.163a135.809,135.809,0,0,0,18.378-1.419c3.36-.568,6.829-1.468,9.267-3.642A8.76,8.76,0,0,0,181,149.807c-3.48-5.8-13.1-7.246-15.536-13.474-1.338-3.428.036-7.247,1.983-10.426,4.174-6.821,11.171-12.8,11.539-20.6.253-5.349-3.11-10.716-8.311-13.25-5.452-2.656-13.011-2.322-17.031,2.074C149.508,98.675,142.23,100.412,135.992,100.178Z" transform="translate(-69.604 -87.11)" fill="#fff" opacity="0.1"/>
    <path id="Path_65" data-name="Path 65" d="M872.34,430.1a.646.646,0,0,0,.145.378,2.147,2.147,0,0,0,.581.493v.592a18.276,18.276,0,0,1,2.106,2.011,5.981,5.981,0,0,0,1.192,1.454,1.074,1.074,0,0,0,.444.236h.03a.463.463,0,0,1-.17.109.4.4,0,0,0,.476.342.8.8,0,0,0,.236-.118l.692-.448a1.986,1.986,0,0,0,.322-.241c.129-.13.218-.293.345-.426.218-.227.528-.362.68-.635a3.079,3.079,0,0,0,.17-.559c.038-.122.094-.238.131-.36a1.294,1.294,0,0,0,.045-.225c.024.021.049.042.075.061.054-.035.156.057.132.116s-.082.1-.1.163c-.044.14.129.243.2.371a.988.988,0,0,1,.043.437c.008.145.074.32.095.483.05.38-.138.781,0,1.14a.359.359,0,0,0-.355.276,1.045,1.045,0,0,0,.014.486.668.668,0,0,0-.328.61.15.15,0,0,1-.015.109.155.155,0,0,1-.062.036.616.616,0,0,0-.38.572.186.186,0,0,1-.1.213.712.712,0,0,0-.265.557.4.4,0,0,0,.188.365h.008a1.964,1.964,0,0,0-.655,1.243,5.1,5.1,0,0,0,.085,1.287h.039v.032a.571.571,0,0,0,.062.186,2.659,2.659,0,0,1,.235.956.851.851,0,0,0,.033.241,1.212,1.212,0,0,0,.123.212,2.25,2.25,0,0,1,.228.8,6.3,6.3,0,0,0,.278,1.045,2.957,2.957,0,0,1,.315,1.419,1.416,1.416,0,0,0-.044.35,1.025,1.025,0,0,0,.138.368,3.408,3.408,0,0,1,.153.341.276.276,0,0,0,.068.185c.013.036.024.073.035.109s.019.058.027.087a1.114,1.114,0,0,1,.034.148l-.007.115v.109a.272.272,0,0,1-.052.1.4.4,0,0,1-.028.032l-.026.029a.2.2,0,0,0-.029.043h0a.309.309,0,0,0,0,.175c.027.118.057.236.086.353.009.036.018.071.027.109.024.092.048.185.073.276v.012l.016.061.062.225c.013.045.026.088.038.133l.048.163q.056.19.115.38a39.765,39.765,0,0,1,1.065,3.883.418.418,0,0,0,.156.234.9.9,0,0,0,.272.146c.025.193.087.429.1.546a2.65,2.65,0,0,1-.1,1.134.091.091,0,0,0-.083.026,3.36,3.36,0,0,0-.25.265l-.512.546a.847.847,0,0,0-.116.141.492.492,0,0,0-.049.4.546.546,0,0,0,.263.312.434.434,0,0,1,.083.047.493.493,0,0,0,.051.044.2.2,0,0,0,.109.021,3.9,3.9,0,0,0,.859-.146.689.689,0,0,0,.355-.167.664.664,0,0,0,.121-.236l.1-.284a3.249,3.249,0,0,0,.156-.529,1.091,1.091,0,0,0-.027-.546.11.11,0,0,0-.026.045c.025-.158.049-.318.074-.477.008-.047.014-.095.021-.144.033.425-.029.853-.01,1.278a1.5,1.5,0,0,0-.043.239,1.446,1.446,0,0,0,.507,1.05.52.52,0,0,0,.174.091.615.615,0,0,0,.179,0,2.285,2.285,0,0,0,.681-.129.838.838,0,0,0,.49-.465,1.09,1.09,0,0,0,.049-.336,1.3,1.3,0,0,0-.032-.355,2.719,2.719,0,0,0-.179-.414,3.951,3.951,0,0,1-.2-.609l-.095-.346c-.026-.1-.054-.2-.087-.293a.491.491,0,0,0-.121-.23c-.039-.031-.066-.033-.083-.015v-.037a3.922,3.922,0,0,0,.025-.4,1.717,1.717,0,0,0-.312-.591,1.152,1.152,0,0,1-.124-.312c-.006-.024-.011-.047-.015-.072a.252.252,0,0,1,.062-.04l.194.109a14.9,14.9,0,0,0-.581-3.837c-.218-.522-.639-1.066-.592-1.628a.459.459,0,0,1,.051-.731c.084-.046.188-.068.246-.145a.4.4,0,0,0,.056-.141,22.336,22.336,0,0,1,1.079-3.237c.1-.23.2-.459.3-.687l.338-.77.413-.937a1.3,1.3,0,0,0,.149-.993.841.841,0,0,1-.132-.379,2.4,2.4,0,0,1,.081-.25.624.624,0,0,0-.021-.272c-.027-.118-.058-.236-.09-.353a1.967,1.967,0,0,1,.263.05c.052-.088-.032-.191-.083-.281a.949.949,0,0,1-.095-.39l-.109-1.1a1.956,1.956,0,0,1-.009-.458c.022-.162.084-.316.116-.477a7.337,7.337,0,0,0,.02-.943,4.229,4.229,0,0,1,.144-.821c.01-.04.018-.08.028-.12a.655.655,0,0,0,.158.027h.135a.427.427,0,0,0,.06-.015h.013a.672.672,0,0,0,.064-.025c-.026-.056-.05-.109-.073-.168-.01-.023-.019-.046-.027-.069s-.025-.064-.036-.1-.022-.06-.032-.09-.016-.05-.024-.075-.021-.069-.031-.109-.02-.072-.029-.109l.016-.034a.955.955,0,0,0,.18.123c.218.377.416.764.6,1.155a.367.367,0,0,0,.056-.141.678.678,0,0,0,.078.1,1.156,1.156,0,0,0,.254.187.656.656,0,0,0,.3.109.562.562,0,0,0,.385-.167,2.571,2.571,0,0,0,.623-1.092,8.222,8.222,0,0,0,.47-1.608,13.621,13.621,0,0,1,.218-1.784c-.152-.3-.248-.634-.418-.926a4.133,4.133,0,0,1-.288-.54,1.866,1.866,0,0,1-.051-1.249.171.171,0,0,0-.2.011.419.419,0,0,0-.12.175,1.551,1.551,0,0,0-.119.734.292.292,0,0,1-.021.179.225.225,0,0,1-.194.082,1.672,1.672,0,0,1-.45-.082,4.179,4.179,0,0,0-1.253-.122.99.99,0,0,0-.109-.109l-.047-.038-.048-.037-.024-.02a.535.535,0,0,1-.046-.04.3.3,0,0,1-.109-.191.245.245,0,0,1,0-.028.208.208,0,0,1,0-.026.374.374,0,0,1,.025-.076q.011-.025.024-.049l.012-.025c0-.008.008-.016.012-.024a.727.727,0,0,0,.035-.092.7.7,0,0,0,.023-.1.71.71,0,0,0,.01-.1v-.147a1,1,0,0,0-.04-.194,1.076,1.076,0,0,0-.052-.14,1.525,1.525,0,0,0-.093-.172,2.64,2.64,0,0,0-.234-.318l-.064-.075-.065-.074a2.572,2.572,0,0,1-.19-.233.9.9,0,0,1-.109-.194c-.009-.023-.016-.046-.023-.07a.709.709,0,0,1-.02-.135v-.045a1.667,1.667,0,0,1,.009-.182c.009-.085.021-.171.033-.259.008-.058.016-.116.024-.174a.579.579,0,0,1,.011-.086c.006-.058.013-.116.017-.174a1.66,1.66,0,0,0-.028-.505.945.945,0,0,0-.051-.162,1.015,1.015,0,0,0-.109-.2,1.42,1.42,0,0,0-.607-.473,2.8,2.8,0,0,0-.556-.178c-.076-.016-.152-.031-.227-.043a3.18,3.18,0,0,0-3.057,1.092,4.236,4.236,0,0,0-.826,1.619,2.312,2.312,0,0,0,.261,1.765c.141.218.328.4.451.627.1.183.164.39.274.569a1.343,1.343,0,0,0,.606.51l-.048.044a1.469,1.469,0,0,0-.339.007c-.116.02-.228.064-.345.079-.144.019-.292-.01-.437.009a1.378,1.378,0,0,0-.693.4,1.219,1.219,0,0,0-.514.764v.009l-.16.218a.867.867,0,0,0-.1.158,2.669,2.669,0,0,0-.063.489,1.048,1.048,0,0,1-.127.291,6.571,6.571,0,0,1-.546.814,1.381,1.381,0,0,1-.339.336.612.612,0,0,1-.354.1,2.268,2.268,0,0,1-.517-.346,3.344,3.344,0,0,1-.457-.569c-.26-.374.546.746.286.37l-2.33-3.882a3.164,3.164,0,0,1-.092-.552c0-.071-.029-.165-.1-.167a.124.124,0,0,0-.082.039.474.474,0,0,0-.152.4.56.56,0,0,0-.357.063.2.2,0,0,0-.045.29v.029a.155.155,0,0,0-.082.164.554.554,0,0,0-.383.019c-.115.064-.158.253-.047.327A.335.335,0,0,0,872.34,430.1Zm14.594.557a1.8,1.8,0,0,0,.2.052,3.259,3.259,0,0,1,.633.218.347.347,0,0,1,.165.123.367.367,0,0,1-.02.31l-.288.778c-.046.122-.091.245-.147.361-.022.047-.047.094-.072.14q-.013-.039-.026-.075a6.369,6.369,0,0,1-.207-.725c-.048-.212-.089-.426-.122-.64a3.116,3.116,0,0,0-.121-.544Zm-.3-.61.022.015a.245.245,0,0,1,.076.052.117.117,0,0,1,0,.109Zm-.521-.75.345.05a.454.454,0,0,1,.233.08.156.156,0,0,1,.032.218.521.521,0,0,1-.076.051.218.218,0,0,0-.082.226,2.443,2.443,0,0,0-.2-.307,1.526,1.526,0,0,0-.23-.236C886.127,429.354,886.121,429.325,886.112,429.3ZM882.8,454.116a.164.164,0,1,1,.107.31Z" transform="translate(-782.608 -386.905)" fill="url(#linear-gradient)"/>
    <path id="Path_66" data-name="Path 66" d="M940.032,425.837a1.82,1.82,0,0,1,1.495.889,2.941,2.941,0,0,1,0,1.358,1.031,1.031,0,0,0,.013.361,1.267,1.267,0,0,0,.316.5,2.642,2.642,0,0,1,.456.639.931.931,0,0,1,.031.764.554.554,0,0,0-.075.2c-.008.156.155.254.275.354.45.372.43,1.05.437,1.638a8.267,8.267,0,0,0,.782,3.454,1.056,1.056,0,0,1-1.181-.154,3.973,3.973,0,0,0,.269.773.849.849,0,0,1-1.03-.5,8.484,8.484,0,0,1-.349-1.216c-.131-.4-.381-.752-.49-1.155a1.111,1.111,0,0,0-.136-.386.981.981,0,0,0-.24-.2,2.337,2.337,0,0,1-.846-1.148,4.5,4.5,0,0,1-1.419.164,1.562,1.562,0,0,1-1.21-.665c-.109-.179-.171-.385-.274-.569-.126-.225-.311-.409-.452-.626a2.309,2.309,0,0,1-.26-1.763,4.2,4.2,0,0,1,.826-1.617A3.2,3.2,0,0,1,940.032,425.837Z" transform="translate(-839.386 -388.811)" fill="#3a3768"/>
    <path id="Path_67" data-name="Path 67" d="M940.032,425.837a1.82,1.82,0,0,1,1.495.889,2.941,2.941,0,0,1,0,1.358,1.031,1.031,0,0,0,.013.361,1.267,1.267,0,0,0,.316.5,2.642,2.642,0,0,1,.456.639.931.931,0,0,1,.031.764.554.554,0,0,0-.075.2c-.008.156.155.254.275.354.45.372.43,1.05.437,1.638a8.267,8.267,0,0,0,.782,3.454,1.056,1.056,0,0,1-1.181-.154,3.973,3.973,0,0,0,.269.773.849.849,0,0,1-1.03-.5,8.484,8.484,0,0,1-.349-1.216c-.131-.4-.381-.752-.49-1.155a1.111,1.111,0,0,0-.136-.386.981.981,0,0,0-.24-.2,2.337,2.337,0,0,1-.846-1.148,4.5,4.5,0,0,1-1.419.164,1.562,1.562,0,0,1-1.21-.665c-.109-.179-.171-.385-.274-.569-.126-.225-.311-.409-.452-.626a2.309,2.309,0,0,1-.26-1.763,4.2,4.2,0,0,1,.826-1.617A3.2,3.2,0,0,1,940.032,425.837Z" transform="translate(-839.386 -388.811)" fill="#3f3d56"/>
    <path id="Path_68" data-name="Path 68" d="M992.3,486.729c.034.218.074.428.123.641a6.085,6.085,0,0,0,.206.723.7.7,0,0,1,.064.328.612.612,0,0,1-.08.2,3.7,3.7,0,0,0-.675,1.512.814.814,0,0,1-.074.4q-.318-.681-.7-1.33a4.1,4.1,0,0,1-.639-1.428,2.715,2.715,0,0,1,.009-.734,1.6,1.6,0,0,1,.264-.772c.18-.236.677-.593,1-.52C992.178,485.843,992.255,486.424,992.3,486.729Z" transform="translate(-887.878 -442.218)" fill="#f86d70"/>
    <path id="Path_69" data-name="Path 69" d="M877.252,475a3.252,3.252,0,0,1-1.008-.563,3.292,3.292,0,0,1-.458-.568l-.842-1.216a2.195,2.195,0,0,1-.448-.941,3.1,3.1,0,0,1-.842-1.91c0-.072-.028-.165-.1-.167a.126.126,0,0,0-.083.039.475.475,0,0,0-.151.4.56.56,0,0,0-.357.062c-.1.072-.127.25-.019.31a.154.154,0,0,0-.109.174.546.546,0,0,0-.383.019c-.109.064-.158.252-.047.328a.327.327,0,0,0-.218.32.641.641,0,0,0,.145.377c.328.437.9.609,1.269,1a2.9,2.9,0,0,1,.328.437l1.086,1.653a5.939,5.939,0,0,0,1.192,1.451,1.078,1.078,0,0,0,.443.236.49.49,0,0,0,.466-.129.762.762,0,0,0,.136-.465C877.281,475.566,877.233,475.276,877.252,475Z" transform="translate(-782.474 -427.865)" fill="#a1616a"/>
    <path id="Path_70" data-name="Path 70" d="M950.351,721.339a.951.951,0,0,0-.116.141.492.492,0,0,0-.049.4.546.546,0,0,0,.263.311.507.507,0,0,1,.083.048.5.5,0,0,0,.051.044.2.2,0,0,0,.109.021,3.971,3.971,0,0,0,.859-.146.69.69,0,0,0,.355-.167.707.707,0,0,0,.121-.235l.1-.284a3.34,3.34,0,0,0,.157-.528,1.1,1.1,0,0,0-.028-.546.178.178,0,0,0-.038.109,1.211,1.211,0,0,1-.218.53.543.543,0,0,1-.085.109.556.556,0,0,1-.255.109,3.136,3.136,0,0,1-.546.07.168.168,0,0,1-.074-.009.13.13,0,0,1-.062-.077.328.328,0,0,1,0-.218c.049-.138.184-.228.25-.36.048-.1-.019-.2-.118-.122a3.064,3.064,0,0,0-.25.265Z" transform="translate(-851.936 -651.259)" fill="#3f3d56"/>
    <path id="Path_71" data-name="Path 71" d="M955.4,702.559a2.166,2.166,0,0,1-.2,1.334c-.09.139-.211.254-.313.384a.451.451,0,0,0-.109.232.354.354,0,0,0,.308.342,1.018,1.018,0,0,0,.495-.071,1.191,1.191,0,0,0,.42-.2,1.212,1.212,0,0,0,.319-.773l.1-.655a2.061,2.061,0,0,0,.037-.477,2.121,2.121,0,0,0-.128-.514l-.168-.491a.231.231,0,0,0-.074-.122.218.218,0,0,0-.128-.023c-.16.008-.565.067-.643.236C955.25,701.915,955.394,702.387,955.4,702.559Z" transform="translate(-856.049 -634.444)" fill="#ee8e9e"/>
    <path id="Path_72" data-name="Path 72" d="M955.4,702.559a2.166,2.166,0,0,1-.2,1.334c-.09.139-.211.254-.313.384a.451.451,0,0,0-.109.232.354.354,0,0,0,.308.342,1.018,1.018,0,0,0,.495-.071,1.191,1.191,0,0,0,.42-.2,1.212,1.212,0,0,0,.319-.773l.1-.655a2.061,2.061,0,0,0,.037-.477,2.121,2.121,0,0,0-.128-.514l-.168-.491a.231.231,0,0,0-.074-.122.218.218,0,0,0-.128-.023c-.16.008-.565.067-.643.236C955.25,701.915,955.394,702.387,955.4,702.559Z" transform="translate(-856.049 -634.444)" opacity="0.05"/>
    <path id="Path_73" data-name="Path 73" d="M927.546,577.509a.04.04,0,0,0,0,.012.547.547,0,0,0,.061.186,2.681,2.681,0,0,1,.236.955.81.81,0,0,0,.032.241,1.274,1.274,0,0,0,.123.212,2.247,2.247,0,0,1,.228.8,6.29,6.29,0,0,0,.278,1.044,2.95,2.95,0,0,1,.316,1.419,1.425,1.425,0,0,0-.044.349,1.011,1.011,0,0,0,.136.368,3.38,3.38,0,0,1,.154.341c.045.116.093.252.13.38a.516.516,0,0,1-.028.468.53.53,0,0,0-.084.1.273.273,0,0,0,0,.177q.088.373.19.746c.052.194.109.388.165.581.421,1.413.9,2.811,1.18,4.258.04.209.307.358.514.4a.67.67,0,0,0,.591-.158.366.366,0,0,0,.042-.04,1.241,1.241,0,0,0,.233-.915c-.073-1.489-.823-2.852-1.18-4.3a8.275,8.275,0,0,1-.231-1.595,16.665,16.665,0,0,1,.391-5.424,1.391,1.391,0,0,0,.04-1.092,1.065,1.065,0,0,0-.561-.411,3.614,3.614,0,0,0-2.8.072.906.906,0,0,0,0,.109,1.108,1.108,0,0,1-.057.5A.6.6,0,0,0,927.546,577.509Z" transform="translate(-831.788 -522.947)" fill="#3f3d56"/>
    <path id="Path_74" data-name="Path 74" d="M971.1,710.838l.095.346a3.865,3.865,0,0,0,.2.609,2.647,2.647,0,0,1,.18.413,1.339,1.339,0,0,1,.031.355,1.087,1.087,0,0,1-.049.335.838.838,0,0,1-.49.465,2.316,2.316,0,0,1-.68.128.544.544,0,0,1-.179,0,.5.5,0,0,1-.174-.091,1.435,1.435,0,0,1-.506-1.049,1.28,1.28,0,0,1,.053-.267c.024-.033.263.1.16.218-.151.167.292.081.516.067a2.08,2.08,0,0,0,.293-.048l.364-.078c.119-.026.257-.067.3-.181s-.05-.25-.121-.36a2.36,2.36,0,0,1-.284-1c-.009-.069-.094-.511.082-.373a.494.494,0,0,1,.122.23C971.047,710.643,971.074,710.74,971.1,710.838Z" transform="translate(-869.188 -642.26)" fill="#3f3d56"/>
    <path id="Path_75" data-name="Path 75" d="M941.626,639.7a.5.5,0,0,0,.028-.467c-.018-.059-.035-.117-.055-.175l1.429-.483c0,.128.011.255.016.383a8.3,8.3,0,0,0,.231,1.6c.357,1.447,1.107,2.809,1.18,4.3a1.193,1.193,0,0,1-.273.957.676.676,0,0,1-.592.157c-.206-.045-.474-.194-.514-.4-.283-1.446-.764-2.845-1.18-4.258q-.2-.655-.355-1.328a.275.275,0,0,1,0-.176A.528.528,0,0,1,941.626,639.7Z" transform="translate(-844.244 -578.371)" opacity="0.05"/>
    <path id="Path_76" data-name="Path 76" d="M969.974,696a1.725,1.725,0,0,1,.311.589,3.351,3.351,0,0,1-.025.4,1.266,1.266,0,0,0,.06.328q.207.753.48,1.487a.407.407,0,0,1,.038.2.356.356,0,0,1-.237.236,2.5,2.5,0,0,1-1.092.12.571.571,0,0,1-.308-.072.535.535,0,0,1-.174-.429c-.025-.464.053-.93,0-1.392-.017-.168-.053-.334-.08-.5a1.464,1.464,0,0,1,.022-.7,1.6,1.6,0,0,1,.261-.437,1.368,1.368,0,0,1,.364-.362c.044-.026.167-.109.211-.056.023.025.013.093.016.124a1.268,1.268,0,0,0,.025.144A1.19,1.19,0,0,0,969.974,696Z" transform="translate(-868.642 -628.987)" fill="#ee8e9e"/>
    <path id="Path_77" data-name="Path 77" d="M930.073,578.071a.4.4,0,0,1,.027.327c-.048.2-.127.387-.191.58a8.04,8.04,0,0,0-.247,1.053,3.083,3.083,0,0,0-.134,1,7.154,7.154,0,0,0-.764,2.381c-.03.213.444.489.437.7-.017.428-.359.462-.109.8.012.017-.1.4-.081.416.1.123.232.218.343.337a2.58,2.58,0,0,1,.361.53c.655,1.177,1.593,2.511,1.3,3.821a.234.234,0,0,0,.125.236.645.645,0,0,0,.275.063h.046a1.241,1.241,0,0,0,.233-.915c-.073-1.489-.823-2.852-1.18-4.3a8.276,8.276,0,0,1-.231-1.595,16.662,16.662,0,0,1,.391-5.424,1.391,1.391,0,0,0,.04-1.092,1.065,1.065,0,0,0-.561-.41,3.613,3.613,0,0,0-2.8.072.858.858,0,0,0,0,.109,1.108,1.108,0,0,1-.057.5.609.609,0,0,0-.056.218s-.026-.289-.026-.285c.584.084,1.193.465,1.777.546a4.053,4.053,0,0,1,.891.2A.386.386,0,0,1,930.073,578.071Z" transform="translate(-831.488 -522.93)" opacity="0.05"/>
    <path id="Path_78" data-name="Path 78" d="M933.263,558.637c.079.25.148.5.207.757a.619.619,0,0,1,.021.271,2.365,2.365,0,0,0-.081.25.836.836,0,0,0,.132.378,1.3,1.3,0,0,1-.147.993l-.414.936-.338.764c-.1.228-.2.456-.3.687a22.336,22.336,0,0,0-1.078,3.233.4.4,0,0,1-.056.141c-.058.076-.162.1-.246.145a.457.457,0,0,0-.05.73c-.048.562.373,1.1.591,1.625a14.987,14.987,0,0,1,.581,3.832l-.194-.109c-.187.085-.18.349-.279.527-.151.268-.519.307-.825.286a.644.644,0,0,1-.276-.063.233.233,0,0,1-.123-.236c.289-1.31-.655-2.647-1.3-3.821a2.539,2.539,0,0,0-.361-.528c-.109-.117-.239-.218-.343-.338a1.833,1.833,0,0,1-.3-1.281,7.174,7.174,0,0,1,.815-3.024,3.1,3.1,0,0,1,.135-1,7.874,7.874,0,0,1,.246-1.053c.065-.193.143-.382.191-.58a.4.4,0,0,0-.026-.328.384.384,0,0,0-.185-.119,4.1,4.1,0,0,0-.891-.2l-2.007-.288a5.1,5.1,0,0,1-.085-1.286,1.977,1.977,0,0,1,1.419-1.655.3.3,0,0,1,.261.016A10.462,10.462,0,0,1,933.263,558.637Z" transform="translate(-830.638 -506.679)" fill="#3f3d56"/>
    <path id="Path_79" data-name="Path 79" d="M950.321,455.674a.984.984,0,0,0,.087.574.9.9,0,0,0,.228.252,1.69,1.69,0,0,0,.662.328.7.7,0,0,1,.4.173c.141.17.047.427-.073.612a1.567,1.567,0,0,1-.867.717c-.3.081-.612.032-.915.084-.218.038-.426.129-.642.18a1.894,1.894,0,0,1-1.747-.486,2.493,2.493,0,0,0,.822-.88,1.251,1.251,0,0,0,.062-.841,1.868,1.868,0,0,1-.2-.821.86.86,0,0,1,.6-.567,3.861,3.861,0,0,1,.757-.153c.141-.02,1.039-.218,1.092-.12.032.056-.155.383-.178.455A1.756,1.756,0,0,0,950.321,455.674Z" transform="translate(-849.519 -414.567)" fill="#a1616a"/>
    <path id="Path_80" data-name="Path 80" d="M950.321,455.674a.984.984,0,0,0,.087.574.9.9,0,0,0,.228.252,1.69,1.69,0,0,0,.662.328.7.7,0,0,1,.4.173c.141.17.047.427-.073.612a1.567,1.567,0,0,1-.867.717c-.3.081-.612.032-.915.084-.218.038-.426.129-.642.18a1.894,1.894,0,0,1-1.747-.486,2.493,2.493,0,0,0,.822-.88,1.251,1.251,0,0,0,.062-.841,1.868,1.868,0,0,1-.2-.821.86.86,0,0,1,.6-.567,3.861,3.861,0,0,1,.757-.153c.141-.02,1.039-.218,1.092-.12.032.056-.155.383-.178.455A1.756,1.756,0,0,0,950.321,455.674Z" transform="translate(-849.519 -414.567)" opacity="0.05"/>
    <circle id="Ellipse_96" data-name="Ellipse 96" cx="1.822" cy="1.822" r="1.822" transform="translate(97.85 38.118)" fill="#a1616a"/>
    <path id="Path_81" data-name="Path 81" d="M934.2,475.484l-1.235.207a4.624,4.624,0,0,1-.923.093,2.644,2.644,0,0,0-.509,0c-.117.02-.228.064-.346.079-.144.019-.29-.009-.437.01a1.377,1.377,0,0,0-.693.4,1.207,1.207,0,0,0-.513.764.22.22,0,0,0,.014.109.321.321,0,0,0,.092.1,2.927,2.927,0,0,1,.516.71,2.741,2.741,0,0,0,.613.662c.055-.035.157.057.133.116s-.082.1-.1.163c-.044.14.129.242.2.371a1,1,0,0,1,.044.437c.008.146.073.32.095.484.049.379-.138.778,0,1.138a.357.357,0,0,0-.355.276,1.041,1.041,0,0,0,.014.485.667.667,0,0,0-.327.609.109.109,0,0,1-.079.145.614.614,0,0,0-.379.571.281.281,0,0,1-.011.121.265.265,0,0,1-.09.092.712.712,0,0,0-.265.557.408.408,0,0,0,.188.365,3.4,3.4,0,0,0,.83.247,7.432,7.432,0,0,0,.8.142,7.209,7.209,0,0,0,.752.023l1.653-.007c.464,0,.929,0,1.393-.035a3.951,3.951,0,0,1,1.294.031c.052-.088-.032-.191-.083-.281a.94.94,0,0,1-.095-.389l-.1-1.1a1.932,1.932,0,0,1-.009-.456c.023-.163.084-.317.116-.477a7.326,7.326,0,0,0,.02-.942,4.207,4.207,0,0,1,.144-.82l.328-1.348a5.219,5.219,0,0,1,.162-.676q.377-.972.792-1.926a.2.2,0,0,0-.014-.17l-.273-.49a3.142,3.142,0,0,0-.25-.4,1.578,1.578,0,0,0-.922-.567,1.631,1.631,0,0,0-1.072.159c-.128.068-.246.152-.375.218A1.537,1.537,0,0,1,934.2,475.484Z" transform="translate(-833.568 -432.532)" fill="#f86d70"/>
    <path id="Path_82" data-name="Path 82" d="M914.109,491.5l-.43.574a.736.736,0,0,0-.1.158,2.572,2.572,0,0,0-.064.487,1.011,1.011,0,0,1-.126.291,6.713,6.713,0,0,1-.546.814,1.46,1.46,0,0,1-.34.336.563.563,0,0,1-.459.081.287.287,0,0,1,.151.136,1.666,1.666,0,0,1,.109,1.066,1.092,1.092,0,0,1-.12.349.524.524,0,0,1-.274.237.4.4,0,0,0,.476.342.793.793,0,0,0,.236-.118l.691-.448a1.835,1.835,0,0,0,.322-.241c.129-.129.218-.292.345-.425.218-.226.528-.361.68-.634a2.986,2.986,0,0,0,.169-.559c.038-.121.095-.237.131-.359a1.6,1.6,0,0,0-.142-1.151A4.919,4.919,0,0,0,914.109,491.5Z" transform="translate(-817.859 -447.348)" fill="#f86d70"/>
    <path id="Path_83" data-name="Path 83" d="M945.3,428.055a2.39,2.39,0,0,1,.641-.667,2.188,2.188,0,0,1,1.156-.489,1.231,1.231,0,0,1,.52.085c.009-.515.136-.857.457-.806a1.82,1.82,0,0,1,1.495.889,2.941,2.941,0,0,1,0,1.358,1.031,1.031,0,0,0,.013.361,1.266,1.266,0,0,0,.317.5,2.646,2.646,0,0,1,.456.639.93.93,0,0,1,.031.764.554.554,0,0,0-.075.2c-.008.156.155.254.275.354.45.372.43,1.05.437,1.638a8.267,8.267,0,0,0,.782,3.454,1.056,1.056,0,0,1-1.181-.154,3.981,3.981,0,0,0,.269.773.849.849,0,0,1-1.029-.5,8.5,8.5,0,0,1-.349-1.216c-.131-.4-.381-.752-.49-1.155a1.108,1.108,0,0,0-.136-.386.981.981,0,0,0-.24-.2c-.392-.282.186-2.415.033-2.872-.228.049-.647-1.051-.886-2.17a1.13,1.13,0,0,1-.519.052.625.625,0,0,0-.186-.013.5.5,0,0,0-.162.065,3.971,3.971,0,0,1-.551.284,3.171,3.171,0,0,1-1.251.109,1.241,1.241,0,0,1,.177-.894Z" transform="translate(-847.429 -389.153)" fill="#3a3768"/>
    <path id="Path_84" data-name="Path 84" d="M945.3,428.055a2.39,2.39,0,0,1,.641-.667,2.188,2.188,0,0,1,1.156-.489,1.231,1.231,0,0,1,.52.085c.009-.515.136-.857.457-.806a1.82,1.82,0,0,1,1.495.889,2.941,2.941,0,0,1,0,1.358,1.031,1.031,0,0,0,.013.361,1.266,1.266,0,0,0,.317.5,2.646,2.646,0,0,1,.456.639.93.93,0,0,1,.031.764.554.554,0,0,0-.075.2c-.008.156.155.254.275.354.45.372.43,1.05.437,1.638a8.267,8.267,0,0,0,.782,3.454,1.056,1.056,0,0,1-1.181-.154,3.981,3.981,0,0,0,.269.773.849.849,0,0,1-1.029-.5,8.5,8.5,0,0,1-.349-1.216c-.131-.4-.381-.752-.49-1.155a1.108,1.108,0,0,0-.136-.386.981.981,0,0,0-.24-.2c-.392-.282.186-2.415.033-2.872-.228.049-.647-1.051-.886-2.17a1.13,1.13,0,0,1-.519.052.625.625,0,0,0-.186-.013.5.5,0,0,0-.162.065,3.971,3.971,0,0,1-.551.284,3.171,3.171,0,0,1-1.251.109,1.241,1.241,0,0,1,.177-.894Z" transform="translate(-847.429 -389.153)" fill="#3f3d56"/>
    <g id="Group_171" data-name="Group 171" transform="translate(98.025 37.017)" opacity="0.1">
      <path id="Path_85" data-name="Path 85" d="M974.473,436.3a8.287,8.287,0,0,1-.782-3.454c0-.584.016-1.262-.437-1.638-.12-.1-.283-.2-.276-.354a.559.559,0,0,1,.076-.2.935.935,0,0,0-.031-.764,2.645,2.645,0,0,0-.456-.639,1.272,1.272,0,0,1-.318-.5,1.092,1.092,0,0,1-.013-.361,2.787,2.787,0,0,0,0-1.358,1.764,1.764,0,0,0-1.437-.879.328.328,0,0,1,.157-.01,1.82,1.82,0,0,1,1.494.889,2.943,2.943,0,0,1,0,1.358,1.029,1.029,0,0,0,.013.361,1.267,1.267,0,0,0,.317.5,2.645,2.645,0,0,1,.456.639.93.93,0,0,1,.031.764.556.556,0,0,0-.076.2c-.008.156.155.254.275.354.45.372.43,1.05.437,1.638a8.269,8.269,0,0,0,.782,3.454,1.02,1.02,0,0,1-.578.109A.988.988,0,0,0,974.473,436.3Z" transform="translate(-968.345 -426.141)"/>
      <path id="Path_86" data-name="Path 86" d="M993.9,518.563a3.907,3.907,0,0,1-.268-.773.993.993,0,0,0,.259.171,4.069,4.069,0,0,0,.218.6.571.571,0,0,1-.352.045A.552.552,0,0,0,993.9,518.563Z" transform="translate(-988.682 -507.785)"/>
      <path id="Path_87" data-name="Path 87" d="M963.337,432.918a1.256,1.256,0,0,0-.347-.082h.042a1.222,1.222,0,0,1,.308.023C963.338,432.877,963.337,432.9,963.337,432.918Z" transform="translate(-961.387 -432.104)"/>
      <path id="Path_88" data-name="Path 88" d="M949.02,447.731a4.009,4.009,0,0,0,.552-.284.483.483,0,0,1,.161-.066.6.6,0,0,1,.17.01.68.68,0,0,0-.118.056,3.985,3.985,0,0,1-.551.284,2.488,2.488,0,0,1-.925.12A2.191,2.191,0,0,0,949.02,447.731Z" transform="translate(-948.31 -445.061)"/>
      <path id="Path_89" data-name="Path 89" d="M965.671,447l.01.049a1.068,1.068,0,0,1-.271.008A1.2,1.2,0,0,0,965.671,447Z" transform="translate(-963.543 -444.723)"/>
    </g>
    <path id="Path_90" data-name="Path 90" d="M992.545,470.958a.666.666,0,0,0,.179.533,1.181,1.181,0,0,0,.253.187.687.687,0,0,0,.3.109.569.569,0,0,0,.385-.168,2.566,2.566,0,0,0,.622-1.086,8.148,8.148,0,0,0,.47-1.606,13.647,13.647,0,0,1,.218-1.783c-.151-.3-.247-.633-.418-.924a4.323,4.323,0,0,1-.288-.54,1.867,1.867,0,0,1-.051-1.247.168.168,0,0,0-.2.01.418.418,0,0,0-.12.175,1.547,1.547,0,0,0-.119.733.291.291,0,0,1-.021.179.225.225,0,0,1-.194.082,1.725,1.725,0,0,1-.45-.081,4.169,4.169,0,0,0-1.385-.115.653.653,0,0,0-.271.065.251.251,0,0,0-.139.226l1.107.163a.458.458,0,0,1,.234.08.158.158,0,0,1,.032.218.435.435,0,0,1-.076.05.228.228,0,0,0,.009.365.232.232,0,0,1,.075.052c.046.061-.014.141-.034.218a.271.271,0,0,0,.133.276.972.972,0,0,0,.309.1,3.257,3.257,0,0,1,.633.218.347.347,0,0,1,.165.123.37.37,0,0,1-.02.31l-.288.777c-.046.122-.091.243-.147.361-.073.152-.164.295-.239.446a4.442,4.442,0,0,0-.18.437C992.884,470.3,992.595,470.538,992.545,470.958Z" transform="translate(-888.599 -423.211)" fill="#a1616a"/>
    <path id="Path_91" data-name="Path 91" d="M454.476,249.17v36.617a12.127,12.127,0,0,0-3.781-.583c-5.444,0-9.866,3.853-9.866,9.3s4.421,9.254,9.866,9.254a9.63,9.63,0,0,0,9.893-9.825V268.5H489.3v17.285a12.123,12.123,0,0,0-3.781-.583c-5.444,0-9.866,3.853-9.866,9.3s4.421,9.254,9.866,9.254a9.63,9.63,0,0,0,9.893-9.825V249.17ZM489.3,262.816H460.59v-7.533H489.3Z" transform="translate(-398.207 -231.473)" fill="#d04a00"/>
    <path id="Path_92" data-name="Path 92" d="M186.069,212.17v24.574a9.3,9.3,0,1,0,4.651,8.035v-23.3h9.323V212.17Z" transform="translate(-158.839 -198.512)" fill="#fe7700"/>
    <path id="Path_93" data-name="Path 93" d="M216.182,717.478a5.933,5.933,0,0,0-1.708-.6,7.813,7.813,0,0,0,1.278-.287c1.11-.352,1.67-.823,1.25-1.053a4.814,4.814,0,0,0-2.772.218,4.279,4.279,0,0,0-1.064.473,2.134,2.134,0,0,0-.914-.794,4.622,4.622,0,0,0-2.961-.61c-.648.205-.374.81.612,1.353a5.911,5.911,0,0,0,1.528.569,9.008,9.008,0,0,0-1.053.187c-1.209.291-1.907.728-1.561.983a4.912,4.912,0,0,0,2.817-.07,5.263,5.263,0,0,0,1.266-.448,2.039,2.039,0,0,0,.93.831,4.624,4.624,0,0,0,2.961.61C217.44,718.628,217.164,718.019,216.182,717.478Z" transform="translate(-191.444 -646.226)" fill="#fe7700"/>
    <path id="Path_94" data-name="Path 94" d="M311.2,655.877a2.893,2.893,0,0,0-.829-.294,3.885,3.885,0,0,0,.62-.139c.539-.171.811-.4.607-.512a2.316,2.316,0,0,0-1.346.109,2.153,2.153,0,0,0-.516.229,1.04,1.04,0,0,0-.443-.385,2.261,2.261,0,0,0-1.438-.3c-.314.1-.181.394.3.655a2.86,2.86,0,0,0,.745.275,4.491,4.491,0,0,0-.512.092c-.586.14-.926.353-.758.475a2.366,2.366,0,0,0,1.367-.034,2.59,2.59,0,0,0,.616-.218.981.981,0,0,0,.451.4,2.263,2.263,0,0,0,1.438.3C311.816,656.435,311.681,656.14,311.2,655.877Z" transform="translate(-279.509 -592.604)" fill="#fe7700"/>
    <path id="Path_95" data-name="Path 95" d="M150.822,585.808a1.813,1.813,0,0,0-.522-.183,2.284,2.284,0,0,0,.391-.087c.337-.109.508-.25.38-.32a1.461,1.461,0,0,0-.842.067,1.336,1.336,0,0,0-.328.143.639.639,0,0,0-.277-.24,1.412,1.412,0,0,0-.9-.186c-.2.062-.109.246.187.41a1.781,1.781,0,0,0,.466.173,2.686,2.686,0,0,0-.321.058c-.367.087-.58.218-.475.3a1.481,1.481,0,0,0,.856-.021,1.622,1.622,0,0,0,.385-.136.607.607,0,0,0,.282.252,1.416,1.416,0,0,0,.9.186C151.2,586.157,151.121,585.973,150.822,585.808Z" transform="translate(-137.84 -530.623)" fill="#fe7700"/>
    <path id="Path_96" data-name="Path 96" d="M215.649,212.17v7.784h-9.323v23.3a9.309,9.309,0,0,1-15.086,7.3,9.31,9.31,0,0,0,16.615-5.774v-23.3h9.323V212.17Z" transform="translate(-175.864 -198.512)" opacity="0.1"/>
    <path id="Path_97" data-name="Path 97" d="M173.87,219.434l.032.238,1.032.146s.084-.063.218-.15a3.208,3.208,0,0,1,1-.467c.54-.109,2.259-.879,1.705-.929s-.5.064-.5.064a.911.911,0,0,0-1.24-.051,8.617,8.617,0,0,1-2.008,1.055C173.964,219.4,173.87,219.434,173.87,219.434Z" transform="translate(-160.391 -203.755)" fill="#efb7b9"/>
    <path id="Path_98" data-name="Path 98" d="M199.18,204.571a1.746,1.746,0,0,1,.495-.127.6.6,0,0,1,.471.157c.067.069.109.157.175.227.314.336.925.085,1.3.346a1.3,1.3,0,0,1,.388.738c.083.272.234.57.511.628a1.516,1.516,0,0,0,.4-.015.4.4,0,0,1,.362.133c.129.2-.049.522.138.662.167.123.469-.049.586.122a.255.255,0,0,1-.04.284,1.971,1.971,0,0,0-.19.238.36.36,0,0,0,.355.526c.118-.012.243-.079.346-.021a.245.245,0,0,1,.109.193.508.508,0,0,1-.456.534,1.129,1.129,0,0,1-.564-.188.709.709,0,0,0-.575-.093.888.888,0,0,0-.231.163,2.534,2.534,0,0,1-.712.421.877.877,0,0,1-.71.032c-.246-.126-.372-.431-.632-.524s-.557.081-.806.228-.582.271-.807.09c-.242-.2-.168-.587-.316-.861a.846.846,0,0,0-.237-.261c-.166-.128-.355-.224-.522-.349a.873.873,0,0,1-.356-.5,1.013,1.013,0,0,1,.2-.71,1.966,1.966,0,0,0,.334-.671c.033-.186,0-.379.043-.562a.693.693,0,0,1,.45-.475c.122-.041.144-.031.206-.139A.437.437,0,0,1,199.18,204.571Z" transform="translate(-181.58 -191.627)" fill="#3f3d56"/>
    <g id="Group_172" data-name="Group 172" transform="translate(16.077 15.106)" opacity="0.1">
      <path id="Path_99" data-name="Path 99" d="M249.452,225.44a.928.928,0,0,1,.02.328A.885.885,0,0,1,249.452,225.44Z" transform="translate(-243.793 -225.44)"/>
      <path id="Path_100" data-name="Path 100" d="M253.267,232.552a.357.357,0,0,0-.037.12.369.369,0,0,1,.013-.306,1.949,1.949,0,0,1,.19-.237.4.4,0,0,0,.055-.109l.009.01a.256.256,0,0,1-.039.283A1.946,1.946,0,0,0,253.267,232.552Z" transform="translate(-247.14 -231.302)"/>
      <path id="Path_101" data-name="Path 101" d="M198.012,230.575c.167.127.355.218.521.35a.831.831,0,0,1,.237.261c.147.274.073.666.316.861.225.181.559.059.808-.089s.533-.328.8-.228.386.4.633.524a.891.891,0,0,0,.71-.032,2.543,2.543,0,0,0,.711-.421.937.937,0,0,1,.231-.164.707.707,0,0,1,.576.094,1.108,1.108,0,0,0,.563.188.513.513,0,0,0,.453-.449.327.327,0,0,1,.024.1.507.507,0,0,1-.453.537,1.134,1.134,0,0,1-.563-.187.719.719,0,0,0-.576-.094.965.965,0,0,0-.231.163,2.546,2.546,0,0,1-.711.423.886.886,0,0,1-.71.032c-.247-.126-.372-.431-.633-.524a1.031,1.031,0,0,0-.8.228c-.248.148-.583.271-.808.088-.242-.2-.168-.586-.316-.861a.841.841,0,0,0-.237-.26c-.165-.128-.354-.224-.521-.35a.873.873,0,0,1-.357-.5.593.593,0,0,1-.011-.131A.913.913,0,0,0,198.012,230.575Z" transform="translate(-197.668 -229.618)"/>
    </g>
    <path id="Path_102" data-name="Path 102" d="M201.814,286.036l-.374.08a.641.641,0,0,0,.938.209C202.947,285.926,201.814,286.036,201.814,286.036Z" transform="translate(-184.951 -264.302)" fill="#4c4981"/>
    <path id="Path_103" data-name="Path 103" d="M201.814,286.036l-.374.08a.641.641,0,0,0,.938.209C202.947,285.926,201.814,286.036,201.814,286.036Z" transform="translate(-184.951 -264.302)" opacity="0.1"/>
    <path id="Path_104" data-name="Path 104" d="M279.32,330.818s.52.269,1,.58a2.7,2.7,0,0,1,.783.648c.258.437,1.51.91,1.51.91l1.242.945a1.776,1.776,0,0,1,.694.612c.035.048.056.079.056.079l.5-.064.262-.341s.067-.751-.451-.742a.712.712,0,0,1-.291-.075,6.156,6.156,0,0,1-1.335-1.021s-1.323-1.653-1.719-1.707a.655.655,0,0,1-.124-.032,4.058,4.058,0,0,1-.983-.66Z" transform="translate(-254.329 -303.434)" fill="#efb7b9"/>
    <path id="Path_105" data-name="Path 105" d="M232.1,365.947a11.844,11.844,0,0,0,.927,2.628,4.174,4.174,0,0,1,.366,1.177l.071.546a.633.633,0,0,0,.079.212,1.159,1.159,0,0,0,.07.109l1-.307s-.058-.229-.145-.492a2.222,2.222,0,0,0-.343-.716c-.243-.239-.279-1.083-.279-1.083s-.2-1.622-.265-1.826a2.816,2.816,0,0,1-.109-.6c-.01-.109-.016-.234-.017-.374a7.651,7.651,0,0,0-.157-1.2l-1.163.211-.031,1.3A.867.867,0,0,0,232.1,365.947Z" transform="translate(-212.24 -333.785)" fill="#efb7b9"/>
    <path id="Path_106" data-name="Path 106" d="M327.25,362.424c.035.048.056.079.056.079l.5-.064.262-.341s.067-.751-.451-.742a.711.711,0,0,1-.292-.075c-.043.225.21.412.21.412s.109.077.08.429C327.6,362.361,327.383,362.412,327.25,362.424Z" transform="translate(-297.026 -331.344)" opacity="0.1"/>
    <path id="Path_107" data-name="Path 107" d="M326.75,354.239c.033.121.347.3.565.41.109.055.191.093.207.1.05.025.314-.269.35-.505a4.4,4.4,0,0,1,.666-.974,2.643,2.643,0,0,0,.234-.922c.024-.322-.109-.348-.267-.275a1.058,1.058,0,0,0-.3.235.8.8,0,0,1-.388.2,1.9,1.9,0,0,0-.558.238c-.153.1-.3.218-.328.328-.058.233.206.429.206.429s.109.076.08.429S326.747,354.228,326.75,354.239Z" transform="translate(-296.581 -323.113)" fill="#444053"/>
    <path id="Path_108" data-name="Path 108" d="M331.93,354.65c.109.055.191.093.207.1.05.025.314-.269.35-.505a4.4,4.4,0,0,1,.666-.974,2.643,2.643,0,0,0,.234-.922c.024-.322-.109-.348-.267-.275a3.636,3.636,0,0,1-.218,1.011C332.742,353.393,332.1,354.382,331.93,354.65Z" transform="translate(-301.195 -323.113)" opacity="0.1"/>
    <path id="Path_109" data-name="Path 109" d="M245.218,417.706l-.01.019a1.169,1.169,0,0,0,.07.109l1-.307s-.058-.229-.145-.492c-.394-.109-.96.58-.96.58Z" transform="translate(-223.907 -381.001)" opacity="0.1"/>
    <path id="Path_110" data-name="Path 110" d="M244.765,418.834a4.069,4.069,0,0,0,1.2.247c.285-.034.3-.166.277-.437-.007-.087-.015-.188-.021-.3-.019-.48-.212-.577-.212-.577-.317-.83-1.228.284-1.228.284l.047.092a1,1,0,0,0-.093.453A1.324,1.324,0,0,0,244.765,418.834Z" transform="translate(-223.52 -381.387)" fill="#444053"/>
    <path id="Path_111" data-name="Path 111" d="M244.768,428.1a4.07,4.07,0,0,0,1.2.247c.285-.034.3-.166.277-.437a.881.881,0,0,1-.678.194,2.667,2.667,0,0,1-.829-.247A1.325,1.325,0,0,0,244.768,428.1Z" transform="translate(-223.524 -390.656)" opacity="0.1"/>
    <path id="Path_112" data-name="Path 112" d="M207.23,233.214l.328,1.419.067.293.6.076.62.079.675-.245a2.278,2.278,0,0,0,.033-1.123.712.712,0,0,0-.312-.412.694.694,0,0,1-.13-.1.569.569,0,0,1-.109-.156.646.646,0,0,1-.058-.226,1.613,1.613,0,0,1,.209-.8s-1.43-.488-1.319-.172c.073.2-.129.56-.279.785-.082.121-.148.205-.148.205Z" transform="translate(-190.109 -215.944)" fill="#efb7b9"/>
    <circle id="Ellipse_97" data-name="Ellipse 97" cx="1.242" cy="1.242" r="1.242" transform="translate(17.169 14.238)" opacity="0.1"/>
    <circle id="Ellipse_98" data-name="Ellipse 98" cx="1.242" cy="1.242" r="1.242" transform="translate(17.164 14.192)" fill="#efb7b9"/>
    <path id="Path_113" data-name="Path 113" d="M206.919,248.6a3.04,3.04,0,0,0,.328.705l1.735.426,1.239-1.3v-.009c-.038-.121-.511-1.651-.169-2.027.358-.392.218-1.5.218-1.5s-.619-.712-.745-.884-.929-.308-.929-.308c.04.055.077.109.109.156a1.528,1.528,0,0,1,.2.419.627.627,0,0,1-.016.455.5.5,0,0,0-.043.117c-.135.593-.753.51-1,.451-.063-.015-.1-.028-.1-.028l-.591.019-.371.012s.169,2.924.129,3.156A.373.373,0,0,0,206.919,248.6Z" transform="translate(-189.708 -226.609)" fill="#f86d70"/>
    <path id="Path_114" data-name="Path 114" d="M206.808,258.369l1.075-.141h-.02c-.063-.015-.1-.028-.1-.028l-.592.019-.37.012S206.8,258.279,206.808,258.369Z" transform="translate(-189.726 -239.517)" fill="#925978"/>
    <path id="Path_115" data-name="Path 115" d="M167.52,208.092l.466.114.735-.1.191-.2Z" transform="translate(-149.232 -185.208)" fill="#925978"/>
    <path id="Path_116" data-name="Path 116" d="M174.63,211l.211.051.086-.091Z" transform="translate(-155.566 -187.925)" fill="#925978"/>
    <path id="Path_117" data-name="Path 117" d="M206.936,245.19c.277.028.533.043.533.043l1.429-.053v-1.492a2.117,2.117,0,0,0-.576-.38c-.249-.086-.546-.35-.487-1.047a1,1,0,0,1,.012-.124,1.6,1.6,0,0,0,.013-.235,1.255,1.255,0,0,0-.4-.919l-.021-.019-.233-1.083a.23.23,0,0,0-.047.007c-.082.121-.148.205-.148.205l-.171.376.328,1.419-.371.012s.169,2.924.129,3.156A.373.373,0,0,0,206.936,245.19Z" transform="translate(-189.726 -223.197)" opacity="0.1"/>
    <path id="Path_118" data-name="Path 118" d="M195.254,245.269l1.429-.052v-1.493a2.131,2.131,0,0,0-.575-.38c-.263-.092-.576-.38-.475-1.171a1.3,1.3,0,0,0-.38-1.161l-.022-.019L195,239.91a.5.5,0,0,0-.368.211.924.924,0,0,1-.086.127.218.218,0,0,1-.287.085c-.151-.067-.8-.341-.944-.072a9.683,9.683,0,0,0-.173,1.868,1.222,1.222,0,0,1,.42.691c.1.457.265.468.265.468L194,244.6s.163.285.041.442" transform="translate(-177.557 -223.224)" fill="#444053"/>
    <path id="Path_119" data-name="Path 119" d="M206,240.292l.243.729.465.04-.022-.019-.233-1.083a.5.5,0,0,0-.368.211A.923.923,0,0,1,206,240.292Z" transform="translate(-189.013 -223.269)" fill="#444053"/>
    <path id="Path_120" data-name="Path 120" d="M173.87,229.942l.032.238,1.032.146s.084-.063.218-.15c-.109-.025-.622-.136-.891-.218-.1-.031-.165-.057-.167-.074s.007-.021.023-.034C173.964,229.908,173.87,229.942,173.87,229.942Z" transform="translate(-160.391 -214.262)" opacity="0.1"/>
    <path id="Path_121" data-name="Path 121" d="M160.5,228.8a6.644,6.644,0,0,0,1.894,1.031,5.012,5.012,0,0,1,1.419.655l.437-1.683-.267-.184a.932.932,0,0,1-.595.132c-.275-.066-.58-.109-.58-.109a4.481,4.481,0,0,0-.741-.2c-.2-.016-.117-.272.08-.407a.425.425,0,0,1,.082-.046.253.253,0,0,0,.328.074.748.748,0,0,0,.192-.179h0a2.492,2.492,0,0,0,.218-.327s-.61-.131-.914-.225c-.1-.031-.165-.057-.167-.074-.009-.07.546-.29.546-.29s-.474-.229-.666-.062c0,0,.124.093.024.185s-1.31,1.023-1.31,1.023S159.886,228.4,160.5,228.8Z" transform="translate(-148.235 -211.582)" fill="#444053"/>
    <path id="Path_122" data-name="Path 122" d="M172,232.349l.647.093a.428.428,0,0,1,.082-.046.253.253,0,0,0,.327.074.748.748,0,0,0,.192-.179h0a2.558,2.558,0,0,0,.177-.276s-.61-.131-.914-.225Z" transform="translate(-158.725 -215.991)" opacity="0.1"/>
    <path id="Path_123" data-name="Path 123" d="M172.34,231.86l.689.1a.253.253,0,0,0,.327.074,1.593,1.593,0,0,0,.41-.509s-.61-.131-.914-.225Z" transform="translate(-159.028 -215.554)" fill="#444053"/>
    <path id="Path_124" data-name="Path 124" d="M280.467,330l-1.147.868s.52.269,1,.58c.422-.286.821-.546,1.123-.787A4.184,4.184,0,0,1,280.467,330Z" transform="translate(-254.329 -303.479)" opacity="0.1"/>
    <path id="Path_125" data-name="Path 125" d="M232.1,365.947a3.885,3.885,0,0,0,.841-.2s.212-.046.526-.151c-.01-.109-.016-.234-.017-.374a7.65,7.65,0,0,0-.157-1.2l-1.163.211-.031,1.3A.867.867,0,0,0,232.1,365.947Z" transform="translate(-212.24 -333.785)" opacity="0.1"/>
    <path id="Path_126" data-name="Path 126" d="M207.675,289.682c.234.346.873,1.818.873,1.818a6.258,6.258,0,0,0,.487.75,6.669,6.669,0,0,1,.623,1.615c.193.575-.057.467-.029.764s1.12-.087,1.12-.087,2.233-.491,2.915-1.856,3.407-2.6,3.959-3.368-.156-.451-.129-.867a1.176,1.176,0,0,0-.287-.764,4.467,4.467,0,0,1-1.2-.492,7.179,7.179,0,0,0-.988-.707,5.5,5.5,0,0,1-.873-.452,5.646,5.646,0,0,0-1.3-.546c-.281-.067-.556-.469-.556-.469s-.174.023-.43-.226a4.3,4.3,0,0,0-1.333-.463,4.634,4.634,0,0,1-3.107,1.165l-.029.255C206.421,287.023,207.442,289.335,207.675,289.682Z" transform="translate(-189.888 -262.795)" fill="#444053"/>
    <path id="Path_127" data-name="Path 127" d="M210.79,285.8s1.588.523,3.138-1.412a4.647,4.647,0,0,1-3.108,1.158Z" transform="translate(-193.28 -262.848)" opacity="0.1"/>
    <path id="Path_128" data-name="Path 128" d="M235.83,305.587s2.133,3.08,2.265,3.192A32.627,32.627,0,0,0,235.83,305.587Z" transform="translate(-215.587 -281.731)" opacity="0.1"/>
    <path id="Path_129" data-name="Path 129" d="M226.8,303.43a16.718,16.718,0,0,1,1.448,2.6A16.825,16.825,0,0,1,226.8,303.43Z" transform="translate(-207.542 -279.81)" opacity="0.1"/>
    <path id="Path_130" data-name="Path 130" d="M217.8,309.2a3.542,3.542,0,0,1-.138,2.01Z" transform="translate(-199.4 -284.95)" opacity="0.1"/>
    <path id="Path_131" data-name="Path 131" d="M212.562,309.88a5.969,5.969,0,0,1-.142,1.338Z" transform="translate(-194.732 -285.555)" opacity="0.1"/>
    <path id="Path_132" data-name="Path 132" d="M196.46,213.7l1.962.769-.718.094Z" transform="translate(-175.012 -190.366)" opacity="0.1"/>
    <path id="Path_133" data-name="Path 133" d="M208.167,215.951c.1.066.18.169.3.184a.467.467,0,0,0,.241-.059.887.887,0,0,1,.619-.084c.288.095.447.427.734.525a.523.523,0,0,0,.275.015.533.533,0,0,0,.155-.063.5.5,0,0,0,.218-.31.642.642,0,0,0-.218-.6,1.34,1.34,0,0,0-.61-.277,6.043,6.043,0,0,0-1.764-.04.257.257,0,0,0-.138.036.819.819,0,0,0-.211.515C207.809,215.936,208.151,215.826,208.167,215.951Z" transform="translate(-190.582 -201.205)" opacity="0.1"/>
    <path id="Path_134" data-name="Path 134" d="M208.117,215.526c.1.064.179.169.3.185a.461.461,0,0,0,.24-.06.888.888,0,0,1,.619-.084c.288.1.447.428.734.525a.513.513,0,0,0,.275.015.5.5,0,0,0,.155-.062.511.511,0,0,0,.225-.31.645.645,0,0,0-.224-.606,1.344,1.344,0,0,0-.61-.276,6.041,6.041,0,0,0-1.764-.042.26.26,0,0,0-.138.037.823.823,0,0,0-.211.515C207.759,215.516,208.1,215.4,208.117,215.526Z" transform="translate(-190.538 -200.826)" fill="#3f3d56"/>
    <path id="Path_135" data-name="Path 135" d="M281,218.77l.188.759.243-.147,1.323-.8s1-.037,1.08-.843-1.114-.008-1.177.054-.207.169-.207.169l-1.231.688Z" transform="translate(-255.825 -203.156)" fill="#efb7b9"/>
    <path id="Path_136" data-name="Path 136" d="M281,229.11l.188.759.243-.147a1.807,1.807,0,0,0-.218-.731Z" transform="translate(-255.825 -213.496)" opacity="0.1"/>
    <path id="Path_137" data-name="Path 137" d="M221.18,245.411l.27,1.583,1.6-.331c-.038-.121-.511-1.651-.169-2.027.358-.392.218-1.5.218-1.5s-.619-.712-.745-.884-.929-.308-.929-.308a.644.644,0,0,1-.058-.226.907.907,0,0,0-.061.169.638.638,0,0,0,.426.632c.027.013.056.025.086.037.048.02.1.038.158.056l.026.008a.9.9,0,0,1,.626.461,1.178,1.178,0,0,1,.234.83C222.808,244.4,221.18,245.411,221.18,245.411Z" transform="translate(-202.536 -224.836)" opacity="0.1"/>
    <path id="Path_138" data-name="Path 138" d="M222,233.969l.27,1.582,1.8-.376a3.252,3.252,0,0,0-.18-.84,4.439,4.439,0,0,1-.1-1.189,1.263,1.263,0,0,0,.362-1.492s2.246-.365,2.284-.437a6.641,6.641,0,0,1,.787-.472,4.215,4.215,0,0,0,.924-.328.98.98,0,0,1,.133-.121.347.347,0,0,1,.044-.028l.06.519h.027a.739.739,0,0,0,.354-.14,2.853,2.853,0,0,0-.229-1.752.208.208,0,0,0-.1,0,1.172,1.172,0,0,0-.388.21l-.032.025-.011.01a7.643,7.643,0,0,0-1.219.582,8.385,8.385,0,0,1-1.784.416s-.709.168-.8.067-1.174-.267-1.264-.109-.342.13-.342.13c-.178-.205-.3-.126-.377-.008a.824.824,0,0,0-.1.228.667.667,0,0,0,.512.669c.057.022.118.044.185.063a.9.9,0,0,1,.626.461,1.176,1.176,0,0,1,.235.83C223.631,232.956,222,233.969,222,233.969Z" transform="translate(-203.266 -213.407)" fill="#444053"/>
    <path id="Path_139" data-name="Path 139" d="M277.6,229a.168.168,0,0,1,.058.007,2.855,2.855,0,0,1,.228,1.753.731.731,0,0,1-.315.137h-.027l-.06-.519a.356.356,0,0,0-.044.028v-.022a1.347,1.347,0,0,0-.257-1.152Z" transform="translate(-252.422 -213.503)" opacity="0.1"/>
    <path id="Path_140" data-name="Path 140" d="M277.675,230.275l.06.519a.726.726,0,0,0,.385-.147,2.853,2.853,0,0,0-.229-1.752c-.142-.044-.392.133-.491.209A1.349,1.349,0,0,1,277.675,230.275Z" transform="translate(-252.618 -213.405)" fill="#444053"/>
    <path id="Path_141" data-name="Path 141" d="M223.682,241.927l.259-.242-.675-.655a.824.824,0,0,0-.1.228A.669.669,0,0,0,223.682,241.927Z" transform="translate(-204.309 -224.222)" fill="#444053"/>
    <path id="Path_142" data-name="Path 142" d="M208.121,219.73c.1.064.179.169.3.185a.462.462,0,0,0,.24-.06.888.888,0,0,1,.619-.084c.288.1.446.428.734.525a.513.513,0,0,0,.275.015.494.494,0,0,0,.392-.511.518.518,0,0,1,0,.231.506.506,0,0,1-.225.31.491.491,0,0,1-.155.062.509.509,0,0,1-.274-.015c-.288-.1-.447-.429-.735-.525a.894.894,0,0,0-.619.084.462.462,0,0,1-.24.06c-.117-.015-.2-.12-.3-.185-.016-.127-.358-.011-.4-.163a.182.182,0,0,1,0-.07C207.8,219.707,208.1,219.611,208.121,219.73Z" transform="translate(-190.553 -205.122)" opacity="0.1"/>
    <path id="Path_143" data-name="Path 143" d="M218.746,253.6s-.143.4.039.537c0,0-.2-.532-.316-.52" transform="translate(-200.122 -235.42)" opacity="0.1"/>
    <path id="Path_144" data-name="Path 144" d="M298.389,217.76s-.923.8-.255.927S298.389,217.76,298.389,217.76Z" transform="translate(-270.873 -203.492)" fill="#efb7b9"/>
    <g id="Group_173" data-name="Group 173" transform="translate(47.271 17.697)" opacity="0.1">
      <path id="Path_145" data-name="Path 145" d="M525.806,420.25H497.094v25.43a9.631,9.631,0,0,1-9.893,9.825,10.933,10.933,0,0,1-3.8-.667,10.648,10.648,0,0,0,5.22,1.322,9.63,9.63,0,0,0,9.893-9.825V420.9h27.293Z" transform="translate(-483.4 -401.573)"/>
      <path id="Path_146" data-name="Path 146" d="M558.42,219.574h1.419V212.7h27.295v-.655H558.42Z" transform="translate(-544.728 -206.584)"/>
      <path id="Path_147" data-name="Path 147" d="M816.085,249.17v44.1a9.631,9.631,0,0,1-9.893,9.825,10.93,10.93,0,0,1-3.8-.667,10.648,10.648,0,0,0,5.221,1.322,9.63,9.63,0,0,0,9.893-9.825V249.17Z" transform="translate(-767.566 -249.17)"/>
    </g>
    <path id="Path_148" data-name="Path 148" d="M627.594,124.2c.7,1.455,1.856,3.11,3.158,2.478a4.29,4.29,0,0,0,1.571-4.771,2.643,2.643,0,1,0-4.729,2.293Z" transform="translate(-564.294 -116.563)" fill="#fe7700"/>
    <path id="Path_149" data-name="Path 149" d="M650.315,180.31s.254-.043.157-.252a.385.385,0,0,0-.031-.053.674.674,0,0,1-.1-.271.984.984,0,0,1,.012-.337l-.693-.046s.27.229.238.349a.069.069,0,0,1-.032.041.11.11,0,0,1-.046.02l-.052.015c-.182.064-.109.156-.109.156C649.686,180.231,650.315,180.31,650.315,180.31Z" transform="translate(-584.227 -169.275)" fill="#fe7700"/>
    <path id="Path_150" data-name="Path 150" d="M651.68,182.591l.489.068a.6.6,0,0,1-.014-.075c-.124-.005-.32-.022-.443-.034A.068.068,0,0,1,651.68,182.591Z" transform="translate(-586.038 -172.126)" fill="#444053"/>
    <path id="Path_151" data-name="Path 151" d="M650.315,183.784s.254-.043.157-.252a.786.786,0,0,1-.3.012.664.664,0,0,1-.4-.294c-.182.064-.109.156-.109.156C649.686,183.705,650.315,183.784,650.315,183.784Z" transform="translate(-584.227 -172.75)" fill="#fe7700"/>
    <path id="Path_152" data-name="Path 152" d="M650.315,183.784s.254-.043.157-.252a.786.786,0,0,1-.3.012.664.664,0,0,1-.4-.294c-.182.064-.109.156-.109.156C649.686,183.705,650.315,183.784,650.315,183.784Z" transform="translate(-584.227 -172.75)" opacity="0.1"/>
    <path id="Path_153" data-name="Path 153" d="M652.37,123.716s.775-.094.994.422a.624.624,0,0,0-.278.016.4.4,0,0,1-.181.035A1.039,1.039,0,0,0,652.37,123.716Z" transform="translate(-586.653 -119.709)" fill="#fff" opacity="0.1"/>
    <path id="Path_154" data-name="Path 154" d="M657.562,212.257a.277.277,0,0,0,.044-.044.592.592,0,0,1,.166-.131.58.58,0,0,1,.069-.035,1.011,1.011,0,0,1,.218-.065.877.877,0,0,1,.109-.012l-.1-.469v-.007l-.043-.2a1.471,1.471,0,0,1-.1.171c-.05.076-.109.15-.175.151a.077.077,0,0,1-.049-.019.147.147,0,0,1-.031-.039c-.011-.017-.02-.033-.03-.047-.109-.157-.178-.059-.178-.059-.124.045-.176.193-.194.343a.213.213,0,0,1-.007.064,1.711,1.711,0,0,0,.011.318S657.389,212.408,657.562,212.257Z" transform="translate(-591.012 -197.729)" fill="#fe7700"/>
    <path id="Path_155" data-name="Path 155" d="M661.5,214.559a.584.584,0,0,1,.069-.035c-.024-.1-.053-.254-.074-.374v-.025a.074.074,0,0,0-.007-.036.077.077,0,0,1-.049-.019l.011.073v.029Z" transform="translate(-594.733 -200.205)" fill="#444053"/>
    <path id="Path_156" data-name="Path 156" d="M657.562,213.3a.787.787,0,0,1-.092-.286.619.619,0,0,1,.021-.181c.005-.017.01-.035.016-.051a.533.533,0,0,1,.138-.231c-.109-.157-.178-.059-.178-.059-.124.045-.176.193-.194.343a.211.211,0,0,1-.007.064,1.711,1.711,0,0,0,.011.318S657.389,213.452,657.562,213.3Z" transform="translate(-591.012 -198.773)" fill="#fe7700"/>
    <path id="Path_157" data-name="Path 157" d="M657.562,213.3a.787.787,0,0,1-.092-.286.619.619,0,0,1,.021-.181c.005-.017.01-.035.016-.051a.533.533,0,0,1,.138-.231c-.109-.157-.178-.059-.178-.059-.124.045-.176.193-.194.343a.211.211,0,0,1-.007.064,1.711,1.711,0,0,0,.011.318S657.389,213.452,657.562,213.3Z" transform="translate(-591.012 -198.773)" opacity="0.1"/>
    <path id="Path_158" data-name="Path 158" d="M605.125,138.768a8,8,0,0,0,1.916.94,2.355,2.355,0,0,0,1.371.072,1.257,1.257,0,0,0,.465-.269,1.327,1.327,0,0,0,.235-.279,3.929,3.929,0,0,0,.087-3.088,3.4,3.4,0,0,0-1.237-1.8,2.643,2.643,0,1,0-2.837,4.424Z" transform="translate(-543.296 -128.731)" fill="#fe7700"/>
    <path id="Path_159" data-name="Path 159" d="M605.125,138.768a8,8,0,0,0,1.916.94,2.355,2.355,0,0,0,1.371.072,1.257,1.257,0,0,0,.465-.269,1.327,1.327,0,0,0,.235-.279,3.929,3.929,0,0,0,.087-3.088,3.4,3.4,0,0,0-1.237-1.8,2.643,2.643,0,1,0-2.837,4.424Z" transform="translate(-543.296 -128.731)" opacity="0.1"/>
    <path id="Path_160" data-name="Path 160" d="M645.38,185.738c.174.242.749-.017.749-.017s.2-.168,0-.3a.458.458,0,0,0-.054-.031.609.609,0,0,1-.174-.123c-.017-.017-.035-.036-.051-.056a1.022,1.022,0,0,1-.122-.193.788.788,0,0,1-.043-.1l-.616.328a1.4,1.4,0,0,1,.193.047c.088.028.176.07.192.127a.07.07,0,0,1,0,.052.131.131,0,0,1-.03.04c-.012.013-.025.026-.036.04C645.265,185.7,645.38,185.738,645.38,185.738Z" transform="translate(-580.15 -174.237)" fill="#fe7700"/>
    <path id="Path_161" data-name="Path 161" d="M648.58,187.924l.451-.2c-.018-.017-.035-.036-.051-.056-.109.059-.283.147-.4.2A.069.069,0,0,1,648.58,187.924Z" transform="translate(-583.277 -176.687)" fill="#444053"/>
    <path id="Path_162" data-name="Path 162" d="M647.507,189.853c.174.242.749-.017.749-.017s.2-.168,0-.3a.753.753,0,0,1-.25.166.665.665,0,0,1-.493-.04C647.393,189.815,647.507,189.853,647.507,189.853Z" transform="translate(-582.277 -178.353)" fill="#fe7700"/>
    <path id="Path_163" data-name="Path 163" d="M647.507,189.853c.174.242.749-.017.749-.017s.2-.168,0-.3a.753.753,0,0,1-.25.166.665.665,0,0,1-.493-.04C647.393,189.815,647.507,189.853,647.507,189.853Z" transform="translate(-582.277 -178.353)" opacity="0.1"/>
    <path id="Path_164" data-name="Path 164" d="M618.28,136.91s.612-.484,1.069-.158a.629.629,0,0,0-.228.159.4.4,0,0,1-.138.124A1.041,1.041,0,0,0,618.28,136.91Z" transform="translate(-556.284 -131.227)" fill="#fff" opacity="0.1"/>
    <g id="Group_174" data-name="Group 174" transform="translate(67.667 10.095)" opacity="0.1">
      <path id="Path_165" data-name="Path 165" d="M676.6,180.22l-.142-.68a1.306,1.306,0,0,1-.1.171,1.229,1.229,0,0,0,.131.522A.768.768,0,0,1,676.6,180.22Z" transform="translate(-675.691 -179.54)"/>
      <path id="Path_166" data-name="Path 166" d="M670.534,180.508a.325.325,0,0,0,.044-.044.609.609,0,0,1,.166-.132.572.572,0,0,1,.069-.035.937.937,0,0,1,.218-.064.762.762,0,0,1,.109-.013l-.142-.68a1.313,1.313,0,0,1-.1.171c-.05.076-.115.151-.175.152a.08.08,0,0,1-.048-.02.133.133,0,0,1-.034-.035c-.01-.017-.02-.033-.028-.047-.109-.157-.179-.058-.179-.058-.281.1-.19.725-.19.725S670.359,180.658,670.534,180.508Z" transform="translate(-670.232 -179.54)"/>
      <path id="Path_167" data-name="Path 167" d="M674.386,182.791a.6.6,0,0,1,.069-.035c-.028-.119-.063-.312-.086-.437a.08.08,0,0,1-.048-.02Z" transform="translate(-673.874 -181.999)"/>
      <path id="Path_168" data-name="Path 168" d="M670.561,181.556a.8.8,0,0,1-.092-.287.67.67,0,0,1,.176-.464c-.109-.157-.179-.058-.179-.058-.281.1-.19.725-.19.725S670.385,181.706,670.561,181.556Z" transform="translate(-670.259 -180.588)"/>
      <path id="Path_169" data-name="Path 169" d="M670.561,181.556a.8.8,0,0,1-.092-.287.67.67,0,0,1,.176-.464c-.109-.157-.179-.058-.179-.058-.281.1-.19.725-.19.725S670.385,181.706,670.561,181.556Z" transform="translate(-670.259 -180.588)" opacity="0.1"/>
    </g>
    <path id="Path_170" data-name="Path 170" d="M669.732,179.277a.275.275,0,0,0,.044-.044.612.612,0,0,1,.166-.131.581.581,0,0,1,.069-.035.936.936,0,0,1,.218-.064.764.764,0,0,1,.109-.013l-.142-.68a1.393,1.393,0,0,1-.1.171c-.05.076-.109.151-.175.151a.072.072,0,0,1-.048-.019.154.154,0,0,1-.032-.039c-.01-.017-.02-.033-.028-.047-.109-.157-.179-.059-.179-.059-.281.1-.19.726-.19.726S669.556,179.428,669.732,179.277Z" transform="translate(-601.852 -168.349)" fill="#fe7700"/>
    <path id="Path_171" data-name="Path 171" d="M673.566,181.57a.582.582,0,0,1,.069-.035c-.028-.119-.063-.312-.086-.437a.072.072,0,0,1-.048-.019Z" transform="translate(-605.476 -170.817)" fill="#444053"/>
    <path id="Path_172" data-name="Path 172" d="M669.786,180.322a.787.787,0,0,1-.092-.286.671.671,0,0,1,.181-.464c-.109-.157-.179-.059-.179-.059-.281.1-.19.726-.19.726S669.61,180.472,669.786,180.322Z" transform="translate(-601.906 -169.393)" fill="#fe7700"/>
    <path id="Path_173" data-name="Path 173" d="M669.786,180.322a.787.787,0,0,1-.092-.286.671.671,0,0,1,.181-.464c-.109-.157-.179-.059-.179-.059-.281.1-.19.726-.19.726S669.61,180.472,669.786,180.322Z" transform="translate(-601.906 -169.393)" opacity="0.1"/>
    <g id="Group_175" data-name="Group 175" transform="translate(67.034 8.767)" opacity="0.1">
      <path id="Path_174" data-name="Path 174" d="M666.287,167.548a1.247,1.247,0,0,0,.5.187.911.911,0,0,1,.05-.1l-.642-.266a1.3,1.3,0,0,1,.087.178Z" transform="translate(-666.007 -167.37)"/>
      <path id="Path_175" data-name="Path 175" d="M664.947,168.508s.254.043.23-.188a.353.353,0,0,0-.012-.061.6.6,0,0,1-.015-.211.587.587,0,0,1,.011-.076,1.051,1.051,0,0,1,.12-.316l-.642-.266a1.322,1.322,0,0,1,.089.176c.035.085.059.18.026.229a.075.075,0,0,1-.044.029.115.115,0,0,1-.049,0h-.056c-.192,0-.148.109-.148.109C664.378,168.232,664.947,168.508,664.947,168.508Z" transform="translate(-664.448 -167.388)"/>
      <path id="Path_176" data-name="Path 176" d="M666.8,171.123l.437.218a.6.6,0,0,1,.011-.076c-.116-.045-.295-.124-.408-.175A.076.076,0,0,1,666.8,171.123Z" transform="translate(-666.542 -170.684)"/>
      <path id="Path_177" data-name="Path 177" d="M664.932,172.08s.254.043.23-.188a.786.786,0,0,1-.288-.085.672.672,0,0,1-.285-.407c-.192,0-.148.109-.148.109C664.363,171.8,664.932,172.08,664.932,172.08Z" transform="translate(-664.434 -170.96)"/>
      <path id="Path_178" data-name="Path 178" d="M664.932,172.08s.254.043.23-.188a.786.786,0,0,1-.288-.085.672.672,0,0,1-.285-.407c-.192,0-.148.109-.148.109C664.363,171.8,664.932,172.08,664.932,172.08Z" transform="translate(-664.434 -170.96)" opacity="0.1"/>
    </g>
    <path id="Path_179" data-name="Path 179" d="M664.5,167.869s.254.043.23-.187a.336.336,0,0,0-.012-.061.608.608,0,0,1-.015-.212.549.549,0,0,1,.011-.075,1.044,1.044,0,0,1,.12-.317l-.642-.267a1.312,1.312,0,0,1,.087.178c.035.086.059.18.026.23a.079.079,0,0,1-.044.028.133.133,0,0,1-.049,0h-.056c-.192,0-.148.109-.148.109C663.938,167.594,664.5,167.869,664.5,167.869Z" transform="translate(-597.019 -158.051)" fill="#fe7700"/>
    <path id="Path_180" data-name="Path 180" d="M666.39,170.512l.437.218a.581.581,0,0,1,.011-.075c-.116-.045-.295-.124-.408-.175A.079.079,0,0,1,666.39,170.512Z" transform="translate(-599.142 -161.374)" fill="#444053"/>
    <path id="Path_181" data-name="Path 181" d="M664.505,171.459s.254.043.23-.187a.811.811,0,0,1-.288-.086.67.67,0,0,1-.285-.406c-.192,0-.148.109-.148.109C663.938,171.184,664.505,171.459,664.505,171.459Z" transform="translate(-597.019 -161.641)" fill="#fe7700"/>
    <path id="Path_182" data-name="Path 182" d="M664.505,171.459s.254.043.23-.187a.811.811,0,0,1-.288-.086.67.67,0,0,1-.285-.406c-.192,0-.148.109-.148.109C663.938,171.184,664.505,171.459,664.505,171.459Z" transform="translate(-597.019 -161.641)" opacity="0.1"/>
    <path id="Path_183" data-name="Path 183" d="M644.4,196.122a1.349,1.349,0,0,1,.1-.17c.052-.076.117-.15.176-.15a.068.068,0,0,1,.049.02.14.14,0,0,1,.031.038c.01.019.02.034.028.048.109.159.179.06.179.06.282-.1.2-.724.2-.724s-.109-.235-.284-.086a.4.4,0,0,0-.045.043.7.7,0,0,1-.236.165.983.983,0,0,1-.218.062.694.694,0,0,1-.109.012Z" transform="translate(-579.437 -183.314)" fill="#fe7700"/>
    <path id="Path_184" data-name="Path 184" d="M647.341,197.621a.069.069,0,0,1,.049.02l-.061-.49a.568.568,0,0,1-.069.034C647.288,197.3,647.321,197.5,647.341,197.621Z" transform="translate(-582.101 -185.132)" fill="#444053"/>
    <path id="Path_185" data-name="Path 185" d="M649,195.908c.109.159.179.06.179.06.282-.1.2-.724.2-.724s-.109-.235-.284-.086a.763.763,0,0,1,.087.287A.662.662,0,0,1,649,195.908Z" transform="translate(-583.651 -183.314)" fill="#fe7700"/>
    <path id="Path_186" data-name="Path 186" d="M649,195.908c.109.159.179.06.179.06.282-.1.2-.724.2-.724s-.109-.235-.284-.086a.763.763,0,0,1,.087.287A.662.662,0,0,1,649,195.908Z" transform="translate(-583.651 -183.314)" opacity="0.1"/>
    <path id="Path_187" data-name="Path 187" d="M635.449,191.92a2.133,2.133,0,0,0,.328-1.092c.052-.076.117-.15.176-.15a.069.069,0,0,1,.049.02.143.143,0,0,1,.031.038c.01.019.02.034.028.048.109.159.179.06.179.06.282-.1.2-.724.2-.724s-.109-.235-.284-.086a.4.4,0,0,0-.045.043.7.7,0,0,1-.236.165.984.984,0,0,1-.218.062,1.471,1.471,0,0,0-.2-.3,2.49,2.49,0,0,0-.972-.641A5.123,5.123,0,0,0,635.449,191.92Z" transform="translate(-570.716 -178.193)" opacity="0.1"/>
    <path id="Path_188" data-name="Path 188" d="M657.39,161.985a1.893,1.893,0,0,0,.235-.052,2.06,2.06,0,0,0,.209-.072l.045-.019c.058-.025.117-.052.176-.083s.089-.046.133-.071a4.953,4.953,0,0,0,2-2.421,3.169,3.169,0,0,0,.2-.832,2.235,2.235,0,0,0-.006-.453,3.2,3.2,0,0,0-.406-1.224c-.024-.04-.047-.079-.072-.116a2.608,2.608,0,0,0-2.44-1.249,2.656,2.656,0,0,0,.938,1.406c.035.086.059.18.026.23a.078.078,0,0,1-.044.028.134.134,0,0,1-.049,0h-.056c-.192,0-.148.109-.148.109-.075.289.491.566.491.566s.254.043.23-.187a.353.353,0,0,0-.012-.061.608.608,0,0,1-.015-.212.571.571,0,0,1,.011-.075.894.894,0,0,1,.07-.218,1.4,1.4,0,0,0,.365,0,1.938,1.938,0,0,0,.5-.135c-.023.036-.044.072-.063.109a2.142,2.142,0,0,0-.328,1.092c-.05.076-.109.151-.175.151a.072.072,0,0,1-.048-.019.152.152,0,0,1-.032-.039c-.01-.017-.02-.033-.028-.047-.109-.157-.179-.059-.179-.059-.281.1-.19.726-.19.726s.109.234.285.083a.277.277,0,0,0,.044-.044.611.611,0,0,1,.166-.131.582.582,0,0,1,.069-.035.935.935,0,0,1,.218-.064,1.391,1.391,0,0,0,.2.3l.044.047-.015.014a8.609,8.609,0,0,0-.968,1.031,3.827,3.827,0,0,0-.249.347q-.081.123-.151.246a2.148,2.148,0,0,0-.321,1.092c-.05.076-.109.15-.175.151a.078.078,0,0,1-.049-.019.15.15,0,0,1-.031-.039c-.011-.017-.02-.033-.029-.047-.109-.157-.178-.059-.178-.059A.413.413,0,0,0,657.39,161.985Z" transform="translate(-591.125 -147.922)" opacity="0.1"/>
    <g id="Group_176" data-name="Group 176" transform="translate(63.672 7.416)" opacity="0.1">
      <path id="Path_189" data-name="Path 189" d="M665.894,160.791a.393.393,0,0,0,.184.025.637.637,0,0,1,.268.074c-.042-.559-.806-.721-.806-.721A1.037,1.037,0,0,1,665.894,160.791Z" transform="translate(-662.057 -159.606)"/>
      <path id="Path_190" data-name="Path 190" d="M633.658,158.221c.014.109.029.228.048.344a2.356,2.356,0,0,0,1.371.072c.088.028.176.07.192.127a.068.068,0,0,1,0,.052.132.132,0,0,1-.029.04.537.537,0,0,0-.036.04c-.122.15-.008.188-.008.188.174.242.749-.017.749-.017s.2-.168,0-.3a.468.468,0,0,0-.053-.031.611.611,0,0,1-.174-.123c-.017-.017-.035-.036-.051-.056a1.026,1.026,0,0,1-.122-.193,1.327,1.327,0,0,0,.235-.279,3.93,3.93,0,0,0,.087-3.088A2.8,2.8,0,0,0,633.658,158.221Z" transform="translate(-633.634 -155)"/>
      <path id="Path_191" data-name="Path 191" d="M645.27,212.171a1.245,1.245,0,0,0,.5.189.794.794,0,0,1,.051-.1L645.18,212A1.519,1.519,0,0,1,645.27,212.171Z" transform="translate(-643.919 -205.777)"/>
      <path id="Path_192" data-name="Path 192" d="M643.928,213.112s.255.044.23-.187a.32.32,0,0,0-.011-.061.611.611,0,0,1-.015-.212.539.539,0,0,1,.01-.075.986.986,0,0,1,.07-.218.8.8,0,0,1,.051-.1L643.62,212a1.532,1.532,0,0,1,.087.177c.034.086.058.181.025.23a.072.072,0,0,1-.043.029.143.143,0,0,1-.05,0h-.055c-.193,0-.15.109-.15.109C643.361,212.837,643.928,213.112,643.928,213.112Z" transform="translate(-642.359 -205.777)"/>
      <path id="Path_193" data-name="Path 193" d="M645.82,215.742l.437.218a.283.283,0,0,1,.01-.075c-.115-.045-.295-.124-.408-.175A.074.074,0,0,1,645.82,215.742Z" transform="translate(-644.49 -209.082)"/>
      <path id="Path_194" data-name="Path 194" d="M643.926,216.649s.254.043.23-.188a.776.776,0,0,1-.288-.085.666.666,0,0,1-.285-.406c-.193,0-.149.109-.149.109C643.359,216.374,643.926,216.649,643.926,216.649Z" transform="translate(-642.358 -209.314)"/>
      <path id="Path_195" data-name="Path 195" d="M643.926,216.649s.254.043.23-.188a.776.776,0,0,1-.288-.085.666.666,0,0,1-.285-.406c-.193,0-.149.109-.149.109C643.359,216.374,643.926,216.649,643.926,216.649Z" transform="translate(-642.358 -209.314)" opacity="0.1"/>
      <path id="Path_196" data-name="Path 196" d="M665.894,160.791a.393.393,0,0,0,.184.025.637.637,0,0,1,.268.074c-.042-.559-.806-.721-.806-.721A1.037,1.037,0,0,1,665.894,160.791Z" transform="translate(-662.057 -159.606)" opacity="0.1"/>
    </g>
    <path id="Path_197" data-name="Path 197" d="M635.1,158.848c.2,1.6.751,3.541,2.191,3.364a4.283,4.283,0,0,0,3.025-4.008,2.643,2.643,0,1,0-5.216.644Z" transform="translate(-571.242 -148.122)" fill="#fe7700"/>
    <path id="Path_198" data-name="Path 198" d="M645.343,213.878s.254.044.23-.187a.482.482,0,0,0-.011-.061.587.587,0,0,1-.016-.212.43.43,0,0,1,.011-.075.983.983,0,0,1,.121-.315l-.642-.267s.181.3.109.408a.075.075,0,0,1-.044.029.167.167,0,0,1-.049,0H645c-.193,0-.15.109-.15.109C644.776,213.6,645.343,213.878,645.343,213.878Z" transform="translate(-579.947 -199.038)" fill="#fe7700"/>
    <path id="Path_199" data-name="Path 199" d="M647.25,216.522l.437.218a.424.424,0,0,1,.011-.075c-.116-.045-.295-.124-.408-.175A.075.075,0,0,1,647.25,216.522Z" transform="translate(-582.092 -202.361)" fill="#444053"/>
    <path id="Path_200" data-name="Path 200" d="M645.365,217.459s.254.044.23-.187a.764.764,0,0,1-.288-.086.661.661,0,0,1-.284-.406c-.193,0-.15.109-.15.109C644.8,217.185,645.365,217.459,645.365,217.459Z" transform="translate(-579.969 -202.619)" fill="#fe7700"/>
    <path id="Path_201" data-name="Path 201" d="M645.365,217.459s.254.044.23-.187a.764.764,0,0,1-.288-.086.661.661,0,0,1-.284-.406c-.193,0-.15.109-.15.109C644.8,217.185,645.365,217.459,645.365,217.459Z" transform="translate(-579.969 -202.619)" opacity="0.1"/>
    <path id="Path_202" data-name="Path 202" d="M667,161s.764.162.806.721a.627.627,0,0,0-.27-.073.4.4,0,0,1-.182-.026A1.045,1.045,0,0,0,667,161Z" transform="translate(-599.686 -152.929)" fill="#fff" opacity="0.1"/>
    <path id="Path_203" data-name="Path 203" d="M643.622,218.1a.465.465,0,0,1,.414.572c-.1.322-.491.424-.749.639a1.312,1.312,0,0,0-.413.894,2.192,2.192,0,0,0,.63,1.734c.231.228.511.4.739.634a3.776,3.776,0,0,1,.639.974,2.281,2.281,0,0,1,.283.819,1.93,1.93,0,0,1-.469,1.269,8.678,8.678,0,0,0-.821,1.111,2.335,2.335,0,0,0-.134,1.831.237.237,0,0,0,.077.122.086.086,0,0,0,.127-.027" transform="translate(-578.186 -203.795)" fill="none" stroke="#444053" stroke-miterlimit="10" stroke-width="1"/>
    <path id="Path_204" data-name="Path 204" d="M644,217.36a.218.218,0,0,1,.01.277.337.337,0,0,1-.266.123c-.123,0-.261-.038-.362.034a.313.313,0,0,0-.109.237,1.212,1.212,0,0,1-.027.267.533.533,0,0,1-.118.192.592.592,0,0,1-.218.159c-.182.071-.393.007-.58.066a.814.814,0,0,0-.452.59,1.7,1.7,0,0,0-.053.915,3.169,3.169,0,0,0,.248.561,1.268,1.268,0,0,1,.162.585.537.537,0,0,1-.308.491" transform="translate(-577.221 -203.136)" fill="none" stroke="#444053" stroke-miterlimit="10" stroke-width="1"/>
    <path id="Path_205" data-name="Path 205" d="M543.461,276.494c-.294.391-.405,1.015-.885,1.11a1.1,1.1,0,0,1-.715-.2,5.1,5.1,0,0,0-1.638-.674,1.769,1.769,0,0,0-1.627.49c-.263.308-.371.721-.6,1.052a2.16,2.16,0,0,1-1.223.8,5,5,0,0,1-1.483.127.806.806,0,0,1-.523-.142,1.273,1.273,0,0,1-.218-.333,1.457,1.457,0,0,0-1.167-.645,3.067,3.067,0,0,0-1.345.285,1.433,1.433,0,0,1-.67.169,1.229,1.229,0,0,1-.771-.551,10.917,10.917,0,0,1-1.324-2.155" transform="translate(-476.992 -255.223)" fill="none" stroke="#444053" stroke-miterlimit="10" stroke-width="1"/>
    <path id="Path_206" data-name="Path 206" d="M497.867,308.488c.117-.425.193-.8.193-.8a1.669,1.669,0,0,1,.218-.809l.005-.117h0l.033-.861a2.9,2.9,0,0,0-.2-.46,3.362,3.362,0,0,1,.049-1.263,5.576,5.576,0,0,0,.523-2.269c-.106-.892,1.332-3.9,1.332-3.9a3.863,3.863,0,0,0-.091-.873.739.739,0,0,1-.01-.183v-.015a6.819,6.819,0,0,1,.546-1.664l.019-2.092a6.148,6.148,0,0,1,.3-2.881c.19-.571.315-1.028.4-1.382.01-.04.019-.079.026-.116-.983-.19-1.738-.345-1.738-.345a12.635,12.635,0,0,1,1.072-2.789,5.529,5.529,0,0,0,.764-1.718,5.3,5.3,0,0,0-.04-2.2,3.281,3.281,0,0,1-.317-1.372s-.725-.57-.809-.814a3.986,3.986,0,0,1-.207-1.077c.011-.286.109-.538.088-.689s.246-.714.131-.989a.765.765,0,0,1-.039-.263v-.008a3.658,3.658,0,0,1,.093-.7,1.989,1.989,0,0,1,.753-.366l.019-.064.048-.167c.026-.016.051-.029.075-.041v-.061l.016-.245-.1-.554c-.192-.963,1.092-1.057,1.092-1.057a.67.67,0,0,1,.373-.3c.26-.081-.013,1.438-.136,1.528a5.924,5.924,0,0,0-.533.764h0l-.024.038a.537.537,0,0,1,.057.063l-.061.327-.01.05a1.377,1.377,0,0,1,.19.355.739.739,0,0,0-.207.535,1.685,1.685,0,0,1-.1.655c.014-.014.186-.186.347-.136s.615.2.615.2.34.074.306.147.218.415.218.415l.956-.821c.01-.026.021-.051.03-.079a2.151,2.151,0,0,0,.095-.378,2.084,2.084,0,0,1-.29-.109.631.631,0,0,1-.248-.172.981.981,0,0,1-.132-.4,5.661,5.661,0,0,0-.312-.773,2.477,2.477,0,0,1-.131-1.372.9.9,0,0,1,.157-.394c.157-.2.437-.274.636-.43s.342-.4.576-.519a1.1,1.1,0,0,1,.7-.033,3.745,3.745,0,0,1,1.284.523.663.663,0,0,0,.429.159.578.578,0,0,0,.328-.218V272.9l.01-.012a1.621,1.621,0,0,1,.117.693.461.461,0,0,1-.009.109v.038a.149.149,0,0,0,0,.032h0a.186.186,0,0,0,0,.049.352.352,0,0,0,.081.128.655.655,0,0,1,.071.109.129.129,0,0,0-.011-.038.546.546,0,0,1,.084.294.292.292,0,0,1-.076.2.943.943,0,0,1-.155.115,1.747,1.747,0,0,1-.908,1.789c-.011.025-.023.051-.034.077a2.2,2.2,0,0,0-.205,1,.212.212,0,0,0,.009.073.482.482,0,0,1,.031.039h0s1.515.073,1.885-.237.873.825.873.825.54.126.655.025.747.013.747.013a1.368,1.368,0,0,1,.961-.309,2.805,2.805,0,0,1,.711-.36h.018a.784.784,0,0,1,.343-.031,6.989,6.989,0,0,0,1-.909c.23-.322,1.31-1.511,1.319-1.515l.005-.06.019-.178a.668.668,0,0,0,.093.012c.007-.017.014-.038.024-.061a3.256,3.256,0,0,1,.239-.5s.009-.226-.056-.285a3.823,3.823,0,0,1,.062-.883s.731-1.545,1.289-.349c0,0,1.108.8.119,1.651,0,0-.388.169-.448.313-.039.094-.179.355-.272.527-.016.028-.031.055-.043.078l.011.01-.02.146-.009.057c.177.109.295.218.262.292a1.681,1.681,0,0,0-.124.4,10.827,10.827,0,0,0-1.583,2.3s-3.623,1.965-4.794,2.074l.162,1.06s.037.634.013.859.092,1.254.092,1.254a8.332,8.332,0,0,0,.307,1.728,2.89,2.89,0,0,1,.1,1.118,7.537,7.537,0,0,0,.185,1.287,3.294,3.294,0,0,1,0,1.281s.538,1.377-.84.4c0,0-.693-.07-1.491-.128v.081c0,.1,0,.218-.009.327-.019.776-.056,1.845-.121,2.652-.118,1.426-.662,4.236-.662,4.236l-.055,1.419a1.848,1.848,0,0,1,.025.407,2.637,2.637,0,0,1-.437,1.407l-.167.938a3.713,3.713,0,0,0-.3.983.468.468,0,0,0,.008.091.664.664,0,0,1,.007.146,8.005,8.005,0,0,1-.3,1.45s-.056,1.037-.218,1.092c-.134.047.155.6.241.764a.27.27,0,0,0,.007-.029l.019.033a.734.734,0,0,1,.038.264.378.378,0,0,1-.187.358c-.3.168-.466.313-.218.382.1.027.2.037.272.069,0-.012.01-.024.014-.035a.166.166,0,0,1,.1.187.764.764,0,0,1-.109.348,3.73,3.73,0,0,1-.45.75l-.119-.017a.581.581,0,0,0,.064.131.505.505,0,0,0,.169.163.543.543,0,0,0,.21.081.6.6,0,0,1,.437.232.458.458,0,0,1-.082.711l-1.126.341s-1.921.175-1.8-.25.194-.8.194-.8a1.7,1.7,0,0,1,.19-.747.784.784,0,0,1,.072-.109l-.068-.011a3.5,3.5,0,0,0-.283-1.14c-.042-.044-.05-.076-.038-.1-.017-.052.032-.081.1-.1a.163.163,0,0,0,.012.037.988.988,0,0,1,.187-.013s.082-.493-.109-.682a.191.191,0,0,1-.034-.148.811.811,0,0,1,.03-.2l.007.012a7.317,7.317,0,0,1,.49-1.149,1.416,1.416,0,0,0-.084-.635,15.9,15.9,0,0,1,.109-2.451,7.759,7.759,0,0,1,.155-1.606,1.836,1.836,0,0,0-.129-1.119v-.033a.029.029,0,0,0,0-.008l.025-.172v.011c.043-.289.122-.813.175-1.056.075-.343.062-2,.062-2l-.253-.718-.546,1.2-.587,1.6a1.388,1.388,0,0,0-.295.68v.051a.893.893,0,0,1,0,.109.965.965,0,0,1-.183.573,2.508,2.508,0,0,1-.394.949.862.862,0,0,0-.239.562,10.055,10.055,0,0,1-.437,1.294,1.983,1.983,0,0,0-.139.752h0v.04s-.052.4-.063.731v.11a1.207,1.207,0,0,0,.022.272v-.04a2.826,2.826,0,0,1,.053.7,1.78,1.78,0,0,1-.341,1.14c-.437.465-.7.4-.7.4s.179.609.422.739a.108.108,0,0,1,.026.017.06.06,0,0,1,.008-.035.294.294,0,0,1,.064.227,1.6,1.6,0,0,1-.343.88.491.491,0,0,1-.218.115l.038.026c.031.017.058.032.084.044a.4.4,0,0,0,.126.037.593.593,0,0,1,.437.231.457.457,0,0,1-.081.711l-1.127.341S497.749,308.912,497.867,308.488Z" transform="translate(-449.013 -252.117)" fill="url(#linear-gradient-2)"/>
    <path id="Path_207" data-name="Path 207" d="M550.244,595.039l1.092-.342a.47.47,0,0,0,.08-.712.57.57,0,0,0-.417-.23.518.518,0,0,1-.2-.081.486.486,0,0,1-.164-.163.793.793,0,0,1-.109-.42s-1.168-.391-1.5-.058a.893.893,0,0,0-.151.2,1.746,1.746,0,0,0-.18.755s-.074.372-.188.8S550.244,595.039,550.244,595.039Z" transform="translate(-494.117 -537.678)" fill="#2d293d"/>
    <path id="Path_208" data-name="Path 208" d="M502.178,588.374l1.092-.342a.469.469,0,0,0,.08-.711.565.565,0,0,0-.418-.23.426.426,0,0,1-.121-.038.55.55,0,0,1-.081-.044.682.682,0,0,1-.277-.578s-1.167-.391-1.5-.058a.86.86,0,0,0-.119.15,1.706,1.706,0,0,0-.212.81s-.075.373-.189.8S502.178,588.374,502.178,588.374Z" transform="translate(-451.295 -531.745)" fill="#2d293d"/>
    <path id="Path_209" data-name="Path 209" d="M552.061,593.032a.89.89,0,0,0-.151.2h0l1.762.273a.793.793,0,0,1-.109-.42S552.4,592.7,552.061,593.032Z" transform="translate(-497.16 -537.676)" opacity="0.1"/>
    <path id="Path_210" data-name="Path 210" d="M504.073,586.518l-.013.328c.258.465,1.593.417,1.988.2a.549.549,0,0,1-.081-.044.676.676,0,0,1-.276-.574s-1.167-.391-1.5-.058A.865.865,0,0,0,504.073,586.518Z" transform="translate(-454.534 -531.745)" opacity="0.1"/>
    <path id="Path_211" data-name="Path 211" d="M502.338,432.946a2.9,2.9,0,0,1,.193.46l-.046,1.188c.282.508,1.856.4,2.074.14s.474-.961.238-1.092-.408-.739-.408-.739.253.07.678-.4a2.49,2.49,0,0,0,.279-1.8,5.318,5.318,0,0,1,.044-1.112,2.227,2.227,0,0,1,.135-.793,9.894,9.894,0,0,0,.427-1.295.886.886,0,0,1,.233-.563,2.567,2.567,0,0,0,.382-.949.983.983,0,0,0,.176-.641,1.31,1.31,0,0,1,.286-.772l.573-1.6.528-1.2.239.726s.011,1.657-.062,2-.2,1.258-.2,1.258a1.856,1.856,0,0,1,.122,1.119,7.666,7.666,0,0,0-.152,1.6,17.079,17.079,0,0,0-.109,2.451,1.541,1.541,0,0,1,.081.635s-.668,1.3-.479,1.488.109.682.109.682-.42-.016-.247.171a3.636,3.636,0,0,1,.281,1.134l1.81.281a3.8,3.8,0,0,0,.437-.751c.262-.546-.025-.5-.265-.568s-.081-.218.212-.383.143-.582.143-.582-.408-.754-.255-.809.208-1.092.208-1.092a6.736,6.736,0,0,0,.285-1.556,3.023,3.023,0,0,1,.284-1.119l.142-.943a2.6,2.6,0,0,0,.4-1.776l.057-1.458s.529-2.811.645-4.238c.073-.913.109-2.163.128-2.942.01-.437.013-.727.013-.727l-6.471-.927a5.3,5.3,0,0,1-.155.961c-.08.355-.2.812-.386,1.383a6.337,6.337,0,0,0-.292,2.881l-.021,2.092a5.328,5.328,0,0,0-.524,1.862,3.974,3.974,0,0,1,.087.873s-1.4,3-1.295,3.9a5.735,5.735,0,0,1-.509,2.27A3.487,3.487,0,0,0,502.338,432.946Z" transform="translate(-452.954 -379.609)" fill="#3f3d56"/>
    <path id="Path_212" data-name="Path 212" d="M523.505,502.41l-1.965-.34S522.614,503.256,523.505,502.41Z" transform="translate(-470.105 -456.764)" opacity="0.05"/>
    <path id="Path_213" data-name="Path 213" d="M523.709,484.47s-.095.7.328.976C524.032,485.446,523.27,485.292,523.709,484.47Z" transform="translate(-471.916 -441.085)" opacity="0.1"/>
    <path id="Path_214" data-name="Path 214" d="M526.71,464.12s1.6,1.425,2.206,1.335S526.71,464.12,526.71,464.12Z" transform="translate(-474.711 -422.957)" opacity="0.1"/>
    <path id="Path_215" data-name="Path 215" d="M561.77,511.89s1.245.334,1.262.84S561.77,511.89,561.77,511.89Z" transform="translate(-505.944 -465.512)" opacity="0.1"/>
    <path id="Path_216" data-name="Path 216" d="M554.365,569.24s1.761.4,1.249.6a8.561,8.561,0,0,1-1.343.352S553.7,570.208,554.365,569.24Z" transform="translate(-499.059 -516.601)" opacity="0.05"/>
    <g id="Group_177" data-name="Group 177" transform="translate(49.33 36.731)" opacity="0.05">
      <path id="Path_217" data-name="Path 217" d="M568.958,576.141a.349.349,0,0,0,.171-.251l.018.033s.149.412-.143.581l-.095.058c-.052-.012-.109-.022-.163-.037C568.506,576.455,568.671,576.31,568.958,576.141Z" transform="translate(-561.386 -559.256)"/>
      <path id="Path_218" data-name="Path 218" d="M550.457,573.75c-.047-.047-.04-.163-.005-.31a.835.835,0,0,1,.084.437A.354.354,0,0,0,550.457,573.75Z" transform="translate(-545.166 -557.073)"/>
      <path id="Path_219" data-name="Path 219" d="M555.674,507.85a2.018,2.018,0,0,1,.1.557,2.256,2.256,0,0,0-.122-.385S555.659,507.955,555.674,507.85Z" transform="translate(-549.822 -498.644)"/>
      <path id="Path_220" data-name="Path 220" d="M518.84,497.835a.7.7,0,0,1-.01-.165c.017.109.029.218.037.31C518.86,497.932,518.848,497.884,518.84,497.835Z" transform="translate(-517.021 -489.575)"/>
      <path id="Path_221" data-name="Path 221" d="M554.089,554.086a.971.971,0,0,1-.033-.336,1.132,1.132,0,0,1,.071.426A.423.423,0,0,0,554.089,554.086Z" transform="translate(-548.4 -539.533)"/>
      <path id="Path_222" data-name="Path 222" d="M549.19,582.68a5.844,5.844,0,0,1,.173.931l1.81.281a3.8,3.8,0,0,0,.437-.751c.023-.048.042-.092.057-.131.109.055.145.169-.011.493a3.8,3.8,0,0,1-.437.752l-1.81-.281a3.618,3.618,0,0,0-.273-1.141C549.046,582.742,549.1,582.7,549.19,582.68Z" transform="translate(-543.979 -565.304)"/>
      <path id="Path_223" data-name="Path 223" d="M570.6,438.287s-.055,1.037-.208,1.092h0c-.069-.175-.109-.339-.045-.363.153-.055.207-1.092.207-1.092a6.719,6.719,0,0,0,.286-1.556,3.017,3.017,0,0,1,.284-1.118l.142-.943a2.607,2.607,0,0,0,.4-1.777l.056-1.458s.531-2.811.645-4.237c.074-.914.109-2.163.129-2.942,0-.141.005-.266.006-.372l.052.008s0,.29-.013.727c-.017.78-.055,2.029-.128,2.942-.116,1.427-.645,4.238-.645,4.238l-.057,1.459a2.6,2.6,0,0,1-.4,1.776l-.142.943a3.022,3.022,0,0,0-.284,1.119A6.719,6.719,0,0,1,570.6,438.287Z" transform="translate(-562.885 -423.52)"/>
      <path id="Path_224" data-name="Path 224" d="M506.128,582.564a1.766,1.766,0,0,0,.316-.7c.179.175-.06.818-.27,1.067s-1.791.368-2.074-.14l.011-.286A2.172,2.172,0,0,0,506.128,582.564Z" transform="translate(-503.9 -564.574)"/>
      <path id="Path_225" data-name="Path 225" d="M502.275,571.841a3.042,3.042,0,0,1,.193.46l-.009.211c-.031-.078-.075-.182-.139-.307a.9.9,0,0,1-.051-.374Z" transform="translate(-502.266 -555.639)"/>
      <path id="Path_226" data-name="Path 226" d="M521.254,556.992a2.844,2.844,0,0,1-.134-.364s.253.07.677-.4a2.142,2.142,0,0,0,.328-1.433,2.491,2.491,0,0,1-.279,1.8A1.083,1.083,0,0,1,521.254,556.992Z" transform="translate(-519.062 -540.468)"/>
      <path id="Path_227" data-name="Path 227" d="M529.8,477.851a7.887,7.887,0,0,0-.065.89,1.387,1.387,0,0,0-.026-.141,5.323,5.323,0,0,1,.044-1.112,2.239,2.239,0,0,1,.136-.793,9.889,9.889,0,0,0,.426-1.294.883.883,0,0,1,.233-.563,2.573,2.573,0,0,0,.383-.95.99.99,0,0,0,.175-.641,1.31,1.31,0,0,1,.286-.772l.574-1.6.527-1.2.243.717v.229l-.2-.583-.525,1.2-.573,1.6a1.31,1.31,0,0,0-.286.772.983.983,0,0,1-.176.641,2.565,2.565,0,0,1-.382.949.886.886,0,0,0-.233.563,9.875,9.875,0,0,1-.427,1.294A2.254,2.254,0,0,0,529.8,477.851Z" transform="translate(-526.695 -464.632)"/>
    </g>
    <path id="Path_228" data-name="Path 228" d="M528.735,279.656l.092.553-.015.245-.012.18.624.088.075-.128h0a5.4,5.4,0,0,1,.517-.764c.12-.094.385-1.612.133-1.528a.655.655,0,0,0-.361.3S528.55,278.693,528.735,279.656Z" transform="translate(-476.498 -257.422)" fill="#ffcdd3"/>
    <path id="Path_229" data-name="Path 229" d="M529.48,297.694l.624.088.075-.128h0a.551.551,0,0,0-.688-.141Z" transform="translate(-477.179 -274.482)" opacity="0.1"/>
    <path id="Path_230" data-name="Path 230" d="M527.92,298.461l.82.218.023-.122.059-.328a.57.57,0,0,0-.8-.141l-.047.168Z" transform="translate(-475.789 -274.959)" fill="#dce6f2"/>
    <path id="Path_231" data-name="Path 231" d="M651.12,274.777l.866.508.086-.164c.091-.172.226-.437.264-.527.058-.144.437-.314.437-.314a1.019,1.019,0,0,0-.109-1.65c-.538-1.2-1.249.35-1.249.35a4.025,4.025,0,0,0-.06.883c.061.059.054.284.054.284a3.3,3.3,0,0,0-.233.5A1.032,1.032,0,0,0,651.12,274.777Z" transform="translate(-585.539 -251.967)" fill="#ffcdd3"/>
    <path id="Path_232" data-name="Path 232" d="M651.12,294.938l.866.508.086-.164c-.121-.109-.546-.485-.694-.474a1.028,1.028,0,0,1-.21,0C651.136,294.886,651.12,294.938,651.12,294.938Z" transform="translate(-585.539 -272.129)" opacity="0.1"/>
    <path id="Path_233" data-name="Path 233" d="M650.2,295.532l.974.527.028-.218.02-.146s-.557-.515-.727-.5a.9.9,0,0,1-.259-.011l-.019.179Z" transform="translate(-584.72 -272.46)" fill="#dce6f2"/>
    <path id="Path_234" data-name="Path 234" d="M549.65,297.912s4.309.655,3.51.36a1.089,1.089,0,0,1-.8-.971,2.263,2.263,0,0,1,.2-.995,4.29,4.29,0,0,1,.417-.764s-3.238-1.948-2.64-.267a2.66,2.66,0,0,1,.157.791,2.212,2.212,0,0,1-.116.789A2.371,2.371,0,0,1,549.65,297.912Z" transform="translate(-495.147 -271.937)" fill="#ffcdd3"/>
    <path id="Path_235" data-name="Path 235" d="M555.39,295.241a2.66,2.66,0,0,1,.157.791,1.526,1.526,0,0,0,1.082.286,1.953,1.953,0,0,0,.983-.043,4.288,4.288,0,0,1,.417-.764S554.788,293.561,555.39,295.241Z" transform="translate(-500.194 -271.907)" opacity="0.1"/>
    <circle id="Ellipse_99" data-name="Ellipse 99" cx="1.79" cy="1.79" r="1.79" transform="translate(54.764 20.948)" fill="#ffcdd3"/>
    <path id="Path_236" data-name="Path 236" d="M549.65,315.034s4.309.655,3.51.36a1.089,1.089,0,0,1-.8-.97,2.386,2.386,0,0,0-.907-.527,1.3,1.3,0,0,0-.784-.043,1.1,1.1,0,0,0-.291.121A2.371,2.371,0,0,1,549.65,315.034Z" transform="translate(-495.147 -289.059)" opacity="0.1"/>
    <path id="Path_237" data-name="Path 237" d="M527.92,300.488l.82.218.023-.122a.732.732,0,0,0-.785-.3Z" transform="translate(-475.789 -276.985)" opacity="0.1"/>
    <path id="Path_238" data-name="Path 238" d="M650.2,296.992l.974.527.028-.218a7.319,7.319,0,0,0-.982-.481Z" transform="translate(-584.72 -273.921)" opacity="0.1"/>
    <path id="Path_239" data-name="Path 239" d="M530.12,416.431a27.443,27.443,0,0,0,4.42.665,11.036,11.036,0,0,1,2.192.028c.01-.437.013-.727.013-.727l-6.471-.927A5.3,5.3,0,0,1,530.12,416.431Z" transform="translate(-477.749 -379.618)" opacity="0.1"/>
    <path id="Path_240" data-name="Path 240" d="M515,310.846s5.482,1.159,6.082,1a23.8,23.8,0,0,1,3.632.155c1.333.969.814-.406.814-.406a3.313,3.313,0,0,0,0-1.279,7.852,7.852,0,0,1-.176-1.287,2.979,2.979,0,0,0-.093-1.118,8.586,8.586,0,0,1-.295-1.728s-.109-1.028-.087-1.253-.012-.859-.012-.859l-.155-1.06c1.133-.109,4.643-2.081,4.643-2.081a10.922,10.922,0,0,1,1.535-2.306,1.707,1.707,0,0,1,.12-.4c.1-.237-1.235-.764-1.235-.764s-1.056,1.194-1.278,1.516a6.874,6.874,0,0,1-.969.911.737.737,0,0,0-.327.031h-.018a2.679,2.679,0,0,0-.689.361,1.31,1.31,0,0,0-.93.31s-.614-.109-.723-.013-.631-.024-.631-.024-.484-1.133-.842-.823-1.826.239-1.826.239a2.164,2.164,0,0,0-.948-.58,1.3,1.3,0,0,0-.784-.044,1,1,0,0,0-.316.139l-.924.837s-.243-.341-.211-.415-.295-.147-.295-.147-.437-.152-.595-.2-.322.121-.336.136a1.754,1.754,0,0,0,.1-.655.755.755,0,0,1,.2-.534c-.476-1.31-1.706-.277-1.706-.277a2.474,2.474,0,0,0-.052.977c.11.275-.153.837-.129.989s-.075.4-.086.69a4.1,4.1,0,0,0,.2,1.076c.081.243.782.813.782.813a3.4,3.4,0,0,0,.309,1.368,5.479,5.479,0,0,1,.036,2.2,5.667,5.667,0,0,1-.744,1.718A12.938,12.938,0,0,0,515,310.846Z" transform="translate(-464.279 -274.491)" fill="#3f3d56"/>
    <path id="Path_241" data-name="Path 241" d="M591.909,324.957s.185-.49.336-.529a3.482,3.482,0,0,0,.444-.179l-.09-.189s-.571.133-.668.3A1.29,1.29,0,0,0,591.909,324.957Z" transform="translate(-532.768 -298.187)" opacity="0.1"/>
    <path id="Path_242" data-name="Path 242" d="M620.2,320.3c.025.151,1.358.338,1.358.338l-.655-.705h-.016A2.68,2.68,0,0,0,620.2,320.3Z" transform="translate(-557.995 -294.508)" opacity="0.1"/>
    <path id="Path_243" data-name="Path 243" d="M541.036,369.6c.015-.016-3.539,4.133-6.076,1.559C534.964,371.159,539.1,371.882,541.036,369.6Z" transform="translate(-482.06 -338.755)" opacity="0.1"/>
    <path id="Path_244" data-name="Path 244" d="M581.817,349.94a6.537,6.537,0,0,1-.838,1.317A5.287,5.287,0,0,1,579.7,352.4,23.815,23.815,0,0,0,581.817,349.94Z" transform="translate(-521.916 -321.242)" opacity="0.1"/>
    <path id="Path_245" data-name="Path 245" d="M595.506,328.58a3.481,3.481,0,0,1-1.286,1.91Z" transform="translate(-534.851 -302.214)" opacity="0.1"/>
    <path id="Path_246" data-name="Path 246" d="M600.954,330.116a1.615,1.615,0,0,1-1.194,1.766S600.374,331.7,600.954,330.116Z" transform="translate(-539.786 -303.582)" opacity="0.1"/>
    <path id="Path_247" data-name="Path 247" d="M522.347,317.983a10.469,10.469,0,0,0-.927.642S521.92,317.938,522.347,317.983Z" transform="translate(-469.999 -292.772)" opacity="0.1"/>
    <path id="Path_248" data-name="Path 248" d="M549.734,277.068a.375.375,0,0,1-.148.236.363.363,0,0,1-.17.032,3.562,3.562,0,0,1-1.612-.218.608.608,0,0,1-.239-.173,1,1,0,0,1-.128-.4,5.914,5.914,0,0,0-.3-.773,2.552,2.552,0,0,1-.125-1.366.924.924,0,0,1,.152-.4c.153-.2.419-.274.617-.431s.328-.4.559-.519a1,1,0,0,1,.677-.034,3.534,3.534,0,0,1,1.242.522.635.635,0,0,0,.416.159.579.579,0,0,0,.318-.226,1.644,1.644,0,0,1,.109.785.364.364,0,0,0,0,.118.368.368,0,0,0,.079.127.455.455,0,0,1,.064.564c-.06.068-.151.1-.21.169-.109.121-.08.3-.083.465a.238.238,0,0,1-.046.157.233.233,0,0,1-.218.044.619.619,0,0,0-.235-.032.4.4,0,0,0-.211.15A2.663,2.663,0,0,0,549.734,277.068Z" transform="translate(-492.758 -252.688)" fill="#3f3d56"/>
    <g id="Group_178" data-name="Group 178" transform="translate(54.734 20.771)" opacity="0.1">
      <path id="Path_249" data-name="Path 249" d="M551.776,289.818a.606.606,0,0,0,.24.172,3.684,3.684,0,0,0,1.612.218.391.391,0,0,0,.17-.032.375.375,0,0,0,.149-.237,2.813,2.813,0,0,1,.5-1.04.394.394,0,0,1,.211-.15.621.621,0,0,1,.235.032.23.23,0,0,0,.218-.045.239.239,0,0,0,.046-.157.692.692,0,0,1,.082-.464c.059-.069.149-.1.211-.169a.35.35,0,0,0,.048-.357.41.41,0,0,1,.008.479c-.061.067-.152.1-.211.169-.109.121-.079.3-.082.465a.239.239,0,0,1-.046.157.232.232,0,0,1-.218.044.624.624,0,0,0-.235-.032.394.394,0,0,0-.211.15,2.764,2.764,0,0,0-.5,1.041.375.375,0,0,1-.148.236.363.363,0,0,1-.17.032,3.562,3.562,0,0,1-1.612-.218.607.607,0,0,1-.24-.173.489.489,0,0,1-.072-.147Z" transform="translate(-551.76 -286.47)"/>
      <path id="Path_250" data-name="Path 250" d="M583.83,278.206a.259.259,0,0,1-.051-.093.324.324,0,0,1,0-.117,1.666,1.666,0,0,0-.059-.655l.01-.011a1.659,1.659,0,0,1,.1.785.562.562,0,0,0,0,.091Z" transform="translate(-580.231 -277.33)"/>
    </g>
    <path id="Path_251" data-name="Path 251" d="M554.976,319.344s-2.248.21-2.436-.134" transform="translate(-497.721 -293.867)" opacity="0.1"/>
    <path id="Path_252" data-name="Path 252" d="M522.888,310.419s-1.242-.046-1.528.409" transform="translate(-469.945 -286.035)" opacity="0.1"/>
  </g>
</svg>
