<svg xmlns="http://www.w3.org/2000/svg" width="22.007" height="30" viewBox="0 0 22.007 30">
  <g id="noun_notification_1209598" transform="translate(-13.748 -11)">
    <g id="Group_286" data-name="Group 286" transform="translate(13.748 11)">
      <g id="Path_611" data-name="Path 611" transform="translate(-13.748 -11)" fill="none">
        <path d="M14.45,29.608a2.38,2.38,0,0,0,1.714.717H33.338a2.38,2.38,0,0,0,1.714-.717,2.412,2.412,0,0,0-.094-3.491l-.779-.686a2.407,2.407,0,0,1-.779-1.777v-3.8C33.4,15.8,30.283,11,24.985,11h-.468c-5.3,0-8.416,4.769-8.416,8.852v3.8a2.357,2.357,0,0,1-.779,1.777l-.779.686A2.412,2.412,0,0,0,14.45,29.608Z" stroke="none"/>
        <path d="M 33.33798980712891 28.32466125488281 C 33.43941879272461 28.32466125488281 33.52925872802734 28.30237007141113 33.63805770874023 28.19356155395508 C 33.73744964599609 28.09418106079102 33.75605773925781 27.97908020019531 33.75417709350586 27.90002059936523 C 33.75228118896484 27.8200511932373 33.72734832763672 27.70444488525391 33.62062454223633 27.60343551635742 L 32.81164932250977 26.89022064208984 C 31.90153884887695 26.03699111938477 31.40032768249512 24.88786125183105 31.40032768249512 23.65453147888184 L 31.40032768249512 19.8519401550293 C 31.40032768249512 18.23339080810547 30.74663925170898 16.49327087402344 29.65171813964844 15.19712066650391 C 28.80500793457031 14.19480037689209 27.30802917480469 12.99999046325684 24.98474884033203 12.99999046325684 L 24.5172176361084 12.99999046325684 C 22.18926811218262 12.99999046325684 20.69357872009277 14.18938064575195 19.84877777099609 15.1871509552002 C 18.75476837158203 16.47927093505859 18.10162925720215 18.22311019897461 18.10162925720215 19.8519401550293 L 18.10162925720215 23.65453147888184 C 18.10162925720215 24.9256420135498 17.56984519958496 26.12057495117188 16.64248466491699 26.93362236022949 L 15.8813533782959 27.60341644287109 C 15.77461242675781 27.70442962646484 15.74967670440674 27.82004737854004 15.74777889251709 27.90002059936523 C 15.74589824676514 27.97908020019531 15.76450824737549 28.09418106079102 15.86389827728271 28.19357109069824 C 15.97269821166992 28.30237007141113 16.06254768371582 28.32466125488281 16.16396903991699 28.32466125488281 L 33.33798980712891 28.32466125488281 M 33.33798980712891 30.32466125488281 L 16.16396903991699 30.32466125488281 C 15.50942802429199 30.32466125488281 14.91721820831299 30.07530975341797 14.44968891143799 29.60778045654297 C 13.48344802856445 28.64155006408691 13.51461887359619 27.05194091796875 14.54318809509277 26.11687088012695 L 15.32240867614746 25.43115997314453 C 15.8211088180542 24.99479103088379 16.10162925720215 24.34025001525879 16.10162925720215 23.65453147888184 C 16.10162925720215 23.65453147888184 16.10162925720215 21.90908050537109 16.10162925720215 19.8519401550293 C 16.10162925720215 15.76882076263428 19.21850776672363 10.99999046325684 24.5172176361084 10.99999046325684 L 24.98474884033203 10.99999046325684 C 30.28344917297363 10.99999046325684 33.40032958984375 15.7999906539917 33.40032958984375 19.8519401550293 C 33.40032958984375 21.90908050537109 33.40032958984375 23.65453147888184 33.40032958984375 23.65453147888184 C 33.40032958984375 24.34025001525879 33.68084716796875 24.96363067626953 34.17953872680664 25.43115997314453 L 34.95876693725586 26.11687088012695 C 35.98733901977539 27.05194091796875 36.01850891113281 28.64155006408691 35.05226898193359 29.60778045654297 C 34.58474731445312 30.07530975341797 33.99253845214844 30.32466125488281 33.33798980712891 30.32466125488281 Z" stroke="none" fill="#fff"/>
      </g>
      <g id="Path_612" data-name="Path 612" transform="translate(-30.785 -56.773)" fill="none">
        <path d="M41.773,80.773A3.272,3.272,0,0,0,45.045,77.5H38.5A3.272,3.272,0,0,0,41.773,80.773Z" stroke="none"/>
        <path d="M 41.77272796630859 80.77272796630859 C 39.96493911743164 80.77272796630859 38.49999618530273 79.30778503417969 38.49999618530273 77.5 L 45.04544830322266 77.5 C 45.04544830322266 79.30778503417969 43.58051681518555 80.77272796630859 41.77272796630859 80.77272796630859 Z" stroke="none" fill="#fff"/>
      </g>
    </g>
  </g>
</svg>
