<svg xmlns="http://www.w3.org/2000/svg" width="113.726" height="78.185" viewBox="0 0 113.726 78.185">
  <g id="undraw_Party_re_nmwj" transform="translate(0 0.001)">
    <path id="Path_883" data-name="Path 883" d="M277.435,126.509a59.248,59.248,0,0,1-16.828-2.495,72.086,72.086,0,0,1-16.117-7.1,75.225,75.225,0,0,1-14.294-10.8,29.307,29.307,0,0,1-13.366,11.007,56.188,56.188,0,0,1-16.9,4.172,91.5,91.5,0,0,1-20.6-.31.114.114,0,0,1,.034-.225,91.271,91.271,0,0,0,20.545.308c10.093-1.04,23.52-4.52,30.169-15.2a.114.114,0,0,1,.178-.019,73.944,73.944,0,0,0,14.354,10.874c8.22,4.849,21.206,10.423,36.385,9.44a.114.114,0,1,1,.015.227Q279.229,126.509,277.435,126.509Z" transform="translate(-170.163 -105.819)" fill="#ccc"/>
    <path id="Path_884" data-name="Path 884" d="M278.3,247.186a.278.278,0,0,1-.252-.2l-1.46-4.9a.284.284,0,0,1,.26-.365h0l2.974-.122a.284.284,0,0,1,.284.366l-1.514,5.026a.279.279,0,0,1-.272.2Z" transform="translate(-256.452 -226.172)" fill="#e6e6e6"/>
    <path id="Path_885" data-name="Path 885" d="M397.965,236.32a.278.278,0,0,1-.282-.159l-2.23-4.6a.284.284,0,0,1,.2-.4h0l2.915-.6a.284.284,0,0,1,.339.315l-.685,5.2a.279.279,0,0,1-.236.243Z" transform="translate(-361.798 -216.382)" fill="#e6e6e6"/>
    <path id="Path_886" data-name="Path 886" d="M526.615,189.177a.278.278,0,0,1-.316-.071l-3.461-3.768a.284.284,0,0,1,.074-.442h0l2.62-1.413a.284.284,0,0,1,.415.2l.841,5.181a.279.279,0,0,1-.156.3Z" transform="translate(-474.674 -174.632)" fill="#e6e6e6"/>
    <path id="Path_887" data-name="Path 887" d="M991.088,288.085a.278.278,0,0,1-.228-.229l-.9-5.036a.284.284,0,0,1,.3-.333h0l2.969.211a.284.284,0,0,1,.241.4l-2.067,4.825a.279.279,0,0,1-.293.17Z" transform="translate(-888.799 -262.42)" fill="#e6e6e6"/>
    <path id="Path_888" data-name="Path 888" d="M859.083,258.606a.278.278,0,0,1-.172-.274l.238-5.111a.284.284,0,0,1,.366-.259h0l2.848.865a.284.284,0,0,1,.147.439l-3.086,4.246a.279.279,0,0,1-.324.1Z" transform="translate(-772.641 -236.24)" fill="#e6e6e6"/>
    <path id="Path_889" data-name="Path 889" d="M706.457,150.4h-1.7a.511.511,0,0,1-.5-.624l.315-1.391c-4.044-.658-7.087-5.075-7.087-10.309,0-5.731,3.643-10.393,8.121-10.393s8.121,4.662,8.121,10.393c0,5.233-3.042,9.651-7.087,10.309l.315,1.391a.511.511,0,0,1-.5.624Z" transform="translate(-629.55 -125.198)" fill="#ff6584"/>
    <path id="Path_890" data-name="Path 890" d="M758.109,307.476h-2.726a.4.4,0,1,1,0-.8h2.726a.4.4,0,0,1,0,.8Z" transform="translate(-680.52 -283.867)" fill="#3f3d56"/>
    <path id="Path_891" data-name="Path 891" d="M730.664,308.663a2.814,2.814,0,0,0-2.425.521,2.763,2.763,0,0,0-1.007,2.262c.083,1.856,1.951,2.853,3.254,3.851a16.62,16.62,0,0,1,4.026,4.188,9.141,9.141,0,0,1,1.53,5.512,6.457,6.457,0,0,1-2.2,4.444,5.214,5.214,0,0,1-.519.378c-.184.118-.013.413.172.294a6.508,6.508,0,0,0,2.742-4.11,8.618,8.618,0,0,0-.742-5.435,14,14,0,0,0-3.543-4.509c-.716-.629-1.476-1.2-2.246-1.76a6.02,6.02,0,0,1-1.807-1.764,2.457,2.457,0,0,1-.026-2.392,2.409,2.409,0,0,1,2.085-1.226,2.369,2.369,0,0,1,.615.075A.171.171,0,0,0,730.664,308.663Z" transform="translate(-655.916 -285.55)" fill="#3f3d56"/>
    <path id="Path_892" data-name="Path 892" d="M714.167,190.573a.739.739,0,0,1-.738-.729,8.434,8.434,0,0,1,0-5.471.738.738,0,0,1,1.477.009l0,.02a7.807,7.807,0,0,0,0,5.413l0,.019A.739.739,0,0,1,714.167,190.573Z" transform="translate(-643.278 -174.801)" fill="#fff"/>
    <path id="Path_893" data-name="Path 893" d="M112.35,315.616a.508.508,0,0,1-.283-.341l-.346-1.384c-3.906,1.238-8.614-1.332-10.976-6-2.585-5.114-1.438-10.918,2.559-12.939s9.351.5,11.937,5.611c2.361,4.67,1.639,9.986-1.674,12.4l.909,1.1a.511.511,0,0,1-.163.782l-1.519.768A.509.509,0,0,1,112.35,315.616Z" transform="translate(-99.363 -272.851)" fill="#ccc"/>
    <path id="Path_894" data-name="Path 894" d="M200.893,456.835a.4.4,0,0,1,.175-.534l2.433-1.23a.4.4,0,1,1,.359.71l-2.433,1.23A.4.4,0,0,1,200.893,456.835Z" transform="translate(-189.323 -415.365)" fill="#3f3d56"/>
    <path id="Path_895" data-name="Path 895" d="M225.84,451.952a2.814,2.814,0,0,1,2.4-.629,2.764,2.764,0,0,1,1.919,1.564c.763,1.694-.454,3.427-1.166,4.905a16.62,16.62,0,0,0-1.7,5.554,9.142,9.142,0,0,0,1.121,5.61,6.457,6.457,0,0,0,3.97,2.972,5.214,5.214,0,0,0,.633.1c.217.022.2.363-.021.34a6.508,6.508,0,0,1-4.3-2.43,8.619,8.619,0,0,1-1.79-5.186,14,14,0,0,1,1.128-5.622c.355-.884.776-1.737,1.21-2.584a6.02,6.02,0,0,0,.817-2.39A2.458,2.458,0,0,0,229,452.013a2.409,2.409,0,0,0-2.414-.154,2.37,2.37,0,0,0-.515.345C225.9,452.349,225.674,452.1,225.84,451.952Z" transform="translate(-211.424 -412.031)" fill="#3f3d56"/>
    <path id="Path_896" data-name="Path 896" d="M198.884,335.048l-.006-.018a7.807,7.807,0,0,0-2.442-4.831l-.012-.016a.738.738,0,0,1,1.313-.675,8.434,8.434,0,0,1,2.468,4.882.738.738,0,1,1-1.322.658Z" transform="translate(-185.327 -303.746)" fill="#fff"/>
    <path id="Path_897" data-name="Path 897" d="M767.944,492.846l-12.419-6.4a.8.8,0,0,1-.342-1.071l.768-1.49a.8.8,0,0,1,1.071-.342l12.419,6.4a.8.8,0,0,1,.342,1.071l-.768,1.49a.789.789,0,0,1-.465.393.8.8,0,0,1-.244.038A.79.79,0,0,1,767.944,492.846Z" transform="translate(-680.616 -440.56)" fill="#fe7700"/>
    <path id="Path_898" data-name="Path 898" d="M820.681,513.007a.792.792,0,0,1,.613.016l4.07,2.25a1.984,1.984,0,0,1,.824,2.607l-.051-.025.051.025a1.986,1.986,0,0,1-2.439,1l-4.414-1.543a.8.8,0,0,1-.406-1.049l1.312-2.866a.789.789,0,0,1,.44-.42Z" transform="translate(-737.139 -466.71)" fill="#2f2e41"/>
    <circle id="Ellipse_276" data-name="Ellipse 276" cx="6.079" cy="6.079" r="6.079" transform="translate(86.827 33.451)" fill="#fe7700"/>
    <path id="Path_899" data-name="Path 899" d="M910.765,671.455V657.483a.8.8,0,0,1,.8-.8h1.676a.8.8,0,0,1,.8.8v13.972a.8.8,0,0,1-.8.8H911.56A.8.8,0,0,1,910.765,671.455Z" transform="translate(-818.605 -594.12)" fill="#fe7700"/>
    <path id="Path_900" data-name="Path 900" d="M878.765,671.455V657.483a.8.8,0,0,1,.8-.8h1.676a.8.8,0,0,1,.8.8v13.972a.8.8,0,0,1-.8.8H879.56A.8.8,0,0,1,878.765,671.455Z" transform="translate(-790.24 -594.12)" fill="#fe7700"/>
    <path id="Path_901" data-name="Path 901" d="M906.221,443.512l.006-.227a1.879,1.879,0,0,1-1.075-.243.7.7,0,0,1-.271-.514.4.4,0,0,1,.131-.329.688.688,0,0,1,.7-.006l.188.086-.36-2.634-.225.031.307,2.241a.8.8,0,0,0-.758.109.621.621,0,0,0-.211.51.924.924,0,0,0,.363.69A2.091,2.091,0,0,0,906.221,443.512Z" transform="translate(-813.188 -401.729)" fill="#2f2e41"/>
    <rect id="Rectangle_122" data-name="Rectangle 122" width="1.223" height="0.227" transform="translate(89.794 38.14)" fill="#2f2e41"/>
    <rect id="Rectangle_123" data-name="Rectangle 123" width="1.223" height="0.227" transform="translate(93.656 38.14)" fill="#2f2e41"/>
    <path id="Path_902" data-name="Path 902" d="M952.068,567.136l-2.1-13.813a.8.8,0,0,1,.666-.906l1.657-.252a.8.8,0,0,1,.906.666l2.1,13.813a.8.8,0,0,1-.666.906l-1.657.252a.794.794,0,0,1-.906-.666Z" transform="translate(-853.345 -501.461)" fill="#fe7700"/>
    <path id="Path_903" data-name="Path 903" d="M946.965,548.631a.792.792,0,0,1-.347-.505l-.57-4.615a1.984,1.984,0,0,1,1.625-2.2l.01.056-.01-.056a1.986,1.986,0,0,1,2.246,1.384l1.345,4.478a.8.8,0,0,1-.611.945l-3.09.622a.79.79,0,0,1-.6-.109Z" transform="translate(-849.867 -491.822)" fill="#2f2e41"/>
    <path id="Path_904" data-name="Path 904" d="M821.364,537.875H805.119a.965.965,0,0,1-.862-1.4l7.854-15.619a5.4,5.4,0,0,1,10.219,2.425v13.628A.966.966,0,0,1,821.364,537.875Z" transform="translate(-724.103 -471.081)" fill="#2f2e41"/>
    <path id="Path_905" data-name="Path 905" d="M867.827,377.813c-1.244.278-2.294,1.089-3.545,1.341a2.58,2.58,0,0,1-1.722-.17,1.8,1.8,0,0,1-.833-.972,2.683,2.683,0,0,1,.428-2.538,4.251,4.251,0,0,1,2.9-1.368,9.165,9.165,0,0,1,6.109,1.719,8.993,8.993,0,0,1,3.658,5.366,6.283,6.283,0,0,1-.2,3.524,4.49,4.49,0,0,1-2.245,2.447,4.4,4.4,0,0,1-.768.286.171.171,0,0,0,.09.329,4.853,4.853,0,0,0,2.813-2.072,5.916,5.916,0,0,0,.786-3.607,9.015,9.015,0,0,0-3.358-6.107,9.742,9.742,0,0,0-6.361-2.26,5.235,5.235,0,0,0-3.251,1.089,3.058,3.058,0,0,0-1.061,2.7,2.45,2.45,0,0,0,.538,1.283,2.217,2.217,0,0,0,1.423.735c1.361.177,2.541-.594,3.744-1.09a5.819,5.819,0,0,1,.949-.307C868.131,378.094,868.041,377.765,867.827,377.813Z" transform="translate(-774.706 -343.298)" fill="#2f2e41"/>
    <path id="Path_906" data-name="Path 906" d="M945.872,350.5a3.727,3.727,0,0,1,2.52-4.3,4.951,4.951,0,0,1,3.049.034,6.014,6.014,0,0,1,2.512,1.64,10.789,10.789,0,0,1,2.507,5.948c.325,2.22.142,4.652,1.278,6.67a4.278,4.278,0,0,0,2.074,1.929,3.2,3.2,0,0,0,2.66-.1,2.55,2.55,0,0,0,.534-.39c.16-.151-.081-.391-.241-.241a2.655,2.655,0,0,1-2.553.508,3.793,3.793,0,0,1-2.158-1.84,8.206,8.206,0,0,1-.914-3.179c-.138-1.2-.191-2.408-.375-3.6a10.944,10.944,0,0,0-2.571-5.942,6.4,6.4,0,0,0-2.53-1.683,5.363,5.363,0,0,0-3.1-.156,4.225,4.225,0,0,0-2.329,1.566,3.938,3.938,0,0,0-.8,2.56,3.474,3.474,0,0,0,.111.676.171.171,0,0,0,.329-.091Z" transform="translate(-849.332 -318.395)" fill="#2f2e41"/>
    <path id="Path_907" data-name="Path 907" d="M384.274,539.373l-14.125-.925a1.7,1.7,0,0,1,.222-3.391l14.125.925a.8.8,0,0,1,.742.846l-.118,1.8a.8.8,0,0,1-.793.744Z" transform="translate(-337.985 -486.3)" fill="#fe7700"/>
    <path id="Path_908" data-name="Path 908" d="M385.957,538.322l-11.616-.434a.8.8,0,0,1-.766-.825l.1-2.693a.8.8,0,0,1,.825-.765l11.616.434a.8.8,0,0,1,.765.825l-.1,2.693a.8.8,0,0,1-.795.766Z" transform="translate(-342.431 -485.017)" fill="#2f2e41"/>
    <path id="Path_909" data-name="Path 909" d="M356.005,662.962V647.9a.8.8,0,0,1,.8-.8h1.807a.8.8,0,0,1,.8.8v15.059a.8.8,0,0,1-.8.8H356.8A.8.8,0,0,1,356.005,662.962Z" transform="translate(-326.856 -585.628)" fill="#2f2e41"/>
    <path id="Path_910" data-name="Path 910" d="M362.181,604.021l-7.806-12.878a.8.8,0,0,1,.268-1.093l1.545-.937a.8.8,0,0,1,1.093.268l7.806,12.878a.8.8,0,0,1-.268,1.093l-1.545.937A.8.8,0,0,1,362.181,604.021Z" transform="translate(-325.309 -534.118)" fill="#2f2e41"/>
    <circle id="Ellipse_277" data-name="Ellipse 277" cx="6.243" cy="6.243" r="6.243" transform="translate(26.446 33.278)" fill="#fe7700"/>
    <path id="Path_911" data-name="Path 911" d="M411.127,440.786a1.48,1.48,0,0,0,.541-.317,1,1,0,0,0,.291-.788.67.67,0,0,0-.3-.516.866.866,0,0,0-.826-.01l.012-2.437H410.6l-.014,2.865.189-.119a.742.742,0,0,1,.752-.092.43.43,0,0,1,.186.333.752.752,0,0,1-.216.588,2.024,2.024,0,0,1-1.115.411l.039.242A4.037,4.037,0,0,0,411.127,440.786Z" transform="translate(-375.058 -399.133)" fill="#2f2e41"/>
    <rect id="Rectangle_124" data-name="Rectangle 124" width="1.319" height="0.245" transform="translate(37.005 37.634) rotate(-7.523)" fill="#2f2e41"/>
    <rect id="Rectangle_125" data-name="Rectangle 125" width="1.319" height="0.245" transform="translate(32.879 38.179) rotate(-7.523)" fill="#2f2e41"/>
    <path id="Path_912" data-name="Path 912" d="M332.113,540.562V528.257a5.635,5.635,0,0,1,5.629-5.629h3.736a1.039,1.039,0,0,1,1.04,1.033l2.2,16.9a1.042,1.042,0,0,1-1.041,1.041H333.154A1.042,1.042,0,0,1,332.113,540.562Z" transform="translate(-305.677 -475.287)" fill="#2f2e41"/>
    <path id="Path_913" data-name="Path 913" d="M261.141,553.272l10.712-9.254a1.7,1.7,0,1,1,2.222,2.571l-10.712,9.254a.8.8,0,0,1-1.122-.082l-1.181-1.367a.8.8,0,0,1,.082-1.122Z" transform="translate(-242.522 -493.88)" fill="#fe7700"/>
    <path id="Path_914" data-name="Path 914" d="M281.956,541.016l8.8-7.6a.8.8,0,0,1,1.122.082l2.018,2.335a.8.8,0,0,1-.082,1.122l-8.8,7.6a.8.8,0,0,1-1.122-.082l-2.018-2.335a.8.8,0,0,1,.082-1.122Z" transform="translate(-260.973 -484.679)" fill="#2f2e41"/>
    <path id="Path_915" data-name="Path 915" d="M329.246,376.508c.835-.691,1.95-.037,2.894-.13a2.232,2.232,0,0,0,1.828-1.738,2.763,2.763,0,0,0-1.024-2.65,3.979,3.979,0,0,0-2.993-.811,7.521,7.521,0,0,0-3.333,1.327,14.916,14.916,0,0,0-2.667,2.174,5.739,5.739,0,0,0-1.543,2.722,3.774,3.774,0,0,0,.468,2.819,2.964,2.964,0,0,0,1.141.977c.477.246.988.425,1.45.7a2.073,2.073,0,0,1,1.131,2.139,1.2,1.2,0,0,1-.282.508c-.161.172-.442-.065-.28-.238a1.011,1.011,0,0,0,.14-1.087,1.992,1.992,0,0,0-.867-.99c-.483-.289-1.02-.471-1.516-.735a3.308,3.308,0,0,1-1.194-1.028,4.091,4.091,0,0,1-.587-2.933,5.787,5.787,0,0,1,1.459-2.872,14.457,14.457,0,0,1,2.695-2.295,8.534,8.534,0,0,1,3.439-1.514,4.572,4.572,0,0,1,3.2.578,3.376,3.376,0,0,1,1.585,2.595,2.722,2.722,0,0,1-1.316,2.417,2.338,2.338,0,0,1-1.4.3,10.668,10.668,0,0,0-1.566-.179,1.1,1.1,0,0,0-.65.248c-.182.151-.391-.152-.21-.3Z" transform="translate(-296.674 -340.69)" fill="#2f2e41"/>
    <path id="Path_916" data-name="Path 916" d="M389.916,695.361l-4.684,7.262a.8.8,0,0,1-1.1.237l-1.518-.979a.8.8,0,0,1-.237-1.1l4.684-7.262a.8.8,0,0,1,1.1-.237l1.518.979a.79.79,0,0,1,.346.5q0,.021.008.041A.79.79,0,0,1,389.916,695.361Z" transform="translate(-350.119 -626.445)" fill="#2f2e41"/>
    <path id="Path_917" data-name="Path 917" d="M281.782,792.408H180.354a.114.114,0,1,1,0-.227H281.782a.114.114,0,1,1,0,.227Z" transform="translate(-171.054 -714.224)" fill="#3f3d56"/>
    <rect id="Rectangle_126" data-name="Rectangle 126" width="0.681" height="2.158" transform="translate(45.219 33.547)" fill="#f2f2f2"/>
    <rect id="Rectangle_127" data-name="Rectangle 127" width="0.681" height="2.158" transform="translate(56.236 27.414)" fill="#f2f2f2"/>
    <rect id="Rectangle_128" data-name="Rectangle 128" width="0.681" height="2.158" transform="translate(53.594 34.448) rotate(-38.519)" fill="#f2f2f2"/>
    <rect id="Rectangle_129" data-name="Rectangle 129" width="2.158" height="0.681" transform="translate(49.837 42.432) rotate(-60)" fill="#f2f2f2"/>
    <rect id="Rectangle_130" data-name="Rectangle 130" width="2.158" height="0.681" transform="translate(46.77 21.419) rotate(-60)" fill="#f2f2f2"/>
    <rect id="Rectangle_131" data-name="Rectangle 131" width="0.681" height="2.158" transform="translate(64.755 56.377)" fill="#f2f2f2"/>
    <rect id="Rectangle_132" data-name="Rectangle 132" width="0.681" height="2.158" transform="translate(75.772 50.244)" fill="#f2f2f2"/>
    <rect id="Rectangle_133" data-name="Rectangle 133" width="0.681" height="2.158" transform="translate(73.13 57.278) rotate(-38.519)" fill="#f2f2f2"/>
    <rect id="Rectangle_134" data-name="Rectangle 134" width="2.158" height="0.681" transform="translate(69.373 65.262) rotate(-60)" fill="#f2f2f2"/>
    <rect id="Rectangle_135" data-name="Rectangle 135" width="2.158" height="0.681" transform="translate(66.306 44.249) rotate(-60)" fill="#f2f2f2"/>
    <path id="Path_918" data-name="Path 918" d="M348.269,373.928l-1.107-.658-.879-.523-1.275-.758-.88-.522-1.2-.712a.129.129,0,0,0-.194.109l-.012,1.012-.011.782-.015,1.134-.009.783-.015,1.134-.009.782-.007.581a.119.119,0,0,0,.016.065.134.134,0,0,0,.046.048.128.128,0,0,0,.128,0l5.417-3.037a.121.121,0,0,0,.063-.091.1.1,0,0,0,0-.019.134.134,0,0,0-.017-.064A.119.119,0,0,0,348.269,373.928Z" transform="translate(-315.026 -340.648)" fill="#ccc"/>
    <path id="Path_919" data-name="Path 919" d="M246.075,271.867l-2.293.669.01-.782,1.4-.409Z" transform="translate(-216.093 -240.526)" fill="#3f3d56"/>
    <path id="Path_920" data-name="Path 920" d="M248.045,283.139l-4.47,1.305.009-.783,3.583-1.046Z" transform="translate(-215.91 -250.517)" fill="#3f3d56"/>
    <path id="Path_921" data-name="Path 921" d="M348.39,399.979a.121.121,0,0,1-.063.091l-2.634,1.476-2.966.866.009-.782Z" transform="translate(-315.086 -366.568)" fill="#3f3d56"/>
    <circle id="Ellipse_278" data-name="Ellipse 278" cx="1.024" cy="1.024" r="1.024" transform="translate(26.503 28.635)" fill="#ccc"/>
  </g>
</svg>
