<svg xmlns="http://www.w3.org/2000/svg" width="22.449" height="22.482" viewBox="0 0 22.449 22.482">
  <g id="noun_Search_875357" transform="translate(-21 -21)">
    <path id="Path_62" data-name="Path 62" d="M43.145,41.536l-4.19-4.152a10.125,10.125,0,0,0-.748-13.429A10.091,10.091,0,0,0,23.955,38.245a10.085,10.085,0,0,0,13.429.748l4.152,4.152a1.077,1.077,0,0,0,.786.337,1.019,1.019,0,0,0,.786-.337A1.164,1.164,0,0,0,43.145,41.536ZM38.955,31.1a7.692,7.692,0,0,1-2.319,5.536A7.912,7.912,0,0,1,31.1,38.955a7.692,7.692,0,0,1-5.536-2.319A7.912,7.912,0,0,1,23.244,31.1a7.692,7.692,0,0,1,2.319-5.536A7.845,7.845,0,0,1,31.1,23.244a7.692,7.692,0,0,1,5.536,2.319A7.845,7.845,0,0,1,38.955,31.1Z" fill="#fff"/>
  </g>
</svg>
