<svg id="noun_Share_2178964" xmlns="http://www.w3.org/2000/svg" width="24" height="24" viewBox="0 0 24 24">
  <path id="Path_801" data-name="Path 801" d="M19.715,0a4.3,4.3,0,0,0-4.286,4.286,4.235,4.235,0,0,0,.151,1.109L7.651,9.36a4.286,4.286,0,1,0,0,5.281l7.93,3.965a4.3,4.3,0,1,0,.769-1.532L8.42,13.109a4.134,4.134,0,0,0,0-2.218l7.93-3.965A4.282,4.282,0,1,0,19.715,0Zm0,1.714a2.572,2.572,0,1,1-2.572,2.572,2.559,2.559,0,0,1,2.572-2.572ZM4.285,9.428A2.572,2.572,0,1,1,1.714,12,2.559,2.559,0,0,1,4.285,9.428Zm15.429,7.715a2.572,2.572,0,1,1-2.572,2.572A2.559,2.559,0,0,1,19.715,17.143Z" fill="#707070"/>
</svg>
