<svg xmlns="http://www.w3.org/2000/svg" width="16.449" height="16.473" viewBox="0 0 16.449 16.473">
  <g id="noun_Search_875357" transform="translate(-21 -21)">
    <path id="Path_62" data-name="Path 62" d="M37.226,36.048l-3.07-3.042a7.419,7.419,0,0,0-.548-9.84,7.394,7.394,0,0,0-10.443,10.47,7.39,7.39,0,0,0,9.84.548l3.042,3.042a.789.789,0,0,0,.576.247.746.746,0,0,0,.576-.247A.853.853,0,0,0,37.226,36.048ZM34.156,28.4a5.636,5.636,0,0,1-1.7,4.057,5.8,5.8,0,0,1-4.057,1.7,5.636,5.636,0,0,1-4.057-1.7,5.8,5.8,0,0,1-1.7-4.057,5.636,5.636,0,0,1,1.7-4.057,5.749,5.749,0,0,1,4.057-1.7,5.636,5.636,0,0,1,4.057,1.7A5.749,5.749,0,0,1,34.156,28.4Z" fill="#c8c7cc"/>
  </g>
</svg>
