<svg xmlns="http://www.w3.org/2000/svg" xmlns:xlink="http://www.w3.org/1999/xlink" width="115.583" height="87.902" viewBox="0 0 115.583 87.902">
  <defs>
    <linearGradient id="linear-gradient" x1="0.5" y1="1" x2="0.5" gradientUnits="objectBoundingBox">
      <stop offset="0" stop-color="gray" stop-opacity="0.251"/>
      <stop offset="0.54" stop-color="gray" stop-opacity="0.122"/>
      <stop offset="1" stop-color="gray" stop-opacity="0.102"/>
    </linearGradient>
  </defs>
  <g id="undraw_business_deal_cpi9" transform="translate(-0.22 0.193)">
    <path id="Path_255" data-name="Path 255" d="M229.947,67.135c-.02.094-.039.189-.061.282a30.3,30.3,0,0,1-3.519,9.127c-.056.094-.112.189-.169.283a26.229,26.229,0,0,1-3.967,5.007,12.026,12.026,0,0,1-2.849,2.188,16.132,16.132,0,0,1-5.072,1.388c-1.824.276-3.673.507-5.517.756q-.983.13-1.954.276c-1.782.264-3.55.569-5.277.973a30.936,30.936,0,0,0-6.157,2.072q-.234.106-.463.225c-.153.076-.306.154-.457.232s-.3.157-.446.237c-.076.041-.153.083-.228.126s-.149.082-.222.124c-.22.123-.436.249-.652.376l-.008.005c-.143.084-.284.169-.424.255-.8.485-1.58.991-2.362,1.5l-.491.318-.762.493c-.148.1-.3.193-.449.288-.106.07-.212.14-.327.212-.555.35-1.117.693-1.695,1.02-.137.078-.274.157-.413.233a23.476,23.476,0,0,1-3.646,1.644l-.017.006a16.632,16.632,0,0,1-1.936.547c-.378.083-.757.15-1.141.2a12.23,12.23,0,0,1-3.093.043c-2.02-.234-3.913-1.009-5.932-1.271-4.156-.53-8.193,1.177-12.1,2.514q-1.442.493-2.9.923c-.648.192-1.3.373-1.954.548a73.536,73.536,0,0,1-12.255,2.149,34.515,34.515,0,0,1-5.206.115,19.116,19.116,0,0,1-1.953-.212,12.432,12.432,0,0,1-5.887-2.351,11.5,11.5,0,0,1-3.055-3.919,17.1,17.1,0,0,1-1.579-4.718c-.04-.223-.076-.448-.106-.673q-.079-.576-.119-1.159a16.586,16.586,0,0,1,.729-6.128c.7-2.216,1.864-4.343,2.377-6.576q.032-.142.06-.283a9.791,9.791,0,0,0,.156-1.026c.262-2.743-.741-5.418-1.528-8.1-.028-.093-.055-.187-.082-.282q-.127-.447-.244-.893a18.617,18.617,0,0,1-.282-8.7c.02-.094.044-.189.068-.282a12.745,12.745,0,0,1,2.4-4.907,19,19,0,0,1,4.518-3.911q1.247-.816,2.578-1.524.953-.508,1.953-.963a38.466,38.466,0,0,1,17.468-3.363c.318.014.636.031.953.054s.665.051,1,.082A71.646,71.646,0,0,1,166.65,45c1.257.334,2.512.676,3.767,1.012.558.148,1.115.3,1.674.441,2.734.706,5.508,1.346,8.317,1.824q.976.168,1.953.307a55.949,55.949,0,0,0,6.831.579q1.334.026,2.668-.023.674-.024,1.348-.073a90.013,90.013,0,0,0,13.63-2.446q.976-.222,1.954-.439c.856-.189,1.712-.371,2.572-.539a24.34,24.34,0,0,1,15.1,1.723,7.16,7.16,0,0,1,2.954,2.013,6.31,6.31,0,0,1,1,3.156c.183,1.561.3,3.143.348,4.733,0,.093,0,.187.006.282A42.478,42.478,0,0,1,229.947,67.135Z" transform="translate(-115.615 -41.874)" fill="#fff" opacity="0.1"/>
    <path id="Path_256" data-name="Path 256" d="M204.788,76.926h-.35v.283h.4Zm-3.965,0a.018.018,0,0,0,0,.007c-.01.077-.02.155-.031.233v.042h3.029v-.017l.212-.266Zm-8.119,0V67.8h3.485c-.037-.024-.075-.05-.114-.073l-.051-.033-.066-.04c-.038-.022-.076-.044-.117-.066l-.1-.054-.023-.013H192.7v-.5l-.082.032-.086.04h-.006l-.018.01-.054.029-.054.029c-.053.029-.106.06-.159.093l-.051.034-.106.068c-.137.091-.271.186-.41.275-.035.022-.07.044-.106.065-.075.044-.153.087-.232.125a.886.886,0,0,1-.106.046l-.057.022-.053.018h0a2.481,2.481,0,0,1-.381.1v8.923h-5.225c0,.011.007.019.011.03.029.085.057.168.085.253h5.137V86.99h.079l.092.005.166.01.266.032.122.012.132.014h.02l.234.029.05.006.113.016.162.023h0l.389-.017h0l.053.01a.369.369,0,0,1,.066.011v-9.93h8.086v-.042c.011-.078.021-.156.031-.233a.02.02,0,0,1,0-.007Zm12.084,0h-.35v.283h.4Zm-4.183,0c-.013.094-.024.189-.037.283h3.378l.23-.283Zm-7.9,0V67.8h3.485c-.037-.024-.075-.05-.114-.073l-.051-.033-.066-.04c-.038-.022-.076-.044-.117-.066l-.1-.054-.023-.013H192.7v-.5l-.082.032-.086.04h-.006l-.018.01-.054.029-.054.029c-.053.029-.106.06-.159.093l-.051.034-.106.068c-.137.091-.271.186-.41.275-.035.022-.07.044-.106.065-.075.044-.153.087-.232.125a.888.888,0,0,1-.106.046l-.057.022-.053.018h0a2.481,2.481,0,0,1-.381.1v8.923h-5.225c0,.011.007.019.011.03.029.084.058.168.086.253h5.136v9.782h.079l.092.005.166.01.266.033.122.012.132.014h.02l.234.029.05.006.113.016.162.023h0l.389-.017h0l.053.01a.369.369,0,0,1,.066.011v-9.93h7.874c.013-.094.024-.189.037-.283ZM219.136,57.92h21.976c0-.094,0-.189-.006-.282H219.136V46.557q-.979.212-1.954.439V57.638h-23.9l-.06-.054.091-.081h0l8.89-7.989q-1.335.051-2.668.023L192.7,55.675V48.961q-.979-.139-1.953-.307v6.712l-9.987-8.977c-1.254-.336-2.509-.678-3.767-1.012l13.582,12.206-.06.054H165.584V43.106q-.5-.047-1-.082c-.318-.023-.636-.04-.953-.054V57.638H146.163V46.333q-.989.453-1.953.963V57.638h-9.492c-.023.093-.048.187-.068.282h9.559v9.6h-9.034c.026.094.054.189.082.282h8.952v9.127h-7.58q-.029.141-.06.283h7.64v25.52c.636.1,1.293.167,1.953.212V77.209H163.63v23.465c.656-.175,1.306-.356,1.954-.548V77.209h25.167v20.5a16.63,16.63,0,0,0,1.936-.547l.017-.006V77.209h24.477v9.616q.975-.143,1.954-.274V77.209h17.405c.057-.094.113-.189.169-.283H219.136V67.8h21.093c.022-.093.041-.187.061-.282H219.136Zm-72.974,0H163.63v9.6H146.163Zm0,19.007V67.8H163.63v9.127ZM165.584,57.92h25.167v9.6H165.584Zm0,19.007V67.8h25.167v9.127Zm51.6,0H192.7V67.8h24.477Zm0-9.409H192.7v-9.34l.343-.257h24.134Zm-16.359,9.409a.018.018,0,0,0,0,.007c-.01.077-.02.155-.031.233v.042h3.029v-.017l.212-.266Zm3.965,0h-.35v.283h.4Zm-12.084,0V67.8h3.485c-.037-.024-.075-.05-.114-.073l-.051-.033-.066-.04c-.038-.022-.076-.044-.117-.066l-.1-.054-.023-.013H192.7v-.5l-.082.032-.086.04h-.006l-.018.01-.054.029-.054.029c-.053.029-.106.06-.159.093l-.051.034-.106.068c-.137.091-.271.186-.41.275-.035.022-.07.044-.106.065-.075.044-.153.087-.232.125a.886.886,0,0,1-.106.046l-.057.022-.053.018h0a2.481,2.481,0,0,1-.381.1v8.923h-5.225c0,.011.007.019.011.03.029.085.057.168.085.253h5.137V86.99h.079l.092.005.166.01.266.032.122.012.132.014h.02l.234.029.05.006.113.016.162.023h0l.389-.017h0l.053.01a.369.369,0,0,1,.066.011v-9.93h8.086v-.042c.011-.078.021-.156.031-.233a.02.02,0,0,1,0-.007Z" transform="translate(-125.959 -42.256)" fill="#fff" opacity="0.1"/>
    <path id="Path_257" data-name="Path 257" d="M317.176,116.661h.151a.307.307,0,0,1-.185-.247h0c0-.195.291-.354.647-.354h4.529c.356,0,.646.159.646.354h0c0,.194-.29.354-.646.354h-.151a.3.3,0,0,1,.185.246c0,.166-.212.306-.495.343h1.3c.355,0,.646.159.646.354s-.291.354-.646.354h-4.53c-.355,0-.646-.16-.646-.354,0-.166.212-.305.495-.343h-1.3c-.356,0-.646-.159-.646-.354S316.82,116.661,317.176,116.661Z" transform="translate(-288.574 -107.604)" fill="#fff" opacity="0.1"/>
    <path id="Path_258" data-name="Path 258" d="M780.616,148.431h.152a.307.307,0,0,1-.184-.247h0c0-.195.29-.354.646-.354h4.529c.356,0,.647.159.647.354h0c0,.194-.291.353-.647.353h-.15a.308.308,0,0,1,.184.247c0,.166-.212.306-.495.343h1.3c.356,0,.646.159.646.354s-.29.354-.646.354h-4.529c-.356,0-.647-.16-.647-.354,0-.166.212-.306.495-.343h-1.3c-.355,0-.646-.159-.646-.354S780.261,148.431,780.616,148.431Z" transform="translate(-702.926 -136.009)" fill="#fff" opacity="0.1"/>
    <path id="Path_259" data-name="Path 259" d="M251.537,284.391h.15a.306.306,0,0,1-.184-.247h0c0-.194.291-.354.646-.354h4.53c.355,0,.646.16.646.354h0c0,.195-.291.354-.646.354h-.151a.3.3,0,0,1,.184.246c0,.166-.212.306-.495.343h1.3c.356,0,.647.16.647.354s-.291.354-.647.354H253c-.356,0-.646-.159-.646-.354,0-.165.212-.305.495-.343h-1.308c-.356,0-.647-.159-.647-.354S251.186,284.391,251.537,284.391Z" transform="translate(-229.887 -257.568)" fill="#fff" opacity="0.1"/>
    <ellipse id="Ellipse_100" data-name="Ellipse 100" cx="6.881" cy="22.643" rx="6.881" ry="22.643" transform="translate(61.187 62.242) rotate(-78.45)" fill="#fe7700" opacity="0.1"/>
    <path id="Path_260" data-name="Path 260" d="M828.56,375.012s1.2-5.911,5.8-5.364c0,0,3.178.218,3.831,2.3v4.6Z" transform="translate(-746.369 -334.299)" fill="#3a3768"/>
    <path id="Path_261" data-name="Path 261" d="M622.2,376.9l-40.946-3.395-5.255,1.1.328,7.335.358.043L577.094,393l40.179,7.225,4.271-3.613V384.67l.547-.321Z" transform="translate(-514.829 -334.002)" fill="#d48a9b"/>
    <path id="Path_262" data-name="Path 262" d="M973.879,405.56l-.11,7.444-4.434,2.08-.055-7.774Z" transform="translate(-866.453 -362.658)" opacity="0.05"/>
    <path id="Path_263" data-name="Path 263" d="M970.4,478.94l.054,11.715-4.27,3.613.274-13.576Z" transform="translate(-863.681 -428.265)" opacity="0.05"/>
    <path id="Path_264" data-name="Path 264" d="M582.741,454.5l40.894,4.99.021-.947L582.71,454.13Z" transform="translate(-520.829 -406.083)" opacity="0.05"/>
    <path id="Path_265" data-name="Path 265" d="M971.782,479.37v-.43l-4.052,1.788v.949Z" transform="translate(-865.067 -428.265)" opacity="0.05"/>
    <path id="Path_266" data-name="Path 266" d="M575.48,374.605l5.255-1.1,40.946,3.395-4.6,1.751Z" transform="translate(-514.364 -334.002)" fill="#efc6cd"/>
    <path id="Path_267" data-name="Path 267" d="M945.017,407.55l2.009.131-3.33,1-1.7-.122Z" transform="translate(-842.062 -364.437)" opacity="0.1"/>
    <path id="Path_268" data-name="Path 268" d="M945.017,406.72l2.009.131-3.33,1-1.7-.123Z" transform="translate(-842.062 -363.695)" fill="#fff"/>
    <path id="Path_269" data-name="Path 269" d="M1022.32,444.478c.079-.034.163.031.248.047.049.01.1,0,.147.01.1.013.2.078.29.046" transform="translate(-919.606 -401.227)" fill="#d3dae1"/>
    <path id="Path_270" data-name="Path 270" d="M1021.34,445.047c.078-.034.163.03.248.047.049.008.1,0,.147.008.1.014.2.079.29.047" transform="translate(-918.73 -401.736)" fill="#d3dae1"/>
    <path id="Path_271" data-name="Path 271" d="M1019.08,446.187c.079-.034.164.03.249.046.048.01.1,0,.146.01.1.014.2.079.29.046" transform="translate(-916.709 -402.755)" fill="#d3dae1"/>
    <path id="Path_272" data-name="Path 272" d="M863.017,398.21l2.009.132-3.33,1-1.7-.123Z" transform="translate(-768.748 -356.086)" opacity="0.1"/>
    <path id="Path_273" data-name="Path 273" d="M863.017,397.39l2.009.131-3.33,1L860,398.4Z" transform="translate(-768.748 -355.353)" fill="#fff"/>
    <path id="Path_274" data-name="Path 274" d="M940.32,435.147c.079-.034.163.03.248.047.049.008.1,0,.147.008.1.014.2.079.29.047" transform="translate(-846.291 -392.885)" fill="#d3dae1"/>
    <path id="Path_275" data-name="Path 275" d="M939.34,435.717c.078-.034.163.03.248.046.049.01.1,0,.147.01.1.014.2.079.29.046" transform="translate(-845.415 -393.394)" fill="#d3dae1"/>
    <path id="Path_276" data-name="Path 276" d="M937.08,436.848c.079-.034.164.031.249.047.048.01.1,0,.146.01.1.013.2.079.29.046" transform="translate(-843.395 -394.405)" fill="#d3dae1"/>
    <path id="Path_277" data-name="Path 277" d="M902.347,402.88l2.01.131-3.33,1-1.7-.123Z" transform="translate(-803.912 -360.261)" opacity="0.1"/>
    <path id="Path_278" data-name="Path 278" d="M902.347,402.06l2.01.131-3.33,1-1.7-.123Z" transform="translate(-803.912 -359.528)" fill="#fff"/>
    <path id="Path_279" data-name="Path 279" d="M979.65,439.817c.079-.034.164.03.249.045.048.01.1,0,.146.01.1.013.2.079.29.046" transform="translate(-881.456 -397.06)" fill="#d3dae1"/>
    <path id="Path_280" data-name="Path 280" d="M978.67,440.378c.079-.034.164.031.249.047.048.01.1,0,.146.01.1.013.2.079.29.046" transform="translate(-880.579 -397.561)" fill="#d3dae1"/>
    <path id="Path_281" data-name="Path 281" d="M976.42,441.517c.078-.034.163.03.248.047.049.009.1,0,.147.009.1.014.2.079.29.047" transform="translate(-878.568 -398.58)" fill="#d3dae1"/>
    <ellipse id="Ellipse_101" data-name="Ellipse 101" cx="21.447" cy="4.415" rx="21.447" ry="4.415" transform="translate(31.496 74.94)" fill="#fe7700" opacity="0.1"/>
    <path id="Path_282" data-name="Path 282" d="M428.608,249.171a14.369,14.369,0,0,0-1.134-3.929l.069-.678s.015-.339-.007-.847a3.853,3.853,0,0,1,.124-.941,1.937,1.937,0,0,0-.279-1.377,5.161,5.161,0,0,0-.394-1.988c-.417-.632-3.2-1.808-3.2-1.808s-.149-.312-.36-.678l.019-.037a3.982,3.982,0,0,0-.635-.857c-.171-.182-.335-.286-.467-.235a3.82,3.82,0,0,1-.123-.537c.028.007.056.015.084.02a.864.864,0,0,0,.35.008,1.039,1.039,0,0,0,.574-.508,8.1,8.1,0,0,0,1.463-3.579,2.276,2.276,0,0,0-.037-.79,2.669,2.669,0,0,0-.248-.577,4.64,4.64,0,0,0-.7-1.031,3.983,3.983,0,0,0-1.878-1.028,6.5,6.5,0,0,0-2.426-.181c-.212.024-.424.059-.636.073a6.6,6.6,0,0,1-.806-.014l-1.386-.081-.006-.021-.231-.014a.585.585,0,0,0,.113.566.965.965,0,0,1,.234.547,1.117,1.117,0,0,1-.268.53.51.51,0,0,0-.086.554.318.318,0,0,0,.056.061.7.7,0,0,0,.509.136h.032a3.45,3.45,0,0,0-.7,2.089,3.512,3.512,0,0,0,1.916,3.112c.02.069.04.14.059.212a6.489,6.489,0,0,1,.222,2.29l-.024.053-.015-.056s-1.633,1.108-2.118,1.4a3.061,3.061,0,0,0-1,1.559c-.023.271-.788,4.361-.788,4.361a10.015,10.015,0,0,0-.383,1.263l-.976.857a15,15,0,0,1-2.6.046l.017.112a8.8,8.8,0,0,0-1.563-.212,1.658,1.658,0,0,0-.847.113l-.02.01-.016.007a3.359,3.359,0,0,0-.89.25c-.034.014-.065.028-.094.041l.006-.139-2.178-.112-1.112-.226s-.394-.318-.626-.271-.718-.271-.718-.271a1.942,1.942,0,0,0-.358-.222c-.037-.256-.06-.412-.06-.412s-.865-3.434-1.514-5.453a4.647,4.647,0,0,0-1.428-2.3c-.164-.286-.272-.47-.272-.47a2.1,2.1,0,0,0-.56-.82c-.016-.025-.028-.038-.034-.038a.124.124,0,0,0-.062.01,6.737,6.737,0,0,1-.01-3.034,3.348,3.348,0,0,0,1.222-2.58v-.09a3.333,3.333,0,0,0-.787-2.15l-.036-.04.028-.022a.568.568,0,0,0,.2-.547,3.743,3.743,0,0,0-.288-.556,3.609,3.609,0,0,1-.118-.453,1.4,1.4,0,0,0-.334-.581l.016.042a2.013,2.013,0,0,0-1.772-.6c-.478.076-.923.3-1.4.368-.344.049-.695.017-1.041.052a2.7,2.7,0,0,0-.924.267.529.529,0,0,0-.2.144.776.776,0,0,0-.1.272,3.6,3.6,0,0,1-.76,1.093,2.558,2.558,0,0,0-.513,1.413,1.106,1.106,0,0,0,.037.387c.023.075.059.146.076.222a1.526,1.526,0,0,1-.128.7,1.355,1.355,0,0,0,.075.883c.418.936,1.792,1.249,2.078,2.232a2.734,2.734,0,0,0,.687.212c.019.1.036.2.05.3a.079.079,0,0,0-.018.011,2.107,2.107,0,0,0-.463,1.059l-.044.036c-.151.125-.669.544-1.138.867-.556.384-1.483,1.673-2.131,2.057s-1.182,2.754-1.042,3.615.718,3.276.486,4.157a27,27,0,0,0,.347,4.9,5.924,5.924,0,0,1,1.135.337l-.012.176-.035.53a20.209,20.209,0,0,0-.648,6.719c.4,2.922-.185,3.223-.185,3.223a3.863,3.863,0,0,1-.185,1.748,3.76,3.76,0,0,0-.371,1.446s-.031,2.23.031,2.86a4.69,4.69,0,0,1-.124,2.05,7.848,7.848,0,0,0-.587,2.59c.031.542-.772,1.778-.34,3.375s-1.271,1.627-1.271,1.627a10.939,10.939,0,0,0,.68,3.133l.068.1c-.012.04-.023.083-.036.128-.175.636-.414,1.639-.248,1.881.247.362.371.3.371.3l.092,1.627s1.854,1.567,3.275,1.507,1.143-1.507,1.143-1.507l-1.211-3.14-.041-.106,1.345-2.542s.371-1.114.463-1.506.6-1.781.6-1.781,1.271-3.012,1.3-3.375a11.7,11.7,0,0,1,.371-2.712,25.088,25.088,0,0,0,.927-2.648l.017.015a.893.893,0,0,1,.231.889,7.1,7.1,0,0,0-.062,1.747,11.883,11.883,0,0,1-.185,1.507,32.217,32.217,0,0,0,.062,5.693,16.118,16.118,0,0,1,.159,2.848c-.145.6-.272,1.342-.036,1.43a14.943,14.943,0,0,0,2.441.121s.864-.3,2.039.753,4.788-.3,4.788-.3,1.112-.3-1.081-1.175a18.652,18.652,0,0,1-3.165-1.449c.015-.029.031-.057.044-.088a1.967,1.967,0,0,1-.155-2.349,6.543,6.543,0,0,0,.711-2.772l.124-5.062-.371-6.72-.287-7.052.051-.017c.049,1.3.3,4.383,1.627,3.785,1.668-.753.247-2.712.247-2.712l-.749-1.46.223-.076-.838-2.707a6.105,6.105,0,0,1-.032-1.6,6.32,6.32,0,0,0-.019-.932,16.716,16.716,0,0,1,2.337-.348c.222.054,1.467.065,1.956.067-.16.125-.288.249-.288.249l1.992,1.341s.676-.37.817-.762a.879.879,0,0,0,.373-.2c.021.463.144.964.572.976a.742.742,0,0,0,.311-.061l3.258-.645-.28,1.747.195.346c-.1,1.473-.212,3.038-.311,4.414l-.046.3.023.005c-.155,2.118-.279,3.723-.279,3.723a1.952,1.952,0,0,1,.812-.817l.021,3.144s.163,4.971.163,5.649.022,2.192.022,2.192.348,1.853.556,2.463a27.169,27.169,0,0,1,.371,3.389s.487.768.279,1.059.811.926.811.926a3.976,3.976,0,0,0-.7,1.469c-.005.068.061.14.182.212-.038.031-.077.061-.121.091a2.116,2.116,0,0,1-1.4.284c-1.808-.159-3.082,1.514-1.97,1.853a27.168,27.168,0,0,0,4.449.407,2.485,2.485,0,0,1,1.8-.346c-.012.663.021,1.271.026,1.352l-.01.007a7.348,7.348,0,0,1-2.26,1.45c-1.271.429-1.553,2.169.092,2.395a15.033,15.033,0,0,0,4.055-.271,7.474,7.474,0,0,1,2.2-1.129c.95-.2,1.761-.656,1.6-1.2-.106-.346-.378-1.254-.562-1.864q-.016-.055-.032-.106c.029-.064.057-.129.084-.2,0,0-.486-2.53-.092-3.163s.185-6.96.185-6.96a4.568,4.568,0,0,1-.324-2.575c.348-.971-.556-2.35-.556-2.35a42.948,42.948,0,0,1,.363-4.3l.035-.191a8.679,8.679,0,0,0,1.292-.5s.232-3.481.371-4.271c.014-.074.033-.194.056-.35l.106-.558h0l.125-.636h0l.424-2.166.765-.989,1.97-2.013A6.369,6.369,0,0,0,428.608,249.171Zm-30.383-12.428-.015.011a.17.17,0,0,1-.005-.023A.094.094,0,0,0,398.225,236.743Zm19.465,2.467-.076.166.279-.278-.378.424.127-.267Zm-1.881,3.887c-.073.194-.151.4-.233.622l.149-.446Z" transform="translate(-352.179 -205.97)" fill="url(#linear-gradient)"/>
    <path id="Path_283" data-name="Path 283" d="M595.59,440.956s-.26,1.728.519,1.75,1.3-1.333,1.3-1.333l-.318-1.084Z" transform="translate(-538.038 -397.491)" fill="#585b8a"/>
    <path id="Path_284" data-name="Path 284" d="M595.59,440.956s-.26,1.728.519,1.75,1.3-1.333,1.3-1.333l-.318-1.084Z" transform="translate(-538.038 -397.491)" opacity="0.2"/>
    <path id="Path_285" data-name="Path 285" d="M400.092,750.312c-1.385.06-3.193-1.505-3.193-1.505l-.09-1.626s-.12.06-.361-.3a4.206,4.206,0,0,1,.242-1.88c.083-.309.15-.53.15-.53l3.04.813.145.385,1.18,3.137S401.476,750.251,400.092,750.312Z" transform="translate(-359.978 -669.452)" fill="#636992"/>
    <path id="Path_286" data-name="Path 286" d="M485.908,726.96s-3.522,1.355-4.661.3-1.987-.753-1.987-.753a14.191,14.191,0,0,1-2.379-.121c-.231-.088-.106-.841.038-1.441.1-.414.2-.756.2-.756s3.461-1.175,4-.452a2.6,2.6,0,0,0,.577.551,16.794,16.794,0,0,0,3.156,1.5C486.991,726.658,485.908,726.96,485.908,726.96Z" transform="translate(-431.826 -650.706)" fill="#636992"/>
    <path id="Path_287" data-name="Path 287" d="M525.972,496.35l.963,1.927s1.385,1.957-.24,2.709-1.6-4.334-1.6-4.334Z" transform="translate(-475.052 -447.613)" fill="#ffd6d6"/>
    <path id="Path_288" data-name="Path 288" d="M495.25,338.61a3.929,3.929,0,0,1,1.686,2.5c.632,2.017,1.475,5.45,1.475,5.45a41.692,41.692,0,0,1,.481,4.847,6.247,6.247,0,0,0,.031,1.6l.812,2.709-1.626.572-2.5-9.573Z" transform="translate(-448.364 -306.581)" fill="#dce6f2"/>
    <path id="Path_289" data-name="Path 289" d="M495.25,338.61a3.929,3.929,0,0,1,1.686,2.5c.632,2.017,1.475,5.45,1.475,5.45a41.692,41.692,0,0,1,.481,4.847,6.247,6.247,0,0,0,.031,1.6l.812,2.709-1.626.572-2.5-9.573Z" transform="translate(-448.364 -306.581)" opacity="0.05"/>
    <path id="Path_290" data-name="Path 290" d="M402.354,745.3l.145.385-.178.34a6.564,6.564,0,0,1-2.409.06s-.318-.4-.752-1.068c.083-.309.15-.53.15-.53Z" transform="translate(-362.452 -669.47)" opacity="0.1"/>
    <path id="Path_291" data-name="Path 291" d="M483.134,724.43c-.878,1.989-3.863,1.251-4.692,1-.137-.041-.212-.069-.212-.069s.005-.162.007-.417c.1-.414.2-.756.2-.756s3.461-1.175,4-.452a2.594,2.594,0,0,0,.577.551A1.023,1.023,0,0,0,483.134,724.43Z" transform="translate(-433.147 -650.706)" opacity="0.1"/>
    <path id="Path_292" data-name="Path 292" d="M406.441,487.039a2,2,0,0,0,.151,2.348c-.878,1.988-3.863,1.251-4.692,1-.137-.04-.212-.068-.212-.068a18.341,18.341,0,0,0-.15-3.072,32.986,32.986,0,0,1-.06-5.689,12.117,12.117,0,0,0,.18-1.506,7.337,7.337,0,0,1,.06-1.746.9.9,0,0,0-.225-.888l-.016-.016a25.061,25.061,0,0,1-.9,2.648,12.176,12.176,0,0,0-.361,2.709c-.031.361-1.265,3.373-1.265,3.373s-.481,1.384-.571,1.775-.452,1.506-.452,1.506l-1.451,2.8a6.562,6.562,0,0,1-2.409.06s-.33-.424-.783-1.114a11.075,11.075,0,0,1-.662-3.13,1.224,1.224,0,0,0,1.234-1.626c-.422-1.6.361-2.83.331-3.373a8.014,8.014,0,0,1,.572-2.589,4.786,4.786,0,0,0,.12-2.047c-.06-.632-.03-2.86-.03-2.86a3.824,3.824,0,0,1,.361-1.445,3.949,3.949,0,0,0,.181-1.747s.571-.3.18-3.221a20.644,20.644,0,0,1,.636-6.713l.035-.53.055-.858s8.61-.542,9.3.12a2.282,2.282,0,0,1,.44.63,6.269,6.269,0,0,1,.5,1.6l.361,9.122.361,6.713-.121,5.058A6.725,6.725,0,0,1,406.441,487.039Z" transform="translate(-356.605 -415.843)" fill="#565988"/>
    <path id="Path_293" data-name="Path 293" d="M477.854,538.42l-.9,19.568-1.085,1.784c-.137-.04-.212-.068-.212-.068a18.342,18.342,0,0,0-.15-3.072,32.984,32.984,0,0,1-.06-5.689,12.117,12.117,0,0,0,.18-1.506,7.339,7.339,0,0,1,.06-1.746.9.9,0,0,0-.225-.888l.015-.106Z" transform="translate(-430.571 -485.227)" opacity="0.1"/>
    <path id="Path_294" data-name="Path 294" d="M406.639,730.951s2.348-.933,2.709-.636-2.769.752-2.769.752Z" transform="translate(-369.086 -656.744)" opacity="0.1"/>
    <path id="Path_295" data-name="Path 295" d="M498.161,713.5c-.09.031-2.378.847-2.167,1.716S498.161,713.5,498.161,713.5Z" transform="translate(-449.017 -641.763)" opacity="0.1"/>
    <path id="Path_296" data-name="Path 296" d="M449.07,283.637s.767,1.852.361,2.8,4.38,2.574,4.38,2.574-1.4-3.613-.044-5.646S449.07,283.637,449.07,283.637Z" transform="translate(-407.075 -256.439)" fill="#ffd6d6"/>
    <path id="Path_297" data-name="Path 297" d="M652.752,768.133a7.228,7.228,0,0,0-2.145,1.129,14.29,14.29,0,0,1-3.952.271c-1.6-.226-1.331-1.965-.09-2.394a7.208,7.208,0,0,0,2.2-1.448c.2-.187.324-.318.324-.318l4.494-.9s.073.251.175.6c.18.611.446,1.518.548,1.863C654.468,767.478,653.678,767.929,652.752,768.133Z" transform="translate(-582.737 -687.334)" fill="#505484"/>
    <path id="Path_298" data-name="Path 298" d="M623.84,737.413a6.18,6.18,0,0,1-2.687-.248c-.79-.451-1.919.271-1.919.271a25.824,25.824,0,0,1-4.335-.407c-1.084-.339.158-2.013,1.919-1.852a2.023,2.023,0,0,0,1.37-.284,1.442,1.442,0,0,0,.6-.894l3.813.226.53,1.352Z" transform="translate(-554.976 -660.091)" fill="#505484"/>
    <path id="Path_299" data-name="Path 299" d="M654.367,736.194s-4.432-.725-5-1.3a1.443,1.443,0,0,0,.6-.894l3.813.226.53,1.352Z" transform="translate(-586.159 -660.091)" opacity="0.1"/>
    <path id="Path_300" data-name="Path 300" d="M634.52,512.853l.046,6.615s.158,4.968.158,5.646.022,2.189.022,2.189.339,1.852.542,2.462a27.64,27.64,0,0,1,.361,3.39s.475.768.271,1.059.79.926.79.926a3.956,3.956,0,0,0-.677,1.468c-.041.587,5.057,1.42,5.057,1.42L639.1,517.662l-1.581-5.1Z" transform="translate(-572.882 -462.107)" fill="#575988"/>
    <path id="Path_301" data-name="Path 301" d="M634.52,512.853l.046,6.615s.158,4.968.158,5.646.022,2.189.022,2.189.339,1.852.542,2.462a27.64,27.64,0,0,1,.361,3.39s.475.768.271,1.059.79.926.79.926a3.956,3.956,0,0,0-.677,1.468c-.041.587,5.057,1.42,5.057,1.42L639.1,517.662l-1.581-5.1Z" transform="translate(-572.882 -462.107)" opacity="0.1"/>
    <path id="Path_302" data-name="Path 302" d="M681,765.073c-1.476,3.518-4.985.8-4.985.8s0-.068-.008-.184c.2-.187.324-.318.324-.318l4.494-.9S680.9,764.726,681,765.073Z" transform="translate(-609.978 -687.334)" opacity="0.1"/>
    <path id="Path_303" data-name="Path 303" d="M651.755,533.283c-1.446,3.707-5.035.926-5.035.926a12.963,12.963,0,0,1,.113-2.8,14,14,0,0,0-.249-3.523,19,19,0,0,0-.519-2.89,5.148,5.148,0,0,1-.226-1.716,3.276,3.276,0,0,0-.113-1.31,8.82,8.82,0,0,1-.318-1.716,18.111,18.111,0,0,0-.2-2.732l-.7-3.5-1.265-7.158.4-.068,7.079-1.241s1.332,6.779.88,7.474a2.917,2.917,0,0,0-.254.916c-.258,1.538-.355,4.3-.355,4.3a3.393,3.393,0,0,1,.542,2.348,4.681,4.681,0,0,0,.318,2.574s.2,6.323-.181,6.955S651.755,533.283,651.755,533.283Z" transform="translate(-580.679 -455.848)" fill="#575988"/>
    <path id="Path_304" data-name="Path 304" d="M672.723,292.894s-6.412,4.515-4.968,2.257a5.027,5.027,0,0,0,.331-3.934,9.28,9.28,0,0,0-.636-1.725s5.449-2.318,4.726-.24a3.891,3.891,0,0,0-.212,1.508A4.026,4.026,0,0,0,672.723,292.894Z" transform="translate(-602.324 -261.678)" fill="#d28690"/>
    <path id="Path_305" data-name="Path 305" d="M580.228,425.6s-2.709-.783-3.161-.015a2.294,2.294,0,0,0,.953,2.724c.818.271,2.695-.918,2.695-.918Z" transform="translate(-521.375 -384.039)" fill="#d28690"/>
    <path id="Path_306" data-name="Path 306" d="M604.724,416l-1.129,1.039a14.282,14.282,0,0,1-2.529.044s.52,3.477-.226,3.906l4.561-.926Z" transform="translate(-542.77 -375.774)" fill="#585b8a"/>
    <path id="Path_307" data-name="Path 307" d="M604.724,416l-1.129,1.039a14.282,14.282,0,0,1-2.529.044s.52,3.477-.226,3.906l4.561-.926Z" transform="translate(-542.77 -375.774)" opacity="0.1"/>
    <path id="Path_308" data-name="Path 308" d="M443.407,245.349a3.389,3.389,0,0,1-3.39,3.389c-1.739-.836-3.389-1.516-3.389-3.389a3.39,3.39,0,1,1,6.774,0Z" transform="translate(-395.949 -220.048)" opacity="0.1"/>
    <path id="Path_309" data-name="Path 309" d="M443.533,245.69a3.383,3.383,0,1,1-.767-2.143A3.383,3.383,0,0,1,443.533,245.69Z" transform="translate(-396.074 -220.48)" fill="#ffd6d6"/>
    <path id="Path_310" data-name="Path 310" d="M436.616,461.8a7.667,7.667,0,0,1-1.05.544s-1.716-.249-1.964.044a8.163,8.163,0,0,1-2.436.407s-3.342-.158-3.839-.587a2.032,2.032,0,0,0-.507-.3l.055-.858s8.61-.542,9.3.12A2.282,2.282,0,0,1,436.616,461.8Z" transform="translate(-387.182 -415.87)" opacity="0.1"/>
    <path id="Path_311" data-name="Path 311" d="M420.74,324.741c-.068.383-1.468.97-1.468.97s-1.716-.248-1.964.046a8.163,8.163,0,0,1-2.436.407s-3.342-.159-3.839-.588a4.31,4.31,0,0,0-1.6-.636,27.608,27.608,0,0,1-.338-4.9c.227-.88-.339-3.3-.474-4.155s.383-3.228,1.016-3.612,1.536-1.671,2.077-2.055c.457-.323.961-.741,1.108-.867l.043-.036a2.137,2.137,0,0,1,.452-1.059c.361-.359,3.68,2.28,3.68,2.28s.023.2.249-.18c.051-.086.488.546.565.812a31.338,31.338,0,0,1,1.919,3.813c.113.651.587,2.777.677,3.3.023.133.061.6.106,1.229.008.123.016.253.025.389.067,1.04.139,2.368.182,3.373,0,.114.01.225.013.33A11.23,11.23,0,0,1,420.74,324.741Z" transform="translate(-370.888 -279.413)" fill="#dce6f2"/>
    <path id="Path_312" data-name="Path 312" d="M415,387.21s1.241,1.513,1.648,1.513S415,387.21,415,387.21Z" transform="translate(-376.614 -350.034)" opacity="0.1"/>
    <path id="Path_313" data-name="Path 313" d="M424.611,417.91s-2.033,2.213-1.761,2.619S424.611,417.91,424.611,417.91Z" transform="translate(-383.61 -377.482)" opacity="0.1"/>
    <path id="Path_314" data-name="Path 314" d="M425.62,430.512s2.33-2.552,2.436-3.432Z" transform="translate(-386.109 -385.681)" opacity="0.1"/>
    <path id="Path_315" data-name="Path 315" d="M453.33,437.825s2.687-1.423,2.913-2.552S453.33,437.825,453.33,437.825Z" transform="translate(-410.884 -392.813)" opacity="0.1"/>
    <path id="Path_316" data-name="Path 316" d="M482.373,329.094,482,330l.621.293.61,1.705s1.682,3.364,1.614,5.114a31,31,0,0,0,.305,4.38l.97-.18-.458-5.147a7.424,7.424,0,0,0-.591-2.31c-.775-1.775-2.218-5.052-2.309-5.052-.124,0-.037.046-.037.046Z" transform="translate(-436.517 -297.811)" opacity="0.1"/>
    <path id="Path_317" data-name="Path 317" d="M483.223,328.243l-.373.9.622.293.609,1.705s1.682,3.364,1.614,5.114a31,31,0,0,0,.305,4.38l.971-.18-.459-5.147a7.4,7.4,0,0,0-.59-2.31c-.775-1.776-2.218-5.052-2.308-5.052-.125,0-.038.046-.038.046Z" transform="translate(-437.277 -297.051)" fill="#575989"/>
    <path id="Path_318" data-name="Path 318" d="M571.217,429.466a8.462,8.462,0,0,1-2.056-.847l-.191-.106.023-1.749a3.082,3.082,0,0,1,.345-.175,1.775,1.775,0,0,1,2.454.53C572.628,428.66,571.815,429.506,571.217,429.466Z" transform="translate(-514.275 -385.003)" fill="#ffd6d6"/>
    <path id="Path_319" data-name="Path 319" d="M442.612,243.451a.5.5,0,0,1-.158.065c-.393.086-.84-.252-1.177-.035a.853.853,0,0,0-.281.654q-.072.636-.144,1.263a1.559,1.559,0,0,1-.093.435,1.092,1.092,0,0,1-1.039.553.62.62,0,0,1-.448-.148c-.073-.074-.112-.178-.193-.246-.53-.444-.691.644-.551.953.225.505,1.022.992.687,1.634a.612.612,0,0,1-.246.247,3.389,3.389,0,1,1,3.642-5.374Z" transform="translate(-395.92 -220.384)" opacity="0.1"/>
    <path id="Path_320" data-name="Path 320" d="M429.787,233.059c.079.067.12.171.193.245a.62.62,0,0,0,.448.148,1.087,1.087,0,0,0,1.038-.554,1.508,1.508,0,0,0,.094-.434l.144-1.263a.849.849,0,0,1,.281-.654c.337-.212.784.121,1.177.035a.575.575,0,0,0,.424-.663,3.73,3.73,0,0,0-.28-.555,3.619,3.619,0,0,1-.115-.452,1.794,1.794,0,0,0-2.023-1.146c-.466.077-.9.3-1.366.368-.335.049-.677.017-1.015.053a2.561,2.561,0,0,0-.9.266.523.523,0,0,0-.191.144.8.8,0,0,0-.1.271,3.619,3.619,0,0,1-.741,1.093,2.6,2.6,0,0,0-.5,1.41,1.13,1.13,0,0,0,.036.387c.022.074.057.146.074.222a1.549,1.549,0,0,1-.125.695,1.389,1.389,0,0,0,.074.883c.407.935,1.747,1.248,2.025,2.23a2.225,2.225,0,0,0,.788.212.76.76,0,0,0,.695-.355c.334-.636-.463-1.129-.687-1.633C429.1,233.7,429.253,232.615,429.787,233.059Z" transform="translate(-386.718 -207.457)" fill="#353045"/>
    <path id="Path_321" data-name="Path 321" d="M672.217,289.251a3.891,3.891,0,0,0-.212,1.508c-.163.139-.341-.276-.53-.169-.517.3-1.114,1.009-1.754,1.009a3.513,3.513,0,0,1-1.6-.382,9.28,9.28,0,0,0-.635-1.725S672.94,287.174,672.217,289.251Z" transform="translate(-602.36 -261.678)" opacity="0.1"/>
    <path id="Path_322" data-name="Path 322" d="M662.306,254.023a3.523,3.523,0,1,1-3.523-3.523A3.523,3.523,0,0,1,662.306,254.023Z" transform="translate(-591.426 -227.804)" fill="#d28690"/>
    <path id="Path_323" data-name="Path 323" d="M646.912,321.557s-.663.722-.753.782-2.013,8.156-2.046,8.25-2.289,7.4-2.289,7.4l-3.613,1.776.3-8.942,2.648-7.374s.874-.994,1.144-1.355,3.643-2.529,3.643-2.529l.576,1.187Z" transform="translate(-576.182 -289.558)" fill="#f0f3f7"/>
    <path id="Path_324" data-name="Path 324" d="M680.221,322.467l-4.154,2.974L676,323.808c.271-.361,3.643-2.528,3.643-2.528Z" transform="translate(-609.969 -291.087)" opacity="0.1"/>
    <path id="Path_325" data-name="Path 325" d="M681.089,320.757l-4.154,2.974-.064-1.632c.271-.362,3.643-2.529,3.643-2.529Z" transform="translate(-610.747 -289.558)" fill="#f0f3f7"/>
    <path id="Path_326" data-name="Path 326" d="M632.367,336.59l.139.727-.929.944.741-1.66s-1.589,1.107-2.065,1.4a3.016,3.016,0,0,0-.971,1.558c-.018.271-.768,4.358-.768,4.358a5.323,5.323,0,0,0-.406,1.942c.159.429-.858,13.954-.858,13.954a2.012,2.012,0,0,1,1.358-1.041l-.362-7.993s.441-5.317.463-5.385l1.027-3.15Z" transform="translate(-566.382 -304.775)" fill="#585b8a"/>
    <path id="Path_327" data-name="Path 327" d="M636.844,344.3l-.072,1.483a36.245,36.245,0,0,1-1.343,3.691,37.058,37.058,0,0,0-1.366,3.613l-.579,5.374-.994.452-.489-.9.814-5.19s1.535-4.38,1.761-4.832l1.132-2.385Z" transform="translate(-570.629 -311.669)" opacity="0.1"/>
    <path id="Path_328" data-name="Path 328" d="M635.957,343.45l-.071,1.483a36.042,36.042,0,0,1-1.344,3.691,36.743,36.743,0,0,0-1.365,3.613l-.576,5.373-.993.451-.5-.9.814-5.19s1.535-4.381,1.76-4.832l1.141-2.382Z" transform="translate(-569.833 -310.909)" fill="#663d5c"/>
    <path id="Path_329" data-name="Path 329" d="M566.31,446.153l1.942,1.344s1.37-.768.572-1.265a3.537,3.537,0,0,0-1.761-.572C566.806,445.66,566.31,446.153,566.31,446.153Z" transform="translate(-511.897 -402.292)" fill="#d28690"/>
    <path id="Path_330" data-name="Path 330" d="M578.811,425.342a.3.3,0,0,0-.141.255c0,.412.047,1.5.392,1.01.424-.6.346-1.144.994-.753a3.813,3.813,0,0,1,1.038.953l-.18-1.294S579.583,424.857,578.811,425.342Z" transform="translate(-522.948 -383.967)" fill="#d28690"/>
    <path id="Path_331" data-name="Path 331" d="M654.477,512.994a2.92,2.92,0,0,0-.254.916,7.653,7.653,0,0,1-6.856-1.323,34.572,34.572,0,0,1-.858-3.612,11.774,11.774,0,0,1,.011-2.214l7.079-1.241S654.929,512.294,654.477,512.994Z" transform="translate(-583.559 -455.812)" opacity="0.1"/>
    <path id="Path_332" data-name="Path 332" d="M658.49,326.281a7.018,7.018,0,0,0-.112,1.784l-1.626,7.677s-.79,5.916-.926,6.706-.361,4.268-.361,4.268a7.648,7.648,0,0,1-8.156-.812,34.638,34.638,0,0,1-.858-3.613c-.227-1.341.441-6.713.756-9.1.094-.706.158-1.151.158-1.151l1.185-4.4s1.456-3.715,2-4.8a27.109,27.109,0,0,1,2.72-3.518c.27-.172.7.434,1.023.986.243.417.424.8.424.8s2.709,1.174,3.115,1.8a5.282,5.282,0,0,1,.384,1.987A1.989,1.989,0,0,1,658.49,326.281Z" transform="translate(-583.509 -289.308)" fill="#585b8a"/>
    <path id="Path_333" data-name="Path 333" d="M659.669,324.309s.2,1.2-.318,1.558c-.5.349-4.249,7.714-4.482,8.174.094-.708.158-1.152.158-1.152l1.185-4.4s1.458-3.715,2-4.8a26.909,26.909,0,0,1,2.721-3.518c.27-.172.7.434,1.022.986C661.471,322.161,660.462,324.061,659.669,324.309Z" transform="translate(-591.077 -290.068)" opacity="0.1"/>
    <path id="Path_334" data-name="Path 334" d="M658.8,323.459s.2,1.2-.318,1.558-4.247,7.713-4.484,8.173c.094-.707.158-1.151.158-1.151l1.185-4.4s1.456-3.715,2-4.8a27.1,27.1,0,0,1,2.72-3.518c.27-.172.7.434,1.023.986C660.6,321.31,659.593,323.211,658.8,323.459Z" transform="translate(-590.299 -289.308)" fill="#585b8a"/>
    <path id="Path_335" data-name="Path 335" d="M588.267,407.7l-1.274,6.63h0l-.122.634h0L586.6,416.4l-1.17-.248-.546-.116-7.549-1.6-.555-.118-1.267-.268.248-1.646.1-.684.914-6.069Z" transform="translate(-514.391 -362.738)" fill="#fe7700"/>
    <path id="Path_336" data-name="Path 336" d="M662.94,511.92s-3,1.084-2.348,2.371,4.854-.994,4.854-.994Z" transform="translate(-596.109 -461.534)" fill="#d28690"/>
    <path id="Path_337" data-name="Path 337" d="M703.8,599.1a3.068,3.068,0,0,0,.565,1.648C704.816,601.154,703.8,599.1,703.8,599.1Z" transform="translate(-634.824 -539.48)" opacity="0.1"/>
    <path id="Path_338" data-name="Path 338" d="M675.24,637.68a3.9,3.9,0,0,0,2.686,2.1C680.071,640.391,675.24,637.68,675.24,637.68Z" transform="translate(-609.289 -573.973)" opacity="0.1"/>
    <path id="Path_339" data-name="Path 339" d="M668.091,254.1a3.522,3.522,0,0,1-1.766,3.054,1.876,1.876,0,0,1-.53-.442.685.685,0,0,1-.181-.663c.074-.179.27-.292.318-.478a.7.7,0,0,0-.017-.341c-.039-.175-.076-.35-.114-.523-.033-.148-.091-.323-.238-.359s-.27.087-.386.178a1.209,1.209,0,0,1-1.165.192c-.34-.183-.245-.8-.3-1.128a.2.2,0,0,0-.074-.149.309.309,0,0,0-.154-.011.442.442,0,0,1-.383-.34,2.922,2.922,0,0,1-.062-.546.609.609,0,0,0-.244-.471.753.753,0,0,0-.4-.066l-.664.007a3.523,3.523,0,0,1,6.355,2.089Z" transform="translate(-597.21 -227.882)" opacity="0.1"/>
    <path id="Path_340" data-name="Path 340" d="M660.078,246.509c.115-.091.243-.212.386-.177s.2.212.237.358l.115.522a.711.711,0,0,1,.018.342c-.054.186-.249.3-.324.478a.685.685,0,0,0,.181.662,1.907,1.907,0,0,0,1.09.651.8.8,0,0,0,.34.007,1.006,1.006,0,0,0,.559-.507,8.217,8.217,0,0,0,1.426-3.577,2.3,2.3,0,0,0-.036-.789,2.644,2.644,0,0,0-.242-.577,4.655,4.655,0,0,0-.681-1.031,3.868,3.868,0,0,0-1.83-1.026,6.2,6.2,0,0,0-2.363-.185c-.212.024-.415.059-.624.073a6.281,6.281,0,0,1-.786-.013l-1.559-.093a.606.606,0,0,0,.106.566,1.015,1.015,0,0,1,.229.547,1.124,1.124,0,0,1-.262.53.521.521,0,0,0-.084.554.593.593,0,0,0,.53.174l.786-.008a.751.751,0,0,1,.4.069.61.61,0,0,1,.244.471,3.115,3.115,0,0,0,.061.546.441.441,0,0,0,.383.34.286.286,0,0,1,.154.012.2.2,0,0,1,.074.148c.055.332-.047.944.3,1.128A1.22,1.22,0,0,0,660.078,246.509Z" transform="translate(-592.017 -219.864)" fill="#663d5c"/>
    <path id="Path_341" data-name="Path 341" d="M681.112,353.388a1.726,1.726,0,0,0-1.817,1.16c-.424,1.206-1.13,3.383-.953,4.243.249,1.219.542,3.252.542,3.252s1.287.741.635,1.489a4.218,4.218,0,0,0-.836,1.807,1.878,1.878,0,0,0-1.016,1.129,5.223,5.223,0,0,1-1.4,1.828l-1.828,1.829s3.025,3.072,3.635,3.228l1.874-2.19,2.213-2.935,1.919-2.013a6.608,6.608,0,0,0,.226-3.072,14.7,14.7,0,0,0-1.107-3.929l.068-.678S683.475,353.681,681.112,353.388Z" transform="translate(-608.574 -319.785)" opacity="0.1"/>
    <path id="Path_342" data-name="Path 342" d="M682.821,353.39a1.726,1.726,0,0,0-1.814,1.16c-.424,1.206-1.13,3.383-.953,4.243.248,1.219.541,3.252.541,3.252s1.287.741.636,1.489a4.209,4.209,0,0,0-.835,1.807,1.882,1.882,0,0,0-1.017,1.129,5.238,5.238,0,0,1-1.4,1.828l-1.829,1.829s3.025,3.072,3.635,3.229l1.874-2.19,2.207-2.935,1.919-2.012a6.589,6.589,0,0,0,.226-3.072,14.764,14.764,0,0,0-1.106-3.929l.068-.678S685.184,353.683,682.821,353.39Z" transform="translate(-610.103 -319.787)" fill="#585b8a"/>
    <path id="Path_343" data-name="Path 343" d="M721.28,418.34s1.919,2.347,2.733,1.828S721.28,418.34,721.28,418.34Z" transform="translate(-650.453 -377.866)" opacity="0.1"/>
    <path id="Path_344" data-name="Path 344" d="M728.1,401.28c.2.068,1.875,2.394,2.733,2.118S728.1,401.28,728.1,401.28Z" transform="translate(-656.55 -362.613)" opacity="0.1"/>
    <path id="Path_345" data-name="Path 345" d="M732.58,439a1.257,1.257,0,0,0,1.49,1.151C735.447,439.97,732.58,439,732.58,439Z" transform="translate(-660.556 -396.338)" opacity="0.1"/>
    <path id="Path_346" data-name="Path 346" d="M614.735,301.83l-.745,1.66.93-.944Z" transform="translate(-548.795 -269.915)" opacity="0.1"/>
    <path id="Path_347" data-name="Path 347" d="M614.735,300.98l-.745,1.66.93-.944Z" transform="translate(-548.795 -269.155)" fill="#f0f3f7"/>
    <path id="Path_348" data-name="Path 348" d="M579.424,465.666l-.555-.118-1.019-1.914.1-.684Z" transform="translate(-516.483 -413.969)" opacity="0.3"/>
    <path id="Path_349" data-name="Path 349" d="M666.092,487.65l-.122.634h0l-1.445,1.179-.546-.115Z" transform="translate(-593.49 -436.052)" opacity="0.3"/>
    <path id="Path_350" data-name="Path 350" d="M431.122,355.7c-.28.047-.551.089-.8.121-1.377.181-4.652-1.445-4.652-1.445s-4-3.342-5.148-6.5,1.377-3.635,1.377-3.635c.953-.542,3.026.97,3.32,1.219a1.885,1.885,0,0,1,.519,1.287c-.023.407.678.926.678.926a20.108,20.108,0,0,0,1.49,2.3,1.178,1.178,0,0,1,.451.813c.09.384.88.7,1.219.677s.741.113.741.293c0,.145.332.217.6.24C431,353.153,431.083,354.67,431.122,355.7Z" transform="translate(-381.284 -311.508)" opacity="0.1"/>
    <path id="Path_351" data-name="Path 351" d="M432.638,352.319c-.212.034-.415.065-.606.09-1.377.181-4.651-1.445-4.651-1.445s-4-3.342-5.148-6.5,1.377-3.635,1.377-3.635c.953-.542,3.025.97,3.319,1.219a1.891,1.891,0,0,1,.52,1.287c-.022.407.677.926.677.926a20.108,20.108,0,0,0,1.49,2.3,1.183,1.183,0,0,1,.452.813c.091.384.88.7,1.219.677s.741.113.741.293c0,.106.189.177.4.212.008.123.016.253.025.389C432.523,349.986,432.595,351.315,432.638,352.319Z" transform="translate(-382.813 -308.459)" opacity="0.1"/>
    <path id="Path_352" data-name="Path 352" d="M569.339,428.84l-.086,2.03h-.092l-.191-.106.023-1.749A3.068,3.068,0,0,1,569.339,428.84Z" transform="translate(-514.275 -387.254)" opacity="0.1"/>
    <path id="Path_353" data-name="Path 353" d="M421.9,342.529s-2.528.474-1.377,3.635,5.148,6.5,5.148,6.5,3.274,1.625,4.652,1.445,3.476-.655,3.747-.587,2.1.068,2.1.068l.09-2.118-2.118-.113-1.084-.226s-.385-.318-.61-.271-.7-.271-.7-.271a1.35,1.35,0,0,0-.635-.293c-.273,0-.79-.068-.79-.248s-.407-.318-.741-.293-1.134-.293-1.228-.682a1.179,1.179,0,0,0-.451-.812,20.109,20.109,0,0,1-1.49-2.3s-.7-.519-.678-.925a1.9,1.9,0,0,0-.519-1.288C424.923,343.5,422.847,341.988,421.9,342.529Z" transform="translate(-381.284 -309.982)" fill="#dce6f2"/>
    <path id="Path_354" data-name="Path 354" d="M491.012,412.15s-.971.971-.723,1.151Z" transform="translate(-443.892 -372.332)" opacity="0.1"/>
    <path id="Path_355" data-name="Path 355" d="M498.959,419.4s-1.265.971-.926,1.039S498.959,419.4,498.959,419.4Z" transform="translate(-450.8 -378.814)" opacity="0.1"/>
    <path id="Path_356" data-name="Path 356" d="M487,433c.181.091,2.867,1.695,3.884,1.671Z" transform="translate(-440.988 -390.974)" opacity="0.1"/>
    <path id="Path_357" data-name="Path 357" d="M453.475,312.275s-.475,1.558-.656,1.558c-.142,0-2.525-1.93-3.52-2.741l.043-.036a2.132,2.132,0,0,1,.451-1.059C450.156,309.637,453.475,312.275,453.475,312.275Z" transform="translate(-407.281 -280.969)" opacity="0.1"/>
    <path id="Path_358" data-name="Path 358" d="M452.615,310.565s-.473,1.558-.655,1.558c-.143,0-2.526-1.93-3.521-2.741l.043-.036a2.138,2.138,0,0,1,.452-1.059C449.3,307.927,452.615,310.565,452.615,310.565Z" transform="translate(-406.512 -279.44)" fill="#dce6f2"/>
    <g id="Group_179" data-name="Group 179" transform="translate(39.709 20.862)" opacity="0.15">
      <path id="Path_359" data-name="Path 359" d="M427.49,282.54h0c.318.726,1.193,1.077,1.7,1.656C428.888,283.485,428.006,283.136,427.49,282.54Z" transform="translate(-427.49 -277.313)"/>
      <path id="Path_360" data-name="Path 360" d="M446.312,293.152a.761.761,0,0,1-.695.355,2.027,2.027,0,0,1-.7-.178,1.355,1.355,0,0,1,.18.383,2.215,2.215,0,0,0,.788.212.754.754,0,0,0,.695-.355c.2-.387-.008-.717-.255-1.03A.673.673,0,0,1,446.312,293.152Z" transform="translate(-443.074 -286.254)"/>
      <path id="Path_361" data-name="Path 361" d="M455.793,234.78a3.628,3.628,0,0,0-.28-.555,3.466,3.466,0,0,1-.115-.453,1.4,1.4,0,0,0-.325-.582,1.351,1.351,0,0,1,.054.16,3.65,3.65,0,0,0,.119.455,3.628,3.628,0,0,1,.28.555.575.575,0,0,1-.424.663c-.392.086-.839-.253-1.176-.035a.846.846,0,0,0-.282.652q-.071.636-.144,1.264a1.515,1.515,0,0,1-.093.434,1.091,1.091,0,0,1-1.039.554.624.624,0,0,1-.447-.148,2.945,2.945,0,0,0-.194-.246c-.53-.445-.691.643-.551.953a1.919,1.919,0,0,0,.258.389c-.117-.35.047-1.356.564-.925a2.744,2.744,0,0,1,.193.246.628.628,0,0,0,.448.148,1.091,1.091,0,0,0,1.039-.554,1.513,1.513,0,0,0,.093-.435q.072-.636.144-1.263a.849.849,0,0,1,.281-.652c.338-.218.785.121,1.177.034A.574.574,0,0,0,455.793,234.78Z" transform="translate(-448.624 -233.19)"/>
    </g>
    <path id="Path_362" data-name="Path 362" d="M662.135,248.949a.819.819,0,0,1-.34-.008,1.907,1.907,0,0,1-1.089-.65.682.682,0,0,1-.181-.663c.074-.179.269-.291.318-.478a.709.709,0,0,0-.018-.342l-.114-.522c-.033-.148-.09-.323-.237-.358s-.27.086-.386.177a1.206,1.206,0,0,1-1.165.192c-.339-.184-.245-.8-.3-1.128a.2.2,0,0,0-.074-.148.3.3,0,0,0-.155-.012.443.443,0,0,1-.383-.34,3,3,0,0,1-.06-.545.612.612,0,0,0-.245-.471.762.762,0,0,0-.4-.069l-.786.008c-.194,0-.424-.013-.53-.174a.528.528,0,0,1,.084-.554,1.1,1.1,0,0,0,.262-.53,1,1,0,0,0-.229-.547.981.981,0,0,1-.133-.3l-.226-.014a.609.609,0,0,0,.106.566,1.011,1.011,0,0,1,.229.545,1.125,1.125,0,0,1-.262.53.518.518,0,0,0-.083.554.592.592,0,0,0,.53.175l.786-.01a.761.761,0,0,1,.4.07.608.608,0,0,1,.245.471,2.922,2.922,0,0,0,.061.546.438.438,0,0,0,.383.339.31.31,0,0,1,.154.012.2.2,0,0,1,.074.149c.055.33-.047.944.3,1.128a1.2,1.2,0,0,0,1.165-.192c.115-.091.244-.212.387-.178s.2.212.236.358l.115.523a.71.71,0,0,1,.017.342c-.053.185-.249.3-.323.477a.684.684,0,0,0,.181.663,1.907,1.907,0,0,0,1.1.65.818.818,0,0,0,.34.008.8.8,0,0,0,.441-.335A.589.589,0,0,1,662.135,248.949Z" transform="translate(-591.807 -219.731)" opacity="0.1"/>
    <ellipse id="Ellipse_102" data-name="Ellipse 102" cx="2.56" cy="0.393" rx="2.56" ry="0.393" transform="translate(19.175 75.212)" fill="#fe7700" opacity="0.1"/>
    <ellipse id="Ellipse_103" data-name="Ellipse 103" cx="2.56" cy="0.393" rx="2.56" ry="0.393" transform="translate(108.564 64.995)" fill="#fe7700" opacity="0.1"/>
    <ellipse id="Ellipse_104" data-name="Ellipse 104" cx="7.415" cy="1.138" rx="7.415" ry="1.138" transform="translate(77.61 80.085)" fill="#fe7700" opacity="0.1"/>
    <ellipse id="Ellipse_105" data-name="Ellipse 105" cx="5.783" cy="0.888" rx="5.783" ry="0.888" transform="translate(100.318 75.516)" fill="#fe7700" opacity="0.1"/>
    <ellipse id="Ellipse_106" data-name="Ellipse 106" cx="9.807" cy="1.505" rx="9.807" ry="1.505" transform="translate(95.342 83.743)" fill="#fe7700" opacity="0.1"/>
    <ellipse id="Ellipse_107" data-name="Ellipse 107" cx="7.415" cy="1.138" rx="7.415" ry="1.138" transform="translate(3.363 85.434)" fill="#fe7700" opacity="0.1"/>
    <path id="Path_363" data-name="Path 363" d="M252.152,631.85s.29.379-.133.953-.773,1.059-.636,1.413c0,0,.636-1.059,1.165-1.078S252.725,632.49,252.152,631.85Z" transform="translate(-230.3 -568.761)" fill="#fe7700"/>
    <path id="Path_364" data-name="Path 364" d="M252.311,631.85a.424.424,0,0,1,.059.119c.508.6.779,1.153.29,1.165-.454.013-1,.826-1.13,1.032a.408.408,0,0,0,.015.047s.636-1.059,1.165-1.078S252.884,632.49,252.311,631.85Z" transform="translate(-230.459 -568.761)" opacity="0.1"/>
    <path id="Path_365" data-name="Path 365" d="M263.428,635.686c0,.133-.016.242-.034.242s-.034-.106-.034-.242.019-.07.037-.07S263.428,635.552,263.428,635.686Z" transform="translate(-241.036 -572.114)" fill="#ffd037"/>
    <path id="Path_366" data-name="Path 366" d="M263.813,637.142c-.116.064-.219.106-.228.086s.078-.081.2-.145.071-.017.079,0S263.931,637.077,263.813,637.142Z" transform="translate(-241.237 -573.41)" fill="#ffd037"/>
    <path id="Path_367" data-name="Path 367" d="M238.945,631.85s-.29.379.133.953.774,1.059.635,1.413c0,0-.635-1.059-1.16-1.078S238.369,632.49,238.945,631.85Z" transform="translate(-218.625 -568.761)" fill="#fe7700"/>
    <path id="Path_368" data-name="Path 368" d="M238.926,631.85a.467.467,0,0,0-.059.119c-.508.6-.779,1.153-.29,1.165.454.013,1,.826,1.131,1.032a.405.405,0,0,1-.016.047s-.636-1.059-1.16-1.078S238.35,632.49,238.926,631.85Z" transform="translate(-218.606 -568.761)" opacity="0.1"/>
    <path id="Path_369" data-name="Path 369" d="M239.35,635.686c0,.133.015.242.033.242s.034-.106.034-.242-.019-.07-.037-.07S239.35,635.552,239.35,635.686Z" transform="translate(-219.569 -572.114)" fill="#ffd037"/>
    <path id="Path_370" data-name="Path 370" d="M237,637.142c.118.064.219.106.229.086s-.079-.081-.2-.145-.071-.017-.079,0S236.881,637.077,237,637.142Z" transform="translate(-217.403 -573.41)" fill="#ffd037"/>
    <ellipse id="Ellipse_108" data-name="Ellipse 108" cx="3.033" cy="0.465" rx="3.033" ry="0.465" transform="translate(18.053 67.425)" fill="#fe7700" opacity="0.1"/>
    <path id="Path_371" data-name="Path 371" d="M240.047,647.857l-.015.119-.02.167-.008.07-.02.167-.01.07-.02.167-.232,1.907c-.02.169-.3.3-.636.3h-1.2c-.335,0-.612-.132-.636-.3l-.232-1.907-.02-.167-.008-.07-.021-.167-.008-.07-.02-.167-.015-.119c-.012-.1.139-.177.328-.177h2.467C239.908,647.68,240.059,647.76,240.047,647.857Z" transform="translate(-217.4 -582.914)" fill="#65617d"/>
    <path id="Path_372" data-name="Path 372" d="M186.053,614.76l-.02.167H182.98l-.02-.167Z" transform="translate(-163.421 -549.699)" fill="#9d9cb5"/>
    <path id="Path_373" data-name="Path 373" d="M186.266,617l-.02.167h-2.994L183.23,617Z" transform="translate(-163.662 -551.702)" fill="#9d9cb5"/>
    <path id="Path_374" data-name="Path 374" d="M186.487,619.24l-.021.167H183.53l-.02-.167Z" transform="translate(-163.913 -553.704)" fill="#9d9cb5"/>
    <path id="Path_375" data-name="Path 375" d="M1082.376,618s-.362,1.686,1.249,1.885l.1-.187S1082.475,618.523,1082.376,618Z" transform="translate(-973.269 -556.378)" fill="#fe7700"/>
    <path id="Path_376" data-name="Path 376" d="M1088.428,612.5l-.375.079-.037.009a3.385,3.385,0,0,1-.987-2.623,4.476,4.476,0,0,0,.478.755A4.515,4.515,0,0,1,1088.428,612.5Z" transform="translate(-977.461 -549.199)" fill="#fe7700"/>
    <path id="Path_377" data-name="Path 377" d="M1093.917,607.412a.235.235,0,0,1-.2.026c-.962-.224-.635-3.359-.635-3.359.053.024.106.424.333.938C1093.8,605.922,1094.226,607.186,1093.917,607.412Z" transform="translate(-982.823 -543.932)" fill="#fe7700"/>
    <path id="Path_378" data-name="Path 378" d="M1107.649,618a1.806,1.806,0,0,1-1.548,1.885l-.1-.191S1107.55,618.523,1107.649,618Z" transform="translate(-994.422 -556.378)" fill="#fe7700"/>
    <path id="Path_379" data-name="Path 379" d="M1102.878,610a3.118,3.118,0,0,1-1.286,2.623l-.038-.008-.374-.079a4.57,4.57,0,0,1,.921-1.78A4.078,4.078,0,0,1,1102.878,610Z" transform="translate(-990.113 -549.225)" fill="#fe7700"/>
    <path id="Path_380" data-name="Path 380" d="M1099.616,607.258a.586.586,0,0,1-.212.164h0a.418.418,0,0,1-.079.026c-.236.055-.318-.115-.305-.406a7.516,7.516,0,0,1,.635-2.081,2.6,2.6,0,0,1,.6-.872S1100.244,606.529,1099.616,607.258Z" transform="translate(-988.18 -543.941)" fill="#fe7700"/>
    <path id="Path_381" data-name="Path 381" d="M1097.689,593.7s-1.074,3.813-.149,4.383S1097.927,594.037,1097.689,593.7Z" transform="translate(-986.523 -534.652)" fill="#fe7700"/>
    <path id="Path_382" data-name="Path 382" d="M1082.376,618s-.362,1.686,1.249,1.885l.1-.187S1082.475,618.523,1082.376,618Z" transform="translate(-973.269 -556.378)" opacity="0.1"/>
    <path id="Path_383" data-name="Path 383" d="M1088.428,612.5l-.375.079-.037.009a3.385,3.385,0,0,1-.987-2.623,4.476,4.476,0,0,0,.478.755A4.515,4.515,0,0,1,1088.428,612.5Z" transform="translate(-977.461 -549.199)" opacity="0.1"/>
    <path id="Path_384" data-name="Path 384" d="M1093.917,607.412a.235.235,0,0,1-.2.026c-.962-.224-.635-3.359-.635-3.359.053.024.106.424.333.938C1093.8,605.922,1094.226,607.186,1093.917,607.412Z" transform="translate(-982.823 -543.932)" opacity="0.1"/>
    <path id="Path_385" data-name="Path 385" d="M1107.649,618a1.806,1.806,0,0,1-1.548,1.885l-.1-.191S1107.55,618.523,1107.649,618Z" transform="translate(-994.422 -556.378)" opacity="0.1"/>
    <path id="Path_386" data-name="Path 386" d="M1102.878,610a3.118,3.118,0,0,1-1.286,2.623l-.038-.008-.374-.079a4.57,4.57,0,0,1,.921-1.78A4.078,4.078,0,0,1,1102.878,610Z" transform="translate(-990.113 -549.225)" opacity="0.1"/>
    <path id="Path_387" data-name="Path 387" d="M1099.616,607.258a.586.586,0,0,1-.212.164h0a.418.418,0,0,1-.079.026c-.236.055-.318-.115-.305-.406a7.516,7.516,0,0,1,.635-2.081,2.6,2.6,0,0,1,.6-.872S1100.244,606.529,1099.616,607.258Z" transform="translate(-988.18 -543.941)" opacity="0.1"/>
    <path id="Path_388" data-name="Path 388" d="M1097.689,593.7s-1.074,3.813-.149,4.383S1097.927,594.037,1097.689,593.7Z" transform="translate(-986.523 -534.652)" opacity="0.1"/>
    <path id="Path_389" data-name="Path 389" d="M1082.592,618a1.639,1.639,0,0,0,1.4,1.885l.1-.187S1082.692,618.523,1082.592,618Z" transform="translate(-973.486 -556.378)" fill="#fe7700"/>
    <path id="Path_390" data-name="Path 390" d="M1088.551,612.532l-.375.08-.037.008A3.22,3.22,0,0,1,1087,610s.294.318.627.755A4.449,4.449,0,0,1,1088.551,612.532Z" transform="translate(-977.434 -549.225)" fill="#fe7700"/>
    <path id="Path_391" data-name="Path 391" d="M1093.872,618.88l-.375.079a3.077,3.077,0,0,1-.547-1.859A4.519,4.519,0,0,1,1093.872,618.88Z" transform="translate(-982.755 -555.573)" opacity="0.1"/>
    <path id="Path_392" data-name="Path 392" d="M1094.4,607.412a.237.237,0,0,1-.2.026c-.962-.224-.786-3.359-.786-3.359a4.35,4.35,0,0,1,.482.938C1094.284,605.922,1094.71,607.186,1094.4,607.412Z" transform="translate(-983.158 -543.932)" fill="#fe7700"/>
    <path id="Path_393" data-name="Path 393" d="M1108.928,618a1.639,1.639,0,0,1-1.4,1.885l-.1-.187S1108.828,618.523,1108.928,618Z" transform="translate(-995.701 -556.378)" fill="#fe7700"/>
    <path id="Path_394" data-name="Path 394" d="M1104.139,610a3.215,3.215,0,0,1-1.137,2.623l-.037-.008-.375-.079a4.556,4.556,0,0,1,.922-1.78C1103.844,610.318,1104.139,610,1104.139,610Z" transform="translate(-991.373 -549.225)" fill="#fe7700"/>
    <path id="Path_395" data-name="Path 395" d="M1103.512,617.1a3.464,3.464,0,0,1-.478,1.789.536.536,0,0,1-.069.07l-.375-.079A4.5,4.5,0,0,1,1103.512,617.1Z" transform="translate(-991.373 -555.573)" opacity="0.1"/>
    <path id="Path_396" data-name="Path 396" d="M1101.027,607.258a.572.572,0,0,1-.212.164h0a.414.414,0,0,1-.078.026c-.237.055-.318-.115-.306-.406a7.585,7.585,0,0,1,.636-2.081,4.089,4.089,0,0,1,.454-.872S1101.655,606.529,1101.027,607.258Z" transform="translate(-989.442 -543.941)" fill="#fe7700"/>
    <path id="Path_397" data-name="Path 397" d="M1098.1,615.334a.254.254,0,0,1-.153-.049c-.452-.282-.462-1.339-.354-2.345C1097.978,613.844,1098.4,615.107,1098.1,615.334Z" transform="translate(-986.852 -551.854)" opacity="0.1"/>
    <path id="Path_398" data-name="Path 398" d="M1101.036,614.616c-.052.113-.122.173-.212.164h0a.286.286,0,0,1-.128-.049.687.687,0,0,1-.256-.33,7.587,7.587,0,0,1,.636-2.081A5.914,5.914,0,0,1,1101.036,614.616Z" transform="translate(-989.451 -551.3)" opacity="0.1"/>
    <path id="Path_399" data-name="Path 399" d="M1098.655,593.7s-.923,3.813,0,4.383S1098.892,594.037,1098.655,593.7Z" transform="translate(-987.488 -534.652)" fill="#fe7700"/>
    <path id="Path_400" data-name="Path 400" d="M1032.286,597.61h-3.846v.637h.587l.015.075.235,1.236h2.236l.235-1.236.014-.075h.524Z" transform="translate(-919.346 -534.365)" fill="#4b4770"/>
    <path id="Path_401" data-name="Path 401" d="M1032.286,597.61h-3.846v.637h.587l.015.075.235,1.236h2.236l.235-1.236.014-.075h.524Z" transform="translate(-919.346 -534.365)" opacity="0.1"/>
    <path id="Path_402" data-name="Path 402" d="M1037.756,601.14l-.065.338-.235,1.236h-2.236l-.235-1.236-.065-.338Z" transform="translate(-925.14 -537.521)" fill="#4b4770"/>
    <path id="Path_403" data-name="Path 403" d="M1037.756,601.14l-.065.338h-2.706l-.065-.338Z" transform="translate(-925.14 -537.521)" opacity="0.1"/>
    <rect id="Rectangle_14" data-name="Rectangle 14" width="3.846" height="0.637" transform="translate(109.243 63.245)" fill="#4b4770"/>
    <path id="Path_404" data-name="Path 404" d="M137.711,729.507a1.848,1.848,0,0,0-.241.455c-.015.039-.03.085-.044.128a.458.458,0,0,0-.084-.03,1.165,1.165,0,0,0-.378-.032c0-.05.006-.106.007-.156.016-.558-.05-1.336-.583-1.006-.511.318-.146.847.183,1.186.029.03.057.057.085.084-.3.212-.358.713-.408,1.233a2.875,2.875,0,0,1-.785,1.412c-.03.033-.056.062-.083.09a1.075,1.075,0,0,0-.853-.219c-.012-.046-.025-.093-.039-.143-.237-.857-.73-2.341-1.358-2.666l.083-.106c.267-.349.568-.868.124-1s-.484.449-.46.885q.006.083.013.156a.649.649,0,0,0-.464.227l-.069-.082c-.36-.424-1.02-1.1-1.22-.589-.186.475.4,1.091.8,1.448l.025.022c-.274,1.113.924,2.021,1.569,2.418l.084.051a9.731,9.731,0,0,0-1.439,3.015l2.491.445s1.652-1.426,1.441-2.765h.017a2.517,2.517,0,0,0,1.769-3.136l.03-.012a1.869,1.869,0,0,0,.765-.578A.614.614,0,0,0,137.711,729.507Z" transform="translate(-122.787 -655.37)" fill="#fe7700"/>
    <path id="Path_405" data-name="Path 405" d="M137.711,729.507a1.848,1.848,0,0,0-.241.455c-.015.039-.03.085-.044.128a.458.458,0,0,0-.084-.03,1.165,1.165,0,0,0-.378-.032c0-.05.006-.106.007-.156.016-.558-.05-1.336-.583-1.006-.511.318-.146.847.183,1.186.029.03.057.057.085.084-.3.212-.358.713-.408,1.233a2.875,2.875,0,0,1-.785,1.412c-.03.033-.056.062-.083.09a1.075,1.075,0,0,0-.853-.219c-.012-.046-.025-.093-.039-.143-.237-.857-.73-2.341-1.358-2.666l.083-.106c.267-.349.568-.868.124-1s-.484.449-.46.885q.006.083.013.156a.649.649,0,0,0-.464.227l-.069-.082c-.36-.424-1.02-1.1-1.22-.589-.186.475.4,1.091.8,1.448l.025.022c-.274,1.113.924,2.021,1.569,2.418l.084.051a9.731,9.731,0,0,0-1.439,3.015l2.491.445s1.652-1.426,1.441-2.765h.017a2.517,2.517,0,0,0,1.769-3.136l.03-.012a1.869,1.869,0,0,0,.765-.578A.614.614,0,0,0,137.711,729.507Z" transform="translate(-122.787 -655.37)" opacity="0.1"/>
    <path id="Path_406" data-name="Path 406" d="M134.039,733.9l-.291.847s-.162-.114-.367-.294c-.409-.357-.99-.974-.8-1.448.2-.51.86.163,1.22.589C133.943,733.765,134.039,733.9,134.039,733.9Z" transform="translate(-124.074 -659.039)" fill="#fe7700"/>
    <path id="Path_407" data-name="Path 407" d="M149.6,729.752a4.035,4.035,0,0,1-.284.335,4.469,4.469,0,0,1-.052-.449c-.024-.436.022-1.016.46-.885S149.869,729.4,149.6,729.752Z" transform="translate(-139.023 -655.383)" fill="#fe7700"/>
    <path id="Path_408" data-name="Path 408" d="M180.941,730.46c-.008.281-.036.505-.036.505a3.7,3.7,0,0,1-.363-.325c-.329-.342-.694-.87-.183-1.186C180.886,729.123,180.952,729.9,180.941,730.46Z" transform="translate(-166.6 -655.955)" fill="#fe7700"/>
    <path id="Path_409" data-name="Path 409" d="M192.684,734.852a1.87,1.87,0,0,1-.765.578,2.289,2.289,0,0,1-.256.093l-.343-.482a3.412,3.412,0,0,1,.142-.468,1.847,1.847,0,0,1,.242-.455A.613.613,0,0,1,192.684,734.852Z" transform="translate(-176.627 -659.98)" fill="#fe7700"/>
    <path id="Path_410" data-name="Path 410" d="M140.886,740.11c.145.17.242.3.242.3l-.291.847s-.162-.114-.367-.294a1.664,1.664,0,0,1,.328-.749Z" transform="translate(-131.163 -665.554)" opacity="0.1"/>
    <path id="Path_411" data-name="Path 411" d="M149.646,737.384a4.033,4.033,0,0,1-.284.335,4.474,4.474,0,0,1-.052-.449A.585.585,0,0,1,149.646,737.384Z" transform="translate(-139.066 -663.015)" opacity="0.1"/>
    <path id="Path_412" data-name="Path 412" d="M143.029,742.059l-.725.318s-.158-.076-.386-.218c-.762-.468-2.292-1.647-1.271-3.037s1.882,1.1,2.224,2.322C142.975,741.814,143.029,742.059,143.029,742.059Z" transform="translate(-131.018 -664.304)" fill="#fe7700"/>
    <path id="Path_413" data-name="Path 413" d="M184.18,739.8a.6.6,0,0,1,.4-.18c-.008.281-.036.505-.036.505A3.691,3.691,0,0,1,184.18,739.8Z" transform="translate(-170.243 -665.116)" opacity="0.1"/>
    <path id="Path_414" data-name="Path 414" d="M191.94,741.317a2.314,2.314,0,0,1-.256.093l-.343-.482a3.4,3.4,0,0,1,.142-.468A1.25,1.25,0,0,1,191.94,741.317Z" transform="translate(-176.645 -665.867)" opacity="0.1"/>
    <path id="Path_415" data-name="Path 415" d="M167.7,744.975c-.039.008-.081.016-.122.022-2.429.369-.8-.942-.8-.942s.106-.106.257-.266a2.868,2.868,0,0,0,.785-1.412c.076-.787.164-1.525,1.093-1.309C169.829,741.282,170,744.514,167.7,744.975Z" transform="translate(-154.21 -666.377)" fill="#fe7700"/>
    <rect id="Rectangle_15" data-name="Rectangle 15" width="4.64" height="1.22" transform="translate(8.808 84.645)" fill="#d4dfec"/>
    <rect id="Rectangle_16" data-name="Rectangle 16" width="6.063" height="4.258" transform="translate(8.071 80.679)" fill="#d4dfec"/>
    <rect id="Rectangle_17" data-name="Rectangle 17" width="4.64" height="1.22" transform="translate(8.808 84.645)" opacity="0.1"/>
    <rect id="Rectangle_18" data-name="Rectangle 18" width="6.063" height="4.258" transform="translate(8.071 80.679)" opacity="0.1"/>
    <rect id="Rectangle_19" data-name="Rectangle 19" width="4.64" height="1.22" transform="translate(9.113 84.645)" fill="#d4dfec"/>
    <path id="Path_416" data-name="Path 416" d="M156.473,764.51c.106.364.157.614.157.614l-.725.318s-.158-.076-.386-.218A1.861,1.861,0,0,1,156.473,764.51Z" transform="translate(-144.619 -687.369)" opacity="0.1"/>
    <path id="Path_417" data-name="Path 417" d="M167.7,768.265c-.039.009-.081.016-.122.022-2.429.369-.8-.942-.8-.942s.106-.106.257-.266A1.608,1.608,0,0,1,167.7,768.265Z" transform="translate(-154.21 -689.667)" opacity="0.1"/>
    <path id="Path_418" data-name="Path 418" d="M142.72,769.33s1.36-4.872,3.268-3.369-.776,3.813-.776,3.813Z" transform="translate(-133.174 -688.409)" fill="#fe7700"/>
    <circle id="Ellipse_109" data-name="Ellipse 109" cx="0.153" cy="0.153" r="0.153" transform="translate(10.079 75.429)" opacity="0.1"/>
    <circle id="Ellipse_110" data-name="Ellipse 110" cx="0.153" cy="0.153" r="0.153" transform="translate(10.067 76.141)" opacity="0.1"/>
    <circle id="Ellipse_111" data-name="Ellipse 111" cx="0.153" cy="0.153" r="0.153" transform="translate(14.491 75.569)" opacity="0.1"/>
    <circle id="Ellipse_112" data-name="Ellipse 112" cx="0.153" cy="0.153" r="0.153" transform="translate(10.932 79.218)" opacity="0.1"/>
    <circle id="Ellipse_113" data-name="Ellipse 113" cx="0.153" cy="0.153" r="0.153" transform="translate(14.173 76.751)" opacity="0.1"/>
    <circle id="Ellipse_114" data-name="Ellipse 114" cx="0.153" cy="0.153" r="0.153" transform="translate(12.597 78.328)" opacity="0.1"/>
    <circle id="Ellipse_115" data-name="Ellipse 115" cx="0.153" cy="0.153" r="0.153" transform="translate(10.6 75.734)" opacity="0.1"/>
    <circle id="Ellipse_116" data-name="Ellipse 116" cx="0.153" cy="0.153" r="0.153" transform="translate(14.072 76.026)" opacity="0.1"/>
    <circle id="Ellipse_117" data-name="Ellipse 117" cx="0.153" cy="0.153" r="0.153" transform="translate(13.55 77.208)" opacity="0.1"/>
    <circle id="Ellipse_118" data-name="Ellipse 118" cx="0.153" cy="0.153" r="0.153" transform="translate(11.949 79.103)" opacity="0.1"/>
    <circle id="Ellipse_119" data-name="Ellipse 119" cx="0.153" cy="0.153" r="0.153" transform="translate(11.618 78.353)" opacity="0.1"/>
    <circle id="Ellipse_120" data-name="Ellipse 120" cx="0.153" cy="0.153" r="0.153" transform="translate(10.829 76.662)" opacity="0.1"/>
    <rect id="Rectangle_20" data-name="Rectangle 20" width="4.64" height="0.446" transform="translate(9.113 84.645)" opacity="0.1"/>
    <rect id="Rectangle_21" data-name="Rectangle 21" width="6.063" height="4.258" transform="translate(8.376 80.679)" fill="#d4dfec"/>
    <circle id="Ellipse_121" data-name="Ellipse 121" cx="0.153" cy="0.153" r="0.153" transform="translate(12.152 79.79)" opacity="0.1"/>
    <circle id="Ellipse_122" data-name="Ellipse 122" cx="0.153" cy="0.153" r="0.153" transform="translate(11.237 79.98)" opacity="0.1"/>
    <circle id="Ellipse_123" data-name="Ellipse 123" cx="1.108" cy="1.108" r="1.108" transform="translate(4.348 4.345)" fill="#fe7700" opacity="0.1"/>
    <circle id="Ellipse_124" data-name="Ellipse 124" cx="1.483" cy="1.483" r="1.483" transform="translate(110.379 38.828)" fill="#fe7700" opacity="0.1"/>
    <circle id="Ellipse_125" data-name="Ellipse 125" cx="1.083" cy="1.083" r="1.083" transform="translate(113.638 36.05)" fill="#fe7700" opacity="0.1"/>
    <circle id="Ellipse_126" data-name="Ellipse 126" cx="1.313" cy="1.313" r="1.313" transform="translate(6.349 -0.193)" fill="#fe7700" opacity="0.1"/>
    <ellipse id="Ellipse_127" data-name="Ellipse 127" cx="1.313" cy="1.751" rx="1.313" ry="1.751" transform="translate(0.22 6.812)" fill="#fe7700" opacity="0.1"/>
  </g>
</svg>
