<svg xmlns="http://www.w3.org/2000/svg" width="27.674" height="30" viewBox="0 0 27.674 30">
  <g id="noun_like_3696691" transform="translate(-8.29 -10.21)">
    <g id="Path_561" data-name="Path 561" fill="none">
      <path d="M27.9,10.21a8.219,8.219,0,0,0-5.775,2.337,8.219,8.219,0,0,0-5.775-2.337A7.92,7.92,0,0,0,8.29,17.955c0,9.9,13.04,16.152,13.595,16.415a.664.664,0,0,0,.242.055.56.56,0,0,0,.242-.055c.555-.263,13.595-6.516,13.595-16.415A7.916,7.916,0,0,0,27.9,10.21Z" stroke="none"/>
      <path d="M 16.35264587402344 12.20999526977539 C 13.00968551635742 12.20999526977539 10.28999710083008 14.78736305236816 10.28999710083008 17.95538330078125 C 10.28999710083008 19.83905410766602 10.87716674804688 21.73954391479492 12.03520584106445 23.60406303405762 C 13.0189151763916 25.18791389465332 14.41199493408203 26.75204467773438 16.17573547363281 28.25301361083984 C 18.57280921936035 30.29297065734863 21.00150299072266 31.66639709472656 22.12715911865234 32.25417709350586 C 23.25282859802246 31.66638374328613 25.68157005310059 30.29292297363281 28.0785961151123 28.25301361083984 C 29.84233474731445 26.75204467773438 31.23540496826172 25.18791389465332 32.21912384033203 23.60406303405762 C 33.37716674804688 21.73954391479492 33.96433639526367 19.83905410766602 33.96433639526367 17.9524040222168 C 33.96652603149414 16.4846248626709 33.37788391113281 15.0855541229248 32.30685424804688 14.01291465759277 C 31.14595603942871 12.85028457641602 29.58150482177734 12.20999526977539 27.90168571472168 12.20999526977539 C 26.23755645751953 12.20999526977539 24.68499565124512 12.83596420288086 23.52999496459961 13.97258377075195 L 22.12716674804688 15.35309410095215 L 20.72433662414551 13.97258377075195 C 19.56934547424316 12.83596420288086 18.01677513122559 12.20999526977539 16.35264587402344 12.20999526977539 M 16.35264587402344 10.20999526977539 C 18.53880500793457 10.20999526977539 20.6102466583252 11.05428314208984 22.12716674804688 12.54707336425781 C 23.64409637451172 11.05428314208984 25.71552658081055 10.20999526977539 27.90168571472168 10.20999526977539 C 32.3441047668457 10.20999526977539 35.97070693969727 13.68502426147461 35.96433639526367 17.95538330078125 C 35.96433639526367 27.85431480407715 22.92386627197266 34.10691452026367 22.36936569213867 34.3699836730957 C 22.29288673400879 34.40669250488281 22.21002578735352 34.42504501342773 22.12716674804688 34.42504501342773 C 22.0443058013916 34.42504501342773 21.96145629882812 34.40057373046875 21.88496589660645 34.3699836730957 C 21.3304557800293 34.10691452026367 8.289997100830078 27.85431480407715 8.289997100830078 17.95538330078125 C 8.289997100830078 13.68502426147461 11.91022491455078 10.20999526977539 16.35264587402344 10.20999526977539 Z" stroke="none" fill="#fff"/>
    </g>
  </g>
</svg>
