<svg xmlns="http://www.w3.org/2000/svg" width="90.787" height="98.907" viewBox="0 0 90.787 98.907">
  <g id="undraw_yoga_248n" transform="translate(0)">
    <path id="Path_827" data-name="Path 827" d="M318.118,763.19c0,3-20.323,9.843-45.393,9.843s-45.393-6.841-45.393-9.843,20.323-1.028,45.393-1.028S318.118,760.188,318.118,763.19Z" transform="translate(-227.331 -674.126)" fill="#3f3d56"/>
    <path id="Path_828" data-name="Path 828" d="M318.118,763.19c0,3-20.323,9.843-45.393,9.843s-45.393-6.841-45.393-9.843,20.323-1.028,45.393-1.028S318.118,760.188,318.118,763.19Z" transform="translate(-227.331 -674.126)" opacity="0.1"/>
    <circle id="Ellipse_267" data-name="Ellipse 267" cx="1.91" cy="1.91" r="1.91" transform="translate(11.018 45.287)" fill="#fe7700"/>
    <circle id="Ellipse_268" data-name="Ellipse 268" cx="1.91" cy="1.91" r="1.91" transform="translate(19.391 61.005)" fill="#fe7700"/>
    <circle id="Ellipse_269" data-name="Ellipse 269" cx="1.91" cy="1.91" r="1.91" transform="translate(12.927 57.039)" fill="#fe7700"/>
    <path id="Path_829" data-name="Path 829" d="M345.539,480.391a10.46,10.46,0,0,1-1.1-4.139c-.253-2.529-.09-6.791,2.12-12.736a25.685,25.685,0,0,0-1.018-20.442l.254-.147a22.556,22.556,0,0,1,2.128,6.03,26.3,26.3,0,0,1-1.089,14.662c-4.18,11.244-1.072,16.567-1.041,16.619Z" transform="translate(-330.092 -394.335)" fill="#cfcce0"/>
    <path id="Path_830" data-name="Path 830" d="M325.872,410.257a2.057,2.057,0,1,1,2.057-2.057A2.057,2.057,0,0,1,325.872,410.257Zm0-3.82a1.763,1.763,0,1,0,1.763,1.763A1.763,1.763,0,0,0,325.872,406.437Z" transform="translate(-312.063 -362.032)" fill="#cfcce0"/>
    <circle id="Ellipse_270" data-name="Ellipse 270" cx="1.91" cy="1.91" r="1.91" transform="translate(17.922 51.31)" fill="#cfcce0"/>
    <path id="Path_831" data-name="Path 831" d="M341.55,506.741a2.057,2.057,0,1,1,2.057-2.057A2.057,2.057,0,0,1,341.55,506.741Zm0-3.82a1.763,1.763,0,1,0,1.763,1.763,1.763,1.763,0,0,0-1.763-1.763Z" transform="translate(-325.832 -446.764)" fill="#cfcce0"/>
    <path id="Path_832" data-name="Path 832" d="M382.556,539.3a2.057,2.057,0,1,1,2.057-2.057A2.057,2.057,0,0,1,382.556,539.3Zm0-3.82a1.763,1.763,0,1,0,1.763,1.763,1.763,1.763,0,0,0-1.763-1.763Z" transform="translate(-361.842 -475.361)" fill="#cfcce0"/>
    <circle id="Ellipse_271" data-name="Ellipse 271" cx="1.91" cy="1.91" r="1.91" transform="translate(12.34 66.147)" fill="#cfcce0"/>
    <path id="Path_833" data-name="Path 833" d="M361.412,691.762s-1.91-4.7,3.819-8.227Z" transform="translate(-344.812 -605.636)" fill="#cfcce0"/>
    <path id="Path_834" data-name="Path 834" d="M289.565,714.639s-.869-5-7.6-4.956Z" transform="translate(-275.314 -628.598)" fill="#cfcce0"/>
    <path id="Path_835" data-name="Path 835" d="M675.7,648.479H643.192s-.659-9.664,3.24-9.774,3.459,4.283,8.346-1.757,10.817-5.711,11.586-2.141-1.483,6.424,2.636,5.546S679.047,641.78,675.7,648.479Z" transform="translate(-592.5 -560.59)" fill="#fe7700"/>
    <path id="Path_836" data-name="Path 836" d="M771.632,648.072l-.11,0a33.473,33.473,0,0,1,2.661-12.76,11.584,11.584,0,0,1,2.3-3.532l.073.082a11.5,11.5,0,0,0-2.276,3.505A33.376,33.376,0,0,0,771.632,648.072Z" transform="translate(-705.236 -560.181)" fill="#f2f2f2"/>
    <path id="Path_837" data-name="Path 837" d="M868.249,714.005l-.105-.031a17.034,17.034,0,0,1,4.289-7.135l.074.081A16.921,16.921,0,0,0,868.249,714.005Z" transform="translate(-790.089 -626.101)" fill="#f2f2f2"/>
    <path id="Path_838" data-name="Path 838" d="M664.745,696.663l-.109-.015a11.96,11.96,0,0,0-1.076-6.991,9.625,9.625,0,0,0-1.7-2.477l.076-.079a9.746,9.746,0,0,1,1.72,2.508A12.069,12.069,0,0,1,664.745,696.663Z" transform="translate(-608.934 -608.766)" fill="#f2f2f2"/>
    <path id="Path_839" data-name="Path 839" d="M654.661,619.918H614.237l-.009-.137c-.023-.341-.539-8.376,2.065-11.243a2.851,2.851,0,0,1,2.084-1,6.2,6.2,0,0,1,3.624,1.1c1.621.962,2.692,1.6,6.587-3.216,4.219-5.214,8.771-6.336,11.387-5.712a4.062,4.062,0,0,1,3.2,3.126,13.87,13.87,0,0,1,.137,4.04c-.088,1.211-.158,2.168.339,2.6.415.362,1.244.395,2.608.1,2.775-.592,6.646-.085,8.59,2.425,1.046,1.351,1.869,3.806-.144,7.833Zm-40.148-.294h39.966c1.5-3.044,1.547-5.615.134-7.44-1.783-2.3-5.523-2.91-8.3-2.318-1.482.316-2.365.264-2.863-.169-.608-.53-.534-1.551-.439-2.844a13.629,13.629,0,0,0-.132-3.957,3.778,3.778,0,0,0-2.978-2.9c-2.533-.6-6.958.5-11.091,5.611-4.054,5.011-5.275,4.286-6.965,3.284a5.89,5.89,0,0,0-3.466-1.057,2.568,2.568,0,0,0-1.875.9C614.17,611.312,614.456,618.538,614.513,619.624Z" transform="translate(-567.052 -531.882)" fill="#cfcce0"/>
    <ellipse id="Ellipse_272" data-name="Ellipse 272" cx="45.393" cy="5.435" rx="45.393" ry="5.435" transform="translate(0 83.629)" fill="#3f3d56"/>
    <path id="Path_840" data-name="Path 840" d="M554.436,187.414s-2.269-.81-3.728,2.431a63.941,63.941,0,0,1-3.728,6.808l1.3.324s.324-2.269,1.135-2.594l-.324,2.918s9.726,3.4,14.1-.324l-.162-1.135s.648.162.648,1.135l.486-.486a8.712,8.712,0,0,0-1.945-2.269,5.718,5.718,0,0,1-1.4-3.483,4.324,4.324,0,0,0-6.381-3.325Z" transform="translate(-508.044 -169.455)" fill="#2f2e41"/>
    <path id="Path_841" data-name="Path 841" d="M535.586,141.075l-2.35-2.938-1.763-6.023,6.758-7.2s1.469-5.582.147-5.289-1.616,4.407-1.616,4.407l-8.521,6.611s.881,9.255,3.379,12.487l1.91,6.023Z" transform="translate(-491.588 -110.405)" fill="#ffb9b9"/>
    <path id="Path_842" data-name="Path 842" d="M617.507,141.075l2.351-2.938,1.763-6.023-6.758-7.2s-1.469-5.582-.147-5.289,1.616,4.407,1.616,4.407l8.521,6.611s-.881,9.255-3.379,12.487l-1.91,6.023Z" transform="translate(-567.045 -110.405)" fill="#ffb9b9"/>
    <circle id="Ellipse_273" data-name="Ellipse 273" cx="3.82" cy="3.82" r="3.82" transform="translate(43.41 20.533)" fill="#ffb9b9"/>
    <path id="Path_843" data-name="Path 843" d="M590.045,260.815s.147,3.085-.734,4.113-1.763,6.317,2.5,6.464,3.819-4.407,3.819-4.407l-.881-2.5a5.274,5.274,0,0,1-.881-3.673Z" transform="translate(-544.578 -234.406)" fill="#ffb9b9"/>
    <path id="Path_844" data-name="Path 844" d="M564.862,541.824l3.158.955s2.571-1.542,2.571-.073-.881,3.379-.588,4.7.881,4.554,0,4.554-2.644-5.729-2.644-5.729l-2.938-1.616Z" transform="translate(-523.362 -481.186)" fill="#ffb9b9"/>
    <path id="Path_845" data-name="Path 845" d="M588.835,710.671l-1.175,4.554s-1.028,1.322,0,1.91a2.984,2.984,0,0,1,1.075,1.367,2.513,2.513,0,0,0,2.467,1.493.992.992,0,0,0,1.026-.755,1.182,1.182,0,0,0-.227-.926,7.936,7.936,0,0,1-1.329-2.427l.441-5.142Z" transform="translate(-543.368 -629.466)" fill="#ffb9b9"/>
    <path id="Path_846" data-name="Path 846" d="M576.081,210.933a6.6,6.6,0,0,1,2.431-2.107c1.135-.324,1.3-1.945,1.3-1.945s2.918,3.242,4.7,3.4.162-3.89.162-3.89l-3.242-.81-3.08.324-2.431,1.621Z" transform="translate(-533.459 -185.902)" fill="#2f2e41"/>
    <path id="Path_847" data-name="Path 847" d="M458.188,438.894l-.588,1.175s-14.25,4.554-13.074,8.814,7.786,3.085,7.786,3.085l7.345,1.322.735-3.232-5.142-1.322,8.814-3.232.294,14.984-1.175,10.724,2.938.294s3.232-9.843,2.791-13.956c0,0,5.435-16.747,2.35-19.244S458.188,438.894,458.188,438.894Z" transform="translate(-418.01 -389.42)" fill="#2f2e41"/>
    <path id="Path_848" data-name="Path 848" d="M560.173,290.185l-2.292-2.77-1.553.712-1.616,5.142a5.459,5.459,0,0,0,.294,5.142s.294,1.763-.147,2.2-.588,3.232-.588,3.232l-1.91,3.673s10.871,1.91,14.1-.735c0,0-1.7-6.252-.668-8.162s1.175-4.837,0-6.16a20.035,20.035,0,0,1-2.417-4.776l-.711-.455Z" transform="translate(-512.771 -257.604)" fill="#cfcce0"/>
    <path id="Path_849" data-name="Path 849" d="M438.276,77.262h-1.409V75.853h-.128v1.409H435.33v.128h1.409V78.8h.128V77.39h1.409Z" transform="translate(-382.304 -66.614)" fill="#cfcce0"/>
    <path id="Path_850" data-name="Path 850" d="M328.344,53.077h-1.409V51.668h-.128v1.409H325.4V53.2h1.409v1.409h.128V53.2h1.409Z" transform="translate(-285.763 -45.375)" fill="#cfcce0"/>
    <path id="Path_851" data-name="Path 851" d="M381.111,1.409H379.7V0h-.128V1.409h-1.409v.128h1.409V2.946h.128V1.537h1.409Z" transform="translate(-332.102)" fill="#cfcce0"/>
  </g>
</svg>
